<?xml version="1.0" standalone="no"?>
<!DOCTYPE svg PUBLIC "-//W3C//DTD SVG 1.1//EN" "http://www.w3.org/Graphics/SVG/1.1/DTD/svg11.dtd" >
<svg xmlns="http://www.w3.org/2000/svg" xmlns:xlink="http://www.w3.org/1999/xlink" version="1.1">
<metadata>
Created by FontForge 20170910 at Wed Mar  8 15:47:42 2006
 By Jimmy Wärting
Part of the digitally encoded machine readable outline data for producing the Typefaces provided is copyrighted (c) 2003 - 2006 Linotype GmbH, www.linotype.com. All rights reserved. This software is the property of Linotype GmbH, and may not be reproduced, modified, disclosed or transferred without the express written approval of Linotype GmbH. Copyright (c) 1988, 1990, 1993 Adobe Systems Incorporated. All Rights Reserved. Helvetica is a trademark of Heidelberger Druckmaschinen AG, exclusively licensed through Linotype GmbH, and may be registered in certain jurisdictions. This typeface is original artwork of Linotype Design Studio. The design may be protected in certain jurisdictions.
</metadata>
<defs>
<font id="HelveticaNeueLTCom-BdIt" horiz-adv-x="259" >
  <font-face 
    font-family="HelveticaNeueLT Com 55 Roman"
    font-weight="700"
    font-style="italic"
    font-stretch="normal"
    units-per-em="1000"
    panose-1="2 11 8 4 2 2 2 9 2 4"
    ascent="714"
    descent="-286"
    x-height="517"
    cap-height="714"
    bbox="-166 -217 1129 986"
    underline-thickness="50"
    underline-position="-100"
    unicode-range="U+0020-FB02"
  />
<missing-glyph horiz-adv-x="512" 
d="M222 117v67h56v-67h-56zM225 234l-2 17q0 55 13 81t46 59q32 31 41 47.5t9 35.5q0 36 -22.5 60.5t-53.5 24.5t-53.5 -22t-28.5 -73l-50 8q7 71 44 104t91 33q53 0 88.5 -36t35.5 -95q0 -32 -12.5 -58.5t-50.5 -61.5q-37 -33 -43 -52t-6 -72h-46zM462 50v617h-412v-617
h412zM512 718v-718h-512v718h512z" />
    <glyph glyph-name="fi" unicode="fi" horiz-adv-x="611" 
d="M106 422h-84l20 95h85q10 49 22 87t33 64t55.5 39t90.5 13q23 0 46.5 -2t46.5 -6l-22 -102q-11 1 -23 2t-23 1q-26 0 -40.5 -6.5t-22 -19t-11.5 -30.5t-10 -40h101l-20 -95h-102l-89 -422h-142zM451 517h142l-110 -517h-142zM609 597h-142l26 117h142z" />
    <glyph glyph-name="fl" unicode="fl" horiz-adv-x="611" 
d="M106 422h-84l20 95h85q10 49 22 87t33 64t55.5 39t90.5 13q23 0 46.5 -2t46.5 -6l-22 -102q-11 1 -23 2t-23 1q-26 0 -40.5 -6.5t-22 -19t-11.5 -30.5t-10 -40h101l-20 -95h-102l-89 -422h-142zM492 714h142l-152 -714h-142z" />
    <glyph glyph-name="napostrophe" unicode="&#x2019;n" horiz-adv-x="631" 
d="M116 517h136l-16 -72h2q69 86 181 86q74 0 112.5 -35.5t38.5 -103.5q0 -8 -2 -20.5t-4 -25.5t-5 -24.5t-4 -18.5l-64 -303h-142l63 303q1 6 3 14.5t3 17.5t2 17.5t1 13.5q0 23 -21.5 38t-46.5 15q-32 0 -56.5 -12.5t-42.5 -32.5t-29 -46t-17 -53l-58 -275h-142zM96 807
h145l-15 -73q-6 -29 -21.5 -49.5t-34.5 -29.5t-44 -12t-55 -3l8 37q24 2 40 10t25 27h-67z" />
    <glyph glyph-name="IJ" unicode="IJ" horiz-adv-x="855" 
d="M147 714h158l-151 -714h-158zM760 203q-12 -53 -32.5 -93.5t-52 -69t-75 -43t-101.5 -14.5q-42 0 -81 9.5t-69.5 30t-48.5 53.5t-18 80q0 29 4 55.5t9 54.5h143q-5 -23 -9.5 -45t-4.5 -39q0 -33 23.5 -50t53.5 -17t48.5 10t30 26.5t17.5 39t12 46.5l99 477h158z" />
    <glyph glyph-name="ij" unicode="ij" horiz-adv-x="539" 
d="M257 597h-143l26 117h143zM98 517h143l-110 -517h-143zM537 597h-143l26 117h143zM172 -63q13 -1 25.5 -1.5t25.5 -0.5q14 0 23.5 10.5t15.5 25.5t9 30.5t6 26.5l103 489h142l-113 -536q-9 -41 -22 -72t-35 -51t-54.5 -30t-80.5 -10q-17 0 -34.5 2t-34.5 3z" />
    <glyph glyph-name=".notdef" horiz-adv-x="512" 
d="M222 117v67h56v-67h-56zM225 234l-2 17q0 55 13 81t46 59q32 31 41 47.5t9 35.5q0 36 -22.5 60.5t-53.5 24.5t-53.5 -22t-28.5 -73l-50 8q7 71 44 104t91 33q53 0 88.5 -36t35.5 -95q0 -32 -12.5 -58.5t-50.5 -61.5q-37 -33 -43 -52t-6 -72h-46zM462 50v617h-412v-617
h412zM512 718v-718h-512v718h512z" />
    <glyph glyph-name=".null" horiz-adv-x="500" 
 />
    <glyph glyph-name="nonmarkingreturn" horiz-adv-x="0" 
 />
    <glyph glyph-name="space" unicode=" " horiz-adv-x="278" 
 />
    <glyph glyph-name="percent" unicode="%" horiz-adv-x="963" 
d="M542 144q0 44 12 86t36 74.5t60.5 52t84.5 19.5q75 0 116.5 -38t41.5 -114q0 -46 -13.5 -89t-39.5 -76t-64 -53t-87 -20q-73 0 -110 44.5t-37 113.5zM644 126q0 -28 11.5 -46.5t40.5 -18.5q27 0 45 21t29 50t16 60.5t5 52.5t-12.5 38.5t-35.5 17.5q-29 0 -48.5 -19
t-30.5 -46t-15.5 -57t-4.5 -53zM713 722h85l-537 -744h-86zM175 464q0 -28 11.5 -46.5t40.5 -18.5q27 0 45 21t29 50t16 60.5t5 52.5t-12.5 38.5t-35.5 17.5q-29 0 -48.5 -19t-30.5 -46t-15.5 -57t-4.5 -53zM73 482q0 44 12 86t36 74.5t60.5 52t84.5 19.5q75 0 116.5 -38
t41.5 -114q0 -46 -13.5 -89t-39.5 -76t-64 -53t-87 -20q-73 0 -110 44.5t-37 113.5z" />
    <glyph glyph-name="ampersand" unicode="&#x26;" horiz-adv-x="685" 
d="M288 554q0 -29 12 -53t26 -47q15 7 32.5 17.5t33 24t26 29.5t10.5 34q0 31 -18 49.5t-45 18.5q-30 0 -53.5 -18t-23.5 -55zM427 56q-44 -36 -89.5 -53t-102.5 -17q-43 0 -82.5 13.5t-70 38.5t-48.5 61.5t-18 83.5q0 45 16 80.5t42.5 63t61.5 48t73 35.5
q-17 29 -32.5 60.5t-15.5 65.5q0 44 14.5 78.5t41 58.5t62.5 36.5t79 12.5q37 0 71 -10t59.5 -30.5t41 -51t15.5 -70.5q0 -37 -15 -66t-38.5 -52.5t-53 -42t-57.5 -33.5l77 -124q20 21 32.5 47t19.5 54h127q-11 -58 -40 -110.5t-73 -92.5l91 -140h-156zM267 315
q-21 -12 -41.5 -24t-36.5 -26.5t-26 -34t-10 -47.5q0 -18 8 -33t21.5 -25.5t30.5 -16t34 -5.5q33 0 63 16.5t55 36.5z" />
    <glyph glyph-name="quoteright" unicode="&#x2019;" horiz-adv-x="278" 
d="M142 714h158l-32 -154q-7 -33 -19.5 -63t-35 -52.5t-56.5 -36t-82 -15.5l15 70q44 8 62.5 31t26.5 66h-69z" />
    <glyph glyph-name="parenleft" unicode="(" horiz-adv-x="296" 
d="M387 731q-65 -86 -109 -165t-70.5 -157t-38 -158.5t-11.5 -169.5q0 -66 11.5 -132t26.5 -131h-108q-14 31 -25 73t-19.5 86.5t-13 86.5t-4.5 74q0 93 16 171t46.5 148t74 136.5t99.5 137.5h125z" />
    <glyph glyph-name="parenright" unicode=")" horiz-adv-x="296" 
d="M-112 -182q65 86 109 165t70.5 157t38 158.5t11.5 169.5q0 66 -11.5 132t-26.5 131h108q13 -31 24.5 -73t20 -86.5t13 -87t4.5 -73.5q0 -93 -16 -171t-46.5 -148t-74.5 -137t-99 -137h-125z" />
    <glyph glyph-name="asterisk" unicode="*" horiz-adv-x="407" 
d="M289 582l121 23l14 -79l-120 -18l57 -105l-72 -39l-55 109l-86 -97l-58 56l89 92l-108 52l34 73l109 -55l17 120l82 -4z" />
    <glyph glyph-name="plus" unicode="+" horiz-adv-x="600" 
d="M48 306h199v199h107v-199h199v-107h-199v-199h-107v199h-199v107z" />
    <glyph glyph-name="comma" unicode="," horiz-adv-x="278" 
d="M19 154h158q-9 -36 -15.5 -73.5t-15 -72.5t-21.5 -66t-35 -54.5t-55.5 -38t-82.5 -16.5l15 71q44 7 62.5 30t26.5 66h-69z" />
    <glyph glyph-name="hyphen" unicode="-" horiz-adv-x="407" 
d="M53 334h301l-26 -122h-301z" />
    <glyph glyph-name="period" unicode="." horiz-adv-x="278" 
d="M20 154h158l-33 -154h-158z" />
    <glyph glyph-name="slash" unicode="/" horiz-adv-x="389" 
d="M277 731h114l-279 -748h-114z" />
    <glyph glyph-name="zero" unicode="0" horiz-adv-x="556" 
d="M138 226q0 -25 4.5 -47.5t15.5 -39t30 -26.5t48 -10q36 0 63.5 20.5t47.5 53.5t34 74t22.5 82t12 77.5t3.5 60.5q0 26 -5.5 49t-18 40t-32 27t-46.5 10q-35 0 -62 -20.5t-47 -53.5t-33.5 -74.5t-21.5 -82.5t-11.5 -78.5t-3.5 -61.5zM-4 255q0 49 9 102.5t27 104.5
t45.5 96.5t64.5 80.5t83 55t102 20q59 0 103 -19.5t73 -54.5t43.5 -83.5t14.5 -107.5q0 -77 -20.5 -158.5t-63 -149.5t-107 -111.5t-152.5 -43.5q-60 0 -102 22t-69 59t-39 85.5t-12 102.5z" />
    <glyph glyph-name="one" unicode="1" horiz-adv-x="556" 
d="M323 0h-151l96 454h-171l23 107q39 2 73.5 8.5t64 22t54 41.5t43.5 67h116z" />
    <glyph glyph-name="two" unicode="2" horiz-adv-x="556" 
d="M44 448q5 63 27 112.5t58.5 83.5t86 52t109.5 18q48 0 90 -12.5t74 -38.5t50.5 -66t18.5 -94q0 -51 -22 -91.5t-57 -73t-79 -59.5t-88.5 -52.5t-84.5 -50.5t-67 -54h345l-28 -122h-519q4 66 29.5 113.5t64.5 84t88 65.5t100 56q25 15 56 31t57.5 36.5t44.5 46.5t18 61
q0 53 -31.5 75.5t-76.5 22.5q-29 0 -52.5 -11.5t-40 -31.5t-26 -46t-10.5 -55h-135z" />
    <glyph glyph-name="three" unicode="3" horiz-adv-x="556" 
d="M235 417h43q23 0 46.5 4t43 14.5t32 29t12.5 45.5q0 22 -8 38.5t-21 27.5t-30.5 16t-36.5 5q-60 0 -90.5 -30t-43.5 -90h-135q16 115 88 176t183 61q42 0 83.5 -9.5t74 -31t53 -56.5t20.5 -86q0 -62 -37 -105.5t-95 -55.5v-2q54 -17 76 -53.5t22 -89.5q0 -62 -23 -107
t-62.5 -74.5t-92 -43.5t-110.5 -14q-128 0 -190.5 64.5t-54.5 189.5h135q-7 -62 22 -99.5t92 -37.5q57 0 96 33t39 94q0 46 -28.5 66.5t-70.5 20.5h-51z" />
    <glyph glyph-name="four" unicode="4" horiz-adv-x="556" 
d="M449 279h93l-25 -117h-93l-35 -162h-135l35 162h-325l26 129l410 409h138zM314 279l57 269h-2l-263 -269h208z" />
    <glyph glyph-name="five" unicode="5" horiz-adv-x="556" 
d="M531 583h-298l-46 -149l2 -2q12 10 24.5 18t28.5 14t36.5 9t47.5 3q39 0 74 -14.5t62 -41.5t43 -65.5t16 -87.5q0 -65 -22 -117t-61 -88.5t-92.5 -56t-116.5 -19.5q-111 0 -176.5 52.5t-69.5 165.5h137q1 -52 34.5 -76.5t84.5 -24.5q29 0 54.5 11t44.5 30.5t30 46.5
t11 59q0 59 -31 89t-88 30q-37 0 -64 -14t-48 -45h-128l122 390h414z" />
    <glyph glyph-name="six" unicode="6" horiz-adv-x="556" 
d="M440 519q-1 40 -25.5 64t-63.5 24q-41 0 -71 -20t-51 -51t-35.5 -67.5t-25.5 -70.5l2 -2q27 39 68 56.5t86 17.5q47 0 85.5 -15t65.5 -43t41.5 -67.5t14.5 -88.5q0 -56 -20.5 -105.5t-57 -86t-86 -57.5t-106.5 -21q-67 0 -114 21.5t-77 59.5t-43.5 90t-13.5 114
q0 92 23 172.5t67.5 140.5t108 95t144.5 35q46 0 85.5 -11.5t68.5 -35t47 -60.5t20 -88h-137zM150 221q0 -51 30 -84.5t77 -33.5q62 0 97 40.5t35 101.5q0 59 -30.5 88.5t-80.5 29.5q-30 0 -53.5 -11.5t-40 -31t-25.5 -45.5t-9 -54z" />
    <glyph glyph-name="seven" unicode="7" horiz-adv-x="556" 
d="M565 578q-60 -50 -114.5 -118.5t-99.5 -145.5t-79 -158t-53 -156h-151q18 72 53 151t81 154.5t99 143.5t109 119h-344l28 132h497z" />
    <glyph glyph-name="eight" unicode="8" horiz-adv-x="556" 
d="M195 509q0 -26 11 -43t28 -28t37 -15.5t38 -4.5q22 0 42.5 6.5t36.5 18.5t25.5 29.5t9.5 39.5q0 25 -9 43t-24.5 29.5t-35.5 17t-42 5.5q-55 0 -86 -26t-31 -72zM68 509q0 48 20.5 86t56 64.5t83.5 40.5t104 14q50 0 90 -15t68.5 -40.5t44 -59.5t15.5 -73
q0 -25 -10 -50.5t-27.5 -47t-42.5 -37t-55 -21.5v-2q22 -5 42 -20t35 -37t23.5 -48t8.5 -52q0 -54 -24 -95.5t-64 -70.5t-91 -44t-105 -15q-57 0 -104.5 15.5t-82 42.5t-54 65t-19.5 83q0 40 13.5 70.5t37 53t55.5 37.5t69 24v2q-36 17 -61.5 51t-25.5 79zM122 201
q0 -25 10 -45t27.5 -34t39.5 -21.5t46 -7.5q63 0 100 31.5t37 86.5q0 28 -11 49.5t-29 35t-40 20.5t-44 7q-28 0 -53 -7.5t-43.5 -23t-29 -38.5t-10.5 -53z" />
    <glyph glyph-name="nine" unicode="9" horiz-adv-x="556" 
d="M125 181q1 -40 25.5 -64t63.5 -24q41 0 71 20t51 50.5t35.5 67.5t25.5 71l-2 2q-27 -39 -68 -56.5t-86 -17.5q-47 0 -85.5 15t-65.5 43t-41.5 67.5t-14.5 88.5q0 56 20.5 105.5t57 86t86 57.5t106.5 21q67 0 114 -21.5t77 -59.5t43.5 -90t13.5 -114q0 -92 -23 -172.5
t-67.5 -140.5t-108 -95t-144.5 -35q-46 0 -85.5 11.5t-68.5 35t-47 60.5t-20 88h137zM415 479q0 25 -8 47t-22.5 37.5t-34 24.5t-42.5 9q-62 0 -97 -40.5t-35 -101.5q0 -59 30.5 -88.5t80.5 -29.5q30 0 53.5 11.5t40 31t25.5 45t9 54.5z" />
    <glyph glyph-name="colon" unicode=":" horiz-adv-x="278" 
d="M219 354h-158l33 154h158zM20 154h158l-33 -154h-158z" />
    <glyph glyph-name="semicolon" unicode=";" horiz-adv-x="278" 
d="M94 508h158l-33 -154h-158zM19 154h158q-9 -36 -15.5 -73.5t-15 -72.5t-21.5 -66t-35 -54.5t-55.5 -38t-82.5 -16.5l15 71q44 7 62.5 30t26.5 66h-69z" />
    <glyph glyph-name="less" unicode="&#x3c;" horiz-adv-x="600" 
d="M554 399l-367 -146l367 -146v-115l-508 202v118l508 202v-115z" />
    <glyph glyph-name="equal" unicode="=" horiz-adv-x="600" 
d="M553 92h-505v107h505v-107zM553 306h-505v107h505v-107z" />
    <glyph glyph-name="greater" unicode="&#x3e;" horiz-adv-x="600" 
d="M46 107l367 146l-367 146v115l508 -202v-118l-508 -202v115z" />
    <glyph glyph-name="question" unicode="?" horiz-adv-x="574" 
d="M156 154h158l-33 -154h-158zM74 491q3 60 25.5 105t60 75t86.5 45t106 15q43 0 82.5 -11t69.5 -33.5t48 -57.5t18 -83q0 -36 -11.5 -64t-30.5 -51t-44 -41t-53 -34q-23 -12 -42 -24.5t-34 -28.5t-25 -36t-13 -47h-132q7 49 20 82t33.5 56t48 41t63.5 37q29 17 50 41
t21 59q0 40 -26 59t-61 19q-27 0 -47.5 -10t-35 -27t-23.5 -39.5t-12 -46.5h-142z" />
    <glyph glyph-name="at" unicode="@" horiz-adv-x="800" 
d="M559 287q-3 -10 -5.5 -21.5t-2.5 -21.5t4 -16.5t13 -6.5q21 0 41.5 13.5t37 38t27 58.5t10.5 74q0 60 -21 105.5t-57.5 77t-85.5 47.5t-105 16q-65 0 -117 -22.5t-89 -62t-57 -94t-20 -117.5q0 -66 22 -119.5t61 -92t93 -59.5t119 -21q63 0 119.5 21.5t95.5 60.5h84
q-51 -78 -131 -120t-174 -42q-80 0 -150 28.5t-122.5 78.5t-82.5 118.5t-30 148.5q0 79 30 147.5t82 118.5t121 79t147 29q68 0 131 -22t111 -61.5t77 -96t29 -125.5q0 -77 -27.5 -132t-66 -90t-78 -51.5t-63.5 -16.5q-32 0 -51.5 16t-21.5 41h-2q-18 -30 -47 -44t-61 -14
t-60.5 13.5t-50 37t-34 54.5t-12.5 66q0 47 15.5 93t44 82t68.5 58t90 22q32 0 66 -15.5t51 -54.5l16 54h82zM291 319q0 -40 21.5 -64.5t56.5 -24.5q27 0 49.5 14t39 35.5t25.5 48.5t9 53q0 37 -22.5 61t-54.5 24q-27 0 -50 -13.5t-39.5 -35t-25.5 -47.5t-9 -51z" />
    <glyph glyph-name="A" unicode="A" horiz-adv-x="685" 
d="M345 714h161l119 -714h-156l-23 159h-267l-90 -159h-166zM241 276h191l-35 284h-2z" />
    <glyph glyph-name="B" unicode="B" horiz-adv-x="722" 
d="M237 425h178q43 0 74.5 23.5t31.5 70.5q0 41 -22.5 57t-60.5 16h-166zM146 714h300q54 0 97 -7t73 -25.5t46 -51t16 -83.5q0 -30 -9 -58.5t-26.5 -51t-42.5 -37.5t-56 -19v-2q51 -14 78.5 -53.5t27.5 -91.5q0 -58 -22.5 -102t-60.5 -73t-87 -44t-103 -15h-381zM173 122
h197q54 0 88.5 29t34.5 86q0 28 -11.5 44t-29.5 24.5t-40 10.5t-43 2h-154z" />
    <glyph glyph-name="C" unicode="C" horiz-adv-x="741" 
d="M556 466q0 66 -35.5 99.5t-92.5 33.5q-60 0 -104.5 -27.5t-73 -71t-42.5 -97t-14 -104.5q0 -37 9.5 -70t29 -58.5t50 -40.5t73.5 -15q33 0 61 11.5t50 31t37 45.5t20 54h157q-24 -75 -56.5 -127t-73 -84.5t-90 -47.5t-107.5 -15q-151 0 -234 82t-83 234q0 87 27 165
t77.5 137.5t123 94.5t162.5 35q62 0 115 -17t91.5 -50.5t59.5 -83t20 -114.5h-157z" />
    <glyph glyph-name="D" unicode="D" horiz-adv-x="741" 
d="M181 132h121q60 0 106.5 22t78 60t48 88t16.5 107q0 39 -8.5 70.5t-27.5 54.5t-48.5 35.5t-71.5 12.5h-118zM147 714h258q150 0 226.5 -73t76.5 -205q0 -93 -26 -173t-77.5 -138.5t-129 -91.5t-180.5 -33h-299z" />
    <glyph glyph-name="E" unicode="E" horiz-adv-x="667" 
d="M146 714h545l-27 -132h-388l-32 -153h359l-26 -122h-359l-37 -175h394l-28 -132h-551z" />
    <glyph glyph-name="F" unicode="F" horiz-adv-x="593" 
d="M147 714h508l-29 -132h-350l-35 -165h306l-26 -122h-305l-63 -295h-157z" />
    <glyph glyph-name="G" unicode="G" horiz-adv-x="759" 
d="M536 73h-2q-35 -48 -82.5 -69t-97.5 -21q-151 0 -234 82t-83 234q0 87 27 165t77.5 137.5t123 94.5t162.5 35q63 0 118 -15t96 -46t65 -78.5t24 -113.5h-157q-3 65 -41 93t-104 28q-60 0 -104.5 -27.5t-73 -71t-42.5 -97t-14 -104.5q0 -37 9.5 -70t29 -58.5t50 -40.5
t73.5 -15q45 0 77.5 11.5t56 31.5t39 48.5t25.5 62.5h-165l25 117h303l-82 -386h-99v73z" />
    <glyph glyph-name="H" unicode="H" horiz-adv-x="741" 
d="M147 714h158l-58 -274h289l58 274h158l-151 -714h-158l65 308h-289l-65 -308h-158z" />
    <glyph glyph-name="I" unicode="I" horiz-adv-x="296" 
d="M147 714h158l-151 -714h-158z" />
    <glyph glyph-name="J" unicode="J" horiz-adv-x="556" 
d="M459 203q-12 -53 -32.5 -93.5t-52 -69t-75 -43t-101.5 -14.5q-42 0 -81 9.5t-69.5 30t-48.5 53.5t-18 80q0 29 4 55.5t9 54.5h143q-5 -23 -9.5 -45t-4.5 -39q0 -33 23.5 -50t53.5 -17t48.5 10t30 26.5t17.5 39t12 46.5l99 477h158z" />
    <glyph glyph-name="K" unicode="K" horiz-adv-x="722" 
d="M145 714h157l-62 -299h2l324 299h208l-343 -294l219 -420h-177l-163 321l-109 -95l-47 -226h-158z" />
    <glyph glyph-name="L" unicode="L" horiz-adv-x="574" 
d="M146 714h158l-122 -582h345l-28 -132h-503z" />
    <glyph glyph-name="M" unicode="M" horiz-adv-x="907" 
d="M147 714h217l55 -517h2l275 517h219l-151 -714h-147l130 568h-2l-302 -568h-120l-69 568h-2l-107 -568h-149z" />
    <glyph glyph-name="N" unicode="N" horiz-adv-x="741" 
d="M147 714h162l194 -508h2l102 508h144l-151 -714h-157l-196 501h-2l-102 -501h-147z" />
    <glyph glyph-name="O" unicode="O" horiz-adv-x="778" 
d="M37 299q0 87 27 165t77.5 137.5t123 94.5t162.5 35q72 0 131 -19.5t100 -58.5t63.5 -96t22.5 -132q0 -88 -26 -168t-75.5 -141t-122 -97t-166.5 -36q-151 0 -234 82t-83 234zM194 299q0 -37 9.5 -70t29 -58.5t50 -40.5t73.5 -15q58 0 101 27.5t72 71t43.5 96.5t14.5 104
q0 37 -8.5 71t-27.5 59t-49.5 40t-73.5 15q-60 0 -104.5 -27.5t-73 -71t-42.5 -97t-14 -104.5z" />
    <glyph glyph-name="P" unicode="P" horiz-adv-x="667" 
d="M145 714h286q54 0 99.5 -10.5t78.5 -34.5t51.5 -64t18.5 -99t-22.5 -105.5t-61 -78.5t-89 -49t-105.5 -17h-194l-54 -256h-157zM233 378h160q60 0 94.5 30.5t34.5 94.5q0 27 -9.5 44.5t-25.5 27t-35.5 13.5t-40.5 4h-134z" />
    <glyph glyph-name="Q" unicode="Q" horiz-adv-x="778" 
d="M598 -79l-84 96q-35 -17 -75 -25.5t-85 -8.5q-151 0 -234 82t-83 234q0 87 27 165t77.5 137.5t123 94.5t162.5 35q72 0 131 -19.5t100 -58.5t63.5 -96t22.5 -132q0 -103 -35 -194t-103 -154l76 -86zM446 258l63 -71q39 45 58.5 106.5t19.5 120.5q0 37 -8.5 71t-27.5 59
t-49.5 40t-73.5 15q-60 0 -104.5 -27.5t-73 -71t-42.5 -97t-14 -104.5q0 -37 9.5 -70t29 -58.5t50 -40.5t73.5 -15q32 0 62 11l-56 63z" />
    <glyph glyph-name="R" unicode="R" horiz-adv-x="722" 
d="M236 391h145q31 0 60.5 6.5t52 20t36 35t13.5 51.5q0 29 -9.5 46.5t-25.5 26.5t-37 12t-44 3h-149zM146 714h341q48 1 87.5 -9t67.5 -32t43 -58t15 -88q0 -36 -12 -69t-34 -58.5t-52 -42.5t-66 -22v-2q22 -7 36.5 -19.5t22.5 -29t11.5 -36.5t3.5 -41q0 -24 -2.5 -57.5
t-2.5 -66.5q0 -24 2 -45.5t8 -37.5h-153q-3 13 -5 24.5t-2 23.5q0 36 4 72.5t4 72.5q0 26 -7.5 42.5t-21 26.5t-32.5 13.5t-42 3.5h-148l-59 -279h-157z" />
    <glyph glyph-name="S" unicode="S" horiz-adv-x="648" 
d="M154 237q-2 -38 9 -63.5t32 -40.5t50 -21.5t63 -6.5q24 0 48 6t43.5 18t32 31t12.5 46q0 26 -16 43t-41.5 28.5t-58 20.5t-65.5 19q-34 10 -66 24.5t-57.5 36t-41 53.5t-15.5 78q0 60 25 102t65 68.5t90.5 39t102.5 12.5q55 0 103.5 -12.5t85 -40.5t58 -71.5t21.5 -105.5
h-149q1 30 -8.5 50.5t-27 33.5t-41.5 18.5t-51 5.5q-23 0 -45 -4.5t-40 -15t-29 -27.5t-11 -42q0 -27 19.5 -44t47 -28.5t56.5 -18t47 -10.5q42 -11 77 -25.5t60.5 -37.5t39.5 -56t14 -81q0 -64 -26.5 -109t-68 -73t-93.5 -41t-103 -13q-149 0 -223 62t-74 192h149z" />
    <glyph glyph-name="T" unicode="T" horiz-adv-x="611" 
d="M278 582h-224l28 132h596l-28 -132h-214l-122 -582h-158z" />
    <glyph glyph-name="U" unicode="U" horiz-adv-x="741" 
d="M663 299q-16 -77 -40.5 -136t-64.5 -99t-98 -60.5t-141 -20.5q-52 0 -102.5 11t-90 36.5t-64 65.5t-24.5 99q0 27 5 53.5t10 52.5l87 413h157l-87 -413q-2 -9 -4.5 -20.5t-5 -24.5t-4 -24.5t-1.5 -20.5q0 -14 5.5 -30.5t20.5 -31t41 -24.5t67 -10q48 0 78 12.5t49 35
t29 55t19 73.5l89 423h157z" />
    <glyph glyph-name="V" unicode="V" horiz-adv-x="630" 
d="M331 0h-177l-82 714h157l47 -536h2l271 536h163z" />
    <glyph glyph-name="W" unicode="W" horiz-adv-x="944" 
d="M678 0h-156l-18 510h-2l-222 -510h-158l-49 714h157l10 -523h2l226 523h150l18 -521h2l218 521h157z" />
    <glyph glyph-name="X" unicode="X" horiz-adv-x="667" 
d="M255 376l-167 338h171l101 -236l183 236h186l-297 -345l177 -369h-173l-112 255l-204 -255h-190z" />
    <glyph glyph-name="Y" unicode="Y" horiz-adv-x="648" 
d="M232 277l-171 437h161l107 -304l222 304h185l-348 -444l-55 -270h-158z" />
    <glyph glyph-name="Z" unicode="Z" horiz-adv-x="648" 
d="M-16 130l477 452h-366l29 132h564l-26 -126l-481 -456h403l-26 -132h-601z" />
    <glyph glyph-name="bracketleft" unicode="[" horiz-adv-x="333" 
d="M155 731h258l-24 -112h-125l-145 -689h126l-24 -112h-258z" />
    <glyph glyph-name="backslash" unicode="\" horiz-adv-x="389" 
d="M391 -17h-114l-279 748h114z" />
    <glyph glyph-name="bracketright" unicode="]" horiz-adv-x="333" 
d="M146 -182h-258l24 112h125l145 689h-126l24 112h258z" />
    <glyph glyph-name="asciicircum" unicode="^" horiz-adv-x="600" 
d="M233 700h134l172 -385h-117l-122 275l-122 -275h-117z" />
    <glyph glyph-name="underscore" unicode="_" horiz-adv-x="500" 
d="M0 -75h500v-50h-500v50z" />
    <glyph glyph-name="quoteleft" unicode="&#x2018;" horiz-adv-x="278" 
d="M236 393h-158l32 154q7 33 19.5 62.5t35 52t56.5 36.5t82 16l-15 -70q-44 -8 -62.5 -31t-26.5 -66h69z" />
    <glyph glyph-name="a" unicode="a" horiz-adv-x="574" 
d="M60 360q7 49 29.5 81.5t56 52.5t74.5 28.5t85 8.5q34 0 72.5 -5t70.5 -19.5t52.5 -41.5t19.5 -70q0 -17 -3 -40t-8 -47l-46 -208q-4 -14 -5.5 -34.5t-1.5 -35.5t5 -30h-142v51q-29 -33 -71.5 -49t-86.5 -16q-42 0 -73.5 11t-52.5 30t-31.5 43.5t-10.5 51.5q0 75 52.5 120
t145.5 56q50 6 87 9t61.5 9.5t36.5 19t12 37.5q0 19 -9 31.5t-22.5 19.5t-29.5 9.5t-29 2.5q-38 0 -68 -18.5t-37 -57.5h-133zM360 248q-27 -16 -58 -19.5t-62 -5.5q-20 -2 -39 -6.5t-33.5 -13.5t-23.5 -24.5t-9 -39.5q0 -29 23.5 -43.5t54.5 -14.5q33 0 55.5 10.5t38 27
t24.5 37.5t15 42z" />
    <glyph glyph-name="b" unicode="b" horiz-adv-x="611" 
d="M138 714h142l-53 -252h2q33 36 67.5 52.5t85.5 16.5q49 0 84.5 -17.5t58 -47.5t33 -70t10.5 -85q0 -60 -17 -118.5t-51 -104t-84 -74t-116 -28.5q-54 0 -98.5 20.5t-63.5 74.5h-2l-17 -81h-131zM325 424q-42 0 -71 -22t-47.5 -55t-27 -72t-8.5 -73q0 -48 27 -78.5
t76 -30.5q40 0 69 21t47.5 53.5t27 70.5t8.5 71q0 49 -23 82t-78 33z" />
    <glyph glyph-name="c" unicode="c" horiz-adv-x="556" 
d="M392 338q0 46 -24 66t-71 20q-41 0 -68.5 -21.5t-44.5 -54.5t-24.5 -71.5t-7.5 -71.5q0 -23 5 -43.5t17 -35.5t30.5 -24t45.5 -9q48 0 75.5 29t39.5 67h142q-32 -97 -99 -150t-168 -53q-109 0 -169.5 54t-60.5 168q0 66 19.5 124.5t57 103t91.5 70t124 25.5q47 0 89 -11
t73.5 -34t50 -60t19.5 -88h-142z" />
    <glyph glyph-name="d" unicode="d" horiz-adv-x="611" 
d="M307 424q-40 0 -69.5 -21t-48.5 -53t-28 -70t-9 -72q0 -23 6.5 -44t19 -37t31.5 -25t44 -9q40 0 69 21.5t48.5 54.5t29 71.5t9.5 71.5q0 50 -25 81t-77 31zM364 64l-2 2q-24 -42 -65.5 -61t-89.5 -19q-94 0 -145.5 55t-51.5 149q0 64 17 125t52 109t88 77.5t125 29.5
q22 0 44.5 -5t42 -15t35 -26t23.5 -37h2l57 266h142l-151 -714h-137z" />
    <glyph glyph-name="e" unicode="e" horiz-adv-x="574" 
d="M399 314q0 20 -3.5 39.5t-13.5 35.5t-29 25.5t-50 9.5q-30 0 -53 -9t-40 -24t-28.5 -35t-19.5 -42h237zM147 224q-1 -10 -1 -17v-13q0 -45 28 -73t86 -28q21 0 37.5 6.5t29 16.5t22 23t17.5 25h142q-17 -44 -40 -77t-55 -55.5t-74.5 -34t-98.5 -11.5q-52 0 -94.5 14.5
t-72.5 43t-46.5 71t-16.5 97.5q0 62 20 119.5t56.5 102t89.5 71t119 26.5q54 0 98.5 -14t76 -42.5t49 -71t17.5 -98.5q0 -41 -8 -81h-381z" />
    <glyph glyph-name="f" unicode="f" horiz-adv-x="352" 
d="M106 422h-84l20 95h85q10 49 22 87t33 64t55.5 39t90.5 13q23 0 46.5 -2t46.5 -6l-22 -102q-11 1 -23 2t-23 1q-26 0 -40.5 -6.5t-22 -19t-11.5 -30.5t-10 -40h101l-20 -95h-102l-89 -422h-142z" />
    <glyph glyph-name="g" unicode="g" horiz-adv-x="611" 
d="M487 27q-13 -59 -35 -101t-56.5 -69t-82 -40t-111.5 -13q-39 0 -78.5 9t-71 29t-51.5 52t-20 79h142q-1 -20 7 -34t21.5 -23t30.5 -13t34 -4q34 0 56.5 14t38.5 38t27 57t22 71l-2 2q-55 -73 -142 -73q-46 0 -83 15t-62.5 43t-39.5 66.5t-14 86.5q0 57 17.5 112.5t51 100
t82 72t110.5 27.5q54 0 95 -21t63 -72h2l16 79h136zM304 424q-36 0 -63 -19t-45 -47.5t-27.5 -63t-9.5 -65.5q0 -23 5.5 -43.5t17.5 -36.5t30 -25t43 -9q38 0 66.5 18.5t47 47t28 63.5t9.5 68q0 49 -25 80.5t-77 31.5z" />
    <glyph glyph-name="h" unicode="h" horiz-adv-x="611" 
d="M137 714h142l-53 -257h2q8 11 23 24t36 24t49 18.5t63 7.5q74 0 112.5 -35.5t38.5 -103.5q0 -8 -2 -20.5t-4 -25.5t-5 -24.5t-4 -18.5l-64 -303h-142l63 303q1 6 3 14.5t3 17.5t2 17.5t1 13.5q0 23 -21.5 38t-46.5 15q-32 0 -56.5 -12.5t-42.5 -32.5t-29 -46t-17 -53
l-58 -275h-142z" />
    <glyph glyph-name="i" unicode="i" 
d="M257 597h-143l26 117h143zM98 517h143l-110 -517h-143z" />
    <glyph glyph-name="j" unicode="j" 
d="M257 597h-143l26 117h143zM-108 -63q13 -1 25.5 -1.5t25.5 -0.5q14 0 23.5 10.5t15.5 25.5t9 30.5t6 26.5l103 489h142l-113 -536q-9 -41 -22 -72t-35 -51t-54.5 -30t-80.5 -10q-17 0 -34.5 2t-34.5 3z" />
    <glyph glyph-name="k" unicode="k" horiz-adv-x="556" 
d="M138 714h142l-82 -388l2 -2l204 193h175l-232 -196l133 -321h-156l-85 231l-74 -63l-35 -168h-142z" />
    <glyph glyph-name="l" unicode="l" 
d="M140 714h142l-152 -714h-142z" />
    <glyph glyph-name="m" unicode="m" horiz-adv-x="907" 
d="M96 517h136l-16 -73h2q32 44 78.5 65.5t102.5 21.5q47 0 81.5 -21.5t43.5 -68.5q13 20 33 36.5t43 28.5t48.5 18.5t50.5 6.5q30 0 58.5 -8t50.5 -24t35 -41t13 -58q0 -24 -5 -48.5t-10 -47.5l-64 -304h-142l68 327q2 11 3 20t1 17q0 23 -17.5 39t-44.5 16
q-29 0 -51 -13.5t-38.5 -34t-27.5 -45.5t-16 -49l-58 -277h-143l68 327q2 11 3 20t1 17q0 23 -17.5 39t-44.5 16q-29 0 -51 -13.5t-38.5 -34t-27.5 -45.5t-16 -49l-58 -277h-142z" />
    <glyph glyph-name="n" unicode="n" horiz-adv-x="611" 
d="M96 517h136l-16 -72h2q69 86 181 86q74 0 112.5 -35.5t38.5 -103.5q0 -8 -2 -20.5t-4 -25.5t-5 -24.5t-4 -18.5l-64 -303h-142l63 303q1 6 3 14.5t3 17.5t2 17.5t1 13.5q0 23 -21.5 38t-46.5 15q-32 0 -56.5 -12.5t-42.5 -32.5t-29 -46t-17 -53l-58 -275h-142z" />
    <glyph glyph-name="o" unicode="o" horiz-adv-x="593" 
d="M152 209q0 -23 6.5 -44t19.5 -37t32 -25.5t44 -9.5q40 0 68.5 21.5t47 54t27.5 70.5t9 71q0 52 -24 83t-80 31q-39 0 -67.5 -21.5t-46.5 -53.5t-27 -69.5t-9 -70.5zM10 209q0 66 20.5 124.5t59 102.5t93.5 69.5t124 25.5q53 0 97.5 -13.5t76.5 -40.5t49.5 -68t17.5 -97
q0 -68 -20.5 -127.5t-59.5 -103.5t-95 -69.5t-126 -25.5q-108 0 -172.5 56t-64.5 167z" />
    <glyph glyph-name="p" unicode="p" horiz-adv-x="611" 
d="M90 517h137l-14 -64l2 -2q24 42 65.5 61t89.5 19q94 0 145 -55t51 -149q0 -64 -17 -125t-52 -109t-87.5 -77.5t-124.5 -29.5q-23 0 -45 5t-41.5 15t-35 26t-23.5 37h-3l-54 -251h-142zM323 424q-40 0 -69 -21.5t-48.5 -54.5t-29 -71.5t-9.5 -71.5q0 -50 25 -81t77 -31
q40 0 69.5 21t48.5 53t28 70t9 72q0 23 -6.5 44t-19 36.5t-31.5 25t-44 9.5z" />
    <glyph glyph-name="q" unicode="q" horiz-adv-x="611" 
d="M308 424q-42 0 -71.5 -21t-48 -53.5t-27.5 -70.5t-9 -71q0 -24 5.5 -45t18 -36.5t32.5 -24.5t49 -9q38 0 67 21.5t48.5 54.5t29 72t9.5 74q0 48 -27 78.5t-76 30.5zM443 -182h-142l47 223h-2q-23 -25 -57.5 -40t-88.5 -15q-50 0 -86 17.5t-59 47.5t-34 70t-11 85
q0 60 17 118.5t51 104t84 74t116 28.5q54 0 98.5 -20.5t63.5 -74.5h2l17 81h131z" />
    <glyph glyph-name="r" unicode="r" horiz-adv-x="389" 
d="M96 517h135l-21 -93l2 -2q24 54 72.5 81.5t105.5 27.5q21 0 44 -3l-29 -138l-30 6t-30 3q-41 0 -69.5 -14t-48 -38t-31 -54.5t-18.5 -63.5l-48 -229h-142z" />
    <glyph glyph-name="s" unicode="s" horiz-adv-x="519" 
d="M352 366q-1 33 -20 51.5t-60 18.5q-38 0 -62.5 -11.5t-24.5 -39.5q0 -17 14.5 -29t50.5 -23l71 -23q28 -9 53 -21.5t43.5 -29.5t29 -40.5t10.5 -56.5q0 -48 -21.5 -81.5t-56.5 -54.5t-79 -30.5t-89 -9.5q-38 0 -77 8t-71 27t-52 50t-20 76v21h132v-17q0 -18 9 -31
t23.5 -21.5t33 -13t36.5 -4.5q16 0 32 3t29 10.5t21 19t8 29.5q0 27 -14 38t-37 19l-109 35q-27 9 -47.5 19t-35 25t-22 36.5t-7.5 51.5q0 46 21.5 77t55.5 50.5t74 28t78 8.5q42 0 81 -7t68 -25.5t46.5 -50.5t16.5 -82h-132z" />
    <glyph glyph-name="t" unicode="t" horiz-adv-x="370" 
d="M278 517h102l-22 -95h-101l-53 -257q-2 -8 -3 -14.5t-1 -9.5q0 -14 4.5 -21.5t11.5 -11.5t15.5 -4.5t16.5 -0.5q25 0 51 3l-24 -110q-22 -2 -44 -3.5t-45 -1.5q-25 0 -49.5 4.5t-43.5 16.5t-31 32t-11 52q0 10 2 22.5t5 26.5l58 277h-93l22 95h91l32 157h142z" />
    <glyph glyph-name="u" unicode="u" horiz-adv-x="611" 
d="M478 0h-136l16 72h-2q-69 -86 -181 -86q-74 0 -112.5 35.5t-38.5 103.5q0 8 2 20.5t4 25.5t4.5 24.5t4.5 18.5l64 303h142l-63 -303q-2 -6 -3.5 -14.5t-2.5 -17.5t-2 -17.5t-1 -13.5q0 -23 21.5 -38t46.5 -15q32 0 56.5 12.5t42.5 32.5t29 46t17 53l58 275h142z" />
    <glyph glyph-name="v" unicode="v" horiz-adv-x="519" 
d="M260 0h-162l-68 517h146l32 -368h2l183 368h150z" />
    <glyph glyph-name="w" unicode="w" horiz-adv-x="815" 
d="M564 0h-148l-18 363h-2l-160 -363h-149l-57 517h145l20 -364h2l159 364h144l16 -361h2l166 361h150z" />
    <glyph glyph-name="x" unicode="x" horiz-adv-x="519" 
d="M316 269l131 -269h-150l-75 170l-138 -170h-161l240 277l-117 240h152l57 -149l117 149h159z" />
    <glyph glyph-name="y" unicode="y" horiz-adv-x="519" 
d="M214 -73q-18 -33 -37 -54.5t-42 -33.5t-52.5 -16.5t-69.5 -4.5q-19 0 -38 2t-38 3l24 118q14 0 29 -3t29 -3q25 0 40 7t25 17.5t16 23t13 22.5l-92 512h146l45 -370h2l179 370h150z" />
    <glyph glyph-name="z" unicode="z" horiz-adv-x="500" 
d="M-29 105l324 305h-249l23 107h434l-22 -105l-325 -305h285l-23 -107h-469z" />
    <glyph glyph-name="braceleft" unicode="{" horiz-adv-x="333" 
d="M388 619h-54q-33 0 -48.5 -22t-20.5 -51l-32 -152q-8 -37 -23.5 -59.5t-34 -35t-36.5 -17.5t-30 -6v-3q9 -1 22.5 -5.5t26 -13.5t21.5 -23.5t9 -36.5q0 -15 -3 -31l-33 -160q-2 -9 -3 -19t-1 -19q0 -14 9.5 -24.5t32.5 -10.5h54l-23 -112h-127q-15 0 -32 6.5t-32 20
t-24.5 33.5t-9.5 47q0 13 3 28l41 195q1 5 1.5 8.5t0.5 7.5q0 18 -8 31t-19.5 21t-25 11.5t-24.5 3.5l18 87q12 0 29 4.5t33.5 15t30 28t18.5 42.5l39 188q7 34 25 59.5t40.5 42t45.5 25t40 8.5h127z" />
    <glyph glyph-name="bar" unicode="|" horiz-adv-x="222" 
d="M58 786h107v-1000h-107v1000z" />
    <glyph glyph-name="braceright" unicode="}" horiz-adv-x="333" 
d="M-87 -70h54q33 0 48.5 22t20.5 51l32 152q7 37 23 59.5t34.5 35t36.5 17t30 6.5v3q-9 1 -22.5 5t-26 13t-21.5 24t-9 37q0 14 3 31l33 160q2 9 3 19t1 19q0 14 -9.5 24.5t-32.5 10.5h-54l23 112h127q15 0 32 -6.5t32 -20t24.5 -33.5t9.5 -47q0 -13 -3 -28l-41 -195
q-1 -5 -1.5 -8.5t-0.5 -7.5q0 -18 8 -31t19.5 -21t25 -11.5t24.5 -3.5l-18 -87q-12 0 -29 -4.5t-33.5 -15t-30 -28t-18.5 -42.5l-39 -188q-7 -34 -25 -59.5t-40.5 -42t-45.5 -25t-40 -8.5h-127z" />
    <glyph glyph-name="asciitilde" unicode="~" horiz-adv-x="600" 
d="M533 251q-11 -16 -23.5 -31.5t-27 -27.5t-33 -19.5t-41.5 -7.5q-28 0 -52.5 9.5t-49.5 23.5q-24 14 -52 24.5t-63 10.5q-17 0 -29.5 -6.5t-23 -16.5t-18 -23t-13.5 -26l-40 93q8 16 19.5 31.5t26.5 27.5t34.5 19.5t44.5 7.5q26 0 54 -9.5t57 -22.5q28 -12 55 -24t47 -12
q15 0 27.5 6.5t23 16.5t19.5 23l18 26z" />
    <glyph glyph-name="exclamdown" unicode="&#xa1;" horiz-adv-x="296" 
d="M236 377h-158l33 154h158zM5 11l105 306h70l-25 -306l-41 -194h-151z" />
    <glyph glyph-name="cent" unicode="&#xa2;" horiz-adv-x="556" 
d="M193 -10q-88 11 -135 64.5t-47 153.5q0 66 19.5 124.5t57 103t91.5 70t124 25.5h4l18 86h49l-19 -90q38 -5 70.5 -18.5t56.5 -37t38 -56.5t15 -77h-142q0 70 -60 82l-68 -327q42 5 66 33t35 63h142q-30 -104 -93 -153.5t-171 -49.5h-2l-22 -103h-49zM284 424
q-36 -4 -61 -27t-40.5 -55t-22.5 -68.5t-7 -68.5q0 -38 14 -67t49 -39z" />
    <glyph glyph-name="sterling" unicode="&#xa3;" horiz-adv-x="556" 
d="M-11 80q22 16 44.5 34t40.5 38.5t29.5 45t11.5 54.5q0 17 -1 31t-3 28h-97l18 85h64q-4 11 -8 26t-7 30.5t-5 30t-2 24.5q0 54 22 96t58.5 70.5t83.5 43t98 14.5q113 0 175 -63.5t57 -191.5h-137q1 31 -3 56.5t-15.5 43.5t-30 28t-46.5 10q-54 0 -83.5 -32.5t-29.5 -84.5
q0 -25 5.5 -54.5t12.5 -46.5h141l-17 -85h-114q1 -7 1 -14v-14q0 -59 -25 -98t-70 -71l2 -2q19 8 40 12t43 4q18 0 35 -3.5t34 -8t34.5 -8t35.5 -3.5q25 0 50.5 10.5t45.5 25.5l41 -107q-42 -27 -79.5 -39t-86.5 -12q-23 0 -48.5 6t-51.5 13t-52 13t-51 6q-36 0 -61.5 -9.5
t-56.5 -28.5z" />
    <glyph glyph-name="fraction" unicode="&#x2044;" horiz-adv-x="167" 
d="M248 722h85l-412 -744h-87z" />
    <glyph glyph-name="yen" unicode="&#xa5;" horiz-adv-x="556" 
d="M159 138h-155l20 95h155l9 45l-8 30h-141l20 95h94l-88 311h165l59 -311h2l189 311h165l-217 -311h93l-20 -95h-139l-21 -30l-12 -45h157l-20 -95h-155l-29 -138h-152z" />
    <glyph glyph-name="florin" unicode="&#x192;" horiz-adv-x="556" 
d="M-3 -62q9 0 18 -0.5t18 -0.5q22 0 35.5 10t22.5 25.5t14 34t10 34.5l81 296h-96l28 95h95l39 147q17 77 70 114.5t134 37.5q22 0 42.5 -3t41.5 -5l-28 -103q-11 1 -21 2.5t-21 1.5q-22 0 -35.5 -6.5t-22.5 -17.5t-14.5 -25t-11.5 -29l-30 -114h104l-26 -95h-106l-85 -314
q-12 -45 -28.5 -81t-41 -61t-60 -38t-85.5 -13q-17 0 -34.5 1.5t-34.5 2.5z" />
    <glyph glyph-name="section" unicode="&#xa7;" horiz-adv-x="593" 
d="M135 17q-3 -38 19.5 -65t63.5 -27q17 0 33 3.5t28.5 11.5t20 21.5t7.5 33.5q0 15 -9 30.5t-22.5 29.5t-28.5 25t-27 19l-101 73q-38 26 -64 64t-26 84q0 63 40 106t103 51q-17 23 -24.5 39.5t-7.5 44.5q0 42 21 74t53 53.5t71.5 32t77.5 10.5q43 -1 82 -12.5t66.5 -35
t41.5 -59t8 -83.5h-127q2 35 -16.5 59t-58.5 24q-33 0 -55 -18t-22 -50q0 -14 8.5 -27.5t20.5 -26t25.5 -23t23.5 -16.5l92 -66q40 -30 69 -67t29 -89q0 -33 -12 -60t-30.5 -46.5t-42 -32t-46.5 -18.5q15 -17 22.5 -40.5t7.5 -46.5q0 -44 -19.5 -77.5t-51 -56t-72.5 -34
t-84 -11.5q-47 0 -87 12.5t-69 37.5t-44.5 62t-13.5 87h127zM285 197q7 -6 14.5 -13t16.5 -14t18.5 -11.5t19.5 -4.5q27 0 48 17.5t21 46.5q0 18 -6.5 31.5t-17 25t-23 21.5t-24.5 20l-63 53q-11 9 -18.5 16t-14 11t-15 6t-21.5 2q-12 0 -23.5 -5t-20.5 -13.5t-14.5 -20
t-5.5 -24.5q0 -17 4.5 -28.5t12.5 -21t18.5 -17.5t21.5 -18z" />
    <glyph glyph-name="currency" unicode="&#xa4;" horiz-adv-x="556" 
d="M280 491q-30 0 -53.5 -12t-39 -31.5t-23.5 -45t-8 -53.5q0 -27 8 -52.5t24 -45t38.5 -31t52.5 -11.5t52 12t37 32t22.5 45.5t7.5 52.5q0 26 -7.5 51.5t-22.5 45t-37 31.5t-51 12zM77 207q-23 27 -35.5 63.5t-12.5 78.5t11.5 80.5t36.5 63.5l-57 58l57 57l57 -56
q25 21 64.5 33.5t81.5 12.5q40 0 77 -12.5t60 -32.5l58 57l61 -61l-56 -55q22 -24 33.5 -62.5t11.5 -80.5t-11.5 -80t-34.5 -66l55 -56l-55 -55l-57 58q-25 -24 -63 -37t-80 -13q-44 0 -82.5 12.5t-64.5 36.5l-56 -58l-56 56z" />
    <glyph glyph-name="quotesingle" unicode="'" horiz-adv-x="278" 
d="M110 714h107v-321h-107v321z" />
    <glyph glyph-name="quotedblleft" unicode="&#x201c;" horiz-adv-x="481" 
d="M435 393h-158l32 154q7 33 19.5 62.5t35 52t56.5 36.5t82 16l-15 -70q-44 -8 -62.5 -31t-26.5 -66h69zM224 393h-158l32 154q7 33 19.5 62.5t35 52t56.5 36.5t82 16l-15 -70q-44 -8 -62.5 -31t-26.5 -66h69z" />
    <glyph glyph-name="guillemotleft" unicode="&#xab;" horiz-adv-x="463" 
d="M21 218l28 130l181 115l-26 -123l-110 -68l77 -85l-22 -107zM217 218l28 130l181 115l-26 -123l-110 -68l77 -85l-22 -107z" />
    <glyph glyph-name="guilsinglleft" unicode="&#x2039;" 
d="M17 218l28 130l181 115l-26 -123l-110 -68l77 -85l-22 -107z" />
    <glyph glyph-name="guilsinglright" unicode="&#x203a;" 
d="M204 325l-28 -130l-181 -115l26 123l110 68l-77 85l22 107z" />
    <glyph glyph-name="endash" unicode="&#x2013;" horiz-adv-x="500" 
d="M-3 334h500l-26 -122h-500z" />
    <glyph glyph-name="dagger" unicode="&#x2020;" horiz-adv-x="593" 
d="M242 400h-188l25 117h188l41 197h132l-41 -197h188l-25 -117h-188l-118 -566h-132z" />
    <glyph glyph-name="daggerdbl" unicode="&#x2021;" horiz-adv-x="593" 
d="M165 27h-188l24 117h188l54 256h-186l23 117h188l41 197h132l-41 -197h188l-25 -117h-188l-54 -256h188l-24 -117h-188l-41 -193h-132z" />
    <glyph glyph-name="periodcentered" unicode="&#xb7;" horiz-adv-x="278" 
d="M43 287q0 18 7 33.5t18.5 27t27 18t32.5 6.5q34 0 59 -25t25 -60q0 -16 -7 -31t-18 -27t-26.5 -19t-31.5 -7q-18 0 -33.5 6.5t-27 18t-18.5 27t-7 32.5z" />
    <glyph glyph-name="paragraph" unicode="&#xb6;" horiz-adv-x="600" 
d="M256 353q-51 0 -88.5 12.5t-60.5 36t-31 56t0 72.5q11 52 36 87t61 56.5t81.5 31t97.5 9.5h282l-185 -880h-96l169 800h-111l-169 -800h-96z" />
    <glyph glyph-name="bullet" unicode="&#x2022;" horiz-adv-x="500" 
d="M72 357q0 37 14 69.5t38 56.5t56.5 38t69.5 14t69.5 -14t57 -38t38.5 -56.5t14 -69.5t-14 -69.5t-38.5 -57t-57 -38.5t-69.5 -14t-69.5 14t-56.5 38.5t-38 57t-14 69.5z" />
    <glyph glyph-name="quotesinglbase" unicode="&#x201a;" horiz-adv-x="278" 
d="M19 154h158l-32 -154q-7 -33 -19.5 -63t-35 -52.5t-56.5 -36t-82 -15.5l15 70q44 8 62.5 31t26.5 66h-69z" />
    <glyph glyph-name="quotedblbase" unicode="&#x201e;" horiz-adv-x="481" 
d="M232 154h158l-32 -154q-7 -33 -19.5 -63t-35 -52.5t-56.5 -36t-82 -15.5l15 70q44 8 62.5 31t26.5 66h-69zM21 154h158l-32 -154q-7 -33 -19.5 -63t-35 -52.5t-56.5 -36t-82 -15.5l15 70q44 8 62.5 31t26.5 66h-69z" />
    <glyph glyph-name="quotedblright" unicode="&#x201d;" horiz-adv-x="481" 
d="M130 714h158l-32 -154q-7 -33 -19.5 -63t-35 -52.5t-56.5 -36t-82 -15.5l15 70q44 8 62.5 31t26.5 66h-69zM341 714h158l-32 -154q-7 -33 -19.5 -63t-35 -52.5t-56.5 -36t-82 -15.5l15 70q44 8 62.5 31t26.5 66h-69z" />
    <glyph glyph-name="guillemotright" unicode="&#xbb;" horiz-adv-x="463" 
d="M411 325l-28 -130l-181 -115l26 123l110 68l-77 85l22 107zM215 325l-28 -130l-181 -115l26 123l110 68l-77 85l22 107z" />
    <glyph glyph-name="ellipsis" unicode="&#x2026;" horiz-adv-x="1000" 
d="M49 154h158l-33 -154h-158zM715 154h158l-33 -154h-158zM382 154h158l-33 -154h-158z" />
    <glyph glyph-name="perthousand" unicode="&#x2030;" horiz-adv-x="1130" 
d="M160 497q0 -10 2 -21t6.5 -20t13 -15t20.5 -6q22 0 37.5 18.5t25 44t13.5 53t4 44.5q0 20 -10 37t-32 17t-37 -17.5t-24.5 -42t-14 -50.5t-4.5 -42zM70 504q0 39 11 76.5t32.5 67.5t53.5 48t75 18q61 0 95.5 -32t34.5 -93q0 -41 -10.5 -80.5t-32 -70t-55 -49.5t-79.5 -19
q-63 0 -94 37t-31 97zM614 722h85l-537 -744h-86zM845 113q0 -10 2 -21t6.5 -20t13 -15t20.5 -6q22 0 37.5 18.5t25 44t13.5 53t4 44.5q0 20 -10 37t-32 17t-37 -17.5t-24.5 -42t-14 -50.5t-4.5 -42zM755 120q0 39 11 76.5t32.5 67.5t53.5 48t75 18q61 0 95.5 -32t34.5 -93
q0 -41 -10.5 -80.5t-32 -70t-55 -49.5t-79.5 -19q-63 0 -94 37t-31 97zM494 113q0 -10 2 -21t6.5 -20t13 -15t20.5 -6q22 0 37.5 18.5t25 44t13.5 53t4 44.5q0 20 -10 37t-32 17t-37 -17.5t-24.5 -42t-14 -50.5t-4.5 -42zM404 120q0 39 11 76.5t32.5 67.5t53.5 48t75 18
q61 0 95.5 -32t34.5 -93q0 -41 -10.5 -80.5t-32 -70t-55 -49.5t-79.5 -19q-63 0 -94 37t-31 97z" />
    <glyph glyph-name="questiondown" unicode="&#xbf;" horiz-adv-x="574" 
d="M383 377h-158l33 154h158zM465 44q-3 -60 -25.5 -105t-60 -75t-86.5 -45t-106 -15q-43 0 -82.5 11t-69.5 33.5t-48 57.5t-18 83q0 36 11.5 64t30.5 51t44 41t53 34q22 12 41.5 24.5t34.5 28.5t25 36t13 47h132q-7 -49 -20 -82t-33.5 -56t-48 -41t-63.5 -37
q-29 -17 -50 -41t-21 -59q0 -40 26 -59t61 -19q27 0 47.5 10t35 27t23.5 39.5t12 46.5h142z" />
    <glyph glyph-name="grave" unicode="`" 
d="M264 589h-100l-140 142h152z" />
    <glyph glyph-name="acute" unicode="&#xb4;" 
d="M234 589h-100l88 142h152z" />
    <glyph glyph-name="circumflex" unicode="&#x2c6;" 
d="M146 731h126l83 -142h-100l-50 81l-87 -81h-109z" />
    <glyph glyph-name="tilde" unicode="&#x2dc;" 
d="M380 721q-5 -17 -12 -37t-19 -37t-31 -28.5t-50 -11.5q-23 0 -43 5.5t-39 11.5q-19 7 -36 12t-34 5q-20 0 -28.5 -11.5t-13.5 -30.5h-61q5 22 13 43.5t22 39t36 28.5t55 11q17 0 32.5 -5.5t31.5 -11.5q16 -7 32.5 -12.5t33.5 -5.5q23 0 33 10.5t9 24.5h69z" />
    <glyph glyph-name="macron" unicode="&#xaf;" 
d="M49 694h305l-14 -75h-305z" />
    <glyph glyph-name="breve" unicode="&#x2d8;" 
d="M103 733q3 -37 29.5 -54t64.5 -17q45 0 70.5 18.5t43.5 52.5h66q-20 -70 -66.5 -108t-122.5 -38q-69 0 -109.5 39.5t-40.5 106.5h65z" />
    <glyph glyph-name="dotaccent" unicode="&#x2d9;" 
d="M139 715h131l-24 -117h-131z" />
    <glyph glyph-name="dieresis" unicode="&#xa8;" 
d="M41 715h131l-24 -117h-131zM237 715h131l-24 -117h-131z" />
    <glyph glyph-name="ring" unicode="&#x2da;" 
d="M73 684q0 25 9 47.5t25.5 38t39 25t48.5 9.5q25 0 47.5 -8.5t39.5 -25t26 -39t9 -47.5t-8.5 -47.5t-25 -38.5t-40 -24.5t-48.5 -8.5q-26 0 -49.5 8.5t-40 24.5t-24.5 38.5t-8 47.5zM133 684q0 -29 16.5 -48t45.5 -19t46 19t17 48t-17 48t-46 19t-45.5 -19t-16.5 -48z" />
    <glyph glyph-name="cedilla" unicode="&#xb8;" 
d="M33 -147q16 -7 37 -12.5t47 -5.5q18 0 29 8t11 25q0 19 -11.5 25.5t-28.5 6.5q-21 0 -40 -7l-21 24l59 83h49l-39 -53l3 -2q19 7 35 7q15 0 31.5 -4t29.5 -12.5t21 -22t8 -31.5q0 -29 -10 -48.5t-26.5 -30.5t-37.5 -15.5t-43 -4.5q-24 0 -41 1.5t-30.5 4.5t-26 7t-26.5 9
z" />
    <glyph glyph-name="hungarumlaut" unicode="&#x2dd;" 
d="M294 589h-100l88 142h152zM94 589h-100l88 142h152z" />
    <glyph glyph-name="ogonek" unicode="&#x2db;" 
d="M248 -152q-28 -35 -59 -50t-73 -15q-9 0 -27 2t-36 11t-31 26.5t-13 49.5q0 10 4.5 25t20 32t45 36t78.5 35h65q-36 -21 -58.5 -37.5t-35.5 -31.5t-18 -28t-5 -26q0 -15 12 -24.5t27 -9.5q16 0 29 6.5t29 23.5z" />
    <glyph glyph-name="caron" unicode="&#x2c7;" 
d="M240 589h-126l-83 142h100l50 -83l87 83h109z" />
    <glyph glyph-name="emdash" unicode="&#x2014;" horiz-adv-x="1000" 
d="M127 334h740l-26 -122h-740z" />
    <glyph glyph-name="AE" unicode="&#xc6;" horiz-adv-x="981" 
d="M410 714h611l-28 -132h-329l-33 -153h308l-26 -122h-308l-38 -175h339l-28 -132h-497l33 154h-220l-109 -154h-176zM506 582h-20l-219 -311h172z" />
    <glyph glyph-name="ordfeminine" unicode="&#xaa;" horiz-adv-x="344" 
d="M73 609q5 32 20.5 52t38.5 32t50.5 16.5t55.5 4.5q26 0 53 -3t48.5 -12.5t35 -26.5t13.5 -45q0 -10 -2 -24t-5 -28l-30 -125q-2 -8 -3.5 -20.5t-1.5 -21.5q0 -4 1 -10t3 -14h-106v31q-9 -10 -21 -17.5t-25 -12.5t-26.5 -7.5t-26.5 -2.5q-60 0 -88 24.5t-28 57.5
q0 55 34.5 83.5t94.5 35.5q24 3 47 4.5t41 5t29 10t11 18.5q0 10 -5.5 17t-14 11t-17.5 5.5t-15 1.5q-23 0 -42 -10t-24 -30h-95zM273 536q-17 -8 -37 -10.5t-40 -4.5q-26 -3 -45.5 -12t-19.5 -36q0 -16 15 -24.5t32 -8.5q22 0 37 6.5t24.5 16t15.5 22t10 24.5z" />
    <glyph glyph-name="Lslash" unicode="&#x141;" horiz-adv-x="574" 
d="M38 200l-82 -56l21 111l85 58l84 401h158l-58 -274l204 140l-26 -115l-202 -139l-41 -194h346l-28 -132h-503z" />
    <glyph glyph-name="Oslash" unicode="&#xd8;" horiz-adv-x="778" 
d="M699 602q22 -35 33.5 -79t11.5 -98q0 -88 -26 -168t-75.5 -141t-122 -97t-166.5 -36q-151 0 -232 83l-101 -94l-40 44l103 96q-47 73 -47 187q0 87 27 165t77.5 137.5t123 94.5t162.5 35q75 0 133.5 -20t100.5 -62l99 92l41 -45zM233 170q20 -26 50.5 -40.5t72.5 -14.5
q58 0 101 27.5t72 71t43.5 96.5t14.5 104q0 20 -2.5 39t-7.5 36zM550 545q-20 26 -50 40t-72 14q-60 0 -104.5 -27.5t-73 -71t-42.5 -97t-14 -104.5q0 -40 11 -75z" />
    <glyph glyph-name="OE" unicode="&#x152;" horiz-adv-x="1111" 
d="M425 599q-60 0 -104 -29t-72 -74.5t-41.5 -100.5t-13.5 -106q0 -36 8 -68t25.5 -55.5t45.5 -37t67 -13.5q66 0 112.5 34t66.5 90q7 19 15.5 52.5t15.5 69.5t11.5 69t4.5 52q0 31 -11.5 53t-31 36t-45 21t-53.5 7zM494 56l-2 2q-32 -38 -82 -56.5t-100 -18.5
q-68 0 -119 24t-85 65t-51.5 97t-17.5 119q0 87 26 167t76 141.5t122.5 98t165.5 36.5q53 0 101 -18.5t80 -63.5l14 65h507l-28 -132h-361l-33 -153h330l-26 -122h-329l-38 -175h368l-28 -132h-502z" />
    <glyph glyph-name="ordmasculine" unicode="&#xba;" horiz-adv-x="356" 
d="M139 514q0 -23 16.5 -43.5t46.5 -20.5q25 0 43 13t30 32t17.5 40.5t5.5 39.5q0 28 -15.5 46t-49.5 18q-24 0 -41.5 -12.5t-29.5 -31.5t-17.5 -41t-5.5 -40zM37 514q0 42 13.5 78.5t39 63.5t62.5 42.5t85 15.5q75 0 119 -33t44 -105q0 -43 -13.5 -80t-39 -64t-63.5 -42
t-86 -15q-76 0 -118.5 34t-42.5 105z" />
    <glyph glyph-name="ae" unicode="&#xe6;" horiz-adv-x="907" 
d="M378 249q-28 -16 -66.5 -21t-76.5 -9t-63.5 -23.5t-25.5 -52.5q0 -19 7 -31t19 -19t27 -9.5t30 -2.5q34 0 58.5 10t41 26.5t26.5 39t15 48.5zM72 360q10 50 33.5 83t57 52.5t75 27.5t88.5 8q21 0 46 -3.5t48 -11t42.5 -21t30.5 -32.5q31 38 77 53t94 15q57 0 96.5 -17
t64.5 -48t36.5 -74t11.5 -95q0 -18 -1.5 -35.5t-3.5 -37.5h-372q-3 -13 -4 -23t-1 -23q0 -19 7.5 -36.5t21.5 -31t34.5 -21.5t46.5 -8q38 0 66.5 18t42.5 61h142q-19 -49 -46 -82t-60.5 -53.5t-72.5 -29.5t-82 -9q-67 0 -114.5 24.5t-73.5 71.5q-32 -50 -88 -73t-124 -23
q-52 0 -88 11t-58 30t-31.5 44.5t-9.5 53.5q0 74 49.5 119.5t162.5 54.5q37 3 71 5t59.5 8.5t40.5 19.5t15 38q0 21 -7.5 33.5t-19 20t-26 10t-27.5 2.5q-20 0 -39.5 -3.5t-35 -12t-25.5 -23t-13 -37.5h-137zM746 314q0 26 -4 48t-15 38.5t-30.5 26t-49.5 9.5
q-55 0 -91.5 -35.5t-45.5 -86.5h236z" />
    <glyph glyph-name="dotlessi" unicode="&#x131;" 
d="M131 0h-143l110 517h143z" />
    <glyph glyph-name="lslash" unicode="&#x142;" 
d="M-12 0l59 278l-71 -54l26 122l71 54l67 314h142l-39 -186l83 63l-26 -121l-83 -63l-87 -407h-142z" />
    <glyph glyph-name="oslash" unicode="&#xf8;" horiz-adv-x="593" 
d="M579 506l-68 -62q18 -26 27.5 -58.5t9.5 -73.5q0 -68 -20.5 -127.5t-59.5 -103.5t-95 -69.5t-126 -25.5q-54 0 -98 14t-74 43l-73 -67l-29 33l73 67q-36 53 -36 133q0 66 20.5 124.5t59 102.5t93.5 69.5t124 25.5q54 0 98 -13.5t76 -40.5l68 62zM174 134q13 -19 33 -30
t47 -11q40 0 68.5 21.5t47 54t27.5 70.5t9 71q0 19 -3 34zM385 388q-23 36 -83 36q-39 0 -67.5 -21.5t-46.5 -53.5t-27 -69.5t-9 -70.5q0 -19 4 -32z" />
    <glyph glyph-name="oe" unicode="&#x153;" horiz-adv-x="926" 
d="M152 201q0 -22 5.5 -41.5t17.5 -34.5t30.5 -23.5t43.5 -8.5q40 0 68 24.5t45 60.5t25 77.5t8 75.5q0 18 -5 34.5t-16 29.5t-28 21t-41 8q-41 0 -70 -24t-47.5 -58.5t-27 -73t-8.5 -67.5zM860 161q-14 -44 -39.5 -77t-59.5 -54.5t-75 -32.5t-85 -11q-59 0 -105.5 17
t-78.5 69q-32 -46 -82 -66t-104 -20q-64 0 -106.5 20.5t-68 53.5t-36 75t-10.5 85q0 57 22.5 113t62 100t95 71t121.5 27q25 0 50.5 -4.5t48.5 -15t42.5 -26.5t32.5 -38q13 19 33.5 34.5t44.5 26.5t50 17t49 6q109 0 169.5 -60t60.5 -167q0 -19 -2.5 -38t-7.5 -42h-377
q-2 -12 -2.5 -20.5t-0.5 -13.5q0 -42 27 -69.5t75 -27.5q41 0 71.5 17t42.5 51h142zM753 314q1 5 1.5 11t0.5 11q0 16 -6 32t-18 28.5t-29.5 20t-40.5 7.5q-31 0 -54 -8.5t-39.5 -23.5t-28 -35t-20.5 -43h234z" />
    <glyph glyph-name="germandbls" unicode="&#xdf;" horiz-adv-x="593" 
d="M98 521q42 210 251 210q38 0 76.5 -9.5t69 -29.5t50 -53t19.5 -79q0 -65 -39 -108t-100 -57v-2q55 -13 82.5 -51.5t27.5 -94.5q0 -60 -22 -108t-59.5 -82t-88 -52.5t-107.5 -18.5q-17 0 -34.5 1.5t-37.5 6.5l23 111q11 -1 22 -1.5t22 -0.5q30 0 56 11t44.5 30t29 45
t10.5 56q0 55 -30 78.5t-81 22.5h-20l19 90h22q54 0 86.5 26t32.5 83q0 32 -23 50.5t-52 18.5q-30 0 -49.5 -9.5t-31.5 -26t-19 -38.5t-13 -47l-104 -493h-142z" />
    <glyph glyph-name="divide" unicode="&#xf7;" horiz-adv-x="600" 
d="M216 45q0 18 7 33t18.5 26.5t27 18t32.5 6.5q34 0 59 -24.5t25 -59.5q0 -16 -7 -31t-18 -27t-26.5 -19.5t-31.5 -7.5q-18 0 -33.5 7t-27 18.5t-18.5 27t-7 32.5zM216 460q0 18 7 33.5t18.5 27t27 18t32.5 6.5q34 0 59 -25t25 -60q0 -16 -7 -31t-18 -27t-26.5 -19
t-31.5 -7q-18 0 -33.5 6.5t-27 18t-18.5 27t-7 32.5zM48 306h505v-107h-505v107z" />
    <glyph glyph-name="threequarters" unicode="&#xbe;" horiz-adv-x="889" 
d="M673 169l34 147l-2 2l-156 -149h124zM654 89h-208l20 87l261 244h106l-58 -251h59l-16 -80h-62l-20 -89h-102zM172 534h28q14 0 29.5 2t28 8t20.5 16t8 25q0 25 -18.5 37t-43.5 12q-38 0 -57.5 -17.5t-27.5 -51.5h-96q10 75 57.5 112t125.5 37q30 0 58 -6t49.5 -19.5
t35 -35.5t13.5 -55q0 -38 -24 -63.5t-62 -33.5v-2q36 -9 51 -31t15 -54q0 -40 -15.5 -68.5t-41.5 -46.5t-62 -26.5t-76 -8.5q-166 0 -166 140v19h96v-15q0 -29 19 -46.5t53 -17.5q36 0 61 19t25 54q0 23 -18 35t-44 12h-34zM618 722h85l-412 -744h-87z" />
    <glyph glyph-name="onequarter" unicode="&#xbc;" horiz-adv-x="889" 
d="M673 169l34 147l-2 2l-156 -149h124zM654 89h-208l20 87l261 244h106l-58 -251h59l-16 -80h-62l-20 -89h-102zM269 273h-104l62 274h-110l17 75q24 1 45 5t39.5 13t34 25t28.5 40h85zM618 722h85l-412 -744h-87z" />
    <glyph glyph-name="onesuperior" unicode="&#xb9;" horiz-adv-x="392" 
d="M250 273h-104l62 274h-110l17 75q24 1 45 5t39.5 13t34 25t28.5 40h85z" />
    <glyph glyph-name="multiply" unicode="&#xd7;" horiz-adv-x="600" 
d="M64 93l161 160l-159 160l76 76l159 -160l160 160l76 -76l-161 -160l161 -160l-76 -76l-160 161l-161 -161z" />
    <glyph glyph-name="registered" unicode="&#xae;" horiz-adv-x="800" 
d="M336 393h72q34 0 57 10t23 48q0 17 -8 27t-20.5 15.5t-27.5 7.5t-28 2h-68v-110zM251 568h158q79 0 121.5 -28t42.5 -96q0 -29 -8.5 -49.5t-23.5 -33.5t-35 -20t-43 -9l112 -183h-87l-102 179h-50v-179h-85v419zM118 358q0 -64 22 -118t60 -93.5t89.5 -61.5t110.5 -22
q58 0 109.5 22t89.5 61.5t60.5 93.5t22.5 118t-22.5 117.5t-60.5 92.5t-89.5 61t-109.5 22q-59 0 -110.5 -22t-89.5 -61t-60 -92.5t-22 -117.5zM16 358q0 85 31.5 154t84.5 117.5t122.5 75t145.5 26.5t145.5 -26.5t122.5 -75t84.5 -117.5t31.5 -154q0 -86 -31.5 -155
t-84.5 -118t-122.5 -75.5t-145.5 -26.5t-145.5 26.5t-122.5 75.5t-84.5 118t-31.5 155z" />
    <glyph glyph-name="Thorn" unicode="&#xde;" horiz-adv-x="667" 
d="M145 714h157l-20 -97h130q54 0 99.5 -10.5t78.5 -34.5t51.5 -64t18.5 -99t-22.5 -105t-61 -78t-89 -49t-105.5 -17h-195l-34 -160h-157zM213 282h161q60 0 94.5 30.5t34.5 93.5q0 27 -9.5 44.5t-25.5 27t-35.5 13.5t-40.5 4h-135z" />
    <glyph glyph-name="brokenbar" unicode="&#xa6;" horiz-adv-x="222" 
d="M165 411h-107v250h107v-250zM58 161h107v-250h-107v250z" />
    <glyph glyph-name="Eth" unicode="&#xd0;" horiz-adv-x="741" 
d="M244 427h168l-25 -117h-169l-37 -178h121q60 0 106.5 22t78 60t48 88t16.5 107q0 39 -8.5 70.5t-27.5 54.5t-48.5 35.5t-71.5 12.5h-118zM61 310h-82l25 117h83l60 287h258q150 0 226.5 -73t76.5 -205q0 -93 -26 -173t-77.5 -138.5t-129 -91.5t-180.5 -33h-299z" />
    <glyph glyph-name="onehalf" unicode="&#xbd;" horiz-adv-x="889" 
d="M553 276q7 81 56.5 123t136.5 42q34 0 63 -7.5t50.5 -23.5t33.5 -41t12 -60q0 -23 -8 -42t-22.5 -35.5t-33 -30.5t-39.5 -27q-42 -25 -85.5 -46.5t-70.5 -47.5h217l-18 -80h-339q3 42 17.5 72t38 52.5t53.5 40t63 33.5q54 26 89.5 51t35.5 54q0 31 -20 44.5t-48 13.5
q-35 0 -56.5 -25.5t-23.5 -59.5h-102zM228 547h-110l17 75q24 1 45 5t39.5 13t34 25t28.5 40h85l-97 -432h-104zM616 722h85l-412 -744h-87z" />
    <glyph glyph-name="minus" unicode="&#x2212;" horiz-adv-x="600" 
d="M48 306h505v-107h-505v107z" />
    <glyph glyph-name="eth" unicode="&#xf0;" horiz-adv-x="593" 
d="M303 668q-46 38 -89 56l93 56q51 -29 91 -66l121 59l63 -61l-124 -61q90 -117 90 -291q0 -28 -4.5 -66.5t-17 -80t-33.5 -82.5t-54.5 -73t-80.5 -52t-111 -20q-108 0 -172.5 56t-64.5 167q0 56 20.5 109.5t59 95t93.5 67t124 25.5q29 0 59 -9.5t52 -35.5l2 2
q-5 41 -20 76t-37 65l-121 -59l-64 62zM254 93q39 0 67.5 21.5t47 54t28 70.5t9.5 71q0 42 -24 71.5t-80 29.5q-39 0 -67.5 -21t-46.5 -52t-27 -66t-9 -63q0 -23 6.5 -44t19.5 -37t32 -25.5t44 -9.5z" />
    <glyph glyph-name="plusminus" unicode="&#xb1;" horiz-adv-x="600" 
d="M48 107h505v-107h-505v107zM48 375h199v131h107v-131h199v-107h-199v-131h-107v131h-199v107z" />
    <glyph glyph-name="thorn" unicode="&#xfe;" horiz-adv-x="611" 
d="M323 424q-40 0 -69 -21.5t-48.5 -54.5t-29 -71.5t-9.5 -71.5q0 -50 25 -81t77 -31q40 0 69.5 21t48.5 53t28 70t9 72q0 23 -6.5 44t-19 36.5t-31.5 25t-44 9.5zM130 714h142l-57 -262h2q22 42 63.5 60.5t89.5 18.5q94 0 145 -55t51 -149q0 -64 -17 -125t-52 -109
t-87.5 -77.5t-124.5 -29.5q-23 0 -45 5t-41.5 15t-35 26t-24.5 37h-2l-54 -251h-142z" />
    <glyph glyph-name="copyright" unicode="&#xa9;" horiz-adv-x="800" 
d="M596 295q-6 -38 -22.5 -67t-41 -49.5t-55 -31t-63.5 -10.5q-49 0 -88.5 17t-67.5 47t-43.5 70.5t-15.5 87.5q0 48 14.5 89t42 71t67 47t89.5 17q34 0 65 -10t55 -29.5t40 -48.5t21 -67h-78q-8 35 -36 55t-67 20q-57 0 -87 -40t-30 -102q0 -29 8.5 -55.5t24 -46t37.5 -31
t49 -11.5q42 0 69 21t32 57h81zM118 357q0 -64 22 -118t60 -93t89.5 -61t110.5 -22q58 0 109.5 22t89.5 61t60.5 93t22.5 118t-22.5 118t-60.5 93t-89.5 61t-109.5 22q-59 0 -110.5 -22t-89.5 -61t-60 -93t-22 -118zM16 357q0 85 31.5 154.5t84.5 118t122.5 75t145.5 26.5
t145.5 -26.5t122.5 -75t84.5 -118t31.5 -154.5t-31.5 -154t-84.5 -118t-122.5 -75.5t-145.5 -26.5t-145.5 26.5t-122.5 75.5t-84.5 118t-31.5 154z" />
    <glyph glyph-name="logicalnot" unicode="&#xac;" horiz-adv-x="600" 
d="M552 99h-107v200h-397v107h504v-307z" />
    <glyph glyph-name="twosuperior" unicode="&#xb2;" horiz-adv-x="392" 
d="M63 549q7 81 56.5 123t136.5 42q34 0 63 -7.5t50.5 -23.5t33.5 -41t12 -60q0 -23 -8 -42t-22.5 -35.5t-33 -30.5t-39.5 -27q-42 -25 -85.5 -46.5t-70.5 -47.5h217l-18 -80h-339q3 42 17.5 72t38 52.5t53.5 40t63 33.5q54 26 89.5 51t35.5 54q0 31 -20 44.5t-48 13.5
q-35 0 -56.5 -25.5t-23.5 -59.5h-102z" />
    <glyph glyph-name="threesuperior" unicode="&#xb3;" horiz-adv-x="392" 
d="M194 534h28q14 0 29.5 2t28 8t20.5 16t8 25q0 25 -18.5 37t-43.5 12q-38 0 -57.5 -17.5t-27.5 -51.5h-96q10 75 57.5 112t125.5 37q30 0 58 -6t49.5 -19.5t35 -35.5t13.5 -55q0 -38 -24 -63.5t-62 -33.5v-2q36 -9 51 -31t15 -54q0 -40 -15.5 -68.5t-41.5 -46.5t-62 -26.5
t-76 -8.5q-166 0 -166 140v19h96v-15q0 -29 19 -46.5t53 -17.5q36 0 61 19t25 54q0 23 -18 35t-44 12h-34z" />
    <glyph glyph-name="trademark" unicode="&#x2122;" horiz-adv-x="990" 
d="M398 634h-117v-332h-102v332h-117v80h336v-80zM928 302h-96v292h-2l-106 -292h-69l-106 292h-2v-292h-96v412h136l103 -271l103 271h135v-412z" />
    <glyph glyph-name="degree" unicode="&#xb0;" horiz-adv-x="400" 
d="M147 566q0 -18 7 -34t18.5 -28t26.5 -19t31 -7t31 7t26.5 19t18.5 28t7 34t-7 34t-18.5 28t-26.5 19t-31 7t-31 -7t-26.5 -19t-18.5 -28t-7 -34zM82 566q0 31 11.5 58t31.5 47t47 31.5t58 11.5t58 -11.5t47 -31.5t31.5 -47t11.5 -58t-11.5 -58t-31.5 -47t-47 -31.5
t-58 -11.5t-58 11.5t-47 31.5t-31.5 47t-11.5 58z" />
    <glyph glyph-name="mu" unicode="&#xb5;" horiz-adv-x="611" 
d="M478 0h-136l16 72h-2q-69 -86 -181 -86q-21 0 -44 5l-36 -173h-142l150 699h142l-63 -303q-2 -6 -3.5 -14.5t-2.5 -17.5t-2 -17.5t-1 -13.5q0 -23 21.5 -38t46.5 -15q32 0 56.5 12.5t42.5 32.5t29 46t17 53l58 275h142z" />
    <glyph glyph-name="dollar" unicode="$" horiz-adv-x="556" 
d="M204 -14q-99 11 -149.5 71.5t-48.5 182.5h137q-2 -67 20.5 -97.5t62.5 -37.5l40 206l-11 4q-38 13 -71 27t-57.5 36t-39 54.5t-14.5 82.5q0 56 22.5 97t60 67.5t86 39t101.5 12.5h3l16 79h48l-17 -86q38 -8 70.5 -25t56 -44t35.5 -64t8 -85h-137q2 41 -14.5 64.5
t-42.5 34.5l-33 -177q38 -12 73 -25.5t61.5 -36t42 -57t15.5 -86.5q0 -64 -24.5 -109.5t-63.5 -74.5t-88.5 -42.5t-99.5 -13.5l-17 -87h-49zM323 614h-7q-18 0 -36.5 -5.5t-34 -16t-25.5 -27.5t-10 -39q0 -34 23.5 -52.5t57.5 -29.5zM274 100q19 0 40 5.5t38 18t28 32
t11 48.5q0 20 -7 35t-18.5 25.5t-25.5 18t-28 13.5z" />
    <glyph glyph-name="Euro" unicode="&#x20ac;" horiz-adv-x="556" 
d="M524 545q-56 57 -117 57q-106 0 -160 -147h244l-35 -71h-227l-5 -45h213l-35 -71h-178q12 -165 136 -165q67 0 165 67l-26 -148q-81 -38 -159 -38q-123 0 -189 82q-58 73 -67 202h-75l35 71h41l6 45h-57l35 71h37q33 117 105 187q82 80 194 80q97 0 180 -64z" />
    <glyph glyph-name="notequal" unicode="&#x2260;" horiz-adv-x="593" 
d="M253 85l-78 -157l-114 57l51 100h-106v130h170l52 103h-222v129h286l79 157l113 -57l-50 -100h105v-129h-169l-52 -103h221v-130h-286z" />
    <glyph glyph-name="infinity" unicode="&#x221e;" horiz-adv-x="848" 
d="M773 269q0 -42 -12.5 -78.5t-36 -63.5t-58 -42.5t-77.5 -15.5q-32 0 -59 9.5t-50.5 25.5t-44.5 37t-40 44q-20 -23 -40 -44t-43 -36.5t-49.5 -24.5t-59.5 -9q-44 0 -78.5 15t-58.5 41t-37 62.5t-13 78.5t12.5 77.5t36 61.5t57.5 41t77 15q34 0 61.5 -10t51 -26.5
t43.5 -38.5t40 -47q19 25 39.5 47t43.5 38.5t50.5 26.5t61.5 10q43 0 77 -15t57.5 -41t36 -61.5t12.5 -76.5zM665 266q0 35 -20.5 59t-57.5 24q-19 0 -36.5 -8t-33.5 -21t-30 -28t-25 -28q12 -14 26 -28.5t30 -26t34 -18.5t38 -7q36 0 55.5 24t19.5 58zM327 264
q-11 13 -25.5 28t-31 27.5t-34.5 20.5t-36 8q-35 0 -55 -24.5t-20 -57.5q0 -35 20.5 -58t56.5 -23q19 0 37 7t33.5 18.5t29.5 25.5t25 28z" />
    <glyph glyph-name="lessequal" unicode="&#x2264;" horiz-adv-x="593" 
d="M6 282v129l533 165v-135l-353 -94l353 -98v-135zM6 -43v129h533v-129h-533z" />
    <glyph glyph-name="greaterequal" unicode="&#x2265;" horiz-adv-x="593" 
d="M6 114v135l354 98l-354 94v135l533 -165v-129zM6 -43v129h533v-129h-533z" />
    <glyph glyph-name="partialdiff" unicode="&#x2202;" horiz-adv-x="572" 
d="M509 357q0 -65 -10.5 -131t-39 -119.5t-79 -87.5t-129.5 -34q-51 0 -93.5 17t-72.5 48t-46.5 73.5t-16.5 93.5q0 48 16 89t45.5 71t70 47t88.5 17q39 0 71 -12t63 -35v14q0 33 -6 70t-21.5 68.5t-42 52t-67.5 20.5q-37 0 -65.5 -15t-55.5 -38l-70 80q22 18 43 31.5t43 23
t46 14.5t53 5q78 0 130.5 -31.5t85 -83t46.5 -116.5t14 -132zM375 290q-21 24 -50.5 39t-61.5 15q-29 0 -50 -11t-35.5 -29.5t-21.5 -42.5t-7 -50q0 -24 6 -47t19 -41t32.5 -29t46.5 -11q34 0 57.5 18t38 45.5t21 59.5t5.5 60v24z" />
    <glyph glyph-name="summation" unicode="&#x2211;" horiz-adv-x="673" 
d="M27 -214v110l295 396l-283 384v110h595v-126h-418l263 -367l-280 -381h447v-126h-619z" />
    <glyph glyph-name="product" unicode="&#x220f;" horiz-adv-x="749" 
d="M561 -214v874h-373v-874h-133v1000h638v-1000h-132z" />
    <glyph glyph-name="pi" unicode="&#x3c0;" horiz-adv-x="609" 
d="M587 371h-80l-42 -202q-2 -11 -4.5 -22.5t-2.5 -22.5q0 -14 9 -18.5t21 -4.5t23.5 3t22.5 8l-20 -95q-24 -11 -48.5 -18t-51.5 -7q-19 0 -36.5 4t-30.5 13t-20.5 23.5t-7.5 36.5q0 15 3 30.5t6 30.5l51 241h-174l-80 -371h-128l79 371h-72l26 118h582z" />
    <glyph glyph-name="integral" unicode="&#x222b;" horiz-adv-x="628" 
d="M519 702q0 -27 -16.5 -45.5t-44.5 -18.5q-25 0 -36 13.5t-17 30t-10.5 30t-15.5 13.5q-7 0 -10.5 -4t-5.5 -10t-2.5 -12.5t-0.5 -10.5q0 -41 3 -80.5t3 -80.5v-413v-69q0 -36 -3.5 -72.5t-12.5 -70t-27.5 -59t-48.5 -41t-75 -15.5q-19 0 -40.5 5.5t-39.5 16.5t-30 27.5
t-12 39.5q0 26 19 41.5t44 15.5t35.5 -13.5t15.5 -30t9 -30t15 -13.5q14 0 16.5 12.5t2.5 22.5q0 36 -3 72t-3 72v465q0 49 2.5 101t18.5 95t51.5 70.5t100.5 27.5q18 0 38.5 -5t38 -15t29.5 -25.5t12 -36.5z" />
    <glyph glyph-name="Omega" unicode="&#x2126;" horiz-adv-x="759" 
d="M711 454q0 -53 -17 -103.5t-48.5 -92.5t-75 -71t-97.5 -38l-7 -35h181l-24 -114h-287l43 207q42 6 76 27.5t58.5 53t38 70.5t13.5 80q0 72 -40.5 117t-114.5 45q-50 0 -91.5 -21.5t-71.5 -56.5t-46.5 -80t-16.5 -92q0 -54 25 -93.5t82 -49.5l-44 -207h-281l24 114h174
l9 39q-67 22 -100 76t-33 123q0 79 31 146.5t83.5 117t121.5 77.5t146 28q60 0 112.5 -18.5t91.5 -53t62 -84t23 -111.5z" />
    <glyph glyph-name="radical" unicode="&#x221a;" horiz-adv-x="570" 
d="M338 -214h-121l-147 303l-54 -26l-49 105l171 78l118 -255l161 795h139z" />
    <glyph glyph-name="approxequal" unicode="&#x2248;" horiz-adv-x="593" 
d="M548 474q-5 -55 -25 -100.5t-71 -72.5q-31 -17 -64 -17q-28 0 -60 10t-65 21.5t-64 21.5t-58 10q-26 0 -40.5 -19t-17.5 -42h-85q3 38 13.5 71.5t30 59t49.5 40t72 14.5q30 0 60.5 -9t60.5 -19.5t60 -19t60 -8.5q27 0 41 17t17 42h86v0zM547 248q-3 -35 -12.5 -69
t-28 -61.5t-47 -44.5t-68.5 -17q-29 0 -62 10t-67 22t-65.5 22t-56.5 10q-26 0 -40 -19t-18 -42h-85q2 33 12 67t29 61.5t47.5 44.5t67.5 17q29 0 60.5 -9.5t64 -21t64.5 -21t62 -9.5q26 0 39.5 18.5t17.5 41.5h86v0z" />
    <glyph glyph-name="Delta" unicode="&#x2206;" horiz-adv-x="702" 
d="M390 562l-244 -439h317zM-69 0l411 712h143l127 -712h-681z" />
    <glyph glyph-name="lozenge" unicode="&#x25ca;" horiz-adv-x="593" 
d="M355 -35h-119l-184 391l185 391h118l186 -391zM296 617l-112 -261l112 -262l112 262z" />
    <glyph glyph-name="commaaccent" horiz-adv-x="278" 
d="M27 -50h145l-15 -73q-6 -29 -21.5 -49.5t-34.5 -29.5t-44 -12t-55 -3l8 37q24 2 40 10t25 27h-67z" />
    <glyph glyph-name="commaaccenttwo" horiz-adv-x="278" 
d="M208 621h-145l15 73q6 29 21.5 49.5t34.5 29.5t44 12t55 3l-8 -37q-24 -2 -40 -10t-25 -27h67z" />
    <glyph glyph-name="carontwo" 
d="M251 572h-98l67 142h148z" />
    <glyph glyph-name="Agrave" unicode="&#xc0;" horiz-adv-x="685" 
d="M345 714h161l119 -714h-156l-23 159h-267l-90 -159h-166zM241 276h191l-35 284h-2zM498 779h-100l-140 142h152z" />
    <glyph glyph-name="Aacute" unicode="&#xc1;" horiz-adv-x="685" 
d="M345 714h161l119 -714h-156l-23 159h-267l-90 -159h-166zM241 276h191l-35 284h-2zM461 779h-100l88 142h152z" />
    <glyph glyph-name="Acircumflex" unicode="&#xc2;" horiz-adv-x="685" 
d="M345 714h161l119 -714h-156l-23 159h-267l-90 -159h-166zM241 276h191l-35 284h-2zM396 921h126l83 -142h-100l-50 81l-87 -81h-109z" />
    <glyph glyph-name="Atilde" unicode="&#xc3;" horiz-adv-x="685" 
d="M345 714h161l119 -714h-156l-23 159h-267l-90 -159h-166zM241 276h191l-35 284h-2zM606 911q-5 -17 -12 -37t-19 -37t-31 -28.5t-50 -11.5q-23 0 -43 5.5t-39 11.5q-19 7 -36 12t-34 5q-20 0 -28.5 -11.5t-13.5 -30.5h-61q5 22 13 43.5t22 39t36 28.5t55 11
q17 0 32.5 -5.5t31.5 -11.5q16 -7 32.5 -12.5t33.5 -5.5q23 0 33 10.5t9 24.5h69z" />
    <glyph glyph-name="Adieresis" unicode="&#xc4;" horiz-adv-x="685" 
d="M345 714h161l119 -714h-156l-23 159h-267l-90 -159h-166zM241 276h191l-35 284h-2zM293 905h131l-24 -117h-131zM489 905h131l-24 -117h-131z" />
    <glyph glyph-name="Amacron" unicode="&#x100;" horiz-adv-x="685" 
d="M345 714h161l119 -714h-156l-23 159h-267l-90 -159h-166zM241 276h191l-35 284h-2zM292 884h305l-14 -75h-305z" />
    <glyph glyph-name="Abreve" unicode="&#x102;" horiz-adv-x="685" 
d="M345 714h161l119 -714h-156l-23 159h-267l-90 -159h-166zM241 276h191l-35 284h-2zM341 923q3 -37 29.5 -54t64.5 -17q45 0 70.5 18.5t43.5 52.5h66q-20 -70 -66.5 -108t-122.5 -38q-69 0 -109.5 39.5t-40.5 106.5h65z" />
    <glyph glyph-name="Aring" unicode="&#xc5;" horiz-adv-x="685" 
d="M345 714h161l119 -714h-156l-23 159h-267l-90 -159h-166zM241 276h191l-35 284h-2zM313 866q0 25 9 47.5t25.5 38t39 25t48.5 9.5q25 0 47.5 -8.5t39.5 -25t26 -39t9 -47.5t-8.5 -47.5t-25 -38.5t-40 -24.5t-48.5 -8.5q-26 0 -49.5 8.5t-40 24.5t-24.5 38.5t-8 47.5z
M373 866q0 -29 16.5 -48t45.5 -19t46 19t17 48t-17 48t-46 19t-45.5 -19t-16.5 -48z" />
    <glyph glyph-name="Aogonek" unicode="&#x104;" horiz-adv-x="685" 
d="M560 -152q-28 -35 -59 -50t-73 -15q-9 0 -27 2t-36 11t-31 26.5t-13 49.5q0 10 4.5 25t20 32t45 36t78.5 35l-23 159h-267l-90 -159h-166l422 714h161l119 -714h-91q-36 -21 -58.5 -37.5t-35.5 -31.5t-18 -28t-5 -26q0 -15 12 -24.5t27 -9.5q16 0 29 6.5t29 23.5z
M241 276h191l-35 284h-2z" />
    <glyph glyph-name="Cacute" unicode="&#x106;" horiz-adv-x="741" 
d="M556 466q0 66 -35.5 99.5t-92.5 33.5q-60 0 -104.5 -27.5t-73 -71t-42.5 -97t-14 -104.5q0 -37 9.5 -70t29 -58.5t50 -40.5t73.5 -15q33 0 61 11.5t50 31t37 45.5t20 54h157q-24 -75 -56.5 -127t-73 -84.5t-90 -47.5t-107.5 -15q-151 0 -234 82t-83 234q0 87 27 165
t77.5 137.5t123 94.5t162.5 35q62 0 115 -17t91.5 -50.5t59.5 -83t20 -114.5h-157zM498 779h-100l88 142h152z" />
    <glyph glyph-name="Ccircumflex" unicode="&#x108;" horiz-adv-x="741" 
d="M556 466q0 66 -35.5 99.5t-92.5 33.5q-60 0 -104.5 -27.5t-73 -71t-42.5 -97t-14 -104.5q0 -37 9.5 -70t29 -58.5t50 -40.5t73.5 -15q33 0 61 11.5t50 31t37 45.5t20 54h157q-24 -75 -56.5 -127t-73 -84.5t-90 -47.5t-107.5 -15q-151 0 -234 82t-83 234q0 87 27 165
t77.5 137.5t123 94.5t162.5 35q62 0 115 -17t91.5 -50.5t59.5 -83t20 -114.5h-157zM418 921h126l83 -142h-100l-50 81l-87 -81h-109z" />
    <glyph glyph-name="Ccaron" unicode="&#x10c;" horiz-adv-x="741" 
d="M556 466q0 66 -35.5 99.5t-92.5 33.5q-60 0 -104.5 -27.5t-73 -71t-42.5 -97t-14 -104.5q0 -37 9.5 -70t29 -58.5t50 -40.5t73.5 -15q33 0 61 11.5t50 31t37 45.5t20 54h157q-24 -75 -56.5 -127t-73 -84.5t-90 -47.5t-107.5 -15q-151 0 -234 82t-83 234q0 87 27 165
t77.5 137.5t123 94.5t162.5 35q62 0 115 -17t91.5 -50.5t59.5 -83t20 -114.5h-157zM508 779h-126l-83 142h100l50 -83l87 83h109z" />
    <glyph glyph-name="Cdotaccent" unicode="&#x10a;" horiz-adv-x="741" 
d="M556 466q0 66 -35.5 99.5t-92.5 33.5q-60 0 -104.5 -27.5t-73 -71t-42.5 -97t-14 -104.5q0 -37 9.5 -70t29 -58.5t50 -40.5t73.5 -15q33 0 61 11.5t50 31t37 45.5t20 54h157q-24 -75 -56.5 -127t-73 -84.5t-90 -47.5t-107.5 -15q-151 0 -234 82t-83 234q0 87 27 165
t77.5 137.5t123 94.5t162.5 35q62 0 115 -17t91.5 -50.5t59.5 -83t20 -114.5h-157zM406 905h131l-24 -117h-131z" />
    <glyph glyph-name="Ccedilla" unicode="&#xc7;" horiz-adv-x="741" 
d="M197 -147q16 -7 37 -12.5t47 -5.5q18 0 29 8t11 25q0 19 -11.5 25.5t-28.5 6.5q-21 0 -40 -7l-21 24l52 73q-93 17 -152 75q-83 82 -83 234q0 87 27 165t77.5 137.5t123 94.5t162.5 35q62 0 115 -17t91.5 -50.5t59.5 -83t20 -114.5h-157q0 66 -35.5 99.5t-92.5 33.5
q-60 0 -104.5 -27.5t-73 -71t-42.5 -97t-14 -104.5q0 -37 9.5 -70t29 -58.5t50 -40.5t73.5 -15q33 0 61 11.5t50 31t37 45.5t20 54h157q-24 -75 -56.5 -127t-73 -84.5t-90 -47.5t-107.5 -15q-19 0 -38 2l-27 -38l3 -2q19 7 35 7q15 0 31.5 -4t29.5 -12.5t21 -22t8 -31.5
q0 -29 -10 -48.5t-26.5 -30.5t-37.5 -15.5t-43 -4.5q-24 0 -41 1.5t-30.5 4.5t-26 7t-26.5 9z" />
    <glyph glyph-name="Dcaron" unicode="&#x10e;" horiz-adv-x="741" 
d="M181 132h121q60 0 106.5 22t78 60t48 88t16.5 107q0 39 -8.5 70.5t-27.5 54.5t-48.5 35.5t-71.5 12.5h-118zM147 714h258q150 0 226.5 -73t76.5 -205q0 -93 -26 -173t-77.5 -138.5t-129 -91.5t-180.5 -33h-299zM457 779h-126l-83 142h100l50 -83l87 83h109z" />
    <glyph glyph-name="Egrave" unicode="&#xc8;" horiz-adv-x="667" 
d="M146 714h545l-27 -132h-388l-32 -153h359l-26 -122h-359l-37 -175h394l-28 -132h-551zM510 779h-100l-140 142h152z" />
    <glyph glyph-name="Eacute" unicode="&#xc9;" horiz-adv-x="667" 
d="M146 714h545l-27 -132h-388l-32 -153h359l-26 -122h-359l-37 -175h394l-28 -132h-551zM471 779h-100l88 142h152z" />
    <glyph glyph-name="Ecircumflex" unicode="&#xca;" horiz-adv-x="667" 
d="M146 714h545l-27 -132h-388l-32 -153h359l-26 -122h-359l-37 -175h394l-28 -132h-551zM386 921h126l83 -142h-100l-50 81l-87 -81h-109z" />
    <glyph glyph-name="Ecaron" unicode="&#x11a;" horiz-adv-x="667" 
d="M146 714h545l-27 -132h-388l-32 -153h359l-26 -122h-359l-37 -175h394l-28 -132h-551zM482 779h-126l-83 142h100l50 -83l87 83h109z" />
    <glyph glyph-name="Edieresis" unicode="&#xcb;" horiz-adv-x="667" 
d="M146 714h545l-27 -132h-388l-32 -153h359l-26 -122h-359l-37 -175h394l-28 -132h-551zM283 905h131l-24 -117h-131zM479 905h131l-24 -117h-131z" />
    <glyph glyph-name="Emacron" unicode="&#x112;" horiz-adv-x="667" 
d="M146 714h545l-27 -132h-388l-32 -153h359l-26 -122h-359l-37 -175h394l-28 -132h-551zM286 884h305l-14 -75h-305z" />
    <glyph glyph-name="Ebreve" unicode="&#x114;" horiz-adv-x="667" 
d="M146 714h545l-27 -132h-388l-32 -153h359l-26 -122h-359l-37 -175h394l-28 -132h-551zM331 923q3 -37 29.5 -54t64.5 -17q45 0 70.5 18.5t43.5 52.5h66q-20 -70 -66.5 -108t-122.5 -38q-69 0 -109.5 39.5t-40.5 106.5h65z" />
    <glyph glyph-name="Edotaccent" unicode="&#x116;" horiz-adv-x="667" 
d="M146 714h545l-27 -132h-388l-32 -153h359l-26 -122h-359l-37 -175h394l-28 -132h-551zM381 905h131l-24 -117h-131z" />
    <glyph glyph-name="Eogonek" unicode="&#x118;" horiz-adv-x="667" 
d="M516 -152q-28 -35 -59 -50t-73 -15q-9 0 -27 2t-36 11t-31 26.5t-13 49.5q0 10 4.5 25t20 32t45 36t78.5 35h-429l150 714h545l-27 -132h-388l-32 -153h359l-26 -122h-359l-37 -175h394l-28 -132h-57q-36 -21 -58.5 -37.5t-35.5 -31.5t-18 -28t-5 -26q0 -15 12 -24.5
t27 -9.5q16 0 29 6.5t29 23.5z" />
    <glyph glyph-name="Gcircumflex" unicode="&#x11c;" horiz-adv-x="759" 
d="M536 73h-2q-35 -48 -82.5 -69t-97.5 -21q-151 0 -234 82t-83 234q0 87 27 165t77.5 137.5t123 94.5t162.5 35q63 0 118 -15t96 -46t65 -78.5t24 -113.5h-157q-3 65 -41 93t-104 28q-60 0 -104.5 -27.5t-73 -71t-42.5 -97t-14 -104.5q0 -37 9.5 -70t29 -58.5t50 -40.5
t73.5 -15q45 0 77.5 11.5t56 31.5t39 48.5t25.5 62.5h-165l25 117h303l-82 -386h-99v73zM416 921h126l83 -142h-100l-50 81l-87 -81h-109z" />
    <glyph glyph-name="Gbreve" unicode="&#x11e;" horiz-adv-x="759" 
d="M536 73h-2q-35 -48 -82.5 -69t-97.5 -21q-151 0 -234 82t-83 234q0 87 27 165t77.5 137.5t123 94.5t162.5 35q63 0 118 -15t96 -46t65 -78.5t24 -113.5h-157q-3 65 -41 93t-104 28q-60 0 -104.5 -27.5t-73 -71t-42.5 -97t-14 -104.5q0 -37 9.5 -70t29 -58.5t50 -40.5
t73.5 -15q45 0 77.5 11.5t56 31.5t39 48.5t25.5 62.5h-165l25 117h303l-82 -386h-99v73zM360 923q3 -37 29.5 -54t64.5 -17q45 0 70.5 18.5t43.5 52.5h66q-20 -70 -66.5 -108t-122.5 -38q-69 0 -109.5 39.5t-40.5 106.5h65z" />
    <glyph glyph-name="Gdotaccent" unicode="&#x120;" horiz-adv-x="759" 
d="M536 73h-2q-35 -48 -82.5 -69t-97.5 -21q-151 0 -234 82t-83 234q0 87 27 165t77.5 137.5t123 94.5t162.5 35q63 0 118 -15t96 -46t65 -78.5t24 -113.5h-157q-3 65 -41 93t-104 28q-60 0 -104.5 -27.5t-73 -71t-42.5 -97t-14 -104.5q0 -37 9.5 -70t29 -58.5t50 -40.5
t73.5 -15q45 0 77.5 11.5t56 31.5t39 48.5t25.5 62.5h-165l25 117h303l-82 -386h-99v73zM402 905h131l-24 -117h-131z" />
    <glyph glyph-name="Gcommaaccent" unicode="&#x122;" horiz-adv-x="759" 
d="M536 73h-2q-35 -48 -82.5 -69t-97.5 -21q-151 0 -234 82t-83 234q0 87 27 165t77.5 137.5t123 94.5t162.5 35q63 0 118 -15t96 -46t65 -78.5t24 -113.5h-157q-3 65 -41 93t-104 28q-60 0 -104.5 -27.5t-73 -71t-42.5 -97t-14 -104.5q0 -37 9.5 -70t29 -58.5t50 -40.5
t73.5 -15q45 0 77.5 11.5t56 31.5t39 48.5t25.5 62.5h-165l25 117h303l-82 -386h-99v73zM269 -50h145l-15 -73q-6 -29 -21.5 -49.5t-34.5 -29.5t-44 -12t-55 -3l8 37q24 2 40 10t25 27h-67z" />
    <glyph glyph-name="Hcircumflex" unicode="&#x124;" horiz-adv-x="741" 
d="M147 714h158l-58 -274h289l58 274h158l-151 -714h-158l65 308h-289l-65 -308h-158zM415 921h126l83 -142h-100l-50 81l-87 -81h-109z" />
    <glyph glyph-name="Hbar" unicode="&#x126;" horiz-adv-x="741" 
d="M147 714h158l-30 -142h289l30 142h158l-151 -714h-158l61 288h-289l-61 -288h-158zM532 420l16 77h-289l-16 -77h289z" />
    <glyph glyph-name="Igrave" unicode="&#xcc;" horiz-adv-x="296" 
d="M147 714h158l-151 -714h-158zM308 779h-100l-140 142h152z" />
    <glyph glyph-name="Iacute" unicode="&#xcd;" horiz-adv-x="296" 
d="M147 714h158l-151 -714h-158zM254 779h-100l88 142h152z" />
    <glyph glyph-name="Icircumflex" unicode="&#xce;" horiz-adv-x="296" 
d="M147 714h158l-151 -714h-158zM200 921h126l83 -142h-100l-50 81l-87 -81h-109z" />
    <glyph glyph-name="Itilde" unicode="&#x128;" horiz-adv-x="296" 
d="M147 714h158l-151 -714h-158zM423 911q-5 -17 -12 -37t-19 -37t-31 -28.5t-50 -11.5q-23 0 -43 5.5t-39 11.5q-19 7 -36 12t-34 5q-20 0 -28.5 -11.5t-13.5 -30.5h-61q5 22 13 43.5t22 39t36 28.5t55 11q17 0 32.5 -5.5t31.5 -11.5q16 -7 32.5 -12.5t33.5 -5.5
q23 0 33 10.5t9 24.5h69z" />
    <glyph glyph-name="Idieresis" unicode="&#xcf;" horiz-adv-x="296" 
d="M147 714h158l-151 -714h-158zM99 905h131l-24 -117h-131zM295 905h131l-24 -117h-131z" />
    <glyph glyph-name="Imacron" unicode="&#x12a;" horiz-adv-x="296" 
d="M147 714h158l-151 -714h-158zM98 884h305l-14 -75h-305z" />
    <glyph glyph-name="Idotaccent" unicode="&#x130;" horiz-adv-x="296" 
d="M147 714h158l-151 -714h-158zM197 905h131l-24 -117h-131z" />
    <glyph glyph-name="Iogonek" unicode="&#x12e;" horiz-adv-x="296" 
d="M180 -152q-28 -35 -59 -50t-73 -15q-9 0 -27 2t-36 11t-31 26.5t-13 49.5q0 10 4.5 25t20 32t45 36t78.5 35h-93l151 714h158l-151 -714q-36 -21 -58.5 -37.5t-35.5 -31.5t-18 -28t-5 -26q0 -15 12 -24.5t27 -9.5q16 0 29 6.5t29 23.5z" />
    <glyph glyph-name="Jcircumflex" unicode="&#x134;" horiz-adv-x="556" 
d="M459 203q-12 -53 -32.5 -93.5t-52 -69t-75 -43t-101.5 -14.5q-42 0 -81 9.5t-69.5 30t-48.5 53.5t-18 80q0 29 4 55.5t9 54.5h143q-5 -23 -9.5 -45t-4.5 -39q0 -33 23.5 -50t53.5 -17t48.5 10t30 26.5t17.5 39t12 46.5l99 477h158zM455 921h126l83 -142h-100l-50 81
l-87 -81h-109z" />
    <glyph glyph-name="Kcommaaccent" unicode="&#x136;" horiz-adv-x="722" 
d="M145 714h157l-62 -299h2l324 299h208l-343 -294l219 -420h-177l-163 321l-109 -95l-47 -226h-158zM228 -50h145l-15 -73q-6 -29 -21.5 -49.5t-34.5 -29.5t-44 -12t-55 -3l8 37q24 2 40 10t25 27h-67z" />
    <glyph glyph-name="Lacute" unicode="&#x139;" horiz-adv-x="574" 
d="M146 714h158l-122 -582h345l-28 -132h-503zM285 779h-100l88 142h152z" />
    <glyph glyph-name="Lcaron" unicode="&#x13d;" horiz-adv-x="574" 
d="M146 714h158l-122 -582h345l-28 -132h-503zM459 572h-98l67 142h148z" />
    <glyph glyph-name="Lcommaaccent" unicode="&#x13b;" horiz-adv-x="574" 
d="M146 714h158l-122 -582h345l-28 -132h-503zM167 -50h145l-15 -73q-6 -29 -21.5 -49.5t-34.5 -29.5t-44 -12t-55 -3l8 37q24 2 40 10t25 27h-67z" />
    <glyph glyph-name="Ldot" unicode="&#x13f;" horiz-adv-x="574" 
d="M146 714h158l-122 -582h345l-28 -132h-503zM376 518h131l-24 -117h-131z" />
    <glyph glyph-name="ldot" unicode="&#x140;" horiz-adv-x="459" 
d="M140 714h142l-152 -714h-142zM309 518h131l-24 -117h-131z" />
    <glyph glyph-name="Nacute" unicode="&#x143;" horiz-adv-x="741" 
d="M147 714h162l194 -508h2l102 508h144l-151 -714h-157l-196 501h-2l-102 -501h-147zM498 779h-100l88 142h152z" />
    <glyph glyph-name="Ncaron" unicode="&#x147;" horiz-adv-x="741" 
d="M147 714h162l194 -508h2l102 508h144l-151 -714h-157l-196 501h-2l-102 -501h-147zM509 779h-126l-83 142h100l50 -83l87 83h109z" />
    <glyph glyph-name="Ntilde" unicode="&#xd1;" horiz-adv-x="741" 
d="M147 714h162l194 -508h2l102 508h144l-151 -714h-157l-196 501h-2l-102 -501h-147zM655 911q-5 -17 -12 -37t-19 -37t-31 -28.5t-50 -11.5q-23 0 -43 5.5t-39 11.5q-19 7 -36 12t-34 5q-20 0 -28.5 -11.5t-13.5 -30.5h-61q5 22 13 43.5t22 39t36 28.5t55 11
q17 0 32.5 -5.5t31.5 -11.5q16 -7 32.5 -12.5t33.5 -5.5q23 0 33 10.5t9 24.5h69z" />
    <glyph glyph-name="Ncommaaccent" unicode="&#x145;" horiz-adv-x="741" 
d="M147 714h162l194 -508h2l102 508h144l-151 -714h-157l-196 501h-2l-102 -501h-147zM227 -50h145l-15 -73q-6 -29 -21.5 -49.5t-34.5 -29.5t-44 -12t-55 -3l8 37q24 2 40 10t25 27h-67z" />
    <glyph glyph-name="Ograve" unicode="&#xd2;" horiz-adv-x="778" 
d="M37 299q0 87 27 165t77.5 137.5t123 94.5t162.5 35q72 0 131 -19.5t100 -58.5t63.5 -96t22.5 -132q0 -88 -26 -168t-75.5 -141t-122 -97t-166.5 -36q-151 0 -234 82t-83 234zM194 299q0 -37 9.5 -70t29 -58.5t50 -40.5t73.5 -15q58 0 101 27.5t72 71t43.5 96.5t14.5 104
q0 37 -8.5 71t-27.5 59t-49.5 40t-73.5 15q-60 0 -104.5 -27.5t-73 -71t-42.5 -97t-14 -104.5zM507 779h-100l-140 142h152z" />
    <glyph glyph-name="Oacute" unicode="&#xd3;" horiz-adv-x="778" 
d="M37 299q0 87 27 165t77.5 137.5t123 94.5t162.5 35q72 0 131 -19.5t100 -58.5t63.5 -96t22.5 -132q0 -88 -26 -168t-75.5 -141t-122 -97t-166.5 -36q-151 0 -234 82t-83 234zM194 299q0 -37 9.5 -70t29 -58.5t50 -40.5t73.5 -15q58 0 101 27.5t72 71t43.5 96.5t14.5 104
q0 37 -8.5 71t-27.5 59t-49.5 40t-73.5 15q-60 0 -104.5 -27.5t-73 -71t-42.5 -97t-14 -104.5zM502 779h-100l88 142h152z" />
    <glyph glyph-name="Ocircumflex" unicode="&#xd4;" horiz-adv-x="778" 
d="M37 299q0 87 27 165t77.5 137.5t123 94.5t162.5 35q72 0 131 -19.5t100 -58.5t63.5 -96t22.5 -132q0 -88 -26 -168t-75.5 -141t-122 -97t-166.5 -36q-151 0 -234 82t-83 234zM194 299q0 -37 9.5 -70t29 -58.5t50 -40.5t73.5 -15q58 0 101 27.5t72 71t43.5 96.5t14.5 104
q0 37 -8.5 71t-27.5 59t-49.5 40t-73.5 15q-60 0 -104.5 -27.5t-73 -71t-42.5 -97t-14 -104.5zM424 921h126l83 -142h-100l-50 81l-87 -81h-109z" />
    <glyph glyph-name="Otilde" unicode="&#xd5;" horiz-adv-x="778" 
d="M37 299q0 87 27 165t77.5 137.5t123 94.5t162.5 35q72 0 131 -19.5t100 -58.5t63.5 -96t22.5 -132q0 -88 -26 -168t-75.5 -141t-122 -97t-166.5 -36q-151 0 -234 82t-83 234zM194 299q0 -37 9.5 -70t29 -58.5t50 -40.5t73.5 -15q58 0 101 27.5t72 71t43.5 96.5t14.5 104
q0 37 -8.5 71t-27.5 59t-49.5 40t-73.5 15q-60 0 -104.5 -27.5t-73 -71t-42.5 -97t-14 -104.5zM648 911q-5 -17 -12 -37t-19 -37t-31 -28.5t-50 -11.5q-23 0 -43 5.5t-39 11.5q-19 7 -36 12t-34 5q-20 0 -28.5 -11.5t-13.5 -30.5h-61q5 22 13 43.5t22 39t36 28.5t55 11
q17 0 32.5 -5.5t31.5 -11.5q16 -7 32.5 -12.5t33.5 -5.5q23 0 33 10.5t9 24.5h69z" />
    <glyph glyph-name="Odieresis" unicode="&#xd6;" horiz-adv-x="778" 
d="M37 299q0 87 27 165t77.5 137.5t123 94.5t162.5 35q72 0 131 -19.5t100 -58.5t63.5 -96t22.5 -132q0 -88 -26 -168t-75.5 -141t-122 -97t-166.5 -36q-151 0 -234 82t-83 234zM194 299q0 -37 9.5 -70t29 -58.5t50 -40.5t73.5 -15q58 0 101 27.5t72 71t43.5 96.5t14.5 104
q0 37 -8.5 71t-27.5 59t-49.5 40t-73.5 15q-60 0 -104.5 -27.5t-73 -71t-42.5 -97t-14 -104.5zM317 905h131l-24 -117h-131zM513 905h131l-24 -117h-131z" />
    <glyph glyph-name="Omacron" unicode="&#x14c;" horiz-adv-x="778" 
d="M37 299q0 87 27 165t77.5 137.5t123 94.5t162.5 35q72 0 131 -19.5t100 -58.5t63.5 -96t22.5 -132q0 -88 -26 -168t-75.5 -141t-122 -97t-166.5 -36q-151 0 -234 82t-83 234zM194 299q0 -37 9.5 -70t29 -58.5t50 -40.5t73.5 -15q58 0 101 27.5t72 71t43.5 96.5t14.5 104
q0 37 -8.5 71t-27.5 59t-49.5 40t-73.5 15q-60 0 -104.5 -27.5t-73 -71t-42.5 -97t-14 -104.5zM326 884h305l-14 -75h-305z" />
    <glyph glyph-name="Obreve" unicode="&#x14e;" horiz-adv-x="778" 
d="M37 299q0 87 27 165t77.5 137.5t123 94.5t162.5 35q72 0 131 -19.5t100 -58.5t63.5 -96t22.5 -132q0 -88 -26 -168t-75.5 -141t-122 -97t-166.5 -36q-151 0 -234 82t-83 234zM194 299q0 -37 9.5 -70t29 -58.5t50 -40.5t73.5 -15q58 0 101 27.5t72 71t43.5 96.5t14.5 104
q0 37 -8.5 71t-27.5 59t-49.5 40t-73.5 15q-60 0 -104.5 -27.5t-73 -71t-42.5 -97t-14 -104.5zM374 923q3 -37 29.5 -54t64.5 -17q45 0 70.5 18.5t43.5 52.5h66q-20 -70 -66.5 -108t-122.5 -38q-69 0 -109.5 39.5t-40.5 106.5h65z" />
    <glyph glyph-name="Ohungarumlaut" unicode="&#x150;" horiz-adv-x="778" 
d="M37 299q0 87 27 165t77.5 137.5t123 94.5t162.5 35q72 0 131 -19.5t100 -58.5t63.5 -96t22.5 -132q0 -88 -26 -168t-75.5 -141t-122 -97t-166.5 -36q-151 0 -234 82t-83 234zM194 299q0 -37 9.5 -70t29 -58.5t50 -40.5t73.5 -15q58 0 101 27.5t72 71t43.5 96.5t14.5 104
q0 37 -8.5 71t-27.5 59t-49.5 40t-73.5 15q-60 0 -104.5 -27.5t-73 -71t-42.5 -97t-14 -104.5zM599 779h-100l88 142h152zM399 779h-100l88 142h152z" />
    <glyph glyph-name="Racute" unicode="&#x154;" horiz-adv-x="722" 
d="M236 391h145q31 0 60.5 6.5t52 20t36 35t13.5 51.5q0 29 -9.5 46.5t-25.5 26.5t-37 12t-44 3h-149zM146 714h341q48 1 87.5 -9t67.5 -32t43 -58t15 -88q0 -36 -12 -69t-34 -58.5t-52 -42.5t-66 -22v-2q22 -7 36.5 -19.5t22.5 -29t11.5 -36.5t3.5 -41q0 -24 -2.5 -57.5
t-2.5 -66.5q0 -24 2 -45.5t8 -37.5h-153q-3 13 -5 24.5t-2 23.5q0 36 4 72.5t4 72.5q0 26 -7.5 42.5t-21 26.5t-32.5 13.5t-42 3.5h-148l-59 -279h-157zM446 779h-100l88 142h152z" />
    <glyph glyph-name="Rcaron" unicode="&#x158;" horiz-adv-x="722" 
d="M236 391h145q31 0 60.5 6.5t52 20t36 35t13.5 51.5q0 29 -9.5 46.5t-25.5 26.5t-37 12t-44 3h-149zM146 714h341q48 1 87.5 -9t67.5 -32t43 -58t15 -88q0 -36 -12 -69t-34 -58.5t-52 -42.5t-66 -22v-2q22 -7 36.5 -19.5t22.5 -29t11.5 -36.5t3.5 -41q0 -24 -2.5 -57.5
t-2.5 -66.5q0 -24 2 -45.5t8 -37.5h-153q-3 13 -5 24.5t-2 23.5q0 36 4 72.5t4 72.5q0 26 -7.5 42.5t-21 26.5t-32.5 13.5t-42 3.5h-148l-59 -279h-157zM468 779h-126l-83 142h100l50 -83l87 83h109z" />
    <glyph glyph-name="Rcommaaccent" unicode="&#x156;" horiz-adv-x="722" 
d="M236 391h145q31 0 60.5 6.5t52 20t36 35t13.5 51.5q0 29 -9.5 46.5t-25.5 26.5t-37 12t-44 3h-149zM146 714h341q48 1 87.5 -9t67.5 -32t43 -58t15 -88q0 -36 -12 -69t-34 -58.5t-52 -42.5t-66 -22v-2q22 -7 36.5 -19.5t22.5 -29t11.5 -36.5t3.5 -41q0 -24 -2.5 -57.5
t-2.5 -66.5q0 -24 2 -45.5t8 -37.5h-153q-3 13 -5 24.5t-2 23.5q0 36 4 72.5t4 72.5q0 26 -7.5 42.5t-21 26.5t-32.5 13.5t-42 3.5h-148l-59 -279h-157zM227 -50h145l-15 -73q-6 -29 -21.5 -49.5t-34.5 -29.5t-44 -12t-55 -3l8 37q24 2 40 10t25 27h-67z" />
    <glyph glyph-name="Sacute" unicode="&#x15a;" horiz-adv-x="648" 
d="M154 237q-2 -38 9 -63.5t32 -40.5t50 -21.5t63 -6.5q24 0 48 6t43.5 18t32 31t12.5 46q0 26 -16 43t-41.5 28.5t-58 20.5t-65.5 19q-34 10 -66 24.5t-57.5 36t-41 53.5t-15.5 78q0 60 25 102t65 68.5t90.5 39t102.5 12.5q55 0 103.5 -12.5t85 -40.5t58 -71.5t21.5 -105.5
h-149q1 30 -8.5 50.5t-27 33.5t-41.5 18.5t-51 5.5q-23 0 -45 -4.5t-40 -15t-29 -27.5t-11 -42q0 -27 19.5 -44t47 -28.5t56.5 -18t47 -10.5q42 -11 77 -25.5t60.5 -37.5t39.5 -56t14 -81q0 -64 -26.5 -109t-68 -73t-93.5 -41t-103 -13q-149 0 -223 62t-74 192h149zM430 779
h-100l88 142h152z" />
    <glyph glyph-name="Scircumflex" unicode="&#x15c;" horiz-adv-x="648" 
d="M154 237q-2 -38 9 -63.5t32 -40.5t50 -21.5t63 -6.5q24 0 48 6t43.5 18t32 31t12.5 46q0 26 -16 43t-41.5 28.5t-58 20.5t-65.5 19q-34 10 -66 24.5t-57.5 36t-41 53.5t-15.5 78q0 60 25 102t65 68.5t90.5 39t102.5 12.5q55 0 103.5 -12.5t85 -40.5t58 -71.5t21.5 -105.5
h-149q1 30 -8.5 50.5t-27 33.5t-41.5 18.5t-51 5.5q-23 0 -45 -4.5t-40 -15t-29 -27.5t-11 -42q0 -27 19.5 -44t47 -28.5t56.5 -18t47 -10.5q42 -11 77 -25.5t60.5 -37.5t39.5 -56t14 -81q0 -64 -26.5 -109t-68 -73t-93.5 -41t-103 -13q-149 0 -223 62t-74 192h149zM352 921
h126l83 -142h-100l-50 81l-87 -81h-109z" />
    <glyph glyph-name="Scaron" unicode="&#x160;" horiz-adv-x="648" 
d="M154 237q-2 -38 9 -63.5t32 -40.5t50 -21.5t63 -6.5q24 0 48 6t43.5 18t32 31t12.5 46q0 26 -16 43t-41.5 28.5t-58 20.5t-65.5 19q-34 10 -66 24.5t-57.5 36t-41 53.5t-15.5 78q0 60 25 102t65 68.5t90.5 39t102.5 12.5q55 0 103.5 -12.5t85 -40.5t58 -71.5t21.5 -105.5
h-149q1 30 -8.5 50.5t-27 33.5t-41.5 18.5t-51 5.5q-23 0 -45 -4.5t-40 -15t-29 -27.5t-11 -42q0 -27 19.5 -44t47 -28.5t56.5 -18t47 -10.5q42 -11 77 -25.5t60.5 -37.5t39.5 -56t14 -81q0 -64 -26.5 -109t-68 -73t-93.5 -41t-103 -13q-149 0 -223 62t-74 192h149zM455 779
h-126l-83 142h100l50 -83l87 83h109z" />
    <glyph glyph-name="Scedilla" unicode="&#x15e;" horiz-adv-x="648" 
d="M156 -147q16 -7 37 -12.5t47 -5.5q18 0 29 8t11 25q0 19 -11.5 25.5t-28.5 6.5q-21 0 -40 -7l-21 24l50 70q-96 12 -150 58q-74 62 -74 192h149q-2 -38 9 -63.5t32 -40.5t50 -21.5t63 -6.5q24 0 48 6t43.5 18t32 31t12.5 46q0 26 -16 43t-41.5 28.5t-58 20.5t-65.5 19
q-34 10 -66 24.5t-57.5 36t-41 53.5t-15.5 78q0 60 25 102t65 68.5t90.5 39t102.5 12.5q55 0 103.5 -12.5t85 -40.5t58 -71.5t21.5 -105.5h-149q1 30 -8.5 50.5t-27 33.5t-41.5 18.5t-51 5.5q-23 0 -45 -4.5t-40 -15t-29 -27.5t-11 -42q0 -27 19.5 -44t47 -28.5t56.5 -18
t47 -10.5q42 -11 77 -25.5t60.5 -37.5t39.5 -56t14 -81q0 -64 -26.5 -109t-68 -73t-93.5 -41t-103 -13q-14 0 -27 1l-27 -37l3 -2q19 7 35 7q15 0 31.5 -4t29.5 -12.5t21 -22t8 -31.5q0 -29 -10 -48.5t-26.5 -30.5t-37.5 -15.5t-43 -4.5q-24 0 -41 1.5t-30.5 4.5t-26 7
t-26.5 9z" />
    <glyph glyph-name="Scommaaccent" unicode="&#x218;" horiz-adv-x="648" 
d="M154 237q-2 -38 9 -63.5t32 -40.5t50 -21.5t63 -6.5q24 0 48 6t43.5 18t32 31t12.5 46q0 26 -16 43t-41.5 28.5t-58 20.5t-65.5 19q-34 10 -66 24.5t-57.5 36t-41 53.5t-15.5 78q0 60 25 102t65 68.5t90.5 39t102.5 12.5q55 0 103.5 -12.5t85 -40.5t58 -71.5t21.5 -105.5
h-149q1 30 -8.5 50.5t-27 33.5t-41.5 18.5t-51 5.5q-23 0 -45 -4.5t-40 -15t-29 -27.5t-11 -42q0 -27 19.5 -44t47 -28.5t56.5 -18t47 -10.5q42 -11 77 -25.5t60.5 -37.5t39.5 -56t14 -81q0 -64 -26.5 -109t-68 -73t-93.5 -41t-103 -13q-149 0 -223 62t-74 192h149zM208 -50
h145l-15 -73q-6 -29 -21.5 -49.5t-34.5 -29.5t-44 -12t-55 -3l8 37q24 2 40 10t25 27h-67z" />
    <glyph glyph-name="Tcaron" unicode="&#x164;" horiz-adv-x="611" 
d="M278 582h-224l28 132h596l-28 -132h-214l-122 -582h-158zM452 779h-126l-83 142h100l50 -83l87 83h109z" />
    <glyph glyph-name="Tcommaaccent" unicode="&#x162;" horiz-adv-x="611" 
d="M278 582h-224l28 132h596l-28 -132h-214l-122 -582h-158zM154 -50h145l-15 -73q-6 -29 -21.5 -49.5t-34.5 -29.5t-44 -12t-55 -3l8 37q24 2 40 10t25 27h-67z" />
    <glyph glyph-name="Tbar" unicode="&#x166;" horiz-adv-x="611" 
d="M101 466h152l25 116h-224l28 132h596l-28 -132h-214l-25 -116h155l-14 -75h-156l-82 -391h-158l82 391h-151z" />
    <glyph glyph-name="Ugrave" unicode="&#xd9;" horiz-adv-x="741" 
d="M663 299q-16 -77 -40.5 -136t-64.5 -99t-98 -60.5t-141 -20.5q-52 0 -102.5 11t-90 36.5t-64 65.5t-24.5 99q0 27 5 53.5t10 52.5l87 413h157l-87 -413q-2 -9 -4.5 -20.5t-5 -24.5t-4 -24.5t-1.5 -20.5q0 -14 5.5 -30.5t20.5 -31t41 -24.5t67 -10q48 0 78 12.5t49 35
t29 55t19 73.5l89 423h157zM503 779h-100l-140 142h152z" />
    <glyph glyph-name="Uacute" unicode="&#xda;" horiz-adv-x="741" 
d="M663 299q-16 -77 -40.5 -136t-64.5 -99t-98 -60.5t-141 -20.5q-52 0 -102.5 11t-90 36.5t-64 65.5t-24.5 99q0 27 5 53.5t10 52.5l87 413h157l-87 -413q-2 -9 -4.5 -20.5t-5 -24.5t-4 -24.5t-1.5 -20.5q0 -14 5.5 -30.5t20.5 -31t41 -24.5t67 -10q48 0 78 12.5t49 35
t29 55t19 73.5l89 423h157zM504 779h-100l88 142h152z" />
    <glyph glyph-name="Ucircumflex" unicode="&#xdb;" horiz-adv-x="741" 
d="M663 299q-16 -77 -40.5 -136t-64.5 -99t-98 -60.5t-141 -20.5q-52 0 -102.5 11t-90 36.5t-64 65.5t-24.5 99q0 27 5 53.5t10 52.5l87 413h157l-87 -413q-2 -9 -4.5 -20.5t-5 -24.5t-4 -24.5t-1.5 -20.5q0 -14 5.5 -30.5t20.5 -31t41 -24.5t67 -10q48 0 78 12.5t49 35
t29 55t19 73.5l89 423h157zM412 921h126l83 -142h-100l-50 81l-87 -81h-109z" />
    <glyph glyph-name="Utilde" unicode="&#x168;" horiz-adv-x="741" 
d="M663 299q-16 -77 -40.5 -136t-64.5 -99t-98 -60.5t-141 -20.5q-52 0 -102.5 11t-90 36.5t-64 65.5t-24.5 99q0 27 5 53.5t10 52.5l87 413h157l-87 -413q-2 -9 -4.5 -20.5t-5 -24.5t-4 -24.5t-1.5 -20.5q0 -14 5.5 -30.5t20.5 -31t41 -24.5t67 -10q48 0 78 12.5t49 35
t29 55t19 73.5l89 423h157zM645 911q-5 -17 -12 -37t-19 -37t-31 -28.5t-50 -11.5q-23 0 -43 5.5t-39 11.5q-19 7 -36 12t-34 5q-20 0 -28.5 -11.5t-13.5 -30.5h-61q5 22 13 43.5t22 39t36 28.5t55 11q17 0 32.5 -5.5t31.5 -11.5q16 -7 32.5 -12.5t33.5 -5.5q23 0 33 10.5
t9 24.5h69z" />
    <glyph glyph-name="Udieresis" unicode="&#xdc;" horiz-adv-x="741" 
d="M663 299q-16 -77 -40.5 -136t-64.5 -99t-98 -60.5t-141 -20.5q-52 0 -102.5 11t-90 36.5t-64 65.5t-24.5 99q0 27 5 53.5t10 52.5l87 413h157l-87 -413q-2 -9 -4.5 -20.5t-5 -24.5t-4 -24.5t-1.5 -20.5q0 -14 5.5 -30.5t20.5 -31t41 -24.5t67 -10q48 0 78 12.5t49 35
t29 55t19 73.5l89 423h157zM312 905h131l-24 -117h-131zM508 905h131l-24 -117h-131z" />
    <glyph glyph-name="Umacron" unicode="&#x16a;" horiz-adv-x="741" 
d="M663 299q-16 -77 -40.5 -136t-64.5 -99t-98 -60.5t-141 -20.5q-52 0 -102.5 11t-90 36.5t-64 65.5t-24.5 99q0 27 5 53.5t10 52.5l87 413h157l-87 -413q-2 -9 -4.5 -20.5t-5 -24.5t-4 -24.5t-1.5 -20.5q0 -14 5.5 -30.5t20.5 -31t41 -24.5t67 -10q48 0 78 12.5t49 35
t29 55t19 73.5l89 423h157zM318 884h305l-14 -75h-305z" />
    <glyph glyph-name="Ubreve" unicode="&#x16c;" horiz-adv-x="741" 
d="M663 299q-16 -77 -40.5 -136t-64.5 -99t-98 -60.5t-141 -20.5q-52 0 -102.5 11t-90 36.5t-64 65.5t-24.5 99q0 27 5 53.5t10 52.5l87 413h157l-87 -413q-2 -9 -4.5 -20.5t-5 -24.5t-4 -24.5t-1.5 -20.5q0 -14 5.5 -30.5t20.5 -31t41 -24.5t67 -10q48 0 78 12.5t49 35
t29 55t19 73.5l89 423h157zM357 923q3 -37 29.5 -54t64.5 -17q45 0 70.5 18.5t43.5 52.5h66q-20 -70 -66.5 -108t-122.5 -38q-69 0 -109.5 39.5t-40.5 106.5h65z" />
    <glyph glyph-name="Uring" unicode="&#x16e;" horiz-adv-x="741" 
d="M663 299q-16 -77 -40.5 -136t-64.5 -99t-98 -60.5t-141 -20.5q-52 0 -102.5 11t-90 36.5t-64 65.5t-24.5 99q0 27 5 53.5t10 52.5l87 413h157l-87 -413q-2 -9 -4.5 -20.5t-5 -24.5t-4 -24.5t-1.5 -20.5q0 -14 5.5 -30.5t20.5 -31t41 -24.5t67 -10q48 0 78 12.5t49 35
t29 55t19 73.5l89 423h157zM333 864q0 25 9 47.5t25.5 38t39 25t48.5 9.5q25 0 47.5 -8.5t39.5 -25t26 -39t9 -47.5t-8.5 -47.5t-25 -38.5t-40 -24.5t-48.5 -8.5q-26 0 -49.5 8.5t-40 24.5t-24.5 38.5t-8 47.5zM393 864q0 -29 16.5 -48t45.5 -19t46 19t17 48t-17 48t-46 19
t-45.5 -19t-16.5 -48z" />
    <glyph glyph-name="Uhungarumlaut" unicode="&#x170;" horiz-adv-x="741" 
d="M663 299q-16 -77 -40.5 -136t-64.5 -99t-98 -60.5t-141 -20.5q-52 0 -102.5 11t-90 36.5t-64 65.5t-24.5 99q0 27 5 53.5t10 52.5l87 413h157l-87 -413q-2 -9 -4.5 -20.5t-5 -24.5t-4 -24.5t-1.5 -20.5q0 -14 5.5 -30.5t20.5 -31t41 -24.5t67 -10q48 0 78 12.5t49 35
t29 55t19 73.5l89 423h157zM601 779h-100l88 142h152zM401 779h-100l88 142h152z" />
    <glyph glyph-name="Uogonek" unicode="&#x172;" horiz-adv-x="741" 
d="M394 -152q-28 -35 -59 -50t-73 -15q-9 0 -27 2t-36 11t-31 26.5t-13 49.5q0 10 4.5 25t20 32t44.5 36q17 11 40 21q-24 3 -48 8q-50 11 -89.5 36.5t-64 65.5t-24.5 99q0 27 5 53.5t10 52.5l87 413h157l-87 -413q-2 -9 -4.5 -20.5t-5 -24.5t-4 -24.5t-1.5 -20.5
q0 -14 5.5 -30.5t20.5 -31t41 -24.5t67 -10q48 0 78 12.5t49 35t29 55t19 73.5l89 423h157l-87 -415q-16 -77 -40.5 -136t-64.5 -99t-98 -61q-51 -17 -120 -20q-18 -11 -31 -20q-22 -17 -35 -32t-18 -28t-5 -26q0 -15 12 -24.5t27 -9.5q16 0 29 6.5t29 23.5z" />
    <glyph glyph-name="Wcircumflex" unicode="&#x174;" horiz-adv-x="944" 
d="M678 0h-156l-18 510h-2l-222 -510h-158l-49 714h157l10 -523h2l226 523h150l18 -521h2l218 521h157zM513 921h126l83 -142h-100l-50 81l-87 -81h-109z" />
    <glyph glyph-name="Yacute" unicode="&#xdd;" horiz-adv-x="648" 
d="M232 277l-171 437h161l107 -304l222 304h185l-348 -444l-55 -270h-158zM457 779h-100l88 142h152z" />
    <glyph glyph-name="Ycircumflex" unicode="&#x176;" horiz-adv-x="648" 
d="M232 277l-171 437h161l107 -304l222 304h185l-348 -444l-55 -270h-158zM364 921h126l83 -142h-100l-50 81l-87 -81h-109z" />
    <glyph glyph-name="Ydieresis" unicode="&#x178;" horiz-adv-x="648" 
d="M232 277l-171 437h161l107 -304l222 304h185l-348 -444l-55 -270h-158zM256 905h131l-24 -117h-131zM452 905h131l-24 -117h-131z" />
    <glyph glyph-name="Zacute" unicode="&#x179;" horiz-adv-x="648" 
d="M-16 130l477 452h-366l29 132h564l-26 -126l-481 -456h403l-26 -132h-601zM440 779h-100l88 142h152z" />
    <glyph glyph-name="Zcaron" unicode="&#x17d;" horiz-adv-x="648" 
d="M-16 130l477 452h-366l29 132h564l-26 -126l-481 -456h403l-26 -132h-601zM468 779h-126l-83 142h100l50 -83l87 83h109z" />
    <glyph glyph-name="Zdotaccent" unicode="&#x17b;" horiz-adv-x="648" 
d="M-16 130l477 452h-366l29 132h564l-26 -126l-481 -456h403l-26 -132h-601zM367 905h131l-24 -117h-131z" />
    <glyph glyph-name="agrave" unicode="&#xe0;" horiz-adv-x="574" 
d="M60 360q7 49 29.5 81.5t56 52.5t74.5 28.5t85 8.5q34 0 72.5 -5t70.5 -19.5t52.5 -41.5t19.5 -70q0 -17 -3 -40t-8 -47l-46 -208q-4 -14 -5.5 -34.5t-1.5 -35.5t5 -30h-142v51q-29 -33 -71.5 -49t-86.5 -16q-42 0 -73.5 11t-52.5 30t-31.5 43.5t-10.5 51.5q0 75 52.5 120
t145.5 56q50 6 87 9t61.5 9.5t36.5 19t12 37.5q0 19 -9 31.5t-22.5 19.5t-29.5 9.5t-29 2.5q-38 0 -68 -18.5t-37 -57.5h-133zM360 248q-27 -16 -58 -19.5t-62 -5.5q-20 -2 -39 -6.5t-33.5 -13.5t-23.5 -24.5t-9 -39.5q0 -29 23.5 -43.5t54.5 -14.5q33 0 55.5 10.5t38 27
t24.5 37.5t15 42zM433 589h-100l-140 142h152z" />
    <glyph glyph-name="aacute" unicode="&#xe1;" horiz-adv-x="574" 
d="M60 360q7 49 29.5 81.5t56 52.5t74.5 28.5t85 8.5q34 0 72.5 -5t70.5 -19.5t52.5 -41.5t19.5 -70q0 -17 -3 -40t-8 -47l-46 -208q-4 -14 -5.5 -34.5t-1.5 -35.5t5 -30h-142v51q-29 -33 -71.5 -49t-86.5 -16q-42 0 -73.5 11t-52.5 30t-31.5 43.5t-10.5 51.5q0 75 52.5 120
t145.5 56q50 6 87 9t61.5 9.5t36.5 19t12 37.5q0 19 -9 31.5t-22.5 19.5t-29.5 9.5t-29 2.5q-38 0 -68 -18.5t-37 -57.5h-133zM360 248q-27 -16 -58 -19.5t-62 -5.5q-20 -2 -39 -6.5t-33.5 -13.5t-23.5 -24.5t-9 -39.5q0 -29 23.5 -43.5t54.5 -14.5q33 0 55.5 10.5t38 27
t24.5 37.5t15 42zM372 589h-100l88 142h152z" />
    <glyph glyph-name="acircumflex" unicode="&#xe2;" horiz-adv-x="574" 
d="M60 360q7 49 29.5 81.5t56 52.5t74.5 28.5t85 8.5q34 0 72.5 -5t70.5 -19.5t52.5 -41.5t19.5 -70q0 -17 -3 -40t-8 -47l-46 -208q-4 -14 -5.5 -34.5t-1.5 -35.5t5 -30h-142v51q-29 -33 -71.5 -49t-86.5 -16q-42 0 -73.5 11t-52.5 30t-31.5 43.5t-10.5 51.5q0 75 52.5 120
t145.5 56q50 6 87 9t61.5 9.5t36.5 19t12 37.5q0 19 -9 31.5t-22.5 19.5t-29.5 9.5t-29 2.5q-38 0 -68 -18.5t-37 -57.5h-133zM360 248q-27 -16 -58 -19.5t-62 -5.5q-20 -2 -39 -6.5t-33.5 -13.5t-23.5 -24.5t-9 -39.5q0 -29 23.5 -43.5t54.5 -14.5q33 0 55.5 10.5t38 27
t24.5 37.5t15 42zM290 731h126l83 -142h-100l-50 81l-87 -81h-109z" />
    <glyph glyph-name="atilde" unicode="&#xe3;" horiz-adv-x="574" 
d="M60 360q7 49 29.5 81.5t56 52.5t74.5 28.5t85 8.5q34 0 72.5 -5t70.5 -19.5t52.5 -41.5t19.5 -70q0 -17 -3 -40t-8 -47l-46 -208q-4 -14 -5.5 -34.5t-1.5 -35.5t5 -30h-142v51q-29 -33 -71.5 -49t-86.5 -16q-42 0 -73.5 11t-52.5 30t-31.5 43.5t-10.5 51.5q0 75 52.5 120
t145.5 56q50 6 87 9t61.5 9.5t36.5 19t12 37.5q0 19 -9 31.5t-22.5 19.5t-29.5 9.5t-29 2.5q-38 0 -68 -18.5t-37 -57.5h-133zM360 248q-27 -16 -58 -19.5t-62 -5.5q-20 -2 -39 -6.5t-33.5 -13.5t-23.5 -24.5t-9 -39.5q0 -29 23.5 -43.5t54.5 -14.5q33 0 55.5 10.5t38 27
t24.5 37.5t15 42zM522 721q-5 -17 -12 -37t-19 -37t-31 -28.5t-50 -11.5q-23 0 -43 5.5t-39 11.5q-19 7 -36 12t-34 5q-20 0 -28.5 -11.5t-13.5 -30.5h-61q5 22 13 43.5t22 39t36 28.5t55 11q17 0 32.5 -5.5t31.5 -11.5q16 -7 32.5 -12.5t33.5 -5.5q23 0 33 10.5t9 24.5h69z
" />
    <glyph glyph-name="adieresis" unicode="&#xe4;" horiz-adv-x="574" 
d="M60 360q7 49 29.5 81.5t56 52.5t74.5 28.5t85 8.5q34 0 72.5 -5t70.5 -19.5t52.5 -41.5t19.5 -70q0 -17 -3 -40t-8 -47l-46 -208q-4 -14 -5.5 -34.5t-1.5 -35.5t5 -30h-142v51q-29 -33 -71.5 -49t-86.5 -16q-42 0 -73.5 11t-52.5 30t-31.5 43.5t-10.5 51.5q0 75 52.5 120
t145.5 56q50 6 87 9t61.5 9.5t36.5 19t12 37.5q0 19 -9 31.5t-22.5 19.5t-29.5 9.5t-29 2.5q-38 0 -68 -18.5t-37 -57.5h-133zM360 248q-27 -16 -58 -19.5t-62 -5.5q-20 -2 -39 -6.5t-33.5 -13.5t-23.5 -24.5t-9 -39.5q0 -29 23.5 -43.5t54.5 -14.5q33 0 55.5 10.5t38 27
t24.5 37.5t15 42zM188 715h131l-24 -117h-131zM384 715h131l-24 -117h-131z" />
    <glyph glyph-name="amacron" unicode="&#x101;" horiz-adv-x="574" 
d="M60 360q7 49 29.5 81.5t56 52.5t74.5 28.5t85 8.5q34 0 72.5 -5t70.5 -19.5t52.5 -41.5t19.5 -70q0 -17 -3 -40t-8 -47l-46 -208q-4 -14 -5.5 -34.5t-1.5 -35.5t5 -30h-142v51q-29 -33 -71.5 -49t-86.5 -16q-42 0 -73.5 11t-52.5 30t-31.5 43.5t-10.5 51.5q0 75 52.5 120
t145.5 56q50 6 87 9t61.5 9.5t36.5 19t12 37.5q0 19 -9 31.5t-22.5 19.5t-29.5 9.5t-29 2.5q-38 0 -68 -18.5t-37 -57.5h-133zM360 248q-27 -16 -58 -19.5t-62 -5.5q-20 -2 -39 -6.5t-33.5 -13.5t-23.5 -24.5t-9 -39.5q0 -29 23.5 -43.5t54.5 -14.5q33 0 55.5 10.5t38 27
t24.5 37.5t15 42zM197 694h305l-14 -75h-305z" />
    <glyph glyph-name="abreve" unicode="&#x103;" horiz-adv-x="574" 
d="M60 360q7 49 29.5 81.5t56 52.5t74.5 28.5t85 8.5q34 0 72.5 -5t70.5 -19.5t52.5 -41.5t19.5 -70q0 -17 -3 -40t-8 -47l-46 -208q-4 -14 -5.5 -34.5t-1.5 -35.5t5 -30h-142v51q-29 -33 -71.5 -49t-86.5 -16q-42 0 -73.5 11t-52.5 30t-31.5 43.5t-10.5 51.5q0 75 52.5 120
t145.5 56q50 6 87 9t61.5 9.5t36.5 19t12 37.5q0 19 -9 31.5t-22.5 19.5t-29.5 9.5t-29 2.5q-38 0 -68 -18.5t-37 -57.5h-133zM360 248q-27 -16 -58 -19.5t-62 -5.5q-20 -2 -39 -6.5t-33.5 -13.5t-23.5 -24.5t-9 -39.5q0 -29 23.5 -43.5t54.5 -14.5q33 0 55.5 10.5t38 27
t24.5 37.5t15 42zM241 733q3 -37 29.5 -54t64.5 -17q45 0 70.5 18.5t43.5 52.5h66q-20 -70 -66.5 -108t-122.5 -38q-69 0 -109.5 39.5t-40.5 106.5h65z" />
    <glyph glyph-name="aring" unicode="&#xe5;" horiz-adv-x="574" 
d="M60 360q7 49 29.5 81.5t56 52.5t74.5 28.5t85 8.5q34 0 72.5 -5t70.5 -19.5t52.5 -41.5t19.5 -70q0 -17 -3 -40t-8 -47l-46 -208q-4 -14 -5.5 -34.5t-1.5 -35.5t5 -30h-142v51q-29 -33 -71.5 -49t-86.5 -16q-42 0 -73.5 11t-52.5 30t-31.5 43.5t-10.5 51.5q0 75 52.5 120
t145.5 56q50 6 87 9t61.5 9.5t36.5 19t12 37.5q0 19 -9 31.5t-22.5 19.5t-29.5 9.5t-29 2.5q-38 0 -68 -18.5t-37 -57.5h-133zM360 248q-27 -16 -58 -19.5t-62 -5.5q-20 -2 -39 -6.5t-33.5 -13.5t-23.5 -24.5t-9 -39.5q0 -29 23.5 -43.5t54.5 -14.5q33 0 55.5 10.5t38 27
t24.5 37.5t15 42zM216 684q0 25 9 47.5t25.5 38t39 25t48.5 9.5q25 0 47.5 -8.5t39.5 -25t26 -39t9 -47.5t-8.5 -47.5t-25 -38.5t-40 -24.5t-48.5 -8.5q-26 0 -49.5 8.5t-40 24.5t-24.5 38.5t-8 47.5zM276 684q0 -29 16.5 -48t45.5 -19t46 19t17 48t-17 48t-46 19t-45.5 -19
t-16.5 -48z" />
    <glyph glyph-name="aogonek" unicode="&#x105;" horiz-adv-x="574" 
d="M397 -152q-24 -35 -50.5 -50t-61.5 -15q-8 0 -23.5 2t-30.5 11t-26 26.5t-11 49.5q0 10 3.5 25t17 32t38.5 36t66 35v51q-29 -33 -71.5 -49t-86.5 -16q-42 0 -73.5 11t-52.5 30t-31.5 43.5t-10.5 51.5q0 75 52.5 120t145.5 56q50 6 87 9t61.5 9.5t36.5 19t12 37.5
q0 19 -9 31.5t-22.5 19.5t-29.5 9.5t-29 2.5q-38 0 -68 -18.5t-37 -57.5h-133q7 49 29.5 81.5t56 52.5t74.5 28.5t85 8.5q34 0 72.5 -5t70.5 -19.5t52.5 -41.5t19.5 -70q0 -17 -3 -40t-8 -47l-46 -208q-4 -14 -5.5 -34.5t-1.5 -35.5t5 -30h-86q-31 -21 -50 -37.5t-30 -31.5
t-15.5 -28t-4.5 -26q0 -15 10.5 -24.5t22.5 -9.5q14 0 25 6.5t25 23.5zM360 248q-27 -16 -58 -19.5t-62 -5.5q-20 -2 -39 -6.5t-33.5 -13.5t-23.5 -24.5t-9 -39.5q0 -29 23.5 -43.5t54.5 -14.5q33 0 55.5 10.5t38 27t24.5 37.5t15 42z" />
    <glyph glyph-name="cacute" unicode="&#x107;" horiz-adv-x="556" 
d="M392 338q0 46 -24 66t-71 20q-41 0 -68.5 -21.5t-44.5 -54.5t-24.5 -71.5t-7.5 -71.5q0 -23 5 -43.5t17 -35.5t30.5 -24t45.5 -9q48 0 75.5 29t39.5 67h142q-32 -97 -99 -150t-168 -53q-109 0 -169.5 54t-60.5 168q0 66 19.5 124.5t57 103t91.5 70t124 25.5q47 0 89 -11
t73.5 -34t50 -60t19.5 -88h-142zM363 589h-100l88 142h152z" />
    <glyph glyph-name="ccircumflex" unicode="&#x109;" horiz-adv-x="556" 
d="M392 338q0 46 -24 66t-71 20q-41 0 -68.5 -21.5t-44.5 -54.5t-24.5 -71.5t-7.5 -71.5q0 -23 5 -43.5t17 -35.5t30.5 -24t45.5 -9q48 0 75.5 29t39.5 67h142q-32 -97 -99 -150t-168 -53q-109 0 -169.5 54t-60.5 168q0 66 19.5 124.5t57 103t91.5 70t124 25.5q47 0 89 -11
t73.5 -34t50 -60t19.5 -88h-142zM288 731h126l83 -142h-100l-50 81l-87 -81h-109z" />
    <glyph glyph-name="ccaron" unicode="&#x10d;" horiz-adv-x="556" 
d="M392 338q0 46 -24 66t-71 20q-41 0 -68.5 -21.5t-44.5 -54.5t-24.5 -71.5t-7.5 -71.5q0 -23 5 -43.5t17 -35.5t30.5 -24t45.5 -9q48 0 75.5 29t39.5 67h142q-32 -97 -99 -150t-168 -53q-109 0 -169.5 54t-60.5 168q0 66 19.5 124.5t57 103t91.5 70t124 25.5q47 0 89 -11
t73.5 -34t50 -60t19.5 -88h-142zM382 589h-126l-83 142h100l50 -83l87 83h109z" />
    <glyph glyph-name="cdotaccent" unicode="&#x10b;" horiz-adv-x="556" 
d="M392 338q0 46 -24 66t-71 20q-41 0 -68.5 -21.5t-44.5 -54.5t-24.5 -71.5t-7.5 -71.5q0 -23 5 -43.5t17 -35.5t30.5 -24t45.5 -9q48 0 75.5 29t39.5 67h142q-32 -97 -99 -150t-168 -53q-109 0 -169.5 54t-60.5 168q0 66 19.5 124.5t57 103t91.5 70t124 25.5q47 0 89 -11
t73.5 -34t50 -60t19.5 -88h-142zM285 715h131l-24 -117h-131z" />
    <glyph glyph-name="ccedilla" unicode="&#xe7;" horiz-adv-x="556" 
d="M98 -147q16 -7 37 -12.5t47 -5.5q18 0 29 8t11 25q0 19 -11.5 25.5t-28.5 6.5q-21 0 -40 -7l-21 24l53 75q-63 11 -104 48q-60 54 -60 168q0 66 19.5 124.5t57 103t91.5 70t124 25.5q47 0 89 -11t73.5 -34t50 -60t19.5 -88h-142q0 46 -24 66t-71 20q-41 0 -68.5 -21.5
t-44.5 -54.5t-24.5 -71.5t-7.5 -71.5q0 -23 5 -43.5t17 -35.5t30.5 -24t45.5 -9q48 0 75.5 29t39.5 67h142q-32 -97 -99 -150t-168 -53q-11 0 -21 1l-29 -40l3 -2q19 7 35 7q15 0 31.5 -4t29.5 -12.5t21 -22t8 -31.5q0 -29 -10 -48.5t-26.5 -30.5t-37.5 -15.5t-43 -4.5
q-24 0 -41 1.5t-30.5 4.5t-26 7t-26.5 9z" />
    <glyph glyph-name="dcaron" unicode="&#x10f;" horiz-adv-x="724" 
d="M307 424q-40 0 -69.5 -21t-48.5 -53t-28 -70t-9 -72q0 -23 6.5 -44t19 -37t31.5 -25t44 -9q40 0 69 21.5t48.5 54.5t29 71.5t9.5 71.5q0 50 -25 81t-77 31zM364 64l-2 2q-24 -42 -65.5 -61t-89.5 -19q-94 0 -145.5 55t-51.5 149q0 64 17 125t52 109t88 77.5t125 29.5
q22 0 44.5 -5t42 -15t35 -26t23.5 -37h2l57 266h142l-151 -714h-137zM753 572h-98l67 142h148z" />
    <glyph glyph-name="dcroat" unicode="&#x111;" horiz-adv-x="642" 
d="M364 64l-2 2q-24 -42 -65.5 -61t-89.5 -19q-94 0 -145.5 55t-51.5 149q0 64 17 125t52 109t88 77.5t125 29.5q22 0 44.5 -5t42 -15t35 -26t23.5 -37h2l26 123h-115l14 75h117l15 68h142l-15 -68h93l-14 -75h-94l-121 -571h-137zM307 424q-40 0 -69.5 -21t-48.5 -53
t-28 -70t-9 -72q0 -23 6.5 -44t19 -37t31.5 -25t44 -9q40 0 69 21.5t48.5 54.5t29 71.5t9.5 71.5q0 50 -25 81t-77 31z" />
    <glyph glyph-name="egrave" unicode="&#xe8;" horiz-adv-x="574" 
d="M399 314q0 20 -3.5 39.5t-13.5 35.5t-29 25.5t-50 9.5q-30 0 -53 -9t-40 -24t-28.5 -35t-19.5 -42h237zM147 224q-1 -10 -1 -17v-13q0 -45 28 -73t86 -28q21 0 37.5 6.5t29 16.5t22 23t17.5 25h142q-17 -44 -40 -77t-55 -55.5t-74.5 -34t-98.5 -11.5q-52 0 -94.5 14.5
t-72.5 43t-46.5 71t-16.5 97.5q0 62 20 119.5t56.5 102t89.5 71t119 26.5q54 0 98.5 -14t76 -42.5t49 -71t17.5 -98.5q0 -41 -8 -81h-381zM381 589h-100l-140 142h152z" />
    <glyph glyph-name="eacute" unicode="&#xe9;" horiz-adv-x="574" 
d="M399 314q0 20 -3.5 39.5t-13.5 35.5t-29 25.5t-50 9.5q-30 0 -53 -9t-40 -24t-28.5 -35t-19.5 -42h237zM147 224q-1 -10 -1 -17v-13q0 -45 28 -73t86 -28q21 0 37.5 6.5t29 16.5t22 23t17.5 25h142q-17 -44 -40 -77t-55 -55.5t-74.5 -34t-98.5 -11.5q-52 0 -94.5 14.5
t-72.5 43t-46.5 71t-16.5 97.5q0 62 20 119.5t56.5 102t89.5 71t119 26.5q54 0 98.5 -14t76 -42.5t49 -71t17.5 -98.5q0 -41 -8 -81h-381zM366 589h-100l88 142h152z" />
    <glyph glyph-name="ecircumflex" unicode="&#xea;" horiz-adv-x="574" 
d="M399 314q0 20 -3.5 39.5t-13.5 35.5t-29 25.5t-50 9.5q-30 0 -53 -9t-40 -24t-28.5 -35t-19.5 -42h237zM147 224q-1 -10 -1 -17v-13q0 -45 28 -73t86 -28q21 0 37.5 6.5t29 16.5t22 23t17.5 25h142q-17 -44 -40 -77t-55 -55.5t-74.5 -34t-98.5 -11.5q-52 0 -94.5 14.5
t-72.5 43t-46.5 71t-16.5 97.5q0 62 20 119.5t56.5 102t89.5 71t119 26.5q54 0 98.5 -14t76 -42.5t49 -71t17.5 -98.5q0 -41 -8 -81h-381zM288 731h126l83 -142h-100l-50 81l-87 -81h-109z" />
    <glyph glyph-name="ecaron" unicode="&#x11b;" horiz-adv-x="574" 
d="M399 314q0 20 -3.5 39.5t-13.5 35.5t-29 25.5t-50 9.5q-30 0 -53 -9t-40 -24t-28.5 -35t-19.5 -42h237zM147 224q-1 -10 -1 -17v-13q0 -45 28 -73t86 -28q21 0 37.5 6.5t29 16.5t22 23t17.5 25h142q-17 -44 -40 -77t-55 -55.5t-74.5 -34t-98.5 -11.5q-52 0 -94.5 14.5
t-72.5 43t-46.5 71t-16.5 97.5q0 62 20 119.5t56.5 102t89.5 71t119 26.5q54 0 98.5 -14t76 -42.5t49 -71t17.5 -98.5q0 -41 -8 -81h-381zM377 589h-126l-83 142h100l50 -83l87 83h109z" />
    <glyph glyph-name="edieresis" unicode="&#xeb;" horiz-adv-x="574" 
d="M399 314q0 20 -3.5 39.5t-13.5 35.5t-29 25.5t-50 9.5q-30 0 -53 -9t-40 -24t-28.5 -35t-19.5 -42h237zM147 224q-1 -10 -1 -17v-13q0 -45 28 -73t86 -28q21 0 37.5 6.5t29 16.5t22 23t17.5 25h142q-17 -44 -40 -77t-55 -55.5t-74.5 -34t-98.5 -11.5q-52 0 -94.5 14.5
t-72.5 43t-46.5 71t-16.5 97.5q0 62 20 119.5t56.5 102t89.5 71t119 26.5q54 0 98.5 -14t76 -42.5t49 -71t17.5 -98.5q0 -41 -8 -81h-381zM186 715h131l-24 -117h-131zM382 715h131l-24 -117h-131z" />
    <glyph glyph-name="emacron" unicode="&#x113;" horiz-adv-x="574" 
d="M399 314q0 20 -3.5 39.5t-13.5 35.5t-29 25.5t-50 9.5q-30 0 -53 -9t-40 -24t-28.5 -35t-19.5 -42h237zM147 224q-1 -10 -1 -17v-13q0 -45 28 -73t86 -28q21 0 37.5 6.5t29 16.5t22 23t17.5 25h142q-17 -44 -40 -77t-55 -55.5t-74.5 -34t-98.5 -11.5q-52 0 -94.5 14.5
t-72.5 43t-46.5 71t-16.5 97.5q0 62 20 119.5t56.5 102t89.5 71t119 26.5q54 0 98.5 -14t76 -42.5t49 -71t17.5 -98.5q0 -41 -8 -81h-381zM191 694h305l-14 -75h-305z" />
    <glyph glyph-name="ebreve" unicode="&#x115;" horiz-adv-x="574" 
d="M399 314q0 20 -3.5 39.5t-13.5 35.5t-29 25.5t-50 9.5q-30 0 -53 -9t-40 -24t-28.5 -35t-19.5 -42h237zM147 224q-1 -10 -1 -17v-13q0 -45 28 -73t86 -28q21 0 37.5 6.5t29 16.5t22 23t17.5 25h142q-17 -44 -40 -77t-55 -55.5t-74.5 -34t-98.5 -11.5q-52 0 -94.5 14.5
t-72.5 43t-46.5 71t-16.5 97.5q0 62 20 119.5t56.5 102t89.5 71t119 26.5q54 0 98.5 -14t76 -42.5t49 -71t17.5 -98.5q0 -41 -8 -81h-381zM242 733q3 -37 29.5 -54t64.5 -17q45 0 70.5 18.5t43.5 52.5h66q-20 -70 -66.5 -108t-122.5 -38q-69 0 -109.5 39.5t-40.5 106.5h65z
" />
    <glyph glyph-name="edotaccent" unicode="&#x117;" horiz-adv-x="574" 
d="M399 314q0 20 -3.5 39.5t-13.5 35.5t-29 25.5t-50 9.5q-30 0 -53 -9t-40 -24t-28.5 -35t-19.5 -42h237zM147 224q-1 -10 -1 -17v-13q0 -45 28 -73t86 -28q21 0 37.5 6.5t29 16.5t22 23t17.5 25h142q-17 -44 -40 -77t-55 -55.5t-74.5 -34t-98.5 -11.5q-52 0 -94.5 14.5
t-72.5 43t-46.5 71t-16.5 97.5q0 62 20 119.5t56.5 102t89.5 71t119 26.5q54 0 98.5 -14t76 -42.5t49 -71t17.5 -98.5q0 -41 -8 -81h-381zM286 715h131l-24 -117h-131z" />
    <glyph glyph-name="eogonek" unicode="&#x119;" horiz-adv-x="574" 
d="M333 -152q-28 -35 -59 -50t-73 -15q-9 0 -27 2t-36 11t-31 26.5t-13 49.5q0 10 4.5 25t20 32t44.5 36q18 12 44 23q-33 3 -62 12q-42 15 -72 43.5t-46.5 71t-16.5 97.5q0 62 20 119.5t56.5 102t89.5 71t119 26.5q54 0 98.5 -14t76 -42.5t49 -71t17.5 -98.5q0 -41 -8 -81
h-381q-1 -10 -1 -17v-13q0 -45 28 -73t86 -28q21 0 37.5 6.5t29 16.5t22 23t17.5 25h142q-17 -44 -40 -77t-55 -55.5t-75 -33.5q-24 -7 -52 -10q-22 -14 -38 -25q-22 -17 -35 -32t-18 -28t-5 -26q0 -15 12 -24.5t27 -9.5q16 0 29 6.5t29 23.5zM399 314q0 20 -3.5 39.5
t-13.5 35.5t-29 25.5t-50 9.5q-30 0 -53 -9t-40 -24t-28.5 -35t-19.5 -42h237z" />
    <glyph glyph-name="gcircumflex" unicode="&#x11d;" horiz-adv-x="611" 
d="M487 27q-13 -59 -35 -101t-56.5 -69t-82 -40t-111.5 -13q-39 0 -78.5 9t-71 29t-51.5 52t-20 79h142q-1 -20 7 -34t21.5 -23t30.5 -13t34 -4q34 0 56.5 14t38.5 38t27 57t22 71l-2 2q-55 -73 -142 -73q-46 0 -83 15t-62.5 43t-39.5 66.5t-14 86.5q0 57 17.5 112.5t51 100
t82 72t110.5 27.5q54 0 95 -21t63 -72h2l16 79h136zM304 424q-36 0 -63 -19t-45 -47.5t-27.5 -63t-9.5 -65.5q0 -23 5.5 -43.5t17.5 -36.5t30 -25t43 -9q38 0 66.5 18.5t47 47t28 63.5t9.5 68q0 49 -25 80.5t-77 31.5zM329 731h126l83 -142h-100l-50 81l-87 -81h-109z" />
    <glyph glyph-name="gbreve" unicode="&#x11f;" horiz-adv-x="611" 
d="M487 27q-13 -59 -35 -101t-56.5 -69t-82 -40t-111.5 -13q-39 0 -78.5 9t-71 29t-51.5 52t-20 79h142q-1 -20 7 -34t21.5 -23t30.5 -13t34 -4q34 0 56.5 14t38.5 38t27 57t22 71l-2 2q-55 -73 -142 -73q-46 0 -83 15t-62.5 43t-39.5 66.5t-14 86.5q0 57 17.5 112.5t51 100
t82 72t110.5 27.5q54 0 95 -21t63 -72h2l16 79h136zM304 424q-36 0 -63 -19t-45 -47.5t-27.5 -63t-9.5 -65.5q0 -23 5.5 -43.5t17.5 -36.5t30 -25t43 -9q38 0 66.5 18.5t47 47t28 63.5t9.5 68q0 49 -25 80.5t-77 31.5zM276 733q3 -37 29.5 -54t64.5 -17q45 0 70.5 18.5
t43.5 52.5h66q-20 -70 -66.5 -108t-122.5 -38q-69 0 -109.5 39.5t-40.5 106.5h65z" />
    <glyph glyph-name="gdotaccent" unicode="&#x121;" horiz-adv-x="611" 
d="M487 27q-13 -59 -35 -101t-56.5 -69t-82 -40t-111.5 -13q-39 0 -78.5 9t-71 29t-51.5 52t-20 79h142q-1 -20 7 -34t21.5 -23t30.5 -13t34 -4q34 0 56.5 14t38.5 38t27 57t22 71l-2 2q-55 -73 -142 -73q-46 0 -83 15t-62.5 43t-39.5 66.5t-14 86.5q0 57 17.5 112.5t51 100
t82 72t110.5 27.5q54 0 95 -21t63 -72h2l16 79h136zM304 424q-36 0 -63 -19t-45 -47.5t-27.5 -63t-9.5 -65.5q0 -23 5.5 -43.5t17.5 -36.5t30 -25t43 -9q38 0 66.5 18.5t47 47t28 63.5t9.5 68q0 49 -25 80.5t-77 31.5zM300 715h131l-24 -117h-131z" />
    <glyph glyph-name="gcommaaccent" unicode="&#x123;" horiz-adv-x="611" 
d="M487 27q-13 -59 -35 -101t-56.5 -69t-82 -40t-111.5 -13q-39 0 -78.5 9t-71 29t-51.5 52t-20 79h142q-1 -20 7 -34t21.5 -23t30.5 -13t34 -4q34 0 56.5 14t38.5 38t27 57t22 71l-2 2q-55 -73 -142 -73q-46 0 -83 15t-62.5 43t-39.5 66.5t-14 86.5q0 57 17.5 112.5t51 100
t82 72t110.5 27.5q54 0 95 -21t63 -72h2l16 79h136zM304 424q-36 0 -63 -19t-45 -47.5t-27.5 -63t-9.5 -65.5q0 -23 5.5 -43.5t17.5 -36.5t30 -25t43 -9q38 0 66.5 18.5t47 47t28 63.5t9.5 68q0 49 -25 80.5t-77 31.5zM429 621h-145l15 73q6 29 21.5 49.5t34.5 29.5t44 12
t55 3l-8 -37q-24 -2 -40 -10t-25 -27h67z" />
    <glyph glyph-name="hcircumflex" unicode="&#x125;" horiz-adv-x="611" 
d="M137 714h142l-53 -257h2q8 11 23 24t36 24t49 18.5t63 7.5q74 0 112.5 -35.5t38.5 -103.5q0 -8 -2 -20.5t-4 -25.5t-5 -24.5t-4 -18.5l-64 -303h-142l63 303q1 6 3 14.5t3 17.5t2 17.5t1 13.5q0 23 -21.5 38t-46.5 15q-32 0 -56.5 -12.5t-42.5 -32.5t-29 -46t-17 -53
l-58 -275h-142zM337 921h126l83 -142h-100l-50 81l-87 -81h-109z" />
    <glyph glyph-name="hbar" unicode="&#x127;" horiz-adv-x="643" 
d="M57 646h97l15 68h142l-14 -68h100l-14 -75h-102l-23 -114h2q8 11 23 24t36 24t49 18.5t63 7.5q74 0 112.5 -35.5t38.5 -103.5q0 -8 -2 -20.5t-4 -25.5t-5 -24.5t-4 -18.5l-64 -303h-142l63 303q1 6 3 14.5t3 17.5t2 17.5t1 13.5q0 23 -21.5 38t-46.5 15
q-32 0 -56.5 -12.5t-42.5 -32.5t-29 -46t-17 -53l-58 -275h-142l119 571h-96z" />
    <glyph glyph-name="igrave" unicode="&#xec;" 
d="M131 0h-143l110 517h143zM239 589h-100l-140 142h152z" />
    <glyph glyph-name="iacute" unicode="&#xed;" 
d="M131 0h-143l110 517h143zM201 589h-100l88 142h152z" />
    <glyph glyph-name="icircumflex" unicode="&#xee;" 
d="M131 0h-143l110 517h143zM144 731h126l83 -142h-100l-50 81l-87 -81h-109z" />
    <glyph glyph-name="itilde" unicode="&#x129;" 
d="M131 0h-143l110 517h143zM364 721q-5 -17 -12 -37t-19 -37t-31 -28.5t-50 -11.5q-23 0 -43 5.5t-39 11.5q-19 7 -36 12t-34 5q-20 0 -28.5 -11.5t-13.5 -30.5h-61q5 22 13 43.5t22 39t36 28.5t55 11q17 0 32.5 -5.5t31.5 -11.5q16 -7 32.5 -12.5t33.5 -5.5q23 0 33 10.5
t9 24.5h69z" />
    <glyph glyph-name="idieresis" unicode="&#xef;" 
d="M131 0h-143l110 517h143zM44 715h131l-24 -117h-131zM240 715h131l-24 -117h-131z" />
    <glyph glyph-name="imacron" unicode="&#x12b;" 
d="M131 0h-143l110 517h143zM44 694h305l-14 -75h-305z" />
    <glyph glyph-name="iogonek" unicode="&#x12f;" 
d="M154 -152q-25 -35 -53 -50t-66 -15q-8 0 -24 2t-32.5 11t-28 26.5t-11.5 49.5q0 10 4 25t18 32t40.5 36t70.5 35h-84l110 517h143l-110 -517q-33 -21 -53 -37.5t-32 -31.5t-16.5 -28t-4.5 -26q0 -15 11 -24.5t25 -9.5t25.5 6.5t26.5 23.5zM257 597h-143l26 117h143z" />
    <glyph glyph-name="dotlessj" 
d="M-108 -63q13 -1 25.5 -1.5t25.5 -0.5q14 0 23.5 10.5t15.5 25.5t9 30.5t6 26.5l103 489h142l-113 -536q-9 -41 -22 -72t-35 -51t-54.5 -30t-80.5 -10q-17 0 -34.5 2t-34.5 3z" />
    <glyph glyph-name="jcircumflex" unicode="&#x135;" 
d="M-108 -63q13 -1 25.5 -1.5t25.5 -0.5q14 0 23.5 10.5t15.5 25.5t9 30.5t6 26.5l103 489h142l-113 -536q-9 -41 -22 -72t-35 -51t-54.5 -30t-80.5 -10q-17 0 -34.5 2t-34.5 3zM134 731h126l83 -142h-100l-50 81l-87 -81h-109z" />
    <glyph glyph-name="kcommaaccent" unicode="&#x137;" horiz-adv-x="556" 
d="M138 714h142l-82 -388l2 -2l204 193h175l-232 -196l133 -321h-156l-85 231l-74 -63l-35 -168h-142zM148 -50h145l-15 -73q-6 -29 -21.5 -49.5t-34.5 -29.5t-44 -12t-55 -3l8 37q24 2 40 10t25 27h-67z" />
    <glyph glyph-name="lacute" unicode="&#x13a;" 
d="M140 714h142l-152 -714h-142zM250 779h-100l88 142h152z" />
    <glyph glyph-name="lcaron" unicode="&#x13e;" horiz-adv-x="367" 
d="M140 714h142l-152 -714h-142zM396 572h-98l67 142h148z" />
    <glyph glyph-name="lcommaaccent" unicode="&#x13c;" 
d="M140 714h142l-152 -714h-142zM-21 -50h145l-15 -73q-6 -29 -21.5 -49.5t-34.5 -29.5t-44 -12t-55 -3l8 37q24 2 40 10t25 27h-67z" />
    <glyph glyph-name="nacute" unicode="&#x144;" horiz-adv-x="611" 
d="M96 517h136l-16 -72h2q69 86 181 86q74 0 112.5 -35.5t38.5 -103.5q0 -8 -2 -20.5t-4 -25.5t-5 -24.5t-4 -18.5l-64 -303h-142l63 303q1 6 3 14.5t3 17.5t2 17.5t1 13.5q0 23 -21.5 38t-46.5 15q-32 0 -56.5 -12.5t-42.5 -32.5t-29 -46t-17 -53l-58 -275h-142zM381 589
h-100l88 142h152z" />
    <glyph glyph-name="ncaron" unicode="&#x148;" horiz-adv-x="611" 
d="M96 517h136l-16 -72h2q69 86 181 86q74 0 112.5 -35.5t38.5 -103.5q0 -8 -2 -20.5t-4 -25.5t-5 -24.5t-4 -18.5l-64 -303h-142l63 303q1 6 3 14.5t3 17.5t2 17.5t1 13.5q0 23 -21.5 38t-46.5 15q-32 0 -56.5 -12.5t-42.5 -32.5t-29 -46t-17 -53l-58 -275h-142zM396 589
h-126l-83 142h100l50 -83l87 83h109z" />
    <glyph glyph-name="ntilde" unicode="&#xf1;" horiz-adv-x="611" 
d="M96 517h136l-16 -72h2q69 86 181 86q74 0 112.5 -35.5t38.5 -103.5q0 -8 -2 -20.5t-4 -25.5t-5 -24.5t-4 -18.5l-64 -303h-142l63 303q1 6 3 14.5t3 17.5t2 17.5t1 13.5q0 23 -21.5 38t-46.5 15q-32 0 -56.5 -12.5t-42.5 -32.5t-29 -46t-17 -53l-58 -275h-142zM536 721
q-5 -17 -12 -37t-19 -37t-31 -28.5t-50 -11.5q-23 0 -43 5.5t-39 11.5q-19 7 -36 12t-34 5q-20 0 -28.5 -11.5t-13.5 -30.5h-61q5 22 13 43.5t22 39t36 28.5t55 11q17 0 32.5 -5.5t31.5 -11.5q16 -7 32.5 -12.5t33.5 -5.5q23 0 33 10.5t9 24.5h69z" />
    <glyph glyph-name="ncommaaccent" unicode="&#x146;" horiz-adv-x="611" 
d="M96 517h136l-16 -72h2q69 86 181 86q74 0 112.5 -35.5t38.5 -103.5q0 -8 -2 -20.5t-4 -25.5t-5 -24.5t-4 -18.5l-64 -303h-142l63 303q1 6 3 14.5t3 17.5t2 17.5t1 13.5q0 23 -21.5 38t-46.5 15q-32 0 -56.5 -12.5t-42.5 -32.5t-29 -46t-17 -53l-58 -275h-142zM149 -50
h145l-15 -73q-6 -29 -21.5 -49.5t-34.5 -29.5t-44 -12t-55 -3l8 37q24 2 40 10t25 27h-67z" />
    <glyph glyph-name="ograve" unicode="&#xf2;" horiz-adv-x="593" 
d="M152 209q0 -23 6.5 -44t19.5 -37t32 -25.5t44 -9.5q40 0 68.5 21.5t47 54t27.5 70.5t9 71q0 52 -24 83t-80 31q-39 0 -67.5 -21.5t-46.5 -53.5t-27 -69.5t-9 -70.5zM10 209q0 66 20.5 124.5t59 102.5t93.5 69.5t124 25.5q53 0 97.5 -13.5t76.5 -40.5t49.5 -68t17.5 -97
q0 -68 -20.5 -127.5t-59.5 -103.5t-95 -69.5t-126 -25.5q-108 0 -172.5 56t-64.5 167zM387 589h-100l-140 142h152z" />
    <glyph glyph-name="oacute" unicode="&#xf3;" horiz-adv-x="593" 
d="M152 209q0 -23 6.5 -44t19.5 -37t32 -25.5t44 -9.5q40 0 68.5 21.5t47 54t27.5 70.5t9 71q0 52 -24 83t-80 31q-39 0 -67.5 -21.5t-46.5 -53.5t-27 -69.5t-9 -70.5zM10 209q0 66 20.5 124.5t59 102.5t93.5 69.5t124 25.5q53 0 97.5 -13.5t76.5 -40.5t49.5 -68t17.5 -97
q0 -68 -20.5 -127.5t-59.5 -103.5t-95 -69.5t-126 -25.5q-108 0 -172.5 56t-64.5 167zM389 589h-100l88 142h152z" />
    <glyph glyph-name="ocircumflex" unicode="&#xf4;" horiz-adv-x="593" 
d="M152 209q0 -23 6.5 -44t19.5 -37t32 -25.5t44 -9.5q40 0 68.5 21.5t47 54t27.5 70.5t9 71q0 52 -24 83t-80 31q-39 0 -67.5 -21.5t-46.5 -53.5t-27 -69.5t-9 -70.5zM10 209q0 66 20.5 124.5t59 102.5t93.5 69.5t124 25.5q53 0 97.5 -13.5t76.5 -40.5t49.5 -68t17.5 -97
q0 -68 -20.5 -127.5t-59.5 -103.5t-95 -69.5t-126 -25.5q-108 0 -172.5 56t-64.5 167zM302 731h126l83 -142h-100l-50 81l-87 -81h-109z" />
    <glyph glyph-name="otilde" unicode="&#xf5;" horiz-adv-x="593" 
d="M152 209q0 -23 6.5 -44t19.5 -37t32 -25.5t44 -9.5q40 0 68.5 21.5t47 54t27.5 70.5t9 71q0 52 -24 83t-80 31q-39 0 -67.5 -21.5t-46.5 -53.5t-27 -69.5t-9 -70.5zM10 209q0 66 20.5 124.5t59 102.5t93.5 69.5t124 25.5q53 0 97.5 -13.5t76.5 -40.5t49.5 -68t17.5 -97
q0 -68 -20.5 -127.5t-59.5 -103.5t-95 -69.5t-126 -25.5q-108 0 -172.5 56t-64.5 167zM531 721q-5 -17 -12 -37t-19 -37t-31 -28.5t-50 -11.5q-23 0 -43 5.5t-39 11.5q-19 7 -36 12t-34 5q-20 0 -28.5 -11.5t-13.5 -30.5h-61q5 22 13 43.5t22 39t36 28.5t55 11
q17 0 32.5 -5.5t31.5 -11.5q16 -7 32.5 -12.5t33.5 -5.5q23 0 33 10.5t9 24.5h69z" />
    <glyph glyph-name="odieresis" unicode="&#xf6;" horiz-adv-x="593" 
d="M152 209q0 -23 6.5 -44t19.5 -37t32 -25.5t44 -9.5q40 0 68.5 21.5t47 54t27.5 70.5t9 71q0 52 -24 83t-80 31q-39 0 -67.5 -21.5t-46.5 -53.5t-27 -69.5t-9 -70.5zM10 209q0 66 20.5 124.5t59 102.5t93.5 69.5t124 25.5q53 0 97.5 -13.5t76.5 -40.5t49.5 -68t17.5 -97
q0 -68 -20.5 -127.5t-59.5 -103.5t-95 -69.5t-126 -25.5q-108 0 -172.5 56t-64.5 167zM207 715h131l-24 -117h-131zM403 715h131l-24 -117h-131z" />
    <glyph glyph-name="omacron" unicode="&#x14d;" horiz-adv-x="593" 
d="M152 209q0 -23 6.5 -44t19.5 -37t32 -25.5t44 -9.5q40 0 68.5 21.5t47 54t27.5 70.5t9 71q0 52 -24 83t-80 31q-39 0 -67.5 -21.5t-46.5 -53.5t-27 -69.5t-9 -70.5zM10 209q0 66 20.5 124.5t59 102.5t93.5 69.5t124 25.5q53 0 97.5 -13.5t76.5 -40.5t49.5 -68t17.5 -97
q0 -68 -20.5 -127.5t-59.5 -103.5t-95 -69.5t-126 -25.5q-108 0 -172.5 56t-64.5 167zM204 694h305l-14 -75h-305z" />
    <glyph glyph-name="obreve" unicode="&#x14f;" horiz-adv-x="593" 
d="M152 209q0 -23 6.5 -44t19.5 -37t32 -25.5t44 -9.5q40 0 68.5 21.5t47 54t27.5 70.5t9 71q0 52 -24 83t-80 31q-39 0 -67.5 -21.5t-46.5 -53.5t-27 -69.5t-9 -70.5zM10 209q0 66 20.5 124.5t59 102.5t93.5 69.5t124 25.5q53 0 97.5 -13.5t76.5 -40.5t49.5 -68t17.5 -97
q0 -68 -20.5 -127.5t-59.5 -103.5t-95 -69.5t-126 -25.5q-108 0 -172.5 56t-64.5 167zM254 733q3 -37 29.5 -54t64.5 -17q45 0 70.5 18.5t43.5 52.5h66q-20 -70 -66.5 -108t-122.5 -38q-69 0 -109.5 39.5t-40.5 106.5h65z" />
    <glyph glyph-name="ohungarumlaut" unicode="&#x151;" horiz-adv-x="593" 
d="M152 209q0 -23 6.5 -44t19.5 -37t32 -25.5t44 -9.5q40 0 68.5 21.5t47 54t27.5 70.5t9 71q0 52 -24 83t-80 31q-39 0 -67.5 -21.5t-46.5 -53.5t-27 -69.5t-9 -70.5zM10 209q0 66 20.5 124.5t59 102.5t93.5 69.5t124 25.5q53 0 97.5 -13.5t76.5 -40.5t49.5 -68t17.5 -97
q0 -68 -20.5 -127.5t-59.5 -103.5t-95 -69.5t-126 -25.5q-108 0 -172.5 56t-64.5 167zM481 589h-100l88 142h152zM281 589h-100l88 142h152z" />
    <glyph glyph-name="racute" unicode="&#x155;" horiz-adv-x="389" 
d="M96 517h135l-21 -93l2 -2q24 54 72.5 81.5t105.5 27.5q21 0 44 -3l-29 -138l-30 6t-30 3q-41 0 -69.5 -14t-48 -38t-31 -54.5t-18.5 -63.5l-48 -229h-142zM241 589h-100l88 142h152z" />
    <glyph glyph-name="rcommaaccent" unicode="&#x157;" horiz-adv-x="389" 
d="M96 517h135l-21 -93l2 -2q24 54 72.5 81.5t105.5 27.5q21 0 44 -3l-29 -138l-30 6t-30 3q-41 0 -69.5 -14t-48 -38t-31 -54.5t-18.5 -63.5l-48 -229h-142zM-19 -50h145l-15 -73q-6 -29 -21.5 -49.5t-34.5 -29.5t-44 -12t-55 -3l8 37q24 2 40 10t25 27h-67z" />
    <glyph glyph-name="rcaron" unicode="&#x159;" horiz-adv-x="389" 
d="M96 517h135l-21 -93l2 -2q24 54 72.5 81.5t105.5 27.5q21 0 44 -3l-29 -138l-30 6t-30 3q-41 0 -69.5 -14t-48 -38t-31 -54.5t-18.5 -63.5l-48 -229h-142zM328 589h-126l-83 142h100l50 -83l87 83h109z" />
    <glyph glyph-name="sacute" unicode="&#x15b;" horiz-adv-x="519" 
d="M352 366q-1 33 -20 51.5t-60 18.5q-38 0 -62.5 -11.5t-24.5 -39.5q0 -17 14.5 -29t50.5 -23l71 -23q28 -9 53 -21.5t43.5 -29.5t29 -40.5t10.5 -56.5q0 -48 -21.5 -81.5t-56.5 -54.5t-79 -30.5t-89 -9.5q-38 0 -77 8t-71 27t-52 50t-20 76v21h132v-17q0 -18 9 -31
t23.5 -21.5t33 -13t36.5 -4.5q16 0 32 3t29 10.5t21 19t8 29.5q0 27 -14 38t-37 19l-109 35q-27 9 -47.5 19t-35 25t-22 36.5t-7.5 51.5q0 46 21.5 77t55.5 50.5t74 28t78 8.5q42 0 81 -7t68 -25.5t46.5 -50.5t16.5 -82h-132zM338 589h-100l88 142h152z" />
    <glyph glyph-name="scircumflex" unicode="&#x15d;" horiz-adv-x="519" 
d="M352 366q-1 33 -20 51.5t-60 18.5q-38 0 -62.5 -11.5t-24.5 -39.5q0 -17 14.5 -29t50.5 -23l71 -23q28 -9 53 -21.5t43.5 -29.5t29 -40.5t10.5 -56.5q0 -48 -21.5 -81.5t-56.5 -54.5t-79 -30.5t-89 -9.5q-38 0 -77 8t-71 27t-52 50t-20 76v21h132v-17q0 -18 9 -31
t23.5 -21.5t33 -13t36.5 -4.5q16 0 32 3t29 10.5t21 19t8 29.5q0 27 -14 38t-37 19l-109 35q-27 9 -47.5 19t-35 25t-22 36.5t-7.5 51.5q0 46 21.5 77t55.5 50.5t74 28t78 8.5q42 0 81 -7t68 -25.5t46.5 -50.5t16.5 -82h-132zM261 731h126l83 -142h-100l-50 81l-87 -81h-109
z" />
    <glyph glyph-name="scaron" unicode="&#x161;" horiz-adv-x="519" 
d="M352 366q-1 33 -20 51.5t-60 18.5q-38 0 -62.5 -11.5t-24.5 -39.5q0 -17 14.5 -29t50.5 -23l71 -23q28 -9 53 -21.5t43.5 -29.5t29 -40.5t10.5 -56.5q0 -48 -21.5 -81.5t-56.5 -54.5t-79 -30.5t-89 -9.5q-38 0 -77 8t-71 27t-52 50t-20 76v21h132v-17q0 -18 9 -31
t23.5 -21.5t33 -13t36.5 -4.5q16 0 32 3t29 10.5t21 19t8 29.5q0 27 -14 38t-37 19l-109 35q-27 9 -47.5 19t-35 25t-22 36.5t-7.5 51.5q0 46 21.5 77t55.5 50.5t74 28t78 8.5q42 0 81 -7t68 -25.5t46.5 -50.5t16.5 -82h-132zM351 589h-126l-83 142h100l50 -83l87 83h109z
" />
    <glyph glyph-name="scedilla" unicode="&#x15f;" horiz-adv-x="519" 
d="M71 -147q16 -7 37 -12.5t47 -5.5q18 0 29 8t11 25q0 19 -11.5 25.5t-28.5 6.5q-21 0 -40 -7l-21 24l53 75q-7 1 -13 2q-39 8 -71 27t-52 50t-20 76v21h132v-17q0 -18 9 -31t23.5 -21.5t33 -13t36.5 -4.5q16 0 32 3t29 10.5t21 19t8 29.5q0 27 -14 38t-37 19l-109 35
q-27 9 -47.5 19t-35 25t-22 36.5t-7.5 51.5q0 46 21.5 77t55.5 50.5t74 28t78 8.5q42 0 81 -7t68 -25.5t46.5 -50.5t16.5 -82h-132q-1 33 -20 51.5t-60 18.5q-38 0 -62.5 -11.5t-24.5 -39.5q0 -17 14.5 -29t50.5 -23l71 -23q28 -9 53 -21.5t43.5 -29.5t29 -40.5t10.5 -56.5
q0 -48 -21.5 -81.5t-56.5 -54.5t-79 -30.5t-89 -9.5q-10 0 -19 1l-29 -40l3 -2q19 7 35 7q15 0 31.5 -4t29.5 -12.5t21 -22t8 -31.5q0 -29 -10 -48.5t-26.5 -30.5t-37.5 -15.5t-43 -4.5q-24 0 -41 1.5t-30.5 4.5t-26 7t-26.5 9z" />
    <glyph glyph-name="scommaaccent" unicode="&#x219;" horiz-adv-x="519" 
d="M352 366q-1 33 -20 51.5t-60 18.5q-38 0 -62.5 -11.5t-24.5 -39.5q0 -17 14.5 -29t50.5 -23l71 -23q28 -9 53 -21.5t43.5 -29.5t29 -40.5t10.5 -56.5q0 -48 -21.5 -81.5t-56.5 -54.5t-79 -30.5t-89 -9.5q-38 0 -77 8t-71 27t-52 50t-20 76v21h132v-17q0 -18 9 -31
t23.5 -21.5t33 -13t36.5 -4.5q16 0 32 3t29 10.5t21 19t8 29.5q0 27 -14 38t-37 19l-109 35q-27 9 -47.5 19t-35 25t-22 36.5t-7.5 51.5q0 46 21.5 77t55.5 50.5t74 28t78 8.5q42 0 81 -7t68 -25.5t46.5 -50.5t16.5 -82h-132zM127 -50h145l-15 -73q-6 -29 -21.5 -49.5
t-34.5 -29.5t-44 -12t-55 -3l8 37q24 2 40 10t25 27h-67z" />
    <glyph glyph-name="tcaron" unicode="&#x165;" horiz-adv-x="454" 
d="M479 572h-98l67 142h148zM278 517h102l-22 -95h-101l-53 -257q-2 -8 -3 -14.5t-1 -9.5q0 -14 4.5 -21.5t11.5 -11.5t15.5 -4.5t16.5 -0.5q25 0 51 3l-24 -110q-22 -2 -44 -3.5t-45 -1.5q-25 0 -49.5 4.5t-43.5 16.5t-31 32t-11 52q0 10 2 22.5t5 26.5l58 277h-93l22 95
h91l32 157h142z" />
    <glyph glyph-name="tcommaaccent" unicode="&#x163;" horiz-adv-x="370" 
d="M278 517h102l-22 -95h-101l-53 -257q-2 -8 -3 -14.5t-1 -9.5q0 -14 4.5 -21.5t11.5 -11.5t15.5 -4.5t16.5 -0.5q25 0 51 3l-24 -110q-22 -2 -44 -3.5t-45 -1.5q-25 0 -49.5 4.5t-43.5 16.5t-31 32t-11 52q0 10 2 22.5t5 26.5l58 277h-93l22 95h91l32 157h142zM88 -50h145
l-15 -73q-6 -29 -21.5 -49.5t-34.5 -29.5t-44 -12t-55 -3l8 37q24 2 40 10t25 27h-67z" />
    <glyph glyph-name="tbar" unicode="&#x167;" horiz-adv-x="370" 
d="M-3 346h103l16 76h-93l22 95h91l32 157h142l-32 -157h102l-22 -95h-101l-16 -76h111l-14 -75h-112l-22 -106q-2 -8 -3 -14.5t-1 -9.5q0 -14 4.5 -21.5t11.5 -11.5t15.5 -4.5t16.5 -0.5q25 0 51 3l-24 -110q-22 -2 -44 -3.5t-45 -1.5q-25 0 -49.5 4.5t-43.5 16.5t-31 32
t-11 52q0 10 2 22.5t5 26.5l26 126h-101z" />
    <glyph glyph-name="ugrave" unicode="&#xf9;" horiz-adv-x="611" 
d="M478 0h-136l16 72h-2q-69 -86 -181 -86q-74 0 -112.5 35.5t-38.5 103.5q0 8 2 20.5t4 25.5t4.5 24.5t4.5 18.5l64 303h142l-63 -303q-2 -6 -3.5 -14.5t-2.5 -17.5t-2 -17.5t-1 -13.5q0 -23 21.5 -38t46.5 -15q32 0 56.5 12.5t42.5 32.5t29 46t17 53l58 275h142zM408 589
h-100l-140 142h152z" />
    <glyph glyph-name="uacute" unicode="&#xfa;" horiz-adv-x="611" 
d="M478 0h-136l16 72h-2q-69 -86 -181 -86q-74 0 -112.5 35.5t-38.5 103.5q0 8 2 20.5t4 25.5t4.5 24.5t4.5 18.5l64 303h142l-63 -303q-2 -6 -3.5 -14.5t-2.5 -17.5t-2 -17.5t-1 -13.5q0 -23 21.5 -38t46.5 -15q32 0 56.5 12.5t42.5 32.5t29 46t17 53l58 275h142zM405 589
h-100l88 142h152z" />
    <glyph glyph-name="ucircumflex" unicode="&#xfb;" horiz-adv-x="611" 
d="M478 0h-136l16 72h-2q-69 -86 -181 -86q-74 0 -112.5 35.5t-38.5 103.5q0 8 2 20.5t4 25.5t4.5 24.5t4.5 18.5l64 303h142l-63 -303q-2 -6 -3.5 -14.5t-2.5 -17.5t-2 -17.5t-1 -13.5q0 -23 21.5 -38t46.5 -15q32 0 56.5 12.5t42.5 32.5t29 46t17 53l58 275h142zM316 731
h126l83 -142h-100l-50 81l-87 -81h-109z" />
    <glyph glyph-name="utilde" unicode="&#x169;" horiz-adv-x="611" 
d="M478 0h-136l16 72h-2q-69 -86 -181 -86q-74 0 -112.5 35.5t-38.5 103.5q0 8 2 20.5t4 25.5t4.5 24.5t4.5 18.5l64 303h142l-63 -303q-2 -6 -3.5 -14.5t-2.5 -17.5t-2 -17.5t-1 -13.5q0 -23 21.5 -38t46.5 -15q32 0 56.5 12.5t42.5 32.5t29 46t17 53l58 275h142zM554 721
q-5 -17 -12 -37t-19 -37t-31 -28.5t-50 -11.5q-23 0 -43 5.5t-39 11.5q-19 7 -36 12t-34 5q-20 0 -28.5 -11.5t-13.5 -30.5h-61q5 22 13 43.5t22 39t36 28.5t55 11q17 0 32.5 -5.5t31.5 -11.5q16 -7 32.5 -12.5t33.5 -5.5q23 0 33 10.5t9 24.5h69z" />
    <glyph glyph-name="udieresis" unicode="&#xfc;" horiz-adv-x="611" 
d="M478 0h-136l16 72h-2q-69 -86 -181 -86q-74 0 -112.5 35.5t-38.5 103.5q0 8 2 20.5t4 25.5t4.5 24.5t4.5 18.5l64 303h142l-63 -303q-2 -6 -3.5 -14.5t-2.5 -17.5t-2 -17.5t-1 -13.5q0 -23 21.5 -38t46.5 -15q32 0 56.5 12.5t42.5 32.5t29 46t17 53l58 275h142zM216 715
h131l-24 -117h-131zM412 715h131l-24 -117h-131z" />
    <glyph glyph-name="umacron" unicode="&#x16b;" horiz-adv-x="611" 
d="M478 0h-136l16 72h-2q-69 -86 -181 -86q-74 0 -112.5 35.5t-38.5 103.5q0 8 2 20.5t4 25.5t4.5 24.5t4.5 18.5l64 303h142l-63 -303q-2 -6 -3.5 -14.5t-2.5 -17.5t-2 -17.5t-1 -13.5q0 -23 21.5 -38t46.5 -15q32 0 56.5 12.5t42.5 32.5t29 46t17 53l58 275h142zM221 694
h305l-14 -75h-305z" />
    <glyph glyph-name="ubreve" unicode="&#x16d;" horiz-adv-x="611" 
d="M478 0h-136l16 72h-2q-69 -86 -181 -86q-74 0 -112.5 35.5t-38.5 103.5q0 8 2 20.5t4 25.5t4.5 24.5t4.5 18.5l64 303h142l-63 -303q-2 -6 -3.5 -14.5t-2.5 -17.5t-2 -17.5t-1 -13.5q0 -23 21.5 -38t46.5 -15q32 0 56.5 12.5t42.5 32.5t29 46t17 53l58 275h142zM261 733
q3 -37 29.5 -54t64.5 -17q45 0 70.5 18.5t43.5 52.5h66q-20 -70 -66.5 -108t-122.5 -38q-69 0 -109.5 39.5t-40.5 106.5h65z" />
    <glyph glyph-name="uring" unicode="&#x16f;" horiz-adv-x="611" 
d="M478 0h-136l16 72h-2q-69 -86 -181 -86q-74 0 -112.5 35.5t-38.5 103.5q0 8 2 20.5t4 25.5t4.5 24.5t4.5 18.5l64 303h142l-63 -303q-2 -6 -3.5 -14.5t-2.5 -17.5t-2 -17.5t-1 -13.5q0 -23 21.5 -38t46.5 -15q32 0 56.5 12.5t42.5 32.5t29 46t17 53l58 275h142zM236 684
q0 25 9 47.5t25.5 38t39 25t48.5 9.5q25 0 47.5 -8.5t39.5 -25t26 -39t9 -47.5t-8.5 -47.5t-25 -38.5t-40 -24.5t-48.5 -8.5q-26 0 -49.5 8.5t-40 24.5t-24.5 38.5t-8 47.5zM296 684q0 -29 16.5 -48t45.5 -19t46 19t17 48t-17 48t-46 19t-45.5 -19t-16.5 -48z" />
    <glyph glyph-name="uhungarumlaut" unicode="&#x171;" horiz-adv-x="611" 
d="M478 0h-136l16 72h-2q-69 -86 -181 -86q-74 0 -112.5 35.5t-38.5 103.5q0 8 2 20.5t4 25.5t4.5 24.5t4.5 18.5l64 303h142l-63 -303q-2 -6 -3.5 -14.5t-2.5 -17.5t-2 -17.5t-1 -13.5q0 -23 21.5 -38t46.5 -15q32 0 56.5 12.5t42.5 32.5t29 46t17 53l58 275h142zM506 589
h-100l88 142h152zM306 589h-100l88 142h152z" />
    <glyph glyph-name="uogonek" unicode="&#x173;" horiz-adv-x="611" 
d="M478 0h-74q-53 -46 -65.5 -64t-16.5 -32t-4 -27q0 -15 10.5 -24.5t22.5 -9.5q14 0 25 6.5t27 20.5l37 -22q-24 -35 -50.5 -50t-61.5 -15q-8 0 -23.5 2t-30.5 11t-26 26.5t-11 49.5q0 10 7.5 32.5t32.5 45t65 50.5l16 72h-2q-69 -86 -181 -86q-74 0 -112.5 35.5
t-38.5 103.5q0 8 2 20.5t4 25.5t4.5 24.5t4.5 18.5l64 303h142l-63 -303q-2 -6 -3.5 -14.5t-2.5 -17.5t-2 -17.5t-1 -13.5q0 -23 21.5 -38t46.5 -15q32 0 56.5 12.5t42.5 32.5t29 46t17 53l58 275h142z" />
    <glyph glyph-name="wcircumflex" unicode="&#x175;" horiz-adv-x="815" 
d="M564 0h-148l-18 363h-2l-160 -363h-149l-57 517h145l20 -364h2l159 364h144l16 -361h2l166 361h150zM407 731h126l83 -142h-100l-50 81l-87 -81h-109z" />
    <glyph glyph-name="yacute" unicode="&#xfd;" horiz-adv-x="519" 
d="M214 -73q-18 -33 -37 -54.5t-42 -33.5t-52.5 -16.5t-69.5 -4.5q-19 0 -38 2t-38 3l24 118q14 0 29 -3t29 -3q25 0 40 7t25 17.5t16 23t13 22.5l-92 512h146l45 -370h2l179 370h150zM355 589h-100l88 142h152z" />
    <glyph glyph-name="ycircumflex" unicode="&#x177;" horiz-adv-x="519" 
d="M214 -73q-18 -33 -37 -54.5t-42 -33.5t-52.5 -16.5t-69.5 -4.5q-19 0 -38 2t-38 3l24 118q14 0 29 -3t29 -3q25 0 40 7t25 17.5t16 23t13 22.5l-92 512h146l45 -370h2l179 370h150zM259 731h126l83 -142h-100l-50 81l-87 -81h-109z" />
    <glyph glyph-name="ydieresis" unicode="&#xff;" horiz-adv-x="519" 
d="M214 -73q-18 -33 -37 -54.5t-42 -33.5t-52.5 -16.5t-69.5 -4.5q-19 0 -38 2t-38 3l24 118q14 0 29 -3t29 -3q25 0 40 7t25 17.5t16 23t13 22.5l-92 512h146l45 -370h2l179 370h150zM156 715h131l-24 -117h-131zM352 715h131l-24 -117h-131z" />
    <glyph glyph-name="zacute" unicode="&#x17a;" horiz-adv-x="500" 
d="M-29 105l324 305h-249l23 107h434l-22 -105l-325 -305h285l-23 -107h-469zM332 589h-100l88 142h152z" />
    <glyph glyph-name="zcaron" unicode="&#x17e;" horiz-adv-x="500" 
d="M-29 105l324 305h-249l23 107h434l-22 -105l-325 -305h285l-23 -107h-469zM354 589h-126l-83 142h100l50 -83l87 83h109z" />
    <glyph glyph-name="zdotaccent" unicode="&#x17c;" horiz-adv-x="500" 
d="M-29 105l324 305h-249l23 107h434l-22 -105l-325 -305h285l-23 -107h-469zM256 715h131l-24 -117h-131z" />
    <glyph glyph-name="afii61289" unicode="&#x2113;" horiz-adv-x="500" 
d="M500 595q0 -85 -65 -163.5t-194 -165.5q-10 -41 -15.5 -65.5t-8.5 -39t-3.5 -21.5t-0.5 -11q0 -24 13 -34.5t31 -10.5q20 0 42 8.5t56 30.5h2l33 -77q-45 -32 -86 -46t-87 -14q-66 0 -102 33t-36 86q0 4 0.5 9t2 13t3.5 20.5t6 30.5l-61 -44h-2l-35 75l122 83l50 237
q19 91 74 141.5t132 50.5q28 0 52 -10t41 -27t26.5 -40t9.5 -49zM388 589q0 18 -8.5 31t-22.5 13q-17 0 -30.5 -16.5t-21.5 -54.5l-39 -179q24 20 46 45t39 52t27 54.5t10 54.5z" />
    <glyph glyph-name="estimated" unicode="&#x212e;" horiz-adv-x="600" 
d="M157 259v-181q59 -59 145 -59q63 0 109 28.5t84 91.5l35 -21q-23 -36 -46.5 -61.5t-51 -42t-59.5 -24t-71 -7.5q-59 0 -106.5 21.5t-81.5 59t-52 87.5t-18 108t18 108.5t52 87.5t81.5 58.5t106.5 21.5q58 0 105.5 -20.5t81.5 -57t53 -87t19 -111.5h-404zM448 295v145
q-63 60 -147 60t-144 -60v-145h291z" />
    <glyph glyph-name="exclam" unicode="!" horiz-adv-x="296" 
d="M259 520l-105 -306h-70l25 306l41 194h151zM29 154h158l-33 -154h-158z" />
    <glyph glyph-name="quotedbl" unicode="&#x22;" horiz-adv-x="481" 
d="M127 714h107v-321h-107v321zM313 714h107v-321h-107v321z" />
    <glyph glyph-name="numbersign" unicode="#" horiz-adv-x="556" 
d="M236 412l-18 -124h97l17 124h-96zM109 198h-83l10 90h85l18 124h-83l10 90h85l28 198h97l-28 -198h97l27 198h97l-27 -198h84l-10 -90h-87l-17 -124h84l-10 -90h-87l-27 -198h-97l27 198h-96l-28 -198h-97z" />
    <glyph glyph-name="uni00A0" unicode="&#xa0;" horiz-adv-x="278" 
 />
    <glyph glyph-name="Dcroat" unicode="&#x110;" horiz-adv-x="741" 
d="M244 427h168l-25 -117h-169l-37 -178h121q60 0 106.5 22t78 60t48 88t16.5 107q0 39 -8.5 70.5t-27.5 54.5t-48.5 35.5t-71.5 12.5h-118zM61 310h-82l25 117h83l60 287h258q150 0 226.5 -73t76.5 -205q0 -93 -26 -173t-77.5 -138.5t-129 -91.5t-180.5 -33h-299z" />
    <glyph glyph-name="uni021A" unicode="&#x21a;" horiz-adv-x="611" 
d="M278 582h-224l28 132h596l-28 -132h-214l-122 -582h-158zM154 -50h145l-15 -73q-6 -29 -21.5 -49.5t-34.5 -29.5t-44 -12t-55 -3l8 37q24 2 40 10t25 27h-67z" />
    <glyph glyph-name="uni021B" unicode="&#x21b;" horiz-adv-x="370" 
d="M278 517h102l-22 -95h-101l-53 -257q-2 -8 -3 -14.5t-1 -9.5q0 -14 4.5 -21.5t11.5 -11.5t15.5 -4.5t16.5 -0.5q25 0 51 3l-24 -110q-22 -2 -44 -3.5t-45 -1.5q-25 0 -49.5 4.5t-43.5 16.5t-31 32t-11 52q0 10 2 22.5t5 26.5l58 277h-93l22 95h91l32 157h142zM88 -50h145
l-15 -73q-6 -29 -21.5 -49.5t-34.5 -29.5t-44 -12t-55 -3l8 37q24 2 40 10t25 27h-67z" />
    <glyph glyph-name="uni00AD" unicode="&#xad;" horiz-adv-x="407" 
d="M53 334h301l-26 -122h-301z" />
    <glyph glyph-name="uni2219" unicode="&#x2219;" horiz-adv-x="278" 
d="M43 287q0 18 7 33.5t18.5 27t27 18t32.5 6.5q34 0 59 -25t25 -60q0 -16 -7 -31t-18 -27t-26.5 -19t-31.5 -7q-18 0 -33.5 6.5t-27 18t-18.5 27t-7 32.5z" />
    <glyph glyph-name="uni2215" unicode="&#x2215;" horiz-adv-x="167" 
d="M248 722h85l-412 -744h-87z" />
    <glyph glyph-name="uni0394" unicode="&#x394;" horiz-adv-x="702" 
d="M390 562l-244 -439h317zM-69 0l411 712h143l127 -712h-681z" />
    <glyph glyph-name="uni03A9" unicode="&#x3a9;" horiz-adv-x="759" 
d="M711 454q0 -53 -17 -103.5t-48.5 -92.5t-75 -71t-97.5 -38l-7 -35h181l-24 -114h-287l43 207q42 6 76 27.5t58.5 53t38 70.5t13.5 80q0 72 -40.5 117t-114.5 45q-50 0 -91.5 -21.5t-71.5 -56.5t-46.5 -80t-16.5 -92q0 -54 25 -93.5t82 -49.5l-44 -207h-281l24 114h174
l9 39q-67 22 -100 76t-33 123q0 79 31 146.5t83.5 117t121.5 77.5t146 28q60 0 112.5 -18.5t91.5 -53t62 -84t23 -111.5z" />
    <glyph glyph-name="uni03BC" unicode="&#x3bc;" horiz-adv-x="611" 
d="M478 0h-136l16 72h-2q-69 -86 -181 -86q-21 0 -44 5l-36 -173h-142l150 699h142l-63 -303q-2 -6 -3.5 -14.5t-2.5 -17.5t-2 -17.5t-1 -13.5q0 -23 21.5 -38t46.5 -15q32 0 56.5 12.5t42.5 32.5t29 46t17 53l58 275h142z" />
    <glyph glyph-name="uniF8FF" unicode="&#xf8ff;" horiz-adv-x="512" 
d="M222 117v67h56v-67h-56zM225 234l-2 17q0 55 13 81t46 59q32 31 41 47.5t9 35.5q0 36 -22.5 60.5t-53.5 24.5t-53.5 -22t-28.5 -73l-50 8q7 71 44 104t91 33q53 0 88.5 -36t35.5 -95q0 -32 -12.5 -58.5t-50.5 -61.5q-37 -33 -43 -52t-6 -72h-46zM462 50v617h-412v-617
h412zM512 718v-718h-512v718h512z" />
    <glyph glyph-name="grave.cap" 
d="M264 779h-100l-140 142h152z" />
    <glyph glyph-name="acute.cap" 
d="M234 779h-100l88 142h152z" />
    <glyph glyph-name="circumflex.cap" 
d="M146 921h126l83 -142h-100l-50 81l-87 -81h-109z" />
    <glyph glyph-name="caron.cap" 
d="M240 779h-126l-83 142h100l50 -83l87 83h109z" />
    <glyph glyph-name="caron.alt" 
d="M251 572h-98l67 142h148z" />
    <glyph glyph-name="tilde.cap" 
d="M380 911q-5 -17 -12 -37t-19 -37t-31 -28.5t-50 -11.5q-23 0 -43 5.5t-39 11.5q-19 7 -36 12t-34 5q-20 0 -28.5 -11.5t-13.5 -30.5h-61q5 22 13 43.5t22 39t36 28.5t55 11q17 0 32.5 -5.5t31.5 -11.5q16 -7 32.5 -12.5t33.5 -5.5q23 0 33 10.5t9 24.5h69z" />
    <glyph glyph-name="dieresis.cap" 
d="M41 905h131l-24 -117h-131zM237 905h131l-24 -117h-131z" />
    <glyph glyph-name="uni02C9" unicode="&#x2c9;" 
d="M49 694h305l-14 -75h-305z" />
    <glyph glyph-name="macron.cap" 
d="M49 884h305l-14 -75h-305z" />
    <glyph glyph-name="breve.cap" 
d="M103 923q3 -37 29.5 -54t64.5 -17q45 0 70.5 18.5t43.5 52.5h66q-20 -70 -66.5 -108t-122.5 -38q-69 0 -109.5 39.5t-40.5 106.5h65z" />
    <glyph glyph-name="ring.cap" 
d="M73 866q0 25 9 47.5t25.5 38t39 25t48.5 9.5q25 0 47.5 -8.5t39.5 -25t26 -39t9 -47.5t-8.5 -47.5t-25 -38.5t-40 -24.5t-48.5 -8.5q-26 0 -49.5 8.5t-40 24.5t-24.5 38.5t-8 47.5zM133 866q0 -29 16.5 -48t45.5 -19t46 19t17 48t-17 48t-46 19t-45.5 -19t-16.5 -48z" />
    <glyph glyph-name="hungarumlaut.cap" 
d="M294 779h-100l88 142h152zM94 779h-100l88 142h152z" />
    <glyph glyph-name="dotaccent.cap" 
d="M139 864h131l-24 -117h-131z" />
    <glyph glyph-name="commaaccent.alt" horiz-adv-x="278" 
d="M208 621h-145l15 73q6 29 21.5 49.5t34.5 29.5t44 12t55 3l-8 -37q-24 -2 -40 -10t-25 -27h67z" />
    </font>
</defs>
</svg>
