<?xml version="1.0" standalone="no"?>
<!DOCTYPE svg PUBLIC "-//W3C//DTD SVG 1.1//EN" "http://www.w3.org/Graphics/SVG/1.1/DTD/svg11.dtd" >
<svg xmlns="http://www.w3.org/2000/svg" xmlns:xlink="http://www.w3.org/1999/xlink" version="1.1">
<metadata>
Created by FontForge 20170910 at Wed Mar  8 15:45:23 2006
 By Jimmy Wärting
Part of the digitally encoded machine readable outline data for producing the Typefaces provided is copyrighted (c) 2003 - 2006 Linotype GmbH, www.linotype.com. All rights reserved. This software is the property of Linotype GmbH, and may not be reproduced, modified, disclosed or transferred without the express written approval of Linotype GmbH. Copyright (c) 1988, 1990, 1993 Adobe Systems Incorporated. All Rights Reserved. Helvetica is a trademark of Heidelberger Druckmaschinen AG, exclusively licensed through Linotype GmbH, and may be registered in certain jurisdictions. This typeface is original artwork of Linotype Design Studio. The design may be protected in certain jurisdictions.
</metadata>
<defs>
<font id="HelveticaNeueLTCom-LtIt" horiz-adv-x="185" >
  <font-face 
    font-family="HelveticaNeueLT Com 45 Lt"
    font-weight="300"
    font-style="italic"
    font-stretch="normal"
    units-per-em="1000"
    panose-1="2 11 4 3 2 2 2 9 2 4"
    ascent="714"
    descent="-286"
    x-height="516"
    cap-height="714"
    bbox="-165 -214 1099 959"
    underline-thickness="50"
    underline-position="-100"
    unicode-range="U+0020-FB02"
  />
<missing-glyph horiz-adv-x="512" 
d="M222 117v67h56v-67h-56zM225 234l-2 17q0 55 13 81t46 59q32 31 41 47.5t9 35.5q0 36 -22.5 60.5t-53.5 24.5t-53.5 -22t-28.5 -73l-50 8q7 71 44 104t91 33q53 0 88.5 -36t35.5 -95q0 -32 -12.5 -58.5t-50.5 -61.5q-37 -33 -43 -52t-6 -72h-46zM462 50v617h-412v-617
h412zM512 718v-718h-512v718h512z" />
    <glyph glyph-name="fi" unicode="fi" horiz-adv-x="444" 
d="M284 463h-101l-102 -463h-63l102 463h-90l12 53h89l16 75q6 28 16 51t26.5 39t40 24.5t55.5 8.5q17 0 33 -1t32 -6l-11 -52q-10 2 -19.5 4t-19.5 2q-44 0 -63 -17.5t-28 -55.5l-15 -72h102zM402 714h63l-22 -101h-63zM359 516h63l-111 -516h-63z" />
    <glyph glyph-name="fl" unicode="fl" horiz-adv-x="444" 
d="M402 714h63l-154 -714h-63zM284 463h-101l-102 -463h-63l102 463h-90l12 53h89l16 75q6 28 16 51t26.5 39t40 24.5t55.5 8.5q17 0 33 -1t32 -6l-11 -52q-10 2 -19.5 4t-19.5 2q-44 0 -63 -17.5t-28 -55.5l-15 -72h102z" />
    <glyph glyph-name="napostrophe" unicode="&#x2019;n" horiz-adv-x="572" 
d="M135 516h58l-18 -94h2q29 46 77.5 77.5t106.5 31.5q34 0 62.5 -8t49.5 -24.5t32.5 -43t11.5 -63.5q0 -23 -8 -61l-71 -331h-63l72 333q3 12 5 25.5t2 26.5q0 25 -9 43t-24 29t-34.5 16t-40.5 5q-34 0 -66 -15t-58.5 -42.5t-47 -67t-30.5 -88.5l-57 -265h-63zM225 805
l-17 -80q-5 -27 -21 -42.5t-34.5 -22.5t-45.5 -8l6 28q16 3 24 7.5t14 11.5t8 15h-39l19 91h86z" />
    <glyph glyph-name="IJ" unicode="IJ" horiz-adv-x="725" 
d="M156 714h68l-151 -714h-68zM282 229q-4 -22 -6.5 -44t-2.5 -44q0 -27 10 -46t27 -30.5t39.5 -16.5t47.5 -5q39 0 65 13.5t43.5 36t27.5 51.5t17 61l109 509h68l-114 -534q-10 -47 -26.5 -83t-43 -61t-63.5 -38t-88 -13q-40 0 -74 9t-59 28.5t-39.5 50.5t-14.5 75
q0 42 9 81h68z" />
    <glyph glyph-name="ij" unicode="ij" horiz-adv-x="385" 
d="M143 714h63l-22 -101h-63zM100 516h63l-111 -516h-63zM342 714h64l-22 -101h-63zM300 516h63l-129 -604q-12 -51 -40 -77t-87 -26q-11 0 -22 2t-22 3l12 52q9 -1 18 -2.5t18 -1.5q29 0 42 15.5t19 36.5z" />
    <glyph glyph-name=".notdef" horiz-adv-x="512" 
d="M222 117v67h56v-67h-56zM225 234l-2 17q0 55 13 81t46 59q32 31 41 47.5t9 35.5q0 36 -22.5 60.5t-53.5 24.5t-53.5 -22t-28.5 -73l-50 8q7 71 44 104t91 33q53 0 88.5 -36t35.5 -95q0 -32 -12.5 -58.5t-50.5 -61.5q-37 -33 -43 -52t-6 -72h-46zM462 50v617h-412v-617
h412zM512 718v-718h-512v718h512z" />
    <glyph glyph-name=".null" horiz-adv-x="500" 
 />
    <glyph glyph-name="nonmarkingreturn" horiz-adv-x="0" 
 />
    <glyph glyph-name="space" unicode=" " horiz-adv-x="278" 
 />
    <glyph glyph-name="percent" unicode="%" horiz-adv-x="833" 
d="M581 30q35 0 60 19t40.5 47.5t23 62.5t7.5 63q0 42 -19 69.5t-65 27.5q-34 0 -58.5 -20t-40.5 -49.5t-23.5 -63.5t-7.5 -62q0 -37 20.5 -65.5t62.5 -28.5zM581 -15q-66 0 -100.5 39.5t-34.5 101.5q0 42 11.5 84t34.5 76.5t58 56t82 21.5q62 0 98 -39t36 -100
q0 -42 -11 -84.5t-34 -77t-57.5 -56.5t-82.5 -22zM203 372q35 0 60 19t40.5 47.5t23 62.5t7.5 63q0 42 -19 69.5t-65 27.5q-34 0 -58.5 -20t-40.5 -49.5t-23.5 -63.5t-7.5 -62q0 -37 20.5 -65.5t62.5 -28.5zM202 327q-66 0 -100.5 39.5t-34.5 101.5q0 42 11.5 84t34.5 76.5
t58 56t82 21.5q62 0 98 -39t36 -100q0 -42 -11 -84.5t-34 -77t-57.5 -56.5t-82.5 -22zM674 723h55l-571 -755h-54z" />
    <glyph glyph-name="ampersand" unicode="&#x26;" horiz-adv-x="611" 
d="M552 315q-11 -51 -31 -97t-54 -90l83 -128h-71l-54 84q-38 -47 -91 -73t-116 -26q-44 0 -81 12t-63.5 35t-41.5 57t-15 79q0 46 18.5 81t48.5 61t67.5 46.5t75.5 38.5q-27 40 -47.5 78t-20.5 88q0 35 13.5 63t36.5 48t54.5 31t67.5 11q30 0 58.5 -8.5t50 -25t35 -40.5
t13.5 -56q0 -39 -17 -70t-43.5 -55.5t-59 -44t-62.5 -36.5l128 -199q21 26 34 63t21 73h63zM255 351q-29 -14 -60 -31t-56.5 -39t-42 -51t-16.5 -66q0 -26 10.5 -49t28.5 -40t42.5 -27t51.5 -10q58 0 101.5 22.5t81.5 69.5zM278 420q21 12 46.5 26.5t48 33t37.5 41.5t15 51
q0 45 -28 67t-68 22q-21 0 -40.5 -7.5t-34.5 -21t-23.5 -32.5t-8.5 -41q0 -18 5.5 -36.5t14 -36t18 -34.5t18.5 -32z" />
    <glyph glyph-name="quoteright" unicode="&#x2019;" horiz-adv-x="278" 
d="M118 511q18 5 29 15t18.5 22.5t12.5 28t9 31.5h-42l24 106h84l-33 -140q-6 -24 -14.5 -40.5t-21.5 -28.5t-31.5 -20t-42.5 -14z" />
    <glyph glyph-name="parenleft" unicode="(" horiz-adv-x="259" 
d="M113 -191q-33 93 -51 186.5t-13 192.5q4 79 23.5 153t51.5 142t75 129.5t94 116.5h52q-58 -71 -102.5 -141.5t-74.5 -147t-45.5 -160t-15.5 -179.5q0 -75 14 -148t35 -144h-43z" />
    <glyph glyph-name="parenright" unicode=")" horiz-adv-x="259" 
d="M130 729q33 -93 51 -186.5t13 -192.5q-4 -80 -23.5 -153.5t-51.5 -141.5t-75 -129.5t-94 -116.5h-52q58 70 102.5 141t74.5 147.5t45.5 160t15.5 179.5q0 75 -14 148t-35 144h43z" />
    <glyph glyph-name="asterisk" unicode="*" horiz-adv-x="352" 
d="M72 616l21 35l102 -57l26 120h39l-25 -124l116 24l5 -38l-115 -25l60 -102l-38 -19l-59 106l-86 -92l-28 27l83 90z" />
    <glyph glyph-name="plus" unicode="+" horiz-adv-x="600" 
d="M274 503h53v-225h225v-53h-225v-225h-53v225h-225v53h225v225z" />
    <glyph glyph-name="comma" unicode="," horiz-adv-x="278" 
d="M-4 -97q18 5 29 15t18.5 22.5t12.5 28t9 31.5h-42l24 106h84l-33 -140q-6 -24 -14.5 -40.5t-21.5 -28.5t-31.5 -20t-42.5 -14z" />
    <glyph glyph-name="hyphen" unicode="-" horiz-adv-x="370" 
d="M50 304h251l-12 -58h-251z" />
    <glyph glyph-name="period" unicode="." horiz-adv-x="278" 
d="M23 0l23 106h85l-24 -106h-84z" />
    <glyph glyph-name="slash" unicode="/" horiz-adv-x="333" 
d="M-20 -15h-59l411 744h59z" />
    <glyph glyph-name="zero" unicode="0" horiz-adv-x="556" 
d="M468 468q0 36 -6 69t-22 59t-43.5 41.5t-70.5 15.5t-77 -22.5t-60.5 -59.5t-45.5 -83t-31 -94t-18 -92.5t-6 -77.5q0 -36 6.5 -69.5t23 -59.5t44 -41.5t69.5 -15.5q43 0 77.5 22.5t61 59t45 83t30.5 94.5t17.5 92.5t5.5 78.5zM216 -15q-56 0 -93 22.5t-59 59t-30.5 83
t-8.5 94.5q0 44 7.5 95.5t24 102.5t41 99t59 84.5t78.5 58.5t98 22q56 0 94 -19.5t61 -53.5t33 -78.5t10 -93.5q0 -47 -7.5 -100.5t-23 -106.5t-40.5 -101.5t-60 -86t-81 -59.5t-103 -22z" />
    <glyph glyph-name="one" unicode="1" horiz-adv-x="556" 
d="M147 575q32 5 64 14.5t61.5 24.5t54 36t42.5 50h48l-150 -700h-63l124 581q-46 -24 -94.5 -36t-99.5 -20z" />
    <glyph glyph-name="two" unicode="2" horiz-adv-x="556" 
d="M80 466q2 52 21 96t50.5 76t75 50t95.5 18q41 0 77.5 -11.5t64 -34.5t43.5 -56.5t16 -77.5q0 -47 -16.5 -84t-44.5 -66.5t-64.5 -54t-76.5 -46.5q-39 -23 -79 -45t-75.5 -47.5t-63 -55.5t-41.5 -69h391l-11 -58h-453q3 56 25 98.5t55.5 76t75.5 60t85 50.5t84.5 48t74 52
t52 62.5t19.5 80.5q0 32 -12 55.5t-31.5 39t-46 23t-54.5 7.5q-40 0 -71.5 -15t-53.5 -40.5t-34 -59.5t-14 -72h-63z" />
    <glyph glyph-name="three" unicode="3" horiz-adv-x="556" 
d="M72 222q-2 -41 6 -75t27.5 -58t49.5 -37.5t71 -13.5q39 0 73 12.5t60 35.5t41 55t15 71q0 36 -12.5 60.5t-34 40t-50 22t-59.5 6.5h-34l11 53h41q32 0 64.5 5t58.5 20t42 41.5t16 70.5q0 30 -11.5 53t-30 38t-43 23t-51.5 8q-77 0 -120 -45t-55 -121h-63q9 50 28 90.5
t48.5 69t70 44t93.5 15.5q39 0 74.5 -11t63 -32.5t43.5 -54t16 -75.5q0 -66 -41.5 -111.5t-105.5 -56.5v-2q52 -13 78 -53t26 -94q0 -55 -20.5 -98t-55 -72.5t-79 -45t-92.5 -15.5q-62 0 -105 17.5t-69.5 49t-38 75t-9.5 95.5h63z" />
    <glyph glyph-name="four" unicode="4" horiz-adv-x="556" 
d="M439 700h56l-102 -473h106l-12 -53h-105l-38 -174h-63l38 174h-320l11 59zM72 227h258l79 363l-2 2z" />
    <glyph glyph-name="five" unicode="5" horiz-adv-x="556" 
d="M175 691h357l-14 -58h-306l-75 -224h2q29 29 70 42t84 13q45 0 81 -16t61 -43.5t38.5 -65.5t13.5 -81q0 -60 -19 -110t-54.5 -86t-84.5 -56.5t-109 -20.5q-49 0 -88 15t-66 42.5t-40.5 67t-10.5 88.5h63q-7 -76 33.5 -118t115.5 -42q45 0 81 17t62 46t40 66.5t14 79.5
q0 73 -38 118.5t-115 45.5q-47 0 -88.5 -18t-66.5 -63l-56 5z" />
    <glyph glyph-name="six" unicode="6" horiz-adv-x="556" 
d="M483 523q-4 130 -135 130q-57 0 -96.5 -30t-66.5 -75t-44 -96.5t-28 -94.5h2q29 48 78 73.5t106 25.5q46 0 83 -16.5t63 -45t40 -67.5t14 -83q0 -57 -18.5 -104.5t-52 -82t-80.5 -53.5t-104 -19q-53 0 -92.5 18t-65 49.5t-38 75t-12.5 93.5q0 71 16.5 155t53.5 158
q19 37 43 68.5t54.5 54.5t67.5 36t81 13q90 0 142 -45t52 -138h-63zM436 252q0 35 -12 63t-33.5 47.5t-50.5 30t-63 10.5q-41 0 -73.5 -17t-56 -45t-36 -64t-12.5 -74q0 -34 10.5 -64t30 -52.5t48 -35.5t64.5 -13q45 0 79.5 18t58 48t35 68.5t11.5 79.5z" />
    <glyph glyph-name="seven" unicode="7" horiz-adv-x="556" 
d="M124 691h447l-13 -54q-76 -75 -137.5 -156.5t-110.5 -164.5q-48 -83 -82.5 -163.5t-56.5 -152.5h-70q29 97 68.5 178t89.5 161t108 153.5t124 140.5h-381z" />
    <glyph glyph-name="eight" unicode="8" horiz-adv-x="556" 
d="M317 653q-30 0 -57 -9t-48 -26t-33.5 -42t-12.5 -57q0 -31 11.5 -54t31 -38t45 -22t54.5 -7q31 0 58.5 8.5t48 26t32.5 42.5t12 58q0 31 -11 54t-30.5 37.5t-45.5 21.5t-55 7zM490 202q0 -52 -21.5 -92.5t-56.5 -68t-80 -42t-92 -14.5q-45 0 -85 12t-70.5 37t-48.5 62
t-18 88q0 42 14.5 76.5t39 59.5t58.5 40.5t73 19.5v2q-47 15 -73.5 53.5t-26.5 86.5q0 44 17.5 78t46.5 57.5t67 36t79 12.5q40 0 77.5 -9.5t66.5 -29.5t47 -52t18 -78q0 -33 -11 -61.5t-31 -50.5t-47 -36.5t-59 -19.5v-1q58 -17 87 -62.5t29 -103.5zM81 183q0 -38 13 -65
t35 -45t52 -26.5t65 -8.5q38 0 71 11.5t57.5 33t38.5 52.5t14 70t-13.5 65.5t-36.5 43t-54.5 24t-67.5 7.5t-68 -11.5t-55.5 -32.5t-37 -51t-13.5 -67z" />
    <glyph glyph-name="nine" unicode="9" horiz-adv-x="556" 
d="M71 168q4 -130 135 -130q57 0 96.5 30t66.5 75t44 96.5t28 94.5h-2q-29 -48 -78 -73.5t-106 -25.5q-46 0 -83 16.5t-63 45t-40 67.5t-14 83q0 57 18.5 104.5t52 82t80.5 53.5t104 19q53 0 92.5 -18t65 -49.5t38 -75t12.5 -93.5q0 -71 -16.5 -155t-53.5 -158
q-19 -37 -43 -68.5t-54.5 -54.5t-67.5 -36t-81 -13q-90 0 -142 45t-52 138h63zM302 653q-45 0 -79.5 -18t-58 -48t-35 -68.5t-11.5 -79.5q0 -35 12 -63t33.5 -47.5t50.5 -30t63 -10.5q40 0 73 17t56.5 45t36 64t12.5 74q0 34 -10.5 64t-30 52.5t-48 35.5t-64.5 13z" />
    <glyph glyph-name="colon" unicode=":" horiz-adv-x="278" 
d="M113 394l23 106h85l-24 -106h-84zM23 0l23 106h85l-24 -106h-84z" />
    <glyph glyph-name="semicolon" unicode=";" horiz-adv-x="278" 
d="M113 394l23 106h85l-24 -106h-84zM-4 -97q18 5 29 15t18.5 22.5t12.5 28t9 31.5h-42l24 106h84l-33 -140q-6 -24 -14.5 -40.5t-21.5 -28.5t-31.5 -20t-42.5 -14z" />
    <glyph glyph-name="less" unicode="&#x3c;" horiz-adv-x="600" 
d="M554 -8l-508 234v54l508 234v-55l-446 -206l446 -206v-55z" />
    <glyph glyph-name="equal" unicode="=" horiz-adv-x="600" 
d="M552 128h-503v53h503v-53zM552 325h-503v53h503v-53z" />
    <glyph glyph-name="greater" unicode="&#x3e;" horiz-adv-x="600" 
d="M492 253l-446 206v55l508 -234v-54l-508 -234v55z" />
    <glyph glyph-name="question" unicode="?" horiz-adv-x="537" 
d="M170 106h85l-24 -106h-84zM195 182q6 43 17.5 73t29.5 52.5t43 42t58 43.5q21 14 41.5 31t36.5 36.5t26 42.5t10 49q0 61 -37 92.5t-97 31.5q-39 0 -70 -14t-53 -39t-34.5 -58t-15.5 -72h-63q2 54 19.5 97.5t48 74.5t74 47.5t97.5 16.5q38 0 73 -10.5t62 -31.5t43 -52.5
t16 -73.5q0 -41 -13.5 -73t-35.5 -58.5t-51 -48t-60 -42.5q-26 -16 -43 -32t-28 -34t-18 -40.5t-13 -50.5h-63z" />
    <glyph glyph-name="at" unicode="@" horiz-adv-x="800" 
d="M614 544l-96 -288q-5 -16 -8.5 -31t-2.5 -26.5t6.5 -18.5t17.5 -7q33 0 64 23t54 59t37 80t14 86q0 62 -22.5 111t-61.5 82.5t-90.5 51.5t-109.5 18q-70 0 -128 -26t-100 -70.5t-65 -105t-23 -129.5q0 -68 24 -127t66.5 -102.5t101 -68.5t126.5 -25q37 0 73.5 9
t70.5 26.5t63 42t51 55.5h51q-23 -41 -56.5 -74t-74 -56t-86 -35.5t-92.5 -12.5q-81 0 -149 29t-117.5 79.5t-77 119t-27.5 147.5q0 78 28.5 145.5t78.5 117t116.5 78t143.5 28.5q72 0 134 -22.5t107.5 -64t71.5 -98.5t26 -126q0 -60 -20.5 -113t-53.5 -92.5t-74.5 -62
t-83.5 -22.5q-26 0 -45 17t-22 50h-2q-23 -24 -56 -45t-71 -21q-31 0 -55.5 11.5t-41.5 31.5t-26 46t-9 56q0 52 17 103.5t48 92.5t75 67t97 26q33 0 61 -19.5t45 -64.5l25 65h53zM426 510q-38 0 -69.5 -23t-54 -57.5t-34.5 -75t-12 -75.5q0 -45 23.5 -71t59.5 -26
q35 0 65 24.5t52.5 60t35.5 76.5t13 74q0 18 -7 34.5t-18 29.5t-25 21t-29 8z" />
    <glyph glyph-name="A" unicode="A" horiz-adv-x="630" 
d="M167 280h282l-61 376h-2zM362 714h74l130 -714h-71l-36 222h-326l-132 -222h-76z" />
    <glyph glyph-name="B" unicode="B" horiz-adv-x="667" 
d="M161 401h225q34 1 66.5 9.5t57.5 26t40 44.5t15 63q0 30 -10 51.5t-27.5 35t-41 19.5t-50.5 6h-220zM160 714h277q40 0 75.5 -8.5t62.5 -28t42.5 -50.5t15.5 -76q0 -35 -11 -65t-31.5 -53.5t-49 -38.5t-63.5 -21v-2q56 -7 89 -49t33 -98q0 -63 -24 -106t-63.5 -69
t-91.5 -37.5t-108 -11.5h-308zM86 58h242q37 0 73.5 9t65.5 28t47 49t18 72q0 39 -14 63.5t-37.5 39t-54 19.5t-63.5 5h-215z" />
    <glyph glyph-name="C" unicode="C" horiz-adv-x="704" 
d="M620 488q-2 91 -56 137t-143 46q-81 0 -140.5 -33.5t-99.5 -88t-59.5 -124t-19.5 -142.5q0 -55 16 -99t46.5 -75.5t74 -48.5t99.5 -17q43 0 81 14t69.5 40t55 63t36.5 84h68q-12 -55 -38 -102t-66 -82t-94 -55t-123 -20q-70 0 -124.5 22t-92 62.5t-57 96t-19.5 123.5
q0 85 26 164.5t76 141t122 98t164 36.5q56 0 104.5 -15.5t84 -45.5t56 -75t21.5 -105h-68z" />
    <glyph glyph-name="D" unicode="D" horiz-adv-x="685" 
d="M160 714h230q77 0 129 -20.5t84 -58t45.5 -90.5t13.5 -117q0 -84 -25 -161.5t-74.5 -137t-122.5 -94.5t-169 -35h-266zM86 58h172q89 -1 152.5 31t104.5 85.5t60 123t19 143.5q0 215 -215 215h-163z" />
    <glyph glyph-name="E" unicode="E" horiz-adv-x="574" 
d="M157 714h479l-13 -58h-410l-55 -258h383l-13 -58h-382l-60 -282h420l-13 -58h-488z" />
    <glyph glyph-name="F" unicode="F" horiz-adv-x="537" 
d="M158 714h457l-12 -58h-389l-55 -258h345l-11 -58h-347l-73 -340h-68z" />
    <glyph glyph-name="G" unicode="G" horiz-adv-x="741" 
d="M638 494q-2 45 -18 78t-45 55t-69 33t-89 11q-71 0 -129 -33t-99 -86.5t-64 -122.5t-23 -141q0 -55 14.5 -100t43.5 -77.5t72.5 -50t100.5 -17.5q59 0 107.5 20t85 55t60 83t32.5 104h-246l14 58h305l-75 -363h-46l12 120h-2q-45 -71 -110 -103t-149 -32q-69 0 -122.5 21
t-90 60t-55.5 94t-19 124q0 86 25 166.5t74 142.5t121.5 99t168.5 37q135 0 207 -61.5t76 -173.5h-68z" />
    <glyph glyph-name="H" unicode="H" horiz-adv-x="704" 
d="M157 714h68l-66 -310h413l66 310h68l-152 -714h-68l74 346h-413l-74 -346h-68z" />
    <glyph glyph-name="I" unicode="I" horiz-adv-x="222" 
d="M156 714h68l-151 -714h-68z" />
    <glyph glyph-name="J" unicode="J" horiz-adv-x="500" 
d="M57 229q-4 -22 -6.5 -44t-2.5 -44q0 -27 10 -46t27 -30.5t39.5 -16.5t47.5 -5q39 0 65 13.5t43.5 36t27.5 51.5t17 61l109 509h68l-114 -534q-10 -47 -26.5 -83t-43 -61t-63.5 -38t-88 -13q-40 0 -74 9t-59 28.5t-39.5 50.5t-14.5 75q0 42 9 81h68z" />
    <glyph glyph-name="K" unicode="K" horiz-adv-x="648" 
d="M157 714h68l-82 -381l2 -2l461 383h95l-366 -298l255 -416h-78l-227 374l-159 -127l-53 -247h-68z" />
    <glyph glyph-name="L" unicode="L" horiz-adv-x="537" 
d="M159 714h68l-141 -656h395l-14 -58h-462z" />
    <glyph glyph-name="M" unicode="M" horiz-adv-x="852" 
d="M157 714h99l111 -641l392 641h99l-153 -714h-67l147 646h-2l-395 -646h-68l-115 656h-2l-135 -656h-66z" />
    <glyph glyph-name="N" unicode="N" horiz-adv-x="704" 
d="M154 714h77l285 -638h2l132 638h66l-156 -714h-75l-285 638h-2l-133 -638h-65z" />
    <glyph glyph-name="O" unicode="O" horiz-adv-x="741" 
d="M327 -15q-70 0 -124.5 22t-92 62.5t-57 96t-19.5 123.5q0 85 26 164.5t76 141t122 98t164 36.5q68 0 123 -21.5t93.5 -60.5t59 -94.5t20.5 -122.5q0 -87 -25.5 -167.5t-75.5 -142t-123 -98.5t-167 -37zM650 413q0 55 -13.5 102.5t-42 82t-71.5 54t-102 19.5
q-81 0 -140.5 -33.5t-99.5 -88t-59.5 -124t-19.5 -142.5q0 -55 16 -99t46.5 -75.5t74 -48.5t99.5 -17q73 0 130.5 33t98 85.5t62 119t21.5 132.5z" />
    <glyph glyph-name="P" unicode="P" horiz-adv-x="630" 
d="M152 364h241q37 0 69 11t56 32t37.5 51.5t13.5 69.5q0 36 -10.5 60.5t-29.5 39.5t-45.5 21.5t-59.5 6.5h-209zM159 714h288q40 0 75 -12t60.5 -34.5t40 -55.5t14.5 -74q0 -56 -18.5 -99t-51 -72.5t-77.5 -45t-99 -15.5h-252l-66 -306h-68z" />
    <glyph glyph-name="Q" unicode="Q" horiz-adv-x="741" 
d="M421 190l90 -84q33 26 59 61t44 75t27 83.5t9 87.5q0 55 -13.5 102.5t-42 82t-71.5 54t-102 19.5q-81 0 -140.5 -33.5t-99.5 -88t-59.5 -124t-19.5 -142.5q0 -55 16 -99t46.5 -75.5t74 -48.5t99.5 -17q35 0 66 8.5t58 23.5l-80 74zM649 -23l-40 -41l-100 94
q-38 -22 -83.5 -33.5t-98.5 -11.5q-70 0 -124.5 22t-92 62.5t-57 96t-19.5 123.5q0 85 26 164.5t76 141t122 98t164 36.5q68 0 123 -21.5t93.5 -60.5t59 -94.5t20.5 -122.5q0 -111 -41 -208.5t-119 -159.5z" />
    <glyph glyph-name="R" unicode="R" horiz-adv-x="648" 
d="M153 375h241q39 0 72.5 9.5t59 29t40 48.5t14.5 69q0 63 -28 94t-94 31h-245zM157 714h304q90 0 138.5 -45t48.5 -133q0 -39 -13.5 -73.5t-37.5 -60.5t-57.5 -42t-72.5 -19v-2q51 -11 71 -45t20 -83q0 -38 -5 -75t-5 -74q0 -13 2 -32t10 -30h-70q-3 2 -5 12.5t-3 23
t-1.5 23.5t-0.5 14q0 32 5 64t5 64q0 51 -21.5 83.5t-76.5 32.5h-252l-67 -317h-68z" />
    <glyph glyph-name="S" unicode="S" horiz-adv-x="630" 
d="M539 506q0 47 -12.5 78.5t-36.5 51t-59 27.5t-81 8q-33 0 -65.5 -8t-58.5 -25.5t-42 -44.5t-16 -65q0 -29 10.5 -48t27 -32.5t38 -22t44.5 -15.5l76 -23q37 -11 71.5 -24t61.5 -33t43 -50t16 -75q0 -26 -10.5 -64t-40.5 -72.5t-84 -59t-141 -24.5q-60 0 -110.5 14.5
t-87 45.5t-55.5 78t-16 112h68q-3 -52 11 -88.5t41 -59.5t66 -33.5t88 -10.5q35 0 71 9t65.5 27.5t48 47.5t18.5 69q0 38 -16.5 61.5t-42.5 38.5t-57 24t-61 18l-70 21q-63 18 -102 57.5t-39 108.5q0 54 21.5 92.5t57 63t81 36.5t93.5 12q54 0 102 -11.5t82.5 -38t53.5 -69
t16 -104.5h-68z" />
    <glyph glyph-name="T" unicode="T" horiz-adv-x="556" 
d="M81 714h558l-12 -58h-245l-143 -656h-68l143 656h-245z" />
    <glyph glyph-name="U" unicode="U" horiz-adv-x="704" 
d="M150 714h68l-95 -454q-7 -29 -7 -62q-2 -39 12 -68t40 -48.5t62.5 -29t80.5 -9.5q97 0 154.5 48.5t76.5 139.5l101 483h68l-102 -488q-26 -126 -105.5 -183.5t-201.5 -57.5q-47 0 -92.5 11t-81.5 35.5t-58 63.5t-22 95q0 23 6 58z" />
    <glyph glyph-name="V" unicode="V" horiz-adv-x="593" 
d="M64 714h70l91 -656h2l366 656h74l-412 -714h-79z" />
    <glyph glyph-name="W" unicode="W" horiz-adv-x="907" 
d="M71 714h68l37 -635h2l304 635h82l49 -629h2l292 629h71l-344 -714h-74l-47 649h-2l-312 -649h-75z" />
    <glyph glyph-name="X" unicode="X" horiz-adv-x="574" 
d="M260 372l-176 342h75l148 -300l259 300h81l-310 -353l186 -361h-72l-159 318l-280 -318h-80z" />
    <glyph glyph-name="Y" unicode="Y" horiz-adv-x="574" 
d="M598 714h83l-358 -426l-63 -288h-69l65 295l-190 419h72l161 -362z" />
    <glyph glyph-name="Z" unicode="Z" horiz-adv-x="574" 
d="M111 714h515l-12 -57l-571 -599h476l-13 -58h-556l13 60l569 596h-434z" />
    <glyph glyph-name="bracketleft" unicode="[" horiz-adv-x="241" 
d="M-28 -191l195 920h163l-11 -53h-98l-175 -814h97l-10 -53h-161z" />
    <glyph glyph-name="backslash" unicode="\" horiz-adv-x="333" 
d="M-58 729h59l411 -744h-59z" />
    <glyph glyph-name="bracketright" unicode="]" horiz-adv-x="241" 
d="M284 729l-195 -920h-163l11 53h98l175 814h-97l10 53h161z" />
    <glyph glyph-name="asciicircum" unicode="^" horiz-adv-x="600" 
d="M44 238l230 453h52l230 -453h-57l-200 390l-197 -390h-58z" />
    <glyph glyph-name="underscore" unicode="_" horiz-adv-x="500" 
d="M0 -125v50h500v-50h-500z" />
    <glyph glyph-name="quoteleft" unicode="&#x2018;" horiz-adv-x="278" 
d="M263 674q-18 -5 -29.5 -15t-19 -22.5t-12 -28t-8.5 -31.5h42l-24 -105h-84l33 139q6 24 14.5 40.5t21.5 28.5t31.5 20t42.5 14z" />
    <glyph glyph-name="a" unicode="a" horiz-adv-x="519" 
d="M62 362q6 44 25.5 76t48.5 52.5t65.5 30.5t78.5 10q26 0 57.5 -5t58.5 -18t45 -35.5t18 -56.5q0 -19 -3.5 -42t-8.5 -46.5t-10.5 -46t-9.5 -39.5q-9 -44 -15 -72t-10.5 -47t-6.5 -31t-2 -24q0 -14 11 -17.5t22 -3.5q7 0 12.5 0.5t12.5 1.5l-9 -50q-11 -2 -25 -3.5
t-27 -1.5q-26 0 -40 15t-15 41q0 7 0.5 14t1.5 14l-2 2q-27 -45 -76 -70t-103 -25q-35 0 -65.5 8t-52.5 25.5t-34.5 44.5t-12.5 65q0 41 15 69t40 46t57 28.5t67 16.5q50 8 92 7.5t72 7.5q31 8 46.5 29t15.5 72q0 23 -10.5 37.5t-26 22.5t-35 11t-37.5 3q-30 0 -57 -6
t-49 -19.5t-36.5 -36t-19.5 -54.5h-63zM374 276l-2 2q-8 -9 -22 -14.5t-30.5 -8.5t-33 -4t-28.5 -2q-29 -2 -64.5 -5.5t-66.5 -15t-52 -34.5t-21 -63q0 -25 9.5 -42.5t25.5 -29t36.5 -16.5t43.5 -5q76 0 123 41.5t62 109.5z" />
    <glyph glyph-name="b" unicode="b" horiz-adv-x="574" 
d="M141 714h63l-61 -289h2q27 47 73 76.5t105 29.5q49 0 86 -16.5t61.5 -45t36.5 -68t12 -85.5q0 -59 -18 -118t-52.5 -106.5t-85.5 -77t-117 -29.5q-65 0 -112.5 34.5t-60.5 98.5h-2l-25 -118h-57zM238 38q54 0 94.5 26t68 66.5t41.5 90.5t14 97q0 72 -35.5 116t-112.5 44
q-52 0 -91.5 -28t-66 -70t-40 -91.5t-13.5 -93.5q0 -33 8.5 -61.5t26 -49.5t44 -33.5t62.5 -12.5z" />
    <glyph glyph-name="c" unicode="c" horiz-adv-x="519" 
d="M424 355q2 29 -7 52t-25.5 38.5t-40 24t-51.5 8.5q-57 0 -98.5 -25t-69.5 -65t-41.5 -90t-13.5 -100q0 -35 8.5 -64t26.5 -50.5t45 -33.5t64 -12q63 0 106.5 36t63.5 93h63q-29 -89 -88 -135.5t-153 -46.5q-48 0 -85 15.5t-62.5 43.5t-38.5 67t-13 87q0 60 19 120t55 107
t88 76.5t118 29.5q42 0 78 -10.5t62 -32.5t40 -55t13 -78h-63z" />
    <glyph glyph-name="d" unicode="d" horiz-adv-x="574" 
d="M438 0h-61l23 93h-2q-33 -51 -76.5 -79.5t-111.5 -28.5q-50 0 -86.5 15t-61 43t-36.5 67t-12 86q0 59 19.5 119t56.5 108t89 78t117 30q61 0 106 -25.5t62 -86.5h2l62 295h63zM216 38q54 0 96 27.5t70.5 70t43.5 94t15 99.5q0 68 -37.5 108.5t-106.5 40.5
q-54 0 -95.5 -27t-69 -69t-41.5 -92.5t-14 -97.5q0 -66 34 -110t105 -44z" />
    <glyph glyph-name="e" unicode="e" horiz-adv-x="519" 
d="M425 294q0 11 0.5 20.5t0.5 19.5q0 65 -37.5 104.5t-103.5 39.5q-39 0 -71.5 -15.5t-57.5 -41t-42.5 -58.5t-25.5 -69h337zM80 241q-3 -18 -3 -40q0 -35 9 -65t27.5 -51.5t47 -34t66.5 -12.5q62 0 106.5 35.5t62.5 92.5h63q-26 -87 -84.5 -134t-150.5 -47
q-103 0 -156.5 59t-53.5 160q0 61 18.5 120t54.5 105t88 74t118 28q46 0 82.5 -14.5t62 -41t38.5 -63.5t13 -82q0 -22 -1 -44t-4 -45h-404z" />
    <glyph glyph-name="f" unicode="f" horiz-adv-x="259" 
d="M284 463h-101l-102 -463h-63l102 463h-90l12 53h89l16 75q6 28 16 51t26.5 39t40 24.5t55.5 8.5q17 0 33 -1t32 -6l-11 -52q-10 2 -19.5 4t-19.5 2q-44 0 -63 -17.5t-28 -55.5l-15 -72h102z" />
    <glyph glyph-name="g" unicode="g" horiz-adv-x="556" 
d="M438 54q-14 -68 -34 -117t-50 -80.5t-72.5 -47t-102.5 -15.5q-39 0 -75 9t-63 28.5t-43.5 51.5t-17.5 78h63q0 -33 12.5 -55t32.5 -35t46 -18.5t54 -5.5q40 0 69 13t49.5 34t34 48.5t23 56t15 56t11.5 49.5l-2 2q-13 -23 -32.5 -40.5t-42.5 -29.5t-49 -18.5t-52 -6.5
q-47 0 -82.5 16t-59.5 44.5t-36.5 66.5t-12.5 83q0 57 18 112.5t52 99.5t83 71t111 27q29 0 57 -7.5t51.5 -22.5t39.5 -38t21 -53h2l22 106h58zM84 226q0 -33 8 -62t25.5 -51.5t43.5 -35.5t62 -13q48 0 86 23.5t65 61t41 82.5t14 89q0 34 -7.5 63t-24.5 50t-44 33t-65 12
q-48 0 -86 -23t-64.5 -59.5t-40 -81.5t-13.5 -88z" />
    <glyph glyph-name="h" unicode="h" horiz-adv-x="537" 
d="M143 714h63l-63 -292h2q27 46 75 77.5t106 31.5q34 0 62.5 -8t49.5 -24.5t32.5 -43t11.5 -63.5q0 -23 -8 -61l-71 -331h-63l72 333q3 12 5 25.5t2 26.5q0 25 -9 43t-24 29t-34.5 16t-40.5 5q-34 0 -66 -15t-58.5 -42.5t-47 -67t-30.5 -88.5l-57 -265h-63z" />
    <glyph glyph-name="i" unicode="i" 
d="M143 714h63l-22 -101h-63zM100 516h63l-111 -516h-63z" />
    <glyph glyph-name="j" unicode="j" 
d="M142 714h64l-22 -101h-63zM100 516h63l-129 -604q-12 -51 -40 -77t-87 -26q-11 0 -22 2t-22 3l12 52q9 -1 18 -2.5t18 -1.5q29 0 42 15.5t19 36.5z" />
    <glyph glyph-name="k" unicode="k" horiz-adv-x="463" 
d="M141 714h63l-96 -448l2 -2l302 252h84l-244 -199l156 -317h-69l-137 279l-110 -92l-40 -187h-63z" />
    <glyph glyph-name="l" unicode="l" 
d="M143 714h63l-154 -714h-63z" />
    <glyph glyph-name="m" unicode="m" horiz-adv-x="833" 
d="M100 516h58l-20 -90l2 -2q28 45 76 76t106 31q54 0 87 -27.5t38 -82.5h2q30 48 76.5 79t104.5 31q75 0 109 -38t34 -98q0 -14 -2 -28.5t-5 -30.5l-72 -336h-63l73 338q6 27 6 52q0 38 -24 63t-74 25q-41 0 -71.5 -19t-53 -51.5t-37.5 -76t-26 -93.5l-51 -238h-63l72 336
q6 25 6 50q0 38 -20.5 65t-66.5 27q-34 0 -65 -17t-56 -46t-43.5 -68.5t-28.5 -84.5l-56 -262h-63z" />
    <glyph glyph-name="n" unicode="n" horiz-adv-x="537" 
d="M100 516h58l-18 -94h2q29 46 77.5 77.5t106.5 31.5q34 0 62.5 -8t49.5 -24.5t32.5 -43t11.5 -63.5q0 -23 -8 -61l-71 -331h-63l72 333q3 12 5 25.5t2 26.5q0 25 -9 43t-24 29t-34.5 16t-40.5 5q-34 0 -66 -15t-58.5 -42.5t-47 -67t-30.5 -88.5l-57 -265h-63z" />
    <glyph glyph-name="o" unicode="o" horiz-adv-x="556" 
d="M232 38q52 0 91.5 26.5t66 67.5t40 90t13.5 94q0 72 -38 117t-114 45q-52 0 -92 -25.5t-67 -65t-41 -88t-14 -93.5q0 -75 38 -121.5t117 -46.5zM302 531q45 0 82.5 -13.5t64.5 -39.5t42 -63.5t15 -85.5q0 -65 -18 -127t-53.5 -110t-89 -77.5t-125.5 -29.5
q-50 0 -88.5 15.5t-64.5 43.5t-39.5 68t-13.5 88q0 63 19 123t56 106t90.5 74t122.5 28z" />
    <glyph glyph-name="p" unicode="p" horiz-adv-x="574" 
d="M106 516h57l-20 -93h2q33 51 76.5 79.5t111.5 28.5q49 0 86 -15.5t61.5 -43t36.5 -66.5t12 -86q0 -59 -19.5 -119t-56.5 -108t-89 -78t-117 -30q-30 0 -58 6.5t-50 21t-37 36.5t-20 54h-2l-63 -294h-63zM327 478q-54 0 -96 -27.5t-70.5 -70t-43.5 -94t-15 -99.5
q0 -68 37.5 -108.5t106.5 -40.5q54 0 95.5 27t69 69t41.5 92.5t14 97.5q0 66 -34 110t-105 44z" />
    <glyph glyph-name="q" unicode="q" horiz-adv-x="574" 
d="M402 -191h-63l61 282h-2q-29 -47 -75 -76.5t-105 -29.5q-49 0 -86 16.5t-61.5 45t-36.5 68t-12 85.5q0 59 18 118t52.5 106.5t85.5 77t117 29.5q65 0 113 -32.5t64 -85.5h2l22 103h58zM303 478q-54 0 -94.5 -26t-68 -66.5t-41.5 -90.5t-14 -97q0 -72 35.5 -116t112.5 -44
q52 0 91.5 28t66 70t40 91.5t13.5 93.5q0 33 -8.5 61.5t-26 49.5t-44 33.5t-62.5 12.5z" />
    <glyph glyph-name="r" unicode="r" horiz-adv-x="315" 
d="M100 516h57l-26 -119h2q15 28 33 51t41 40t50.5 26t62.5 9h17t17 -1l-14 -63q-9 0 -18 0.5t-18 0.5q-42 -1 -75 -17t-56.5 -42.5t-39 -60.5t-23.5 -70l-58 -270h-63z" />
    <glyph glyph-name="s" unicode="s" horiz-adv-x="481" 
d="M62 168q0 -38 12.5 -63t33 -40t47 -21t53.5 -6q21 0 44 5.5t42 17t31.5 29.5t12.5 43t-12 42.5t-32 30t-45 22t-50 19.5q-26 10 -50.5 21.5t-44 28t-31.5 39t-12 54.5q0 37 18 64t46 44t62 25t65 8q40 0 74.5 -9t59 -29t38 -51.5t12.5 -76.5h-63q2 30 -7 51t-25.5 35
t-39 20.5t-49.5 6.5q-21 0 -43.5 -4t-41 -13.5t-31 -26.5t-12.5 -44q0 -18 9 -32t24 -25t34.5 -20t41.5 -18q27 -11 56.5 -22.5t54 -28.5t41 -41t16.5 -60q0 -44 -18.5 -74t-48.5 -48.5t-67 -27t-74 -8.5t-73 10.5t-63.5 32.5t-43.5 57t-14 83h63z" />
    <glyph glyph-name="t" unicode="t" horiz-adv-x="296" 
d="M43 516h93l33 156h63l-33 -156h103l-10 -53h-105l-71 -331q-4 -18 -5.5 -27.5t-1.5 -21.5q0 -14 7.5 -25t25.5 -11q36 0 74 6l-11 -55q-16 -2 -32 -3t-32 -1q-18 0 -35 3t-30.5 11t-21.5 22.5t-8 37.5q0 8 1.5 22t5.5 31l71 342h-93z" />
    <glyph glyph-name="u" unicode="u" horiz-adv-x="537" 
d="M402 0h-58l18 94h-2q-29 -46 -77.5 -77.5t-106.5 -31.5q-34 0 -62.5 8t-49.5 24.5t-32.5 43t-11.5 63.5q0 23 8 61l71 331h63l-72 -333q-3 -12 -5 -25.5t-2 -26.5q0 -26 9 -43.5t24 -28.5t34.5 -16t40.5 -5q34 0 66 15t58.5 42.5t46.5 67t31 88.5l57 265h63z" />
    <glyph glyph-name="v" unicode="v" horiz-adv-x="463" 
d="M35 516h66l61 -445h2l242 445h69l-291 -516h-68z" />
    <glyph glyph-name="w" unicode="w" horiz-adv-x="741" 
d="M30 516h66l41 -440h2l213 440h74l35 -436h2l219 436h67l-271 -516h-68l-37 433h-2l-212 -433h-69z" />
    <glyph glyph-name="x" unicode="x" horiz-adv-x="463" 
d="M188 272l-121 244h72l94 -203l178 203h76l-227 -250l137 -266h-72l-110 225l-198 -225h-75z" />
    <glyph glyph-name="y" unicode="y" horiz-adv-x="463" 
d="M-43 -135q27 -3 54 -3q29 0 49 18t32 38l47 82l-95 516h66l74 -438h2l238 438h68l-367 -638q-20 -35 -52 -52t-73 -17q-14 0 -27.5 2t-27.5 3z" />
    <glyph glyph-name="z" unicode="z" horiz-adv-x="426" 
d="M55 516h388l-11 -50l-401 -413h331l-11 -53h-409l11 51l399 412h-308z" />
    <glyph glyph-name="braceleft" unicode="{" horiz-adv-x="333" 
d="M138 -191q-29 0 -53 22t-24 63q0 17 5 40l31 148q5 23 8 44t3 40q0 33 -11 54.5t-39 21.5l11 53q22 0 39 13.5t29.5 36t22 51.5t15.5 59l31 149q11 57 41.5 91t72.5 34h50l-11 -53h-23q-11 0 -21 -3t-19 -13.5t-17 -31t-15 -55.5l-29 -141q-8 -41 -23.5 -70.5t-32 -49
t-30.5 -29.5t-20 -13v-2q3 -2 10 -9.5t14 -20t12.5 -31.5t5.5 -44q0 -13 -2 -27t-5 -30l-27 -129q-5 -26 -9 -44.5t-4 -26.5q0 -6 1 -14t5 -14.5t11.5 -11t21.5 -4.5h26l-11 -53h-40z" />
    <glyph glyph-name="bar" unicode="|" horiz-adv-x="222" 
d="M85 786h53v-1000h-53v1000z" />
    <glyph glyph-name="braceright" unicode="}" horiz-adv-x="333" 
d="M171 729q29 0 53 -22t24 -63q0 -17 -5 -40l-31 -148q-5 -23 -8 -44t-3 -40q0 -33 11 -54.5t39 -21.5l-11 -53q-22 0 -39 -13.5t-29.5 -36t-22 -51.5t-15.5 -59l-31 -149q-11 -57 -41.5 -91t-72.5 -34h-50l11 53h23q11 0 21 3t19 13.5t17 31t15 55.5l29 141
q8 41 23.5 70.5t32 49t30.5 29.5t20 13v2q-3 2 -10 9t-14 20t-12.5 31.5t-5.5 44.5q0 13 2 27t5 30l27 129q5 26 9 44.5t4 26.5q0 6 -1 14t-5 14.5t-12 11t-21 4.5h-26l11 53h40z" />
    <glyph glyph-name="asciitilde" unicode="~" horiz-adv-x="600" 
d="M531 279q-11 -16 -23.5 -31.5t-27 -27.5t-33 -19.5t-41.5 -7.5q-30 0 -57 10t-53 23q-26 12 -52 22t-55 10q-33 0 -52.5 -21.5t-31.5 -47.5l-36 36q8 16 19.5 31.5t26.5 27.5t34.5 19.5t44.5 7.5q28 0 57.5 -10t57.5 -22q29 -13 54 -23t44 -10q30 0 50.5 21.5t37.5 47.5z
" />
    <glyph glyph-name="exclamdown" unicode="&#xa1;" horiz-adv-x="278" 
d="M165 345l-54 -313l-46 -223h-67l46 225l84 311h37zM119 410l23 106h85l-24 -106h-84z" />
    <glyph glyph-name="cent" unicode="&#xa2;" horiz-adv-x="556" 
d="M211 -117h-39l23 106q-78 11 -118.5 67.5t-40.5 141.5q0 60 18.5 119t54 106.5t86.5 77t117 30.5l19 87h38l-19 -89q36 -4 65.5 -16.5t51 -34.5t32.5 -52.5t10 -70.5h-63q4 54 -27 86t-80 37l-94 -440q62 1 105 37t63 92h63q-29 -89 -88 -135.5t-153 -46.5h-2zM300 478
q-51 -5 -89 -31.5t-62.5 -66t-37 -87t-12.5 -95.5q0 -60 26.5 -102.5t80.5 -53.5z" />
    <glyph glyph-name="sterling" unicode="&#xa3;" horiz-adv-x="556" 
d="M43 362h70q-11 32 -18.5 64t-7.5 66q0 57 19 101t51.5 74.5t76 46t92.5 15.5q51 0 92.5 -17t70 -47.5t42 -73t9.5 -93.5h-63q3 38 -5.5 70.5t-27 56.5t-47 37.5t-67.5 13.5q-36 0 -69 -10.5t-57.5 -32.5t-39 -56t-14.5 -80q0 -71 26 -135h158l-6 -34h-143
q5 -19 8.5 -38.5t3.5 -39.5q0 -32 -12 -58.5t-31 -50t-41.5 -44t-44.5 -39.5l2 -2q24 11 50.5 17t54.5 6q18 0 38.5 -6t41.5 -14q22 -8 43.5 -14.5t41.5 -6.5q38 0 65.5 15.5t56.5 43.5l24 -50q-37 -35 -74 -48.5t-88 -13.5q-21 0 -42.5 7t-44.5 15t-46.5 13.5t-47.5 5.5
q-36 0 -64.5 -11t-58.5 -28l-24 55q25 20 49.5 42.5t44 48.5t32 55.5t12.5 64.5q0 19 -3.5 38t-7.5 37h-87z" />
    <glyph glyph-name="fraction" unicode="&#x2044;" horiz-adv-x="167" 
d="M279 725h53l-444 -759h-53z" />
    <glyph glyph-name="yen" unicode="&#xa5;" horiz-adv-x="556" 
d="M633 714l-281 -365h111l-10 -45h-136l-12 -16l-15 -67h146l-10 -45h-146l-38 -176h-63l39 176h-132l10 45h132l16 74l-3 9h-128l10 45h100l-139 365h64l136 -365l274 365h75z" />
    <glyph glyph-name="florin" unicode="&#x192;" horiz-adv-x="556" 
d="M154 439h100l34 125q8 30 20 57t31 47.5t45.5 33t63.5 12.5q17 0 34 -1t34 -4l-14 -52q-11 2 -21.5 3t-21.5 1q-47 0 -70.5 -24.5t-36.5 -72.5l-34 -125h118l-14 -53h-119l-117 -429q-16 -57 -51 -93.5t-98 -36.5q-14 0 -28 1t-28 3l14 53q10 -2 19.5 -3t19.5 -1
q22 0 37.5 8t26 21.5t17.5 31t12 35.5l112 410h-99z" />
    <glyph glyph-name="section" unicode="&#xa7;" horiz-adv-x="556" 
d="M446 554q0 26 -6 48.5t-19 39t-34 25.5t-50 9q-18 0 -38 -4.5t-36 -16t-26.5 -30t-10.5 -45.5q0 -21 11 -41.5t29 -41t41 -41.5t47 -43t46.5 -44.5t40 -46.5t28.5 -49.5t11 -52.5q0 -66 -39.5 -107t-103.5 -49q14 -19 23 -40.5t9 -45.5q0 -38 -16 -66t-42 -46t-58.5 -27
t-66.5 -9q-41 0 -74.5 13.5t-57 38t-35.5 58t-9 73.5h63q-3 -29 4.5 -53t24 -41t40.5 -26.5t53 -9.5q19 0 39 5.5t36 17t26 27.5t10 37q0 24 -10.5 46.5t-28.5 44.5t-41.5 44.5t-49.5 47.5q-24 23 -47.5 47t-42 49t-30 51.5t-11.5 55.5q0 31 11.5 56.5t31 45t45.5 32
t56 16.5q-11 17 -18.5 37t-7.5 40q0 34 13.5 61t37 46t55 29t66.5 10q40 0 72.5 -10t55 -31.5t35 -54.5t11.5 -79h-63zM417 209q0 32 -23 67.5t-57 69.5q-18 18 -36 35t-35 32.5t-30.5 28.5t-22.5 23q-17 0 -35.5 -8t-34 -22.5t-25.5 -34.5t-10 -44q0 -29 27 -67t64 -75
l67 -67t44 -45q21 3 40.5 11.5t34.5 22t23.5 32t8.5 41.5z" />
    <glyph glyph-name="currency" unicode="&#xa4;" horiz-adv-x="556" 
d="M93 346q0 -38 14.5 -72t39.5 -59t59 -39.5t72 -14.5t72 14.5t59 39.5t39.5 59t14.5 72t-14.5 72t-39.5 59t-59 39.5t-72 14.5t-72 -14.5t-59 -39.5t-39.5 -59t-14.5 -72zM86 192q-56 65 -56 154q0 45 14.5 84t40.5 71l-55 55l38 38l55 -55q32 26 71.5 40.5t83.5 14.5
q45 0 84 -14.5t71 -40.5l55 55l38 -38l-55 -55q26 -32 40.5 -71t14.5 -84q0 -44 -14.5 -83.5t-40.5 -71.5l55 -55l-38 -38l-56 56q-32 -27 -70.5 -41.5t-83.5 -14.5t-84.5 14.5t-70.5 40.5l-55 -55l-38 38z" />
    <glyph glyph-name="quotesingle" unicode="'" horiz-adv-x="278" 
d="M153 714h58v-243h-58v243z" />
    <glyph glyph-name="quotedblleft" unicode="&#x201c;" horiz-adv-x="370" 
d="M383 674q-18 -5 -29.5 -15t-19 -22.5t-12 -28t-8.5 -31.5h42l-24 -105h-84l33 139q6 24 14.5 40.5t21.5 28.5t31.5 20t42.5 14zM230 674q-18 -5 -29.5 -15t-19 -22.5t-12 -28t-8.5 -31.5h42l-24 -105h-84l33 139q6 24 14.5 40.5t21.5 28.5t31.5 20t42.5 14z" />
    <glyph glyph-name="guillemotleft" unicode="&#xab;" horiz-adv-x="426" 
d="M210 257l15 64l159 113l-15 -68l-116 -84l75 -102l-12 -63zM50 257l15 64l159 113l-15 -68l-116 -84l75 -102l-12 -63z" />
    <glyph glyph-name="guilsinglleft" unicode="&#x2039;" horiz-adv-x="259" 
d="M51 257l15 64l159 113l-15 -68l-116 -84l75 -102l-12 -63z" />
    <glyph glyph-name="guilsinglright" unicode="&#x203a;" horiz-adv-x="259" 
d="M184 294l-15 -64l-159 -113l15 68l116 84l-75 102l12 63z" />
    <glyph glyph-name="endash" unicode="&#x2013;" horiz-adv-x="500" 
d="M-24 246l12 58h500l-12 -58h-500z" />
    <glyph glyph-name="dagger" unicode="&#x2020;" horiz-adv-x="556" 
d="M205 -149h-63l125 589h-200l12 53h200l47 221h63l-47 -221h197l-11 -53h-198z" />
    <glyph glyph-name="daggerdbl" unicode="&#x2021;" horiz-adv-x="556" 
d="M-13 47l12 53h198l77 363h-199l11 53h200l42 198h63l-42 -198h196l-10 -53h-198l-77 -363h197l-10 -53h-198l-42 -196h-63l42 196h-199z" />
    <glyph glyph-name="periodcentered" unicode="&#xb7;" horiz-adv-x="278" 
d="M71 312q0 23 16.5 39.5t39.5 16.5t39.5 -16.5t16.5 -39.5q0 -21 -16.5 -38.5t-38.5 -17.5q-23 0 -40 16.5t-17 39.5z" />
    <glyph glyph-name="paragraph" unicode="&#xb6;" horiz-adv-x="600" 
d="M241 328q-44 0 -78.5 15t-57 41t-31 60.5t-0.5 73.5q20 95 88.5 145.5t174.5 50.5h217l-185 -891h-53l176 847h-127l-176 -847h-53z" />
    <glyph glyph-name="bullet" unicode="&#x2022;" horiz-adv-x="500" 
d="M72 357q0 37 14 69.5t38 56.5t56.5 38t69.5 14t69.5 -14t57 -38t38.5 -56.5t14 -69.5t-14 -69.5t-38.5 -57t-57 -38.5t-69.5 -14t-69.5 14t-56.5 38.5t-38 57t-14 69.5z" />
    <glyph glyph-name="quotesinglbase" unicode="&#x201a;" horiz-adv-x="278" 
d="M-4 -97q18 5 29 15t18.5 22.5t12.5 28t9 31.5h-42l24 106h84l-33 -140q-6 -24 -14.5 -40.5t-21.5 -28.5t-31.5 -20t-42.5 -14z" />
    <glyph glyph-name="quotedblbase" unicode="&#x201e;" horiz-adv-x="370" 
d="M126 -97q18 5 29 15t18.5 22.5t12.5 28t9 31.5h-42l24 106h84l-33 -140q-6 -24 -14.5 -40.5t-21.5 -28.5t-31.5 -20t-42.5 -14zM-27 -97q18 5 29 15t18.5 22.5t12.5 28t9 31.5h-42l24 106h84l-33 -140q-6 -24 -14.5 -40.5t-21.5 -28.5t-31.5 -20t-42.5 -14z" />
    <glyph glyph-name="quotedblright" unicode="&#x201d;" horiz-adv-x="370" 
d="M228 511q18 5 29 15t18.5 22.5t12.5 28t9 31.5h-42l24 106h84l-33 -140q-6 -24 -14.5 -40.5t-21.5 -28.5t-31.5 -20t-42.5 -14zM75 511q18 5 29 15t18.5 22.5t12.5 28t9 31.5h-42l24 106h84l-33 -140q-6 -24 -14.5 -40.5t-21.5 -28.5t-31.5 -20t-42.5 -14z" />
    <glyph glyph-name="guillemotright" unicode="&#xbb;" horiz-adv-x="426" 
d="M189 294l-15 -64l-159 -113l15 68l116 84l-75 102l12 63zM349 294l-15 -64l-159 -113l15 68l116 84l-75 102l12 63z" />
    <glyph glyph-name="ellipsis" unicode="&#x2026;" horiz-adv-x="1000" 
d="M720 0l23 106h85l-24 -106h-84zM52 0l23 106h85l-24 -106h-84zM386 0l23 106h85l-24 -106h-84z" />
    <glyph glyph-name="perthousand" unicode="&#x2030;" horiz-adv-x="1056" 
d="M197 368q-67 0 -99 34t-32 99q0 38 11 75t33 66t54.5 46.5t75.5 17.5q63 0 94.5 -37t31.5 -98q0 -36 -11 -72t-33 -65t-53.5 -47.5t-71.5 -18.5zM618 723h55l-571 -755h-54zM197 413q31 0 53 16.5t36 41t20.5 53.5t6.5 55q0 39 -20 60.5t-62 21.5q-31 0 -52 -17
t-34.5 -42.5t-19.5 -55t-6 -54.5q0 -32 19.5 -55.5t58.5 -23.5zM486 30q31 0 53 16.5t36 41t20.5 53.5t6.5 55q0 39 -20 60.5t-62 21.5q-31 0 -52 -17t-34.5 -42.5t-19.5 -55t-6 -54.5q0 -32 19.5 -55.5t58.5 -23.5zM486 -15q-67 0 -99 34t-32 99q0 38 11 75t33 66
t54.5 46.5t75.5 17.5q63 0 94.5 -37t31.5 -98q0 -36 -11 -72t-33 -65t-53.5 -47.5t-71.5 -18.5zM839 30q31 0 53 16.5t36 41t20.5 53.5t6.5 55q0 39 -20 60.5t-62 21.5q-31 0 -52 -17t-34.5 -42.5t-19.5 -55t-6 -54.5q0 -32 19.5 -55.5t58.5 -23.5zM839 -15q-67 0 -99 34
t-32 99q0 38 11 75t33 66t54.5 46.5t75.5 17.5q63 0 94.5 -37t31.5 -98q0 -36 -11 -72t-33 -65t-53.5 -47.5t-71.5 -18.5z" />
    <glyph glyph-name="questiondown" unicode="&#xbf;" horiz-adv-x="537" 
d="M269 516h85l-24 -106h-84zM306 341q-6 -44 -17.5 -73.5t-29.5 -52t-43 -42t-58 -43.5q-21 -14 -41.5 -31t-36.5 -36.5t-26 -42.5t-10 -49q0 -61 37 -92.5t97 -31.5q39 0 70 14t53 39t34.5 58t15.5 72h63q-2 -54 -19.5 -97.5t-48.5 -74.5t-74 -47.5t-97 -16.5
q-38 0 -73 10.5t-62 31.5t-43 52.5t-16 73.5q0 41 13.5 73t35.5 58t51 48t60 43q26 16 43 32t28 34t18 40t13 51h63z" />
    <glyph glyph-name="grave" unicode="`" 
d="M141 732l82 -144h-50l-106 144h74z" />
    <glyph glyph-name="acute" unicode="&#xb4;" 
d="M200 732h81l-144 -144h-53z" />
    <glyph glyph-name="circumflex" unicode="&#x2c6;" 
d="M58 588h-61l136 144h63l86 -144h-57l-66 106z" />
    <glyph glyph-name="tilde" unicode="&#x2dc;" 
d="M314 711q-4 -17 -11 -35t-18 -32q-11 -15 -25.5 -24.5t-34.5 -9.5t-39 8.5t-37 18.5q-18 11 -34 20t-30 9q-9 0 -17 -5.5t-14.5 -14t-10.5 -18t-6 -18.5h-41q5 18 12.5 36t18.5 32.5t26 23.5t36 9q19 0 36 -8t34 -18q17 -11 34.5 -20.5t35.5 -9.5q8 0 15 6t13 14.5
t10.5 18t6.5 17.5h40z" />
    <glyph glyph-name="macron" unicode="&#xaf;" 
d="M28 638l8 45h256l-8 -45h-256z" />
    <glyph glyph-name="breve" unicode="&#x2d8;" 
d="M64 725q5 -85 90 -85q90 0 118 85h37q-10 -59 -54 -94.5t-104 -35.5q-59 0 -93 36t-32 94h38z" />
    <glyph glyph-name="dotaccent" unicode="&#x2d9;" 
d="M136 711h64l-20 -102h-63z" />
    <glyph glyph-name="dieresis" unicode="&#xa8;" 
d="M56 711h64l-20 -102h-63zM215 711h64l-20 -102h-63z" />
    <glyph glyph-name="ring" unicode="&#x2da;" 
d="M159 580q-20 0 -38 8t-31.5 21.5t-21.5 32t-8 38.5t8 38t21.5 31.5t31.5 21.5t38 8t38.5 -8t32 -21.5t21.5 -31.5t8 -38q0 -42 -29 -71t-71 -29zM159 614q26 0 46 20t20 46q0 13 -5.5 24.5t-14.5 20.5t-21 14.5t-25 5.5q-26 0 -45.5 -19.5t-19.5 -45.5q0 -13 5.5 -25
t14.5 -21t20.5 -14.5t24.5 -5.5z" />
    <glyph glyph-name="cedilla" unicode="&#xb8;" 
d="M-71 -152q23 -9 38.5 -13t39.5 -4q20 0 38 9t18 31t-16.5 31.5t-37.5 9.5t-39 -9l-16 18l70 79h37l-55 -56l2 -2q7 2 14.5 3t21.5 1q30 0 52 -16.5t22 -52.5q0 -21 -10 -36.5t-25.5 -25t-34.5 -14t-37 -4.5q-30 0 -51.5 5.5t-44.5 16.5z" />
    <glyph glyph-name="hungarumlaut" unicode="&#x2dd;" 
d="M276 732h81l-144 -144h-53zM128 732h81l-144 -144h-53z" />
    <glyph glyph-name="ogonek" unicode="&#x2db;" 
d="M175 0q-60 -40 -87 -73.5t-27 -57.5q0 -3 0.5 -7.5t2.5 -8.5t7 -7.5t15 -3.5q16 0 34.5 11t37.5 34l29 -25q-26 -34 -54.5 -49.5t-65.5 -15.5q-39 0 -56.5 18t-17.5 43q0 23 13 46t32.5 41t40.5 32t38 23h58z" />
    <glyph glyph-name="caron" unicode="&#x2c7;" 
d="M255 732h61l-136 -144h-63l-86 144h57l66 -109z" />
    <glyph glyph-name="emdash" unicode="&#x2014;" horiz-adv-x="1000" 
d="M846 246h-740l12 58h740z" />
    <glyph glyph-name="AE" unicode="&#xc6;" horiz-adv-x="889" 
d="M208 284h224l81 372h-30zM453 714h498l-13 -58h-357l-56 -258h335l-13 -58h-334l-61 -282h369l-13 -58h-437l49 226h-255l-166 -226h-80z" />
    <glyph glyph-name="ordfeminine" unicode="&#xaa;" horiz-adv-x="311" 
d="M70 599q8 56 48.5 81.5t99.5 25.5q17 0 37.5 -3.5t38 -11.5t29 -22.5t11.5 -36.5q0 -11 -2 -24.5t-4.5 -26t-5 -22.5t-3.5 -13q-4 -17 -8.5 -35.5t-8.5 -35.5t-7 -29.5t-3 -16.5q0 -10 6.5 -11.5t14.5 -1.5h8t8 1l-6 -37q-15 -3 -33 -3t-27.5 9.5t-9.5 25.5q0 6 3 17h-3
q-17 -30 -49 -45.5t-67 -15.5q-51 0 -82 20.5t-31 70.5q0 27 10 44.5t26 29t37 18t44 10.5q32 5 59 4.5t47 4.5t30 17t10 37q0 13 -6.5 21.5t-16.5 13t-21.5 6.5t-21.5 2q-41 0 -71 -15t-37 -53h-43zM277 546l-1 -1l-2 2q-4 -6 -13 -9t-19.5 -5t-21 -2.5t-18.5 -1.5
q-19 -2 -41.5 -4t-42.5 -9t-33.5 -20t-13.5 -37q0 -27 22.5 -39.5t50.5 -12.5q50 0 80 24.5t40 65.5z" />
    <glyph glyph-name="Lslash" unicode="&#x141;" horiz-adv-x="537" 
d="M159 714h68l-77 -359l252 153l-9 -54l-255 -155l-52 -241h395l-14 -58h-462l54 251l-94 -57l12 56l94 57z" />
    <glyph glyph-name="Oslash" unicode="&#xd8;" horiz-adv-x="741" 
d="M163 112q30 -32 74 -50.5t101 -18.5q73 0 130.5 33t98 85.5t62 119t21.5 132.5q0 48 -10 89t-31 74zM740 712l-83 -86q29 -38 45 -87t16 -109q0 -87 -25.5 -167.5t-75.5 -142t-123 -98.5t-167 -37q-68 0 -120 20.5t-90 58.5l-88 -91l-24 27l88 91q-59 77 -59 198
q0 85 26 164.5t76 141t122 98t164 36.5q65 0 117.5 -19.5t91.5 -56.5l84 88zM586 606q-28 30 -69 47.5t-96 17.5q-81 0 -140.5 -33.5t-99.5 -88t-59.5 -124t-19.5 -142.5q0 -87 38 -143z" />
    <glyph glyph-name="OE" unicode="&#x152;" horiz-adv-x="1037" 
d="M652 398h350l-13 -58h-350l-59 -282h389l-13 -58h-455l14 64l-2 2q-16 -22 -37.5 -37.5t-46.5 -25t-51.5 -14t-52.5 -4.5q-72 0 -125 23.5t-87 65.5t-50.5 99t-16.5 125q0 80 25.5 157.5t74.5 138t119 98t160 37.5q61 0 118.5 -24t92.5 -79l19 88h444l-13 -58h-380z
M607 513q2 11 3 18t1 10q0 33 -18 57t-45.5 40.5t-61.5 24.5t-67 8q-72 0 -129 -33t-96 -86.5t-59.5 -120.5t-20.5 -135q0 -50 12.5 -96t39 -81t66.5 -55.5t96 -20.5q39 0 74.5 12t64 33.5t48.5 52.5t28 69z" />
    <glyph glyph-name="ordmasculine" unicode="&#xba;" horiz-adv-x="334" 
d="M220 667q-33 0 -58.5 -15.5t-43 -39t-26.5 -52t-9 -54.5q0 -44 24.5 -71.5t74.5 -27.5q33 0 58 16t42.5 40.5t26 53.5t8.5 55q0 42 -24.5 68.5t-72.5 26.5zM174 368q-68 0 -103 36t-35 98q0 40 12.5 77t37 65t60 45t82.5 17q62 0 99 -32.5t37 -93.5q0 -41 -11.5 -79.5
t-35.5 -68t-59.5 -47t-83.5 -17.5z" />
    <glyph glyph-name="ae" unicode="&#xe6;" horiz-adv-x="852" 
d="M374 276l-2 2q-8 -9 -22 -14.5t-30.5 -8.5t-33 -4t-28.5 -2q-29 -2 -64.5 -5.5t-66.5 -15t-52 -34.5t-21 -63q0 -25 9.5 -42.5t25.5 -29t36.5 -16.5t43.5 -5q76 0 123 41.5t62 109.5zM62 362q6 44 25.5 76t48.5 52.5t65.5 30.5t78.5 10q24 0 50.5 -4.5t50 -16t41.5 -32
t25 -52.5q30 53 78.5 79t106.5 26q47 0 82.5 -15.5t59 -43t35.5 -66.5t12 -85q0 -19 -2.5 -39.5t-7.5 -40.5h-385q-3 -15 -5.5 -32.5t-2.5 -34.5q0 -64 40 -100t100 -36q63 0 109 34t62 94h63q-30 -91 -89 -136t-158 -45q-33 0 -63 8t-53.5 25t-38.5 42.5t-19 61.5h-2
q-25 -70 -80 -103.5t-133 -33.5q-35 0 -65.5 8t-52.5 25.5t-34.5 44.5t-12.5 65q0 41 15 69t40 46t57 28.5t67 16.5q50 8 92 7.5t72 7.5q31 8 46.5 29t15.5 72q0 23 -10.5 37.5t-26 22.5t-35 11t-37.5 3q-30 0 -57 -6t-49 -19.5t-36.5 -36t-19.5 -54.5h-63zM756 294
q2 12 2 22v22q0 61 -34 100.5t-98 39.5q-41 0 -72.5 -14.5t-55.5 -39.5t-39.5 -58.5t-23.5 -71.5h321z" />
    <glyph glyph-name="dotlessi" unicode="&#x131;" 
d="M-11 0l111 516h63l-111 -516h-63z" />
    <glyph glyph-name="lslash" unicode="&#x142;" 
d="M143 714h63l-58 -268l78 56l-11 -55l-79 -56l-84 -391h-63l73 338l-75 -53l12 55l75 53z" />
    <glyph glyph-name="oslash" unicode="&#xf8;" horiz-adv-x="556" 
d="M409 427q-40 51 -118 51q-52 0 -92 -25.5t-67 -65t-41 -88t-14 -93.5q0 -27 4.5 -50.5t15.5 -43.5zM512 530l22 -21l-60 -61q32 -50 32 -119q0 -65 -18 -127t-53.5 -110t-89 -77.5t-125.5 -29.5q-49 0 -86.5 15t-63.5 42l-64 -64l-20 22l65 65q-37 55 -37 135
q0 63 19 123t56 106t90.5 74t122.5 28q48 0 86.5 -15t65.5 -44zM114 87q19 -23 48 -36t70 -13q52 0 91.5 26.5t66 67.5t40 90t13.5 94q0 47 -17 84z" />
    <glyph glyph-name="oe" unicode="&#x153;" horiz-adv-x="907" 
d="M803 294q3 24 3 44q-1 29 -9.5 54.5t-25 44.5t-42 30t-59.5 11q-41 0 -72.5 -14.5t-54.5 -39.5t-38.5 -58.5t-23.5 -71.5h322zM295 478q-53 0 -92.5 -27t-65.5 -69t-39 -92t-13 -95q0 -33 8 -61.5t24.5 -49.5t42 -33.5t61.5 -12.5q57 0 96.5 31t63.5 77t34.5 100
t10.5 100q0 60 -35 96t-96 36zM471 241q-5 -14 -6.5 -32t-1.5 -36q0 -64 40 -99.5t102 -35.5q63 0 107 34t62 94h63q-26 -84 -86.5 -132.5t-149.5 -48.5q-70 0 -117.5 32t-64.5 102h-2q-28 -61 -81 -97.5t-122 -36.5q-94 0 -143 57t-49 151q0 61 19 121.5t55 108.5t88.5 78
t119.5 30q31 0 59.5 -8t50.5 -24.5t37 -41t19 -57.5h2q31 61 87 96t126 35q49 0 83.5 -17t57 -45.5t33 -66.5t10.5 -80q0 -21 -3 -40.5t-8 -40.5h-387z" />
    <glyph glyph-name="germandbls" unicode="&#xdf;" horiz-adv-x="519" 
d="M107 545q19 88 69.5 136t141.5 48q37 0 69 -9t56 -27.5t37.5 -48t13.5 -70.5q0 -34 -11.5 -64t-32 -53t-48.5 -38.5t-61 -19.5v-2q57 -12 87.5 -50.5t30.5 -96.5q0 -52 -19 -98.5t-52.5 -81.5t-79 -55.5t-98.5 -20.5q-17 0 -33 0.5t-33 3.5l11 52q11 -2 22.5 -2.5
t22.5 -0.5q40 0 75.5 15t62.5 40.5t42.5 60.5t15.5 76q0 40 -13.5 65t-37 39.5t-54.5 19.5t-66 5l12 53q32 -1 66.5 7t63 26t46.5 46.5t18 68.5q0 51 -31 79t-80 28q-36 0 -61.5 -10.5t-43.5 -29.5t-29.5 -46t-18.5 -61l-115 -529h-63z" />
    <glyph glyph-name="divide" unicode="&#xf7;" horiz-adv-x="600" 
d="M244 50q0 23 16.5 39.5t39.5 16.5t39.5 -16.5t16.5 -39.5q0 -21 -16.5 -38.5t-38.5 -17.5q-23 0 -40 16.5t-17 39.5zM244 453q0 23 16.5 39.5t39.5 16.5t39.5 -16.5t16.5 -39.5q0 -21 -16.5 -38.5t-38.5 -17.5q-23 0 -40 16.5t-17 39.5zM49 225v53h503v-53h-503z" />
    <glyph glyph-name="threequarters" unicode="&#xbe;" horiz-adv-x="834" 
d="M502 138h157l49 210l-2 2zM727 420h45l-65 -282h63l-7 -39h-65l-23 -99h-47l23 99h-206l7 43zM633 725h53l-444 -759h-53zM73 570q12 64 49.5 100t105.5 36q27 0 51.5 -6.5t42.5 -20t28.5 -34t10.5 -48.5q0 -40 -26.5 -67.5t-68.5 -33.5v-2q33 -8 50 -31.5t17 -55.5
q0 -34 -13.5 -60.5t-37 -44.5t-55 -27.5t-66.5 -9.5q-40 0 -66.5 10.5t-42.5 29.5t-22.5 46.5t-5.5 61.5h41q-3 -50 19 -79.5t79 -29.5q25 0 47.5 7.5t39 21t26.5 32t10 40.5q0 20 -8 33.5t-22 22t-32.5 12.5t-38.5 4h-22l7 39h26q21 0 42 3t38 12t27.5 24.5t10.5 40.5
q0 35 -26.5 53t-61.5 18q-49 0 -76.5 -26.5t-35.5 -70.5h-41z" />
    <glyph glyph-name="onequarter" unicode="&#xbc;" horiz-adv-x="834" 
d="M502 138h157l49 210l-2 2zM727 420h45l-65 -282h63l-7 -39h-65l-23 -99h-47l23 99h-206l7 43zM117 622q40 5 78.5 21t64.5 54h38l-97 -423h-48l79 343q-15 -9 -32 -15t-33.5 -10t-32 -6t-26.5 -3zM598 725h53l-444 -759h-53z" />
    <glyph glyph-name="onesuperior" unicode="&#xb9;" horiz-adv-x="333" 
d="M117 622q40 5 78.5 21t64.5 54h38l-97 -423h-48l79 343q-15 -9 -32 -15t-33.5 -10t-32 -6t-26.5 -3z" />
    <glyph glyph-name="multiply" unicode="&#xd7;" horiz-adv-x="600" 
d="M74 440l37 37l189 -189l189 189l37 -37l-189 -189l189 -189l-37 -37l-189 188l-189 -188l-37 37l188 189z" />
    <glyph glyph-name="registered" unicode="&#xae;" horiz-adv-x="800" 
d="M388 378q24 0 47.5 1.5t41.5 8.5t29 22.5t11 42.5q0 22 -8.5 36.5t-23 23t-33 11.5t-37.5 3h-97v-149h70zM318 142h-53v430h165q73 0 106.5 -30.5t33.5 -88.5q0 -29 -8.5 -49.5t-23.5 -35t-34.5 -23t-41.5 -12.5l128 -191h-62l-121 191h-89v-191zM400 676
q-68 0 -125.5 -25t-99.5 -68t-65.5 -101t-23.5 -125t23.5 -125t65.5 -101t99.5 -68t125.5 -25q67 0 124.5 25t99.5 68t66 101t24 125t-24 125t-66 101t-99.5 68t-124.5 25zM400 729q79 0 147 -28.5t118 -79t78.5 -118.5t28.5 -146t-28.5 -146t-78.5 -118.5t-118 -79
t-147 -28.5t-147 28.5t-118 79t-78.5 118.5t-28.5 146t28.5 146t78.5 118.5t118 79t147 28.5z" />
    <glyph glyph-name="Thorn" unicode="&#xde;" horiz-adv-x="630" 
d="M126 247h241q37 0 69 11t56 32t37.5 51.5t13.5 69.5q0 36 -10.5 60.5t-29.5 39.5t-45.5 21.5t-59.5 6.5h-209zM159 714h68l-26 -117h220q40 0 75 -12t60.5 -34.5t40 -55.5t14.5 -74q0 -56 -18.5 -99t-51 -72.5t-77.5 -45t-99 -15.5h-252l-40 -189h-68z" />
    <glyph glyph-name="brokenbar" unicode="&#xa6;" horiz-adv-x="222" 
d="M85 661h53v-250h-53v250zM85 161h53v-250h-53v250z" />
    <glyph glyph-name="Eth" unicode="&#xd0;" horiz-adv-x="685" 
d="M159 393h213l-10 -45h-213l-63 -290h172q89 -1 152.5 31t104.5 85.5t60 123t19 143.5q0 215 -215 215h-163zM12 393h79l69 321h230q77 0 129 -20.5t84 -58t45.5 -90.5t13.5 -117q0 -84 -25 -161.5t-74.5 -137t-122.5 -94.5t-169 -35h-266l76 348h-79z" />
    <glyph glyph-name="onehalf" unicode="&#xbd;" horiz-adv-x="834" 
d="M503 283q1 33 13.5 60.5t33.5 47t49.5 30.5t63.5 11q54 0 93 -28t43 -85q0 -30 -11 -53.5t-29 -41.5t-42 -33t-50 -28q-26 -14 -53.5 -27.5t-51 -28.5t-40 -31.5t-19.5 -36.5h246l-7 -39h-294q2 35 16 61t35.5 46.5t49 36.5t55.5 30q28 15 55 29t47.5 31t33 38t12.5 48
q0 37 -28 55t-64 18q-25 0 -45 -9t-34 -24t-22 -35t-9 -42h-47zM92 622q40 5 78.5 21t64.5 54h38l-97 -423h-48l79 343q-15 -9 -32 -15t-33.5 -10t-32 -6t-26.5 -3zM574 725h53l-444 -759h-53z" />
    <glyph glyph-name="minus" unicode="&#x2212;" horiz-adv-x="600" 
d="M552 225h-503v53h503v-53z" />
    <glyph glyph-name="eth" unicode="&#xf0;" horiz-adv-x="556" 
d="M326 652q-20 18 -41 31.5t-43 23.5l46 35q51 -26 90 -63l117 59l26 -31l-115 -58q54 -60 79.5 -138t23.5 -163q-2 -69 -18.5 -134t-51.5 -116t-89 -82t-130 -31q-50 0 -88.5 14.5t-64.5 41.5t-39.5 65t-13.5 84q0 60 19 117t56 101.5t90.5 71t122.5 26.5q17 0 36.5 -2.5
t38.5 -10t36.5 -20t31.5 -33.5h2q-9 51 -32.5 99.5t-58.5 83.5l-108 -55l-26 31zM291 453q-52 0 -92 -24.5t-67 -62t-41 -83t-14 -87.5q0 -71 38 -114.5t117 -43.5q53 0 93 25t67 64t40.5 85.5t13.5 88.5q0 67 -38.5 109.5t-116.5 42.5z" />
    <glyph glyph-name="plusminus" unicode="&#xb1;" horiz-adv-x="600" 
d="M49 53h503v-53h-503v53zM274 503h53v-180h225v-53h-225v-180h-53v180h-224v53h224v180z" />
    <glyph glyph-name="thorn" unicode="&#xfe;" horiz-adv-x="574" 
d="M149 714h63l-62 -289h2q28 50 70 78t111 28q49 0 86 -15.5t61.5 -43t36.5 -66.5t12 -86q0 -59 -19.5 -119t-56.5 -108t-89 -78t-117 -30q-30 0 -58 6.5t-50 21t-37 36.5t-20 54h-2l-63 -294h-63zM327 478q-54 0 -96 -27.5t-70.5 -70t-43.5 -94t-15 -99.5
q0 -68 37.5 -108.5t106.5 -40.5q54 0 95.5 27t69 69t41.5 92.5t14 97.5q0 66 -34 110t-105 44z" />
    <glyph glyph-name="copyright" unicode="&#xa9;" horiz-adv-x="800" 
d="M543 435q-9 45 -43.5 75t-89.5 31q-41 0 -71.5 -14t-51.5 -39t-31.5 -58.5t-10.5 -72.5t10.5 -72.5t31.5 -58.5t51.5 -39t71.5 -14q55 0 89.5 30.5t43.5 75.5h51q-5 -36 -21 -64.5t-41 -47.5t-56.5 -29t-66.5 -10q-51 0 -91.5 17t-68 48t-42.5 72.5t-15 91.5q0 49 15 91
t42.5 73t68 48t91.5 17q35 0 66.5 -10t56.5 -29t41 -47.5t21 -64.5h-51zM714 357q0 67 -24 125t-66 101t-99.5 68t-124.5 25q-68 0 -125.5 -25t-99.5 -68t-65.5 -101t-23.5 -125t23.5 -125t65.5 -101t99.5 -68t125.5 -25q67 0 124.5 25t99.5 68t66 101t24 125zM772 357
q0 -78 -28.5 -146t-78.5 -118.5t-118 -79t-147 -28.5t-147 28.5t-118 79t-78.5 118.5t-28.5 146t28.5 146t78.5 118.5t118 79t147 28.5t147 -28.5t118 -79t78.5 -118.5t28.5 -146z" />
    <glyph glyph-name="logicalnot" unicode="&#xac;" horiz-adv-x="600" 
d="M499 325h-450v53h503v-267h-53v214z" />
    <glyph glyph-name="twosuperior" unicode="&#xb2;" horiz-adv-x="333" 
d="M66 557q1 33 13.5 60.5t33.5 47t49.5 30.5t63.5 11q54 0 93 -28t43 -85q0 -30 -11 -53.5t-29 -41.5t-42 -33t-50 -28q-26 -14 -53.5 -27.5t-51 -28.5t-40 -31.5t-19.5 -36.5h246l-7 -39h-294q2 35 16 61t35.5 46.5t49 36.5t55.5 30q28 15 55 29t47.5 31t33 38t12.5 48
q0 37 -28 55t-64 18q-25 0 -45 -9t-34 -24t-22 -35t-9 -42h-47z" />
    <glyph glyph-name="threesuperior" unicode="&#xb3;" horiz-adv-x="333" 
d="M73 570q12 64 49.5 100t105.5 36q27 0 51.5 -6.5t42.5 -20t28.5 -34t10.5 -48.5q0 -40 -26.5 -67.5t-68.5 -33.5v-2q33 -8 50 -31.5t17 -55.5q0 -34 -13.5 -60.5t-37 -44.5t-55 -27.5t-66.5 -9.5q-40 0 -66.5 10.5t-42.5 29.5t-22.5 46.5t-5.5 61.5h41q-3 -50 19 -79.5
t79 -29.5q25 0 47.5 7.5t39 21t26.5 32t10 40.5q0 20 -8 33.5t-22 22t-32.5 12.5t-38.5 4h-22l7 39h26q21 0 42 3t38 12t27.5 24.5t10.5 40.5q0 35 -26.5 53t-61.5 18q-49 0 -76.5 -26.5t-35.5 -70.5h-41z" />
    <glyph glyph-name="trademark" unicode="&#x2122;" horiz-adv-x="990" 
d="M476 302v412h85l133 -334l129 334h85v-412h-53v364h-2l-146 -364h-30l-146 364h-2v-364h-53zM216 302v367h-134v45h321v-45h-134v-367h-53z" />
    <glyph glyph-name="degree" unicode="&#xb0;" horiz-adv-x="400" 
d="M156 562q0 -22 8 -41t22.5 -33.5t33.5 -22.5t41 -8t41 8t33 22.5t22.5 33.5t8.5 41t-8.5 41t-22.5 33t-33 22.5t-41 8.5t-41 -8.5t-33.5 -22.5t-22.5 -33t-8 -41zM117 562q0 30 11 56t30.5 45.5t46 31t56.5 11.5t56 -11.5t45.5 -31t31 -45.5t11.5 -56t-11.5 -56.5
t-31 -46t-45.5 -30.5t-56 -11t-56.5 11t-46 30.5t-30.5 46t-11 56.5z" />
    <glyph glyph-name="mu" unicode="&#xb5;" horiz-adv-x="537" 
d="M402 0h-58l18 94h-2q-29 -46 -77.5 -77.5t-106.5 -31.5q-38 0 -69.5 10t-51.5 31l-45 -217h-61l150 707h63l-72 -333q-3 -12 -5 -25.5t-2 -26.5q0 -26 9 -43.5t24 -28.5t34.5 -16t40.5 -5q34 0 66 15t58.5 42.5t46.5 67t31 88.5l57 265h63z" />
    <glyph glyph-name="dollar" unicode="$" horiz-adv-x="556" 
d="M505 506q-1 80 -35.5 116.5t-101.5 44.5l-58 -274l20 -6q37 -11 71.5 -24t61.5 -33t43 -50t16 -75q0 -26 -10.5 -64t-40.5 -72.5t-84 -59t-141 -24.5h-12t-11 1l-18 -86h-45l20 91q-47 7 -85.5 25t-65.5 48t-41 72.5t-11 98.5h68q-2 -44 7 -76.5t28.5 -55t47.5 -36
t64 -18.5l63 296l-48 14q-63 18 -102 57.5t-39 108.5q0 57 23.5 96t61.5 63t86.5 34.5t98.5 10.5l11 52h45l-12 -56q43 -6 80 -21t63 -41.5t39.5 -65t10.5 -91.5h-68zM236 44q5 -1 15 -1q35 0 71 9t65.5 27.5t48 47.5t18.5 69q0 35 -14 57.5t-36.5 37.5t-50.5 24t-56 17z
M324 671q-35 0 -69 -7.5t-61 -24.5t-43.5 -44t-16.5 -67q0 -29 10.5 -48t27 -32.5t38 -22t44.5 -15.5l14 -4z" />
    <glyph glyph-name="Euro" unicode="&#x20ac;" horiz-adv-x="556" 
d="M532 581q-32 34 -65.5 52t-81.5 18q-47 0 -82.5 -19.5t-62 -50.5t-44.5 -70t-30 -78h312l-26 -44h-297l-8 -60h278l-27 -44h-254q0 -43 8 -86.5t27.5 -79t53 -57.5t84.5 -22q30 0 55 7t48 19t45 27.5t45 31.5l-19 -83q-43 -29 -84.5 -43.5t-93.5 -14.5q-67 0 -112.5 25
t-73 67t-39.5 96t-12 113h-79l26 44h55l8 60h-63l27 44h46q13 53 37.5 103t60.5 88.5t83.5 62t107.5 23.5q58 0 98.5 -18.5t82.5 -57.5z" />
    <glyph glyph-name="notequal" unicode="&#x2260;" horiz-adv-x="593" 
d="M231 123l-76 -143l-47 25l63 118h-152v53h181l70 133h-251v54h280l78 146l46 -25l-65 -121h160v-54h-188l-71 -133h259v-53h-287z" />
    <glyph glyph-name="infinity" unicode="&#x221e;" horiz-adv-x="731" 
d="M302 247q-16 12 -34 28t-38.5 30.5t-41.5 24t-43 9.5q-19 0 -34 -7.5t-25.5 -20.5t-16 -29t-5.5 -34q0 -39 22.5 -63.5t62.5 -24.5q20 0 41 8.5t41.5 21.5t38.5 28.5t32 28.5zM610 248q0 39 -21.5 65.5t-63.5 26.5q-21 0 -41.5 -9.5t-40.5 -23.5t-37.5 -30.5t-32.5 -29.5
q16 -14 34 -29.5t37.5 -28.5t40.5 -21t44 -8q39 0 60 25.5t21 62.5zM662 251q0 -30 -9.5 -56.5t-27 -46t-43 -30.5t-56.5 -11q-29 0 -54.5 9.5t-49 24.5t-44.5 34t-40 38q-21 -18 -42 -37t-44.5 -34t-49 -25t-55.5 -10t-55 11t-43 29.5t-27.5 44.5t-9.5 56q0 29 9.5 55.5
t27 46t42.5 31t55 11.5t56 -10.5t49.5 -27t44.5 -36.5t42 -38q19 19 39.5 39t43.5 36.5t48.5 27t54.5 10.5q31 0 56.5 -11t43.5 -30t28 -45t10 -56z" />
    <glyph glyph-name="lessequal" unicode="&#x2264;" horiz-adv-x="593" 
d="M19 -26v54h500v-54h-500zM19 262v59l500 191v-59l-425 -161l425 -161v-60z" />
    <glyph glyph-name="greaterequal" unicode="&#x2265;" horiz-adv-x="593" 
d="M19 -26v54h500v-54h-500zM19 71v60l425 161l-425 161v59l500 -191v-59z" />
    <glyph glyph-name="partialdiff" unicode="&#x2202;" horiz-adv-x="489" 
d="M368 276q-14 18 -31.5 35.5t-37.5 30.5t-43 21t-47 8q-34 0 -60 -13.5t-43.5 -36t-26.5 -51.5t-9 -60q0 -30 9 -61t26 -56t43 -40.5t61 -15.5q44 0 73.5 24.5t48 60.5t27 77.5t10.5 76.5zM430 364q0 -36 -3 -78t-11.5 -84t-24 -80.5t-40 -68t-59.5 -47.5t-83 -18
q-47 0 -83 18.5t-61.5 49.5t-38.5 71.5t-13 83.5t13 81.5t37.5 67.5t60 46t81.5 17q51 0 94 -24.5t74 -63.5q0 14 0.5 28t0.5 28q0 42 -8.5 91t-29.5 90.5t-56 69t-88 27.5q-35 0 -59.5 -12.5t-51.5 -32.5l-33 40q31 28 65 42.5t76 14.5q72 0 118.5 -34t73.5 -86.5
t38 -115.5t11 -121z" />
    <glyph glyph-name="summation" unicode="&#x2211;" horiz-adv-x="598" 
d="M26 -214v51l331 452l-317 445v52h521v-57h-445l314 -440l-332 -447h475v-56h-547z" />
    <glyph glyph-name="product" unicode="&#x220f;" horiz-adv-x="708" 
d="M576 -214v943h-444v-943h-60v1000h564v-1000h-60z" />
    <glyph glyph-name="pi" unicode="&#x3c0;" horiz-adv-x="559" 
d="M543 423h-77l-65 -307q-2 -12 -5 -24.5t-3 -24.5t8.5 -17t19.5 -5q12 0 24 3t23 8l-10 -46q-16 -7 -31 -11.5t-32 -4.5q-24 0 -44 12t-20 39q0 16 3 32l6 32l67 314h-260l-89 -423h-59l89 423h-74l11 54h530z" />
    <glyph glyph-name="integral" unicode="&#x222b;" horiz-adv-x="540" 
d="M400 739q0 -15 -9.5 -24t-24.5 -9q-14 0 -21 6t-11 13.5t-8 14t-11 6.5q-12 0 -19 -13t-11 -33t-5.5 -43.5t-1.5 -45.5t0.5 -38.5t0.5 -22.5v-501q0 -32 -1 -77t-11.5 -86.5t-35 -70.5t-71.5 -29q-21 0 -39.5 11t-18.5 35q0 14 9.5 22.5t23.5 8.5q13 0 19.5 -6
t10.5 -12.5t7.5 -12.5t10.5 -6q10 0 16.5 13t10.5 32t6 42t2.5 43.5t0.5 35.5v17v495q0 22 -1 51.5t0.5 61t7 62t18 54.5t34.5 38.5t57 14.5q11 0 22.5 -2.5t21 -8t15.5 -14.5t6 -22z" />
    <glyph glyph-name="Omega" unicode="&#x2126;" horiz-adv-x="743" 
d="M700 455q0 -62 -17.5 -114.5t-51 -93.5t-82 -68.5t-109.5 -38.5l-19 -90l198 -1l-11 -49h-247l39 181q18 2 36.5 5.5t35.5 9.5q41 14 72.5 40t52.5 60.5t31.5 74.5t10.5 82q0 49 -16.5 89t-46 67.5t-70 42.5t-89.5 15q-64 0 -119 -26t-95.5 -70t-63.5 -101t-23 -120
q0 -69 36.5 -116t107.5 -54l-39 -180h-240l11 49h187l21 94q-75 23 -110 80t-35 132q0 73 29.5 139.5t79.5 116.5t116 80t139 30q60 0 111.5 -18.5t89 -53t59 -84t21.5 -110.5z" />
    <glyph glyph-name="radical" unicode="&#x221a;" horiz-adv-x="487" 
d="M255 -214h-60l-167 343l-45 -22l-22 45l95 46l162 -340l191 928h56z" />
    <glyph glyph-name="approxequal" unicode="&#x2248;" horiz-adv-x="593" 
d="M530 230q-3 -26 -11 -49.5t-22.5 -42.5t-36 -30t-50.5 -11q-33 0 -70.5 11.5t-75 25.5t-72.5 25.5t-63 11.5q-35 0 -55.5 -25t-25.5 -57h-41q4 25 12 49.5t22 43.5t35.5 30.5t51.5 11.5q33 0 70 -11.5t74 -25t72.5 -25t64.5 -11.5q36 0 55 23.5t26 55.5h40v0zM530 396
q-3 -26 -11 -49.5t-22.5 -42.5t-36 -30t-50.5 -11q-33 0 -71 11.5t-75.5 25t-72.5 25t-62 11.5q-35 0 -55.5 -24.5t-24.5 -56.5h-42q4 26 12 50.5t22 43t35.5 30t51.5 11.5q32 0 70 -11.5t75.5 -25.5t73 -25.5t63.5 -11.5q36 0 55 24t25 56h40v0z" />
    <glyph glyph-name="Delta" unicode="&#x2206;" horiz-adv-x="668" 
d="M400 646l-358 -589h463zM-57 0l435 712h67l137 -712h-639z" />
    <glyph glyph-name="lozenge" unicode="&#x25ca;" horiz-adv-x="593" 
d="M296 686l-138 -330l138 -330l139 330zM325 -35h-58l-168 391l168 391h58l169 -391z" />
    <glyph glyph-name="commaaccent" horiz-adv-x="278" 
d="M131 -50l-17 -80q-5 -27 -21 -42.5t-34.5 -22.5t-45.5 -8l6 28q16 3 24 7.5t14 11.5t8 15h-39l19 91h86z" />
    <glyph glyph-name="commaaccenttwo" horiz-adv-x="278" 
d="M101 623l17 80q5 27 21 42.5t34.5 22.5t45.5 8l-6 -28q-16 -3 -24 -7.5t-14 -11.5t-8 -15h39l-19 -91h-86z" />
    <glyph glyph-name="carontwo" 
d="M204 714h81l-112 -144h-49z" />
    <glyph glyph-name="Agrave" unicode="&#xc0;" horiz-adv-x="630" 
d="M167 280h282l-61 376h-2zM362 714h74l130 -714h-71l-36 222h-326l-132 -222h-76zM353 922l82 -144h-50l-106 144h74z" />
    <glyph glyph-name="Aacute" unicode="&#xc1;" horiz-adv-x="630" 
d="M167 280h282l-61 376h-2zM362 714h74l130 -714h-71l-36 222h-326l-132 -222h-76zM485 922h81l-144 -144h-53z" />
    <glyph glyph-name="Acircumflex" unicode="&#xc2;" horiz-adv-x="630" 
d="M167 280h282l-61 376h-2zM362 714h74l130 -714h-71l-36 222h-326l-132 -222h-76zM321 778h-61l136 144h63l86 -144h-57l-66 106z" />
    <glyph glyph-name="Atilde" unicode="&#xc3;" horiz-adv-x="630" 
d="M167 280h282l-61 376h-2zM362 714h74l130 -714h-71l-36 222h-326l-132 -222h-76zM563 901q-4 -17 -11 -35t-18 -32q-11 -15 -25.5 -24.5t-34.5 -9.5t-39 8.5t-37 18.5q-18 11 -34 20t-30 9q-9 0 -17 -5.5t-14.5 -14t-10.5 -18t-6 -18.5h-41q5 18 12.5 36t18.5 32.5
t26 23.5t36 9q19 0 36 -8t34 -18q17 -11 34.5 -20.5t35.5 -9.5q8 0 15 6t13 14.5t10.5 18t6.5 17.5h40z" />
    <glyph glyph-name="Adieresis" unicode="&#xc4;" horiz-adv-x="630" 
d="M167 280h282l-61 376h-2zM362 714h74l130 -714h-71l-36 222h-326l-132 -222h-76zM318 901h64l-20 -102h-63zM477 901h64l-20 -102h-63z" />
    <glyph glyph-name="Amacron" unicode="&#x100;" horiz-adv-x="630" 
d="M167 280h282l-61 376h-2zM362 714h74l130 -714h-71l-36 222h-326l-132 -222h-76zM287 828l8 45h256l-8 -45h-256z" />
    <glyph glyph-name="Abreve" unicode="&#x102;" horiz-adv-x="630" 
d="M167 280h282l-61 376h-2zM362 714h74l130 -714h-71l-36 222h-326l-132 -222h-76zM312 915q5 -85 90 -85q90 0 118 85h37q-10 -59 -54 -94.5t-104 -35.5q-59 0 -93 36t-32 94h38z" />
    <glyph glyph-name="Aring" unicode="&#xc5;" horiz-adv-x="630" 
d="M167 280h282l-61 376h-2zM362 714h74l130 -714h-71l-36 222h-326l-132 -222h-76zM412 760q-20 0 -38 8t-31.5 21.5t-21.5 32t-8 38.5t8 38t21.5 31.5t31.5 21.5t38 8t38.5 -8t32 -21.5t21.5 -31.5t8 -38q0 -42 -29 -71t-71 -29zM412 794q26 0 46 20t20 46q0 13 -5.5 24.5
t-14.5 20.5t-21 14.5t-25 5.5q-26 0 -45.5 -19.5t-19.5 -45.5q0 -13 5.5 -25t14.5 -21t20.5 -14.5t24.5 -5.5z" />
    <glyph glyph-name="Aogonek" unicode="&#x104;" horiz-adv-x="630" 
d="M553 0q-60 -40 -87 -73.5t-27 -57.5q0 -3 0.5 -7.5t2.5 -8.5t7 -7.5t15 -3.5q16 0 34.5 11t37.5 34l29 -25q-26 -34 -54.5 -49.5t-65.5 -15.5q-39 0 -56.5 18t-17.5 43q0 23 13 46t32.5 41t40.5 32t38 23l-36 222h-326l-132 -222h-76l437 714h74l130 -714h-13zM167 280
h282l-61 376h-2z" />
    <glyph glyph-name="Cacute" unicode="&#x106;" horiz-adv-x="704" 
d="M620 488q-2 91 -56 137t-143 46q-81 0 -140.5 -33.5t-99.5 -88t-59.5 -124t-19.5 -142.5q0 -55 16 -99t46.5 -75.5t74 -48.5t99.5 -17q43 0 81 14t69.5 40t55 63t36.5 84h68q-12 -55 -38 -102t-66 -82t-94 -55t-123 -20q-70 0 -124.5 22t-92 62.5t-57 96t-19.5 123.5
q0 85 26 164.5t76 141t122 98t164 36.5q56 0 104.5 -15.5t84 -45.5t56 -75t21.5 -105h-68zM516 938h81l-144 -144h-53z" />
    <glyph glyph-name="Ccircumflex" unicode="&#x108;" horiz-adv-x="704" 
d="M620 488q-2 91 -56 137t-143 46q-81 0 -140.5 -33.5t-99.5 -88t-59.5 -124t-19.5 -142.5q0 -55 16 -99t46.5 -75.5t74 -48.5t99.5 -17q43 0 81 14t69.5 40t55 63t36.5 84h68q-12 -55 -38 -102t-66 -82t-94 -55t-123 -20q-70 0 -124.5 22t-92 62.5t-57 96t-19.5 123.5
q0 85 26 164.5t76 141t122 98t164 36.5q56 0 104.5 -15.5t84 -45.5t56 -75t21.5 -105h-68zM361 778h-61l136 144h63l86 -144h-57l-66 106z" />
    <glyph glyph-name="Ccaron" unicode="&#x10c;" horiz-adv-x="704" 
d="M620 488q-2 91 -56 137t-143 46q-81 0 -140.5 -33.5t-99.5 -88t-59.5 -124t-19.5 -142.5q0 -55 16 -99t46.5 -75.5t74 -48.5t99.5 -17q43 0 81 14t69.5 40t55 63t36.5 84h68q-12 -55 -38 -102t-66 -82t-94 -55t-123 -20q-70 0 -124.5 22t-92 62.5t-57 96t-19.5 123.5
q0 85 26 164.5t76 141t122 98t164 36.5q56 0 104.5 -15.5t84 -45.5t56 -75t21.5 -105h-68zM533 938h61l-136 -144h-63l-86 144h57l66 -109z" />
    <glyph glyph-name="Cdotaccent" unicode="&#x10a;" horiz-adv-x="704" 
d="M620 488q-2 91 -56 137t-143 46q-81 0 -140.5 -33.5t-99.5 -88t-59.5 -124t-19.5 -142.5q0 -55 16 -99t46.5 -75.5t74 -48.5t99.5 -17q43 0 81 14t69.5 40t55 63t36.5 84h68q-12 -55 -38 -102t-66 -82t-94 -55t-123 -20q-70 0 -124.5 22t-92 62.5t-57 96t-19.5 123.5
q0 85 26 164.5t76 141t122 98t164 36.5q56 0 104.5 -15.5t84 -45.5t56 -75t21.5 -105h-68zM422 901h64l-20 -102h-63z" />
    <glyph glyph-name="Ccedilla" unicode="&#xc7;" horiz-adv-x="704" 
d="M194 -152q23 -9 38.5 -13t39.5 -4q20 0 38 9t18 31t-16.5 31.5t-37.5 9.5t-39 -9l-16 18l59 67q-41 5 -76 19q-54 22 -91.5 62.5t-57 96t-19.5 123.5q0 85 26 164.5t76 141t122 98t164 36.5q56 0 104.5 -15.5t84 -45.5t56 -75t21.5 -105h-68q-2 91 -56 137t-143 46
q-81 0 -140.5 -33.5t-99.5 -88t-59.5 -124t-19.5 -142.5q0 -55 16 -99t46.5 -75.5t74 -48.5t99.5 -17q43 0 81 14t69.5 40t55 63t36.5 84h68q-12 -55 -38 -102t-66 -82t-94 -55t-123 -20h-16l-40 -41l2 -2q7 2 14.5 3t21.5 1q30 0 52 -16.5t22 -52.5q0 -21 -10 -36.5
t-25.5 -25t-34.5 -14t-37 -4.5q-30 0 -51.5 5.5t-44.5 16.5z" />
    <glyph glyph-name="Dcaron" unicode="&#x10e;" horiz-adv-x="685" 
d="M160 714h230q77 0 129 -20.5t84 -58t45.5 -90.5t13.5 -117q0 -84 -25 -161.5t-74.5 -137t-122.5 -94.5t-169 -35h-266zM86 58h172q89 -1 152.5 31t104.5 85.5t60 123t19 143.5q0 215 -215 215h-163zM481 922h61l-136 -144h-63l-86 144h57l66 -109z" />
    <glyph glyph-name="Egrave" unicode="&#xc8;" horiz-adv-x="574" 
d="M157 714h479l-13 -58h-410l-55 -258h383l-13 -58h-382l-60 -282h420l-13 -58h-488zM374 922l82 -144h-50l-106 144h74z" />
    <glyph glyph-name="Eacute" unicode="&#xc9;" horiz-adv-x="574" 
d="M157 714h479l-13 -58h-410l-55 -258h383l-13 -58h-382l-60 -282h420l-13 -58h-488zM485 922h81l-144 -144h-53z" />
    <glyph glyph-name="Ecircumflex" unicode="&#xca;" horiz-adv-x="574" 
d="M157 714h479l-13 -58h-410l-55 -258h383l-13 -58h-382l-60 -282h420l-13 -58h-488zM319 778h-61l136 144h63l86 -144h-57l-66 106z" />
    <glyph glyph-name="Ecaron" unicode="&#x11a;" horiz-adv-x="574" 
d="M157 714h479l-13 -58h-410l-55 -258h383l-13 -58h-382l-60 -282h420l-13 -58h-488zM504 922h61l-136 -144h-63l-86 144h57l66 -109z" />
    <glyph glyph-name="Edieresis" unicode="&#xcb;" horiz-adv-x="574" 
d="M157 714h479l-13 -58h-410l-55 -258h383l-13 -58h-382l-60 -282h420l-13 -58h-488zM309 901h64l-20 -102h-63zM468 901h64l-20 -102h-63z" />
    <glyph glyph-name="Emacron" unicode="&#x112;" horiz-adv-x="574" 
d="M157 714h479l-13 -58h-410l-55 -258h383l-13 -58h-382l-60 -282h420l-13 -58h-488zM282 828l8 45h256l-8 -45h-256z" />
    <glyph glyph-name="Ebreve" unicode="&#x114;" horiz-adv-x="574" 
d="M157 714h479l-13 -58h-410l-55 -258h383l-13 -58h-382l-60 -282h420l-13 -58h-488zM313 915q5 -85 90 -85q90 0 118 85h37q-10 -59 -54 -94.5t-104 -35.5q-59 0 -93 36t-32 94h38z" />
    <glyph glyph-name="Edotaccent" unicode="&#x116;" horiz-adv-x="574" 
d="M157 714h479l-13 -58h-410l-55 -258h383l-13 -58h-382l-60 -282h420l-13 -58h-488zM387 901h64l-20 -102h-63z" />
    <glyph glyph-name="Eogonek" unicode="&#x118;" horiz-adv-x="574" 
d="M451 0q-60 -40 -87 -73.5t-27 -57.5q0 -3 0.5 -7.5t2.5 -8.5t7 -7.5t15 -3.5q16 0 34.5 11t37.5 34l29 -25q-26 -34 -54.5 -49.5t-65.5 -15.5q-39 0 -56.5 18t-17.5 43q0 23 13 46t32.5 41t40.5 32t38 23h-388l152 714h479l-13 -58h-410l-55 -258h383l-13 -58h-382
l-60 -282h420l-13 -58h-42z" />
    <glyph glyph-name="Gcircumflex" unicode="&#x11c;" horiz-adv-x="741" 
d="M638 494q-2 45 -18 78t-45 55t-69 33t-89 11q-71 0 -129 -33t-99 -86.5t-64 -122.5t-23 -141q0 -55 14.5 -100t43.5 -77.5t72.5 -50t100.5 -17.5q59 0 107.5 20t85 55t60 83t32.5 104h-246l14 58h305l-75 -363h-46l12 120h-2q-45 -71 -110 -103t-149 -32q-69 0 -122.5 21
t-90 60t-55.5 94t-19 124q0 86 25 166.5t74 142.5t121.5 99t168.5 37q135 0 207 -61.5t76 -173.5h-68zM356 778h-61l136 144h63l86 -144h-57l-66 106z" />
    <glyph glyph-name="Gbreve" unicode="&#x11e;" horiz-adv-x="741" 
d="M638 494q-2 45 -18 78t-45 55t-69 33t-89 11q-71 0 -129 -33t-99 -86.5t-64 -122.5t-23 -141q0 -55 14.5 -100t43.5 -77.5t72.5 -50t100.5 -17.5q59 0 107.5 20t85 55t60 83t32.5 104h-246l14 58h305l-75 -363h-46l12 120h-2q-45 -71 -110 -103t-149 -32q-69 0 -122.5 21
t-90 60t-55.5 94t-19 124q0 86 25 166.5t74 142.5t121.5 99t168.5 37q135 0 207 -61.5t76 -173.5h-68zM346 931q5 -85 90 -85q90 0 118 85h37q-10 -59 -54 -94.5t-104 -35.5q-59 0 -93 36t-32 94h38z" />
    <glyph glyph-name="Gdotaccent" unicode="&#x120;" horiz-adv-x="741" 
d="M638 494q-2 45 -18 78t-45 55t-69 33t-89 11q-71 0 -129 -33t-99 -86.5t-64 -122.5t-23 -141q0 -55 14.5 -100t43.5 -77.5t72.5 -50t100.5 -17.5q59 0 107.5 20t85 55t60 83t32.5 104h-246l14 58h305l-75 -363h-46l12 120h-2q-45 -71 -110 -103t-149 -32q-69 0 -122.5 21
t-90 60t-55.5 94t-19 124q0 86 25 166.5t74 142.5t121.5 99t168.5 37q135 0 207 -61.5t76 -173.5h-68zM427 901h64l-20 -102h-63z" />
    <glyph glyph-name="Gcommaaccent" unicode="&#x122;" horiz-adv-x="741" 
d="M638 494q-2 45 -18 78t-45 55t-69 33t-89 11q-71 0 -129 -33t-99 -86.5t-64 -122.5t-23 -141q0 -55 14.5 -100t43.5 -77.5t72.5 -50t100.5 -17.5q59 0 107.5 20t85 55t60 83t32.5 104h-246l14 58h305l-75 -363h-46l12 120h-2q-45 -71 -110 -103t-149 -32q-69 0 -122.5 21
t-90 60t-55.5 94t-19 124q0 86 25 166.5t74 142.5t121.5 99t168.5 37q135 0 207 -61.5t76 -173.5h-68zM353 -50l-17 -80q-5 -27 -21 -42.5t-34.5 -22.5t-45.5 -8l6 28q16 3 24 7.5t14 11.5t8 15h-39l19 91h86z" />
    <glyph glyph-name="Hcircumflex" unicode="&#x124;" horiz-adv-x="704" 
d="M157 714h68l-66 -310h413l66 310h68l-152 -714h-68l74 346h-413l-74 -346h-68zM351 778h-61l136 144h63l86 -144h-57l-66 106z" />
    <glyph glyph-name="Hbar" unicode="&#x126;" horiz-adv-x="704" 
d="M157 714h68l-42 -198h413l42 198h68l-152 -714h-68l72 336h-413l-72 -336h-68zM570 394l16 77h-413l-16 -77h413z" />
    <glyph glyph-name="Igrave" unicode="&#xcc;" horiz-adv-x="222" 
d="M156 714h68l-151 -714h-68zM141 938l82 -144h-50l-106 144h74z" />
    <glyph glyph-name="Iacute" unicode="&#xcd;" horiz-adv-x="222" 
d="M156 714h68l-151 -714h-68zM272 922h81l-144 -144h-53z" />
    <glyph glyph-name="Icircumflex" unicode="&#xce;" horiz-adv-x="222" 
d="M156 714h68l-151 -714h-68zM116 794h-61l136 144h63l86 -144h-57l-66 106z" />
    <glyph glyph-name="Itilde" unicode="&#x128;" horiz-adv-x="222" 
d="M156 714h68l-151 -714h-68zM366 901q-4 -17 -11 -35t-18 -32q-11 -15 -25.5 -24.5t-34.5 -9.5t-39 8.5t-37 18.5q-18 11 -34 20t-30 9q-9 0 -17 -5.5t-14.5 -14t-10.5 -18t-6 -18.5h-41q5 18 12.5 36t18.5 32.5t26 23.5t36 9q19 0 36 -8t34 -18q17 -11 34.5 -20.5
t35.5 -9.5q8 0 15 6t13 14.5t10.5 18t6.5 17.5h40z" />
    <glyph glyph-name="Idieresis" unicode="&#xcf;" horiz-adv-x="222" 
d="M156 714h68l-151 -714h-68zM111 917h64l-20 -102h-63zM270 917h64l-20 -102h-63z" />
    <glyph glyph-name="Imacron" unicode="&#x12a;" horiz-adv-x="222" 
d="M156 714h68l-151 -714h-68zM78 828l8 45h256l-8 -45h-256z" />
    <glyph glyph-name="Idotaccent" unicode="&#x130;" horiz-adv-x="222" 
d="M156 714h68l-151 -714h-68zM194 901h64l-20 -102h-63z" />
    <glyph glyph-name="Iogonek" unicode="&#x12e;" horiz-adv-x="222" 
d="M72 0q-54 -40 -78 -73.5t-24 -57.5q0 -3 0.5 -7.5t2 -8.5t6 -7.5t13.5 -3.5q15 0 31.5 11t33.5 34l26 -25q-23 -34 -48.5 -49.5t-59.5 -15.5q-35 0 -50.5 18t-15.5 43q0 23 11.5 46t29 41t36.5 32t34 23h-15l151 714h68l-151 -714h-1z" />
    <glyph glyph-name="Jcircumflex" unicode="&#x134;" horiz-adv-x="500" 
d="M57 229q-4 -22 -6.5 -44t-2.5 -44q0 -27 10 -46t27 -30.5t39.5 -16.5t47.5 -5q39 0 65 13.5t43.5 36t27.5 51.5t17 61l109 509h68l-114 -534q-10 -47 -26.5 -83t-43 -61t-63.5 -38t-88 -13q-40 0 -74 9t-59 28.5t-39.5 50.5t-14.5 75q0 42 9 81h68zM392 778h-61l136 144
h63l86 -144h-57l-66 106z" />
    <glyph glyph-name="Kcommaaccent" unicode="&#x136;" horiz-adv-x="648" 
d="M157 714h68l-82 -381l2 -2l461 383h95l-366 -298l255 -416h-78l-227 374l-159 -127l-53 -247h-68zM311 -50l-17 -80q-5 -27 -21 -42.5t-34.5 -22.5t-45.5 -8l6 28q16 3 24 7.5t14 11.5t8 15h-39l19 91h86z" />
    <glyph glyph-name="Lacute" unicode="&#x139;" horiz-adv-x="537" 
d="M159 714h68l-141 -656h395l-14 -58h-462zM297 922h81l-144 -144h-53z" />
    <glyph glyph-name="Lcaron" unicode="&#x13d;" horiz-adv-x="537" 
d="M159 714h68l-141 -656h395l-14 -58h-462zM379 714h81l-112 -144h-49z" />
    <glyph glyph-name="Lcommaaccent" unicode="&#x13b;" horiz-adv-x="537" 
d="M159 714h68l-141 -656h395l-14 -58h-462zM268 -50l-17 -80q-5 -27 -21 -42.5t-34.5 -22.5t-45.5 -8l6 28q16 3 24 7.5t14 11.5t8 15h-39l19 91h86z" />
    <glyph glyph-name="Nacute" unicode="&#x143;" horiz-adv-x="704" 
d="M154 714h77l285 -638h2l132 638h66l-156 -714h-75l-285 638h-2l-133 -638h-65zM516 922h81l-144 -144h-53z" />
    <glyph glyph-name="Ncaron" unicode="&#x147;" horiz-adv-x="704" 
d="M154 714h77l285 -638h2l132 638h66l-156 -714h-75l-285 638h-2l-133 -638h-65zM539 922h61l-136 -144h-63l-86 144h57l66 -109z" />
    <glyph glyph-name="Ntilde" unicode="&#xd1;" horiz-adv-x="704" 
d="M154 714h77l285 -638h2l132 638h66l-156 -714h-75l-285 638h-2l-133 -638h-65zM612 901q-4 -17 -11 -35t-18 -32q-11 -15 -25.5 -24.5t-34.5 -9.5t-39 8.5t-37 18.5q-18 11 -34 20t-30 9q-9 0 -17 -5.5t-14.5 -14t-10.5 -18t-6 -18.5h-41q5 18 12.5 36t18.5 32.5t26 23.5
t36 9q19 0 36 -8t34 -18q17 -11 34.5 -20.5t35.5 -9.5q8 0 15 6t13 14.5t10.5 18t6.5 17.5h40z" />
    <glyph glyph-name="Ncommaaccent" unicode="&#x145;" horiz-adv-x="704" 
d="M154 714h77l285 -638h2l132 638h66l-156 -714h-75l-285 638h-2l-133 -638h-65zM318 -50l-17 -80q-5 -27 -21 -42.5t-34.5 -22.5t-45.5 -8l6 28q16 3 24 7.5t14 11.5t8 15h-39l19 91h86z" />
    <glyph glyph-name="Ograve" unicode="&#xd2;" horiz-adv-x="741" 
d="M327 -15q-70 0 -124.5 22t-92 62.5t-57 96t-19.5 123.5q0 85 26 164.5t76 141t122 98t164 36.5q68 0 123 -21.5t93.5 -60.5t59 -94.5t20.5 -122.5q0 -87 -25.5 -167.5t-75.5 -142t-123 -98.5t-167 -37zM650 413q0 55 -13.5 102.5t-42 82t-71.5 54t-102 19.5
q-81 0 -140.5 -33.5t-99.5 -88t-59.5 -124t-19.5 -142.5q0 -55 16 -99t46.5 -75.5t74 -48.5t99.5 -17q73 0 130.5 33t98 85.5t62 119t21.5 132.5zM387 938l82 -144h-50l-106 144h74z" />
    <glyph glyph-name="Oacute" unicode="&#xd3;" horiz-adv-x="741" 
d="M327 -15q-70 0 -124.5 22t-92 62.5t-57 96t-19.5 123.5q0 85 26 164.5t76 141t122 98t164 36.5q68 0 123 -21.5t93.5 -60.5t59 -94.5t20.5 -122.5q0 -87 -25.5 -167.5t-75.5 -142t-123 -98.5t-167 -37zM650 413q0 55 -13.5 102.5t-42 82t-71.5 54t-102 19.5
q-81 0 -140.5 -33.5t-99.5 -88t-59.5 -124t-19.5 -142.5q0 -55 16 -99t46.5 -75.5t74 -48.5t99.5 -17q73 0 130.5 33t98 85.5t62 119t21.5 132.5zM523 938h81l-144 -144h-53z" />
    <glyph glyph-name="Ocircumflex" unicode="&#xd4;" horiz-adv-x="741" 
d="M327 -15q-70 0 -124.5 22t-92 62.5t-57 96t-19.5 123.5q0 85 26 164.5t76 141t122 98t164 36.5q68 0 123 -21.5t93.5 -60.5t59 -94.5t20.5 -122.5q0 -87 -25.5 -167.5t-75.5 -142t-123 -98.5t-167 -37zM650 413q0 55 -13.5 102.5t-42 82t-71.5 54t-102 19.5
q-81 0 -140.5 -33.5t-99.5 -88t-59.5 -124t-19.5 -142.5q0 -55 16 -99t46.5 -75.5t74 -48.5t99.5 -17q73 0 130.5 33t98 85.5t62 119t21.5 132.5zM357 794h-61l136 144h63l86 -144h-57l-66 106z" />
    <glyph glyph-name="Otilde" unicode="&#xd5;" horiz-adv-x="741" 
d="M327 -15q-70 0 -124.5 22t-92 62.5t-57 96t-19.5 123.5q0 85 26 164.5t76 141t122 98t164 36.5q68 0 123 -21.5t93.5 -60.5t59 -94.5t20.5 -122.5q0 -87 -25.5 -167.5t-75.5 -142t-123 -98.5t-167 -37zM650 413q0 55 -13.5 102.5t-42 82t-71.5 54t-102 19.5
q-81 0 -140.5 -33.5t-99.5 -88t-59.5 -124t-19.5 -142.5q0 -55 16 -99t46.5 -75.5t74 -48.5t99.5 -17q73 0 130.5 33t98 85.5t62 119t21.5 132.5zM609 901q-4 -17 -11 -35t-18 -32q-11 -15 -25.5 -24.5t-34.5 -9.5t-39 8.5t-37 18.5q-18 11 -34 20t-30 9q-9 0 -17 -5.5
t-14.5 -14t-10.5 -18t-6 -18.5h-41q5 18 12.5 36t18.5 32.5t26 23.5t36 9q19 0 36 -8t34 -18q17 -11 34.5 -20.5t35.5 -9.5q8 0 15 6t13 14.5t10.5 18t6.5 17.5h40z" />
    <glyph glyph-name="Odieresis" unicode="&#xd6;" horiz-adv-x="741" 
d="M327 -15q-70 0 -124.5 22t-92 62.5t-57 96t-19.5 123.5q0 85 26 164.5t76 141t122 98t164 36.5q68 0 123 -21.5t93.5 -60.5t59 -94.5t20.5 -122.5q0 -87 -25.5 -167.5t-75.5 -142t-123 -98.5t-167 -37zM650 413q0 55 -13.5 102.5t-42 82t-71.5 54t-102 19.5
q-81 0 -140.5 -33.5t-99.5 -88t-59.5 -124t-19.5 -142.5q0 -55 16 -99t46.5 -75.5t74 -48.5t99.5 -17q73 0 130.5 33t98 85.5t62 119t21.5 132.5zM351 901h64l-20 -102h-63zM510 901h64l-20 -102h-63z" />
    <glyph glyph-name="Omacron" unicode="&#x14c;" horiz-adv-x="741" 
d="M327 -15q-70 0 -124.5 22t-92 62.5t-57 96t-19.5 123.5q0 85 26 164.5t76 141t122 98t164 36.5q68 0 123 -21.5t93.5 -60.5t59 -94.5t20.5 -122.5q0 -87 -25.5 -167.5t-75.5 -142t-123 -98.5t-167 -37zM650 413q0 55 -13.5 102.5t-42 82t-71.5 54t-102 19.5
q-81 0 -140.5 -33.5t-99.5 -88t-59.5 -124t-19.5 -142.5q0 -55 16 -99t46.5 -75.5t74 -48.5t99.5 -17q73 0 130.5 33t98 85.5t62 119t21.5 132.5zM325 828l8 45h256l-8 -45h-256z" />
    <glyph glyph-name="Obreve" unicode="&#x14e;" horiz-adv-x="741" 
d="M327 -15q-70 0 -124.5 22t-92 62.5t-57 96t-19.5 123.5q0 85 26 164.5t76 141t122 98t164 36.5q68 0 123 -21.5t93.5 -60.5t59 -94.5t20.5 -122.5q0 -87 -25.5 -167.5t-75.5 -142t-123 -98.5t-167 -37zM650 413q0 55 -13.5 102.5t-42 82t-71.5 54t-102 19.5
q-81 0 -140.5 -33.5t-99.5 -88t-59.5 -124t-19.5 -142.5q0 -55 16 -99t46.5 -75.5t74 -48.5t99.5 -17q73 0 130.5 33t98 85.5t62 119t21.5 132.5zM360 915q5 -85 90 -85q90 0 118 85h37q-10 -59 -54 -94.5t-104 -35.5q-59 0 -93 36t-32 94h38z" />
    <glyph glyph-name="Ohungarumlaut" unicode="&#x150;" horiz-adv-x="741" 
d="M327 -15q-70 0 -124.5 22t-92 62.5t-57 96t-19.5 123.5q0 85 26 164.5t76 141t122 98t164 36.5q68 0 123 -21.5t93.5 -60.5t59 -94.5t20.5 -122.5q0 -87 -25.5 -167.5t-75.5 -142t-123 -98.5t-167 -37zM650 413q0 55 -13.5 102.5t-42 82t-71.5 54t-102 19.5
q-81 0 -140.5 -33.5t-99.5 -88t-59.5 -124t-19.5 -142.5q0 -55 16 -99t46.5 -75.5t74 -48.5t99.5 -17q73 0 130.5 33t98 85.5t62 119t21.5 132.5zM599 922h81l-144 -144h-53zM451 922h81l-144 -144h-53z" />
    <glyph glyph-name="Racute" unicode="&#x154;" horiz-adv-x="648" 
d="M153 375h241q39 0 72.5 9.5t59 29t40 48.5t14.5 69q0 63 -28 94t-94 31h-245zM157 714h304q90 0 138.5 -45t48.5 -133q0 -39 -13.5 -73.5t-37.5 -60.5t-57.5 -42t-72.5 -19v-2q51 -11 71 -45t20 -83q0 -38 -5 -75t-5 -74q0 -13 2 -32t10 -30h-70q-3 2 -5 12.5t-3 23
t-1.5 23.5t-0.5 14q0 32 5 64t5 64q0 51 -21.5 83.5t-76.5 32.5h-252l-67 -317h-68zM473 922h81l-144 -144h-53z" />
    <glyph glyph-name="Rcaron" unicode="&#x158;" horiz-adv-x="648" 
d="M153 375h241q39 0 72.5 9.5t59 29t40 48.5t14.5 69q0 63 -28 94t-94 31h-245zM157 714h304q90 0 138.5 -45t48.5 -133q0 -39 -13.5 -73.5t-37.5 -60.5t-57.5 -42t-72.5 -19v-2q51 -11 71 -45t20 -83q0 -38 -5 -75t-5 -74q0 -13 2 -32t10 -30h-70q-3 2 -5 12.5t-3 23
t-1.5 23.5t-0.5 14q0 32 5 64t5 64q0 51 -21.5 83.5t-76.5 32.5h-252l-67 -317h-68zM506 922h61l-136 -144h-63l-86 144h57l66 -109z" />
    <glyph glyph-name="Rcommaaccent" unicode="&#x156;" horiz-adv-x="648" 
d="M153 375h241q39 0 72.5 9.5t59 29t40 48.5t14.5 69q0 63 -28 94t-94 31h-245zM157 714h304q90 0 138.5 -45t48.5 -133q0 -39 -13.5 -73.5t-37.5 -60.5t-57.5 -42t-72.5 -19v-2q51 -11 71 -45t20 -83q0 -38 -5 -75t-5 -74q0 -13 2 -32t10 -30h-70q-3 2 -5 12.5t-3 23
t-1.5 23.5t-0.5 14q0 32 5 64t5 64q0 51 -21.5 83.5t-76.5 32.5h-252l-67 -317h-68zM313 -50l-17 -80q-5 -27 -21 -42.5t-34.5 -22.5t-45.5 -8l6 28q16 3 24 7.5t14 11.5t8 15h-39l19 91h86z" />
    <glyph glyph-name="Sacute" unicode="&#x15a;" horiz-adv-x="630" 
d="M539 506q0 47 -12.5 78.5t-36.5 51t-59 27.5t-81 8q-33 0 -65.5 -8t-58.5 -25.5t-42 -44.5t-16 -65q0 -29 10.5 -48t27 -32.5t38 -22t44.5 -15.5l76 -23q37 -11 71.5 -24t61.5 -33t43 -50t16 -75q0 -26 -10.5 -64t-40.5 -72.5t-84 -59t-141 -24.5q-60 0 -110.5 14.5
t-87 45.5t-55.5 78t-16 112h68q-3 -52 11 -88.5t41 -59.5t66 -33.5t88 -10.5q35 0 71 9t65.5 27.5t48 47.5t18.5 69q0 38 -16.5 61.5t-42.5 38.5t-57 24t-61 18l-70 21q-63 18 -102 57.5t-39 108.5q0 54 21.5 92.5t57 63t81 36.5t93.5 12q54 0 102 -11.5t82.5 -38t53.5 -69
t16 -104.5h-68zM447 922h81l-144 -144h-53z" />
    <glyph glyph-name="Scircumflex" unicode="&#x15c;" horiz-adv-x="630" 
d="M539 506q0 47 -12.5 78.5t-36.5 51t-59 27.5t-81 8q-33 0 -65.5 -8t-58.5 -25.5t-42 -44.5t-16 -65q0 -29 10.5 -48t27 -32.5t38 -22t44.5 -15.5l76 -23q37 -11 71.5 -24t61.5 -33t43 -50t16 -75q0 -26 -10.5 -64t-40.5 -72.5t-84 -59t-141 -24.5q-60 0 -110.5 14.5
t-87 45.5t-55.5 78t-16 112h68q-3 -52 11 -88.5t41 -59.5t66 -33.5t88 -10.5q35 0 71 9t65.5 27.5t48 47.5t18.5 69q0 38 -16.5 61.5t-42.5 38.5t-57 24t-61 18l-70 21q-63 18 -102 57.5t-39 108.5q0 54 21.5 92.5t57 63t81 36.5t93.5 12q54 0 102 -11.5t82.5 -38t53.5 -69
t16 -104.5h-68zM302 778h-61l136 144h63l86 -144h-57l-66 106z" />
    <glyph glyph-name="Scaron" unicode="&#x160;" horiz-adv-x="630" 
d="M539 506q0 47 -12.5 78.5t-36.5 51t-59 27.5t-81 8q-33 0 -65.5 -8t-58.5 -25.5t-42 -44.5t-16 -65q0 -29 10.5 -48t27 -32.5t38 -22t44.5 -15.5l76 -23q37 -11 71.5 -24t61.5 -33t43 -50t16 -75q0 -26 -10.5 -64t-40.5 -72.5t-84 -59t-141 -24.5q-60 0 -110.5 14.5
t-87 45.5t-55.5 78t-16 112h68q-3 -52 11 -88.5t41 -59.5t66 -33.5t88 -10.5q35 0 71 9t65.5 27.5t48 47.5t18.5 69q0 38 -16.5 61.5t-42.5 38.5t-57 24t-61 18l-70 21q-63 18 -102 57.5t-39 108.5q0 54 21.5 92.5t57 63t81 36.5t93.5 12q54 0 102 -11.5t82.5 -38t53.5 -69
t16 -104.5h-68zM484 922h61l-136 -144h-63l-86 144h57l66 -109z" />
    <glyph glyph-name="Scedilla" unicode="&#x15e;" horiz-adv-x="630" 
d="M135 -152q23 -9 38.5 -13t39.5 -4q20 0 38 9t18 31t-16.5 31.5t-37.5 9.5t-39 -9l-16 18l60 68q-27 4 -51 11q-50 14 -86.5 45t-55.5 78t-16 112h68q-3 -52 11 -88.5t41 -59.5t66 -33.5t88 -10.5q35 0 71 9t65.5 27.5t48 47.5t18.5 69q0 38 -16.5 61.5t-42.5 38.5t-57 24
t-61 18l-70 21q-63 18 -102 57.5t-39 108.5q0 54 21.5 92.5t57 63t81 36.5t93.5 12q54 0 102 -11.5t82.5 -38t53.5 -69t16 -104.5h-68q0 47 -12.5 78.5t-36.5 51t-59 27.5t-81 8q-33 0 -65.5 -8t-58.5 -25.5t-42 -44.5t-16 -65q0 -29 10.5 -48t27 -32.5t38 -22t44.5 -15.5
l76 -23q37 -11 71.5 -24t61.5 -33t43 -50t16 -75q0 -26 -10.5 -64t-40.5 -72.5t-84 -59t-141 -24.5q-14 0 -27 1l-41 -42l2 -2q7 2 14.5 3t21.5 1q30 0 52 -16.5t22 -52.5q0 -21 -10 -36.5t-25.5 -25t-34.5 -14t-37 -4.5q-30 0 -51.5 5.5t-44.5 16.5z" />
    <glyph glyph-name="Scommaaccent" unicode="&#x218;" horiz-adv-x="630" 
d="M539 506q0 47 -12.5 78.5t-36.5 51t-59 27.5t-81 8q-33 0 -65.5 -8t-58.5 -25.5t-42 -44.5t-16 -65q0 -29 10.5 -48t27 -32.5t38 -22t44.5 -15.5l76 -23q37 -11 71.5 -24t61.5 -33t43 -50t16 -75q0 -26 -10.5 -64t-40.5 -72.5t-84 -59t-141 -24.5q-60 0 -110.5 14.5
t-87 45.5t-55.5 78t-16 112h68q-3 -52 11 -88.5t41 -59.5t66 -33.5t88 -10.5q35 0 71 9t65.5 27.5t48 47.5t18.5 69q0 38 -16.5 61.5t-42.5 38.5t-57 24t-61 18l-70 21q-63 18 -102 57.5t-39 108.5q0 54 21.5 92.5t57 63t81 36.5t93.5 12q54 0 102 -11.5t82.5 -38t53.5 -69
t16 -104.5h-68zM300 -50l-17 -80q-5 -27 -21 -42.5t-34.5 -22.5t-45.5 -8l6 28q16 3 24 7.5t14 11.5t8 15h-39l19 91h86z" />
    <glyph glyph-name="Tcaron" unicode="&#x164;" horiz-adv-x="556" 
d="M81 714h558l-12 -58h-245l-143 -656h-68l143 656h-245zM474 922h61l-136 -144h-63l-86 144h57l66 -109z" />
    <glyph glyph-name="Tcommaaccent" unicode="&#x162;" horiz-adv-x="556" 
d="M81 714h558l-12 -58h-245l-143 -656h-68l143 656h-245zM236 -50l-17 -80q-5 -27 -21 -42.5t-34.5 -22.5t-45.5 -8l6 28q16 3 24 7.5t14 11.5t8 15h-39l19 91h86z" />
    <glyph glyph-name="Tbar" unicode="&#x166;" horiz-adv-x="556" 
d="M81 714h558l-12 -58h-245l-37 -170h173l-8 -45h-175l-96 -441h-68l96 441h-173l8 45h175l37 170h-245z" />
    <glyph glyph-name="Ugrave" unicode="&#xd9;" horiz-adv-x="704" 
d="M150 714h68l-95 -454q-7 -29 -7 -62q-2 -39 12 -68t40 -48.5t62.5 -29t80.5 -9.5q97 0 154.5 48.5t76.5 139.5l101 483h68l-102 -488q-26 -126 -105.5 -183.5t-201.5 -57.5q-47 0 -92.5 11t-81.5 35.5t-58 63.5t-22 95q0 23 6 58zM386 938l82 -144h-50l-106 144h74z" />
    <glyph glyph-name="Uacute" unicode="&#xda;" horiz-adv-x="704" 
d="M150 714h68l-95 -454q-7 -29 -7 -62q-2 -39 12 -68t40 -48.5t62.5 -29t80.5 -9.5q97 0 154.5 48.5t76.5 139.5l101 483h68l-102 -488q-26 -126 -105.5 -183.5t-201.5 -57.5q-47 0 -92.5 11t-81.5 35.5t-58 63.5t-22 95q0 23 6 58zM520 938h81l-144 -144h-53z" />
    <glyph glyph-name="Ucircumflex" unicode="&#xdb;" horiz-adv-x="704" 
d="M150 714h68l-95 -454q-7 -29 -7 -62q-2 -39 12 -68t40 -48.5t62.5 -29t80.5 -9.5q97 0 154.5 48.5t76.5 139.5l101 483h68l-102 -488q-26 -126 -105.5 -183.5t-201.5 -57.5q-47 0 -92.5 11t-81.5 35.5t-58 63.5t-22 95q0 23 6 58zM356 794h-61l136 144h63l86 -144h-57
l-66 106z" />
    <glyph glyph-name="Utilde" unicode="&#x168;" horiz-adv-x="704" 
d="M150 714h68l-95 -454q-7 -29 -7 -62q-2 -39 12 -68t40 -48.5t62.5 -29t80.5 -9.5q97 0 154.5 48.5t76.5 139.5l101 483h68l-102 -488q-26 -126 -105.5 -183.5t-201.5 -57.5q-47 0 -92.5 11t-81.5 35.5t-58 63.5t-22 95q0 23 6 58zM603 901q-4 -17 -11 -35t-18 -32
q-11 -15 -25.5 -24.5t-34.5 -9.5t-39 8.5t-37 18.5q-18 11 -34 20t-30 9q-9 0 -17 -5.5t-14.5 -14t-10.5 -18t-6 -18.5h-41q5 18 12.5 36t18.5 32.5t26 23.5t36 9q19 0 36 -8t34 -18q17 -11 34.5 -20.5t35.5 -9.5q8 0 15 6t13 14.5t10.5 18t6.5 17.5h40z" />
    <glyph glyph-name="Udieresis" unicode="&#xdc;" horiz-adv-x="704" 
d="M150 714h68l-95 -454q-7 -29 -7 -62q-2 -39 12 -68t40 -48.5t62.5 -29t80.5 -9.5q97 0 154.5 48.5t76.5 139.5l101 483h68l-102 -488q-26 -126 -105.5 -183.5t-201.5 -57.5q-47 0 -92.5 11t-81.5 35.5t-58 63.5t-22 95q0 23 6 58zM343 901h64l-20 -102h-63zM502 901h64
l-20 -102h-63z" />
    <glyph glyph-name="Umacron" unicode="&#x16a;" horiz-adv-x="704" 
d="M150 714h68l-95 -454q-7 -29 -7 -62q-2 -39 12 -68t40 -48.5t62.5 -29t80.5 -9.5q97 0 154.5 48.5t76.5 139.5l101 483h68l-102 -488q-26 -126 -105.5 -183.5t-201.5 -57.5q-47 0 -92.5 11t-81.5 35.5t-58 63.5t-22 95q0 23 6 58zM311 828l8 45h256l-8 -45h-256z" />
    <glyph glyph-name="Ubreve" unicode="&#x16c;" horiz-adv-x="704" 
d="M150 714h68l-95 -454q-7 -29 -7 -62q-2 -39 12 -68t40 -48.5t62.5 -29t80.5 -9.5q97 0 154.5 48.5t76.5 139.5l101 483h68l-102 -488q-26 -126 -105.5 -183.5t-201.5 -57.5q-47 0 -92.5 11t-81.5 35.5t-58 63.5t-22 95q0 23 6 58zM343 915q5 -85 90 -85q90 0 118 85h37
q-10 -59 -54 -94.5t-104 -35.5q-59 0 -93 36t-32 94h38z" />
    <glyph glyph-name="Uring" unicode="&#x16e;" horiz-adv-x="704" 
d="M150 714h68l-95 -454q-7 -29 -7 -62q-2 -39 12 -68t40 -48.5t62.5 -29t80.5 -9.5q97 0 154.5 48.5t76.5 139.5l101 483h68l-102 -488q-26 -126 -105.5 -183.5t-201.5 -57.5q-47 0 -92.5 11t-81.5 35.5t-58 63.5t-22 95q0 23 6 58zM438 760q-20 0 -38 8t-31.5 21.5
t-21.5 32t-8 38.5t8 38t21.5 31.5t31.5 21.5t38 8t38.5 -8t32 -21.5t21.5 -31.5t8 -38q0 -42 -29 -71t-71 -29zM438 794q26 0 46 20t20 46q0 13 -5.5 24.5t-14.5 20.5t-21 14.5t-25 5.5q-26 0 -45.5 -19.5t-19.5 -45.5q0 -13 5.5 -25t14.5 -21t20.5 -14.5t24.5 -5.5z" />
    <glyph glyph-name="Uhungarumlaut" unicode="&#x170;" horiz-adv-x="704" 
d="M150 714h68l-95 -454q-7 -29 -7 -62q-2 -39 12 -68t40 -48.5t62.5 -29t80.5 -9.5q97 0 154.5 48.5t76.5 139.5l101 483h68l-102 -488q-26 -126 -105.5 -183.5t-201.5 -57.5q-47 0 -92.5 11t-81.5 35.5t-58 63.5t-22 95q0 23 6 58zM595 922h81l-144 -144h-53zM447 922h81
l-144 -144h-53z" />
    <glyph glyph-name="Uogonek" unicode="&#x172;" horiz-adv-x="704" 
d="M150 714h68l-95 -454q-7 -29 -7 -62q-2 -39 12 -68t40 -48.5t62.5 -29t80.5 -9.5q97 0 154.5 48.5t76.5 139.5l101 483h68l-102 -488q-26 -126 -106 -184q-73 -52 -183 -56q-43 -32 -65 -59q-27 -34 -27 -58q0 -3 0.5 -7.5t2.5 -8.5t7 -7.5t15 -3.5q16 0 34.5 11t37.5 34
l29 -25q-26 -34 -54.5 -49.5t-65.5 -15.5q-39 0 -56.5 18t-17.5 43q0 23 13 46t32.5 41t40.5 32q8 5 15 10q-26 3 -52 9q-45 11 -81 35.5t-58 63.5t-22 95q0 23 6 58z" />
    <glyph glyph-name="Wcircumflex" unicode="&#x174;" horiz-adv-x="907" 
d="M71 714h68l37 -635h2l304 635h82l49 -629h2l292 629h71l-344 -714h-74l-47 649h-2l-312 -649h-75zM454 778h-61l136 144h63l86 -144h-57l-66 106z" />
    <glyph glyph-name="Yacute" unicode="&#xdd;" horiz-adv-x="574" 
d="M598 714h83l-358 -426l-63 -288h-69l65 295l-190 419h72l161 -362zM474 922h81l-144 -144h-53z" />
    <glyph glyph-name="Ycircumflex" unicode="&#x176;" horiz-adv-x="574" 
d="M598 714h83l-358 -426l-63 -288h-69l65 295l-190 419h72l161 -362zM304 778h-61l136 144h63l86 -144h-57l-66 106z" />
    <glyph glyph-name="Ydieresis" unicode="&#x178;" horiz-adv-x="574" 
d="M598 714h83l-358 -426l-63 -288h-69l65 295l-190 419h72l161 -362zM290 901h64l-20 -102h-63zM449 901h64l-20 -102h-63z" />
    <glyph glyph-name="Zacute" unicode="&#x179;" horiz-adv-x="574" 
d="M111 714h515l-12 -57l-571 -599h476l-13 -58h-556l13 60l569 596h-434zM449 922h81l-144 -144h-53z" />
    <glyph glyph-name="Zcaron" unicode="&#x17d;" horiz-adv-x="574" 
d="M111 714h515l-12 -57l-571 -599h476l-13 -58h-556l13 60l569 596h-434zM469 922h61l-136 -144h-63l-86 144h57l66 -109z" />
    <glyph glyph-name="Zdotaccent" unicode="&#x17b;" horiz-adv-x="574" 
d="M111 714h515l-12 -57l-571 -599h476l-13 -58h-556l13 60l569 596h-434zM356 901h64l-20 -102h-63z" />
    <glyph glyph-name="agrave" unicode="&#xe0;" horiz-adv-x="519" 
d="M62 362q6 44 25.5 76t48.5 52.5t65.5 30.5t78.5 10q26 0 57.5 -5t58.5 -18t45 -35.5t18 -56.5q0 -19 -3.5 -42t-8.5 -46.5t-10.5 -46t-9.5 -39.5q-9 -44 -15 -72t-10.5 -47t-6.5 -31t-2 -24q0 -14 11 -17.5t22 -3.5q7 0 12.5 0.5t12.5 1.5l-9 -50q-11 -2 -25 -3.5
t-27 -1.5q-26 0 -40 15t-15 41q0 7 0.5 14t1.5 14l-2 2q-27 -45 -76 -70t-103 -25q-35 0 -65.5 8t-52.5 25.5t-34.5 44.5t-12.5 65q0 41 15 69t40 46t57 28.5t67 16.5q50 8 92 7.5t72 7.5q31 8 46.5 29t15.5 72q0 23 -10.5 37.5t-26 22.5t-35 11t-37.5 3q-30 0 -57 -6
t-49 -19.5t-36.5 -36t-19.5 -54.5h-63zM374 276l-2 2q-8 -9 -22 -14.5t-30.5 -8.5t-33 -4t-28.5 -2q-29 -2 -64.5 -5.5t-66.5 -15t-52 -34.5t-21 -63q0 -25 9.5 -42.5t25.5 -29t36.5 -16.5t43.5 -5q76 0 123 41.5t62 109.5zM266 732l82 -144h-50l-106 144h74z" />
    <glyph glyph-name="aacute" unicode="&#xe1;" horiz-adv-x="519" 
d="M62 362q6 44 25.5 76t48.5 52.5t65.5 30.5t78.5 10q26 0 57.5 -5t58.5 -18t45 -35.5t18 -56.5q0 -19 -3.5 -42t-8.5 -46.5t-10.5 -46t-9.5 -39.5q-9 -44 -15 -72t-10.5 -47t-6.5 -31t-2 -24q0 -14 11 -17.5t22 -3.5q7 0 12.5 0.5t12.5 1.5l-9 -50q-11 -2 -25 -3.5
t-27 -1.5q-26 0 -40 15t-15 41q0 7 0.5 14t1.5 14l-2 2q-27 -45 -76 -70t-103 -25q-35 0 -65.5 8t-52.5 25.5t-34.5 44.5t-12.5 65q0 41 15 69t40 46t57 28.5t67 16.5q50 8 92 7.5t72 7.5q31 8 46.5 29t15.5 72q0 23 -10.5 37.5t-26 22.5t-35 11t-37.5 3q-30 0 -57 -6
t-49 -19.5t-36.5 -36t-19.5 -54.5h-63zM374 276l-2 2q-8 -9 -22 -14.5t-30.5 -8.5t-33 -4t-28.5 -2q-29 -2 -64.5 -5.5t-66.5 -15t-52 -34.5t-21 -63q0 -25 9.5 -42.5t25.5 -29t36.5 -16.5t43.5 -5q76 0 123 41.5t62 109.5zM373 732h81l-144 -144h-53z" />
    <glyph glyph-name="acircumflex" unicode="&#xe2;" horiz-adv-x="519" 
d="M62 362q6 44 25.5 76t48.5 52.5t65.5 30.5t78.5 10q26 0 57.5 -5t58.5 -18t45 -35.5t18 -56.5q0 -19 -3.5 -42t-8.5 -46.5t-10.5 -46t-9.5 -39.5q-9 -44 -15 -72t-10.5 -47t-6.5 -31t-2 -24q0 -14 11 -17.5t22 -3.5q7 0 12.5 0.5t12.5 1.5l-9 -50q-11 -2 -25 -3.5
t-27 -1.5q-26 0 -40 15t-15 41q0 7 0.5 14t1.5 14l-2 2q-27 -45 -76 -70t-103 -25q-35 0 -65.5 8t-52.5 25.5t-34.5 44.5t-12.5 65q0 41 15 69t40 46t57 28.5t67 16.5q50 8 92 7.5t72 7.5q31 8 46.5 29t15.5 72q0 23 -10.5 37.5t-26 22.5t-35 11t-37.5 3q-30 0 -57 -6
t-49 -19.5t-36.5 -36t-19.5 -54.5h-63zM374 276l-2 2q-8 -9 -22 -14.5t-30.5 -8.5t-33 -4t-28.5 -2q-29 -2 -64.5 -5.5t-66.5 -15t-52 -34.5t-21 -63q0 -25 9.5 -42.5t25.5 -29t36.5 -16.5t43.5 -5q76 0 123 41.5t62 109.5zM223 588h-61l136 144h63l86 -144h-57l-66 106z
" />
    <glyph glyph-name="atilde" unicode="&#xe3;" horiz-adv-x="519" 
d="M62 362q6 44 25.5 76t48.5 52.5t65.5 30.5t78.5 10q26 0 57.5 -5t58.5 -18t45 -35.5t18 -56.5q0 -19 -3.5 -42t-8.5 -46.5t-10.5 -46t-9.5 -39.5q-9 -44 -15 -72t-10.5 -47t-6.5 -31t-2 -24q0 -14 11 -17.5t22 -3.5q7 0 12.5 0.5t12.5 1.5l-9 -50q-11 -2 -25 -3.5
t-27 -1.5q-26 0 -40 15t-15 41q0 7 0.5 14t1.5 14l-2 2q-27 -45 -76 -70t-103 -25q-35 0 -65.5 8t-52.5 25.5t-34.5 44.5t-12.5 65q0 41 15 69t40 46t57 28.5t67 16.5q50 8 92 7.5t72 7.5q31 8 46.5 29t15.5 72q0 23 -10.5 37.5t-26 22.5t-35 11t-37.5 3q-30 0 -57 -6
t-49 -19.5t-36.5 -36t-19.5 -54.5h-63zM374 276l-2 2q-8 -9 -22 -14.5t-30.5 -8.5t-33 -4t-28.5 -2q-29 -2 -64.5 -5.5t-66.5 -15t-52 -34.5t-21 -63q0 -25 9.5 -42.5t25.5 -29t36.5 -16.5t43.5 -5q76 0 123 41.5t62 109.5zM477 711q-4 -17 -11 -35t-18 -32
q-11 -15 -25.5 -24.5t-34.5 -9.5t-39 8.5t-37 18.5q-18 11 -34 20t-30 9q-9 0 -17 -5.5t-14.5 -14t-10.5 -18t-6 -18.5h-41q5 18 12.5 36t18.5 32.5t26 23.5t36 9q19 0 36 -8t34 -18q17 -11 34.5 -20.5t35.5 -9.5q8 0 15 6t13 14.5t10.5 18t6.5 17.5h40z" />
    <glyph glyph-name="adieresis" unicode="&#xe4;" horiz-adv-x="519" 
d="M62 362q6 44 25.5 76t48.5 52.5t65.5 30.5t78.5 10q26 0 57.5 -5t58.5 -18t45 -35.5t18 -56.5q0 -19 -3.5 -42t-8.5 -46.5t-10.5 -46t-9.5 -39.5q-9 -44 -15 -72t-10.5 -47t-6.5 -31t-2 -24q0 -14 11 -17.5t22 -3.5q7 0 12.5 0.5t12.5 1.5l-9 -50q-11 -2 -25 -3.5
t-27 -1.5q-26 0 -40 15t-15 41q0 7 0.5 14t1.5 14l-2 2q-27 -45 -76 -70t-103 -25q-35 0 -65.5 8t-52.5 25.5t-34.5 44.5t-12.5 65q0 41 15 69t40 46t57 28.5t67 16.5q50 8 92 7.5t72 7.5q31 8 46.5 29t15.5 72q0 23 -10.5 37.5t-26 22.5t-35 11t-37.5 3q-30 0 -57 -6
t-49 -19.5t-36.5 -36t-19.5 -54.5h-63zM374 276l-2 2q-8 -9 -22 -14.5t-30.5 -8.5t-33 -4t-28.5 -2q-29 -2 -64.5 -5.5t-66.5 -15t-52 -34.5t-21 -63q0 -25 9.5 -42.5t25.5 -29t36.5 -16.5t43.5 -5q76 0 123 41.5t62 109.5zM216 711h64l-20 -102h-63zM375 711h64l-20 -102
h-63z" />
    <glyph glyph-name="amacron" unicode="&#x101;" horiz-adv-x="519" 
d="M62 362q6 44 25.5 76t48.5 52.5t65.5 30.5t78.5 10q26 0 57.5 -5t58.5 -18t45 -35.5t18 -56.5q0 -19 -3.5 -42t-8.5 -46.5t-10.5 -46t-9.5 -39.5q-9 -44 -15 -72t-10.5 -47t-6.5 -31t-2 -24q0 -14 11 -17.5t22 -3.5q7 0 12.5 0.5t12.5 1.5l-9 -50q-11 -2 -25 -3.5
t-27 -1.5q-26 0 -40 15t-15 41q0 7 0.5 14t1.5 14l-2 2q-27 -45 -76 -70t-103 -25q-35 0 -65.5 8t-52.5 25.5t-34.5 44.5t-12.5 65q0 41 15 69t40 46t57 28.5t67 16.5q50 8 92 7.5t72 7.5q31 8 46.5 29t15.5 72q0 23 -10.5 37.5t-26 22.5t-35 11t-37.5 3q-30 0 -57 -6
t-49 -19.5t-36.5 -36t-19.5 -54.5h-63zM374 276l-2 2q-8 -9 -22 -14.5t-30.5 -8.5t-33 -4t-28.5 -2q-29 -2 -64.5 -5.5t-66.5 -15t-52 -34.5t-21 -63q0 -25 9.5 -42.5t25.5 -29t36.5 -16.5t43.5 -5q76 0 123 41.5t62 109.5zM183 638l8 45h256l-8 -45h-256z" />
    <glyph glyph-name="abreve" unicode="&#x103;" horiz-adv-x="519" 
d="M62 362q6 44 25.5 76t48.5 52.5t65.5 30.5t78.5 10q26 0 57.5 -5t58.5 -18t45 -35.5t18 -56.5q0 -19 -3.5 -42t-8.5 -46.5t-10.5 -46t-9.5 -39.5q-9 -44 -15 -72t-10.5 -47t-6.5 -31t-2 -24q0 -14 11 -17.5t22 -3.5q7 0 12.5 0.5t12.5 1.5l-9 -50q-11 -2 -25 -3.5
t-27 -1.5q-26 0 -40 15t-15 41q0 7 0.5 14t1.5 14l-2 2q-27 -45 -76 -70t-103 -25q-35 0 -65.5 8t-52.5 25.5t-34.5 44.5t-12.5 65q0 41 15 69t40 46t57 28.5t67 16.5q50 8 92 7.5t72 7.5q31 8 46.5 29t15.5 72q0 23 -10.5 37.5t-26 22.5t-35 11t-37.5 3q-30 0 -57 -6
t-49 -19.5t-36.5 -36t-19.5 -54.5h-63zM374 276l-2 2q-8 -9 -22 -14.5t-30.5 -8.5t-33 -4t-28.5 -2q-29 -2 -64.5 -5.5t-66.5 -15t-52 -34.5t-21 -63q0 -25 9.5 -42.5t25.5 -29t36.5 -16.5t43.5 -5q76 0 123 41.5t62 109.5zM219 725q5 -85 90 -85q90 0 118 85h37
q-10 -59 -54 -94.5t-104 -35.5q-59 0 -93 36t-32 94h38z" />
    <glyph glyph-name="aring" unicode="&#xe5;" horiz-adv-x="519" 
d="M62 362q6 44 25.5 76t48.5 52.5t65.5 30.5t78.5 10q26 0 57.5 -5t58.5 -18t45 -35.5t18 -56.5q0 -19 -3.5 -42t-8.5 -46.5t-10.5 -46t-9.5 -39.5q-9 -44 -15 -72t-10.5 -47t-6.5 -31t-2 -24q0 -14 11 -17.5t22 -3.5q7 0 12.5 0.5t12.5 1.5l-9 -50q-11 -2 -25 -3.5
t-27 -1.5q-26 0 -40 15t-15 41q0 7 0.5 14t1.5 14l-2 2q-27 -45 -76 -70t-103 -25q-35 0 -65.5 8t-52.5 25.5t-34.5 44.5t-12.5 65q0 41 15 69t40 46t57 28.5t67 16.5q50 8 92 7.5t72 7.5q31 8 46.5 29t15.5 72q0 23 -10.5 37.5t-26 22.5t-35 11t-37.5 3q-30 0 -57 -6
t-49 -19.5t-36.5 -36t-19.5 -54.5h-63zM374 276l-2 2q-8 -9 -22 -14.5t-30.5 -8.5t-33 -4t-28.5 -2q-29 -2 -64.5 -5.5t-66.5 -15t-52 -34.5t-21 -63q0 -25 9.5 -42.5t25.5 -29t36.5 -16.5t43.5 -5q76 0 123 41.5t62 109.5zM310 580q-20 0 -38 8t-31.5 21.5t-21.5 32
t-8 38.5t8 38t21.5 31.5t31.5 21.5t38 8t38.5 -8t32 -21.5t21.5 -31.5t8 -38q0 -42 -29 -71t-71 -29zM310 614q26 0 46 20t20 46q0 13 -5.5 24.5t-14.5 20.5t-21 14.5t-25 5.5q-26 0 -45.5 -19.5t-19.5 -45.5q0 -13 5.5 -25t14.5 -21t20.5 -14.5t24.5 -5.5z" />
    <glyph glyph-name="aogonek" unicode="&#x105;" horiz-adv-x="519" 
d="M62 362q6 44 25.5 76t48.5 52.5t65.5 30.5t78.5 10q26 0 57.5 -5t58.5 -18t45 -35.5t18 -56.5q0 -19 -3.5 -42t-8.5 -46.5t-10.5 -46t-9.5 -39.5q-9 -44 -15 -72t-10.5 -47t-6.5 -31t-2 -24q0 -14 11 -17.5t22 -3.5q7 0 12.5 0.5t12.5 1.5l-9 -50q-11 -2 -25 -3
q-12 -1 -23 -2q-50 -36 -74 -67q-25 -34 -25 -58q0 -3 0.5 -7.5t2.5 -8.5t6.5 -7.5t14.5 -3.5q15 0 32.5 11t35.5 34l28 -25q-25 -34 -52 -49.5t-62 -15.5q-37 0 -54 18t-17 43q0 23 12.5 46t31 41t38.5 32q17 13 43 27l-5 5q-14 15 -15 41q0 7 0.5 14t1.5 14l-2 2
q-27 -45 -76 -70t-103 -25q-35 0 -65.5 8t-52.5 25.5t-34.5 44.5t-12.5 65q0 41 15 69t40 46t57 28.5t67 16.5q50 8 92 7.5t72 7.5q31 8 46.5 29t15.5 72q0 23 -10.5 37.5t-26 22.5t-35 11t-37.5 3q-30 0 -57 -6t-49 -19.5t-36.5 -36t-19.5 -54.5h-63zM374 276l-2 2
q-8 -9 -22 -14.5t-30.5 -8.5t-33 -4t-28.5 -2q-29 -2 -64.5 -5.5t-66.5 -15t-52 -34.5t-21 -63q0 -25 9.5 -42.5t25.5 -29t36.5 -16.5t43.5 -5q76 0 123 41.5t62 109.5z" />
    <glyph glyph-name="cacute" unicode="&#x107;" horiz-adv-x="519" 
d="M424 355q2 29 -7 52t-25.5 38.5t-40 24t-51.5 8.5q-57 0 -98.5 -25t-69.5 -65t-41.5 -90t-13.5 -100q0 -35 8.5 -64t26.5 -50.5t45 -33.5t64 -12q63 0 106.5 36t63.5 93h63q-29 -89 -88 -135.5t-153 -46.5q-48 0 -85 15.5t-62.5 43.5t-38.5 67t-13 87q0 60 19 120t55 107
t88 76.5t118 29.5q42 0 78 -10.5t62 -32.5t40 -55t13 -78h-63zM392 732h81l-144 -144h-53z" />
    <glyph glyph-name="ccircumflex" unicode="&#x109;" horiz-adv-x="519" 
d="M424 355q2 29 -7 52t-25.5 38.5t-40 24t-51.5 8.5q-57 0 -98.5 -25t-69.5 -65t-41.5 -90t-13.5 -100q0 -35 8.5 -64t26.5 -50.5t45 -33.5t64 -12q63 0 106.5 36t63.5 93h63q-29 -89 -88 -135.5t-153 -46.5q-48 0 -85 15.5t-62.5 43.5t-38.5 67t-13 87q0 60 19 120t55 107
t88 76.5t118 29.5q42 0 78 -10.5t62 -32.5t40 -55t13 -78h-63zM242 588h-61l136 144h63l86 -144h-57l-66 106z" />
    <glyph glyph-name="ccaron" unicode="&#x10d;" horiz-adv-x="519" 
d="M424 355q2 29 -7 52t-25.5 38.5t-40 24t-51.5 8.5q-57 0 -98.5 -25t-69.5 -65t-41.5 -90t-13.5 -100q0 -35 8.5 -64t26.5 -50.5t45 -33.5t64 -12q63 0 106.5 36t63.5 93h63q-29 -89 -88 -135.5t-153 -46.5q-48 0 -85 15.5t-62.5 43.5t-38.5 67t-13 87q0 60 19 120t55 107
t88 76.5t118 29.5q42 0 78 -10.5t62 -32.5t40 -55t13 -78h-63zM420 732h61l-136 -144h-63l-86 144h57l66 -109z" />
    <glyph glyph-name="cdotaccent" unicode="&#x10b;" horiz-adv-x="519" 
d="M424 355q2 29 -7 52t-25.5 38.5t-40 24t-51.5 8.5q-57 0 -98.5 -25t-69.5 -65t-41.5 -90t-13.5 -100q0 -35 8.5 -64t26.5 -50.5t45 -33.5t64 -12q63 0 106.5 36t63.5 93h63q-29 -89 -88 -135.5t-153 -46.5q-48 0 -85 15.5t-62.5 43.5t-38.5 67t-13 87q0 60 19 120t55 107
t88 76.5t118 29.5q42 0 78 -10.5t62 -32.5t40 -55t13 -78h-63zM298 711h64l-20 -102h-63z" />
    <glyph glyph-name="ccedilla" unicode="&#xe7;" horiz-adv-x="519" 
d="M87 -152q23 -9 38.5 -13t39.5 -4q20 0 38 9t18 31t-16.5 31.5t-37.5 9.5t-39 -9l-16 18l59 68q-23 3 -43 11q-37 16 -62.5 44t-38.5 67t-13 87q0 60 19 120t55 107t88 76.5t118 29.5q42 0 78 -10.5t62 -32.5t40 -55t13 -78h-63q2 29 -7 52t-25.5 38.5t-40 24t-51.5 8.5
q-57 0 -98.5 -25t-69.5 -65t-41.5 -90t-13.5 -100q0 -35 8.5 -64t26.5 -50.5t45 -33.5t64 -12q63 0 106.5 36t63.5 93h63q-29 -89 -88 -135.5t-153 -46.5h-9l-40 -41l2 -2q7 2 14.5 3t21.5 1q30 0 52 -16.5t22 -52.5q0 -21 -10 -36.5t-25.5 -25t-34.5 -14t-37 -4.5
q-30 0 -51.5 5.5t-44.5 16.5z" />
    <glyph glyph-name="dcaron" unicode="&#x10f;" horiz-adv-x="658" 
d="M438 0h-61l23 93h-2q-33 -51 -76.5 -79.5t-111.5 -28.5q-50 0 -86.5 15t-61 43t-36.5 67t-12 86q0 59 19.5 119t56.5 108t89 78t117 30q61 0 106 -25.5t62 -86.5h2l62 295h63zM216 38q54 0 96 27.5t70.5 70t43.5 94t15 99.5q0 68 -37.5 108.5t-106.5 40.5
q-54 0 -95.5 -27t-69 -69t-41.5 -92.5t-14 -97.5q0 -66 34 -110t105 -44zM693 714h81l-112 -144h-49z" />
    <glyph glyph-name="dcroat" unicode="&#x111;" horiz-adv-x="585" 
d="M438 0h-61l23 93h-2q-33 -51 -76.5 -79.5t-111.5 -28.5q-50 0 -86.5 15t-61 43t-36.5 67t-12 86q0 59 19.5 119t56.5 108t89 78t117 30q61 0 106 -25.5t62 -86.5h2l34 165h-157l8 45h159l18 85h63l-19 -85h85l-8 -45h-86zM216 38q54 0 96 27.5t70.5 70t43.5 94t15 99.5
q0 68 -37.5 108.5t-106.5 40.5q-54 0 -95.5 -27t-69 -69t-41.5 -92.5t-14 -97.5q0 -66 34 -110t105 -44z" />
    <glyph glyph-name="egrave" unicode="&#xe8;" horiz-adv-x="519" 
d="M425 294q0 11 0.5 20.5t0.5 19.5q0 65 -37.5 104.5t-103.5 39.5q-39 0 -71.5 -15.5t-57.5 -41t-42.5 -58.5t-25.5 -69h337zM80 241q-3 -18 -3 -40q0 -35 9 -65t27.5 -51.5t47 -34t66.5 -12.5q62 0 106.5 35.5t62.5 92.5h63q-26 -87 -84.5 -134t-150.5 -47
q-103 0 -156.5 59t-53.5 160q0 61 18.5 120t54.5 105t88 74t118 28q46 0 82.5 -14.5t62 -41t38.5 -63.5t13 -82q0 -22 -1 -44t-4 -45h-404zM270 732l82 -144h-50l-106 144h74z" />
    <glyph glyph-name="eacute" unicode="&#xe9;" horiz-adv-x="519" 
d="M425 294q0 11 0.5 20.5t0.5 19.5q0 65 -37.5 104.5t-103.5 39.5q-39 0 -71.5 -15.5t-57.5 -41t-42.5 -58.5t-25.5 -69h337zM80 241q-3 -18 -3 -40q0 -35 9 -65t27.5 -51.5t47 -34t66.5 -12.5q62 0 106.5 35.5t62.5 92.5h63q-26 -87 -84.5 -134t-150.5 -47
q-103 0 -156.5 59t-53.5 160q0 61 18.5 120t54.5 105t88 74t118 28q46 0 82.5 -14.5t62 -41t38.5 -63.5t13 -82q0 -22 -1 -44t-4 -45h-404zM378 732h81l-144 -144h-53z" />
    <glyph glyph-name="ecircumflex" unicode="&#xea;" horiz-adv-x="519" 
d="M425 294q0 11 0.5 20.5t0.5 19.5q0 65 -37.5 104.5t-103.5 39.5q-39 0 -71.5 -15.5t-57.5 -41t-42.5 -58.5t-25.5 -69h337zM80 241q-3 -18 -3 -40q0 -35 9 -65t27.5 -51.5t47 -34t66.5 -12.5q62 0 106.5 35.5t62.5 92.5h63q-26 -87 -84.5 -134t-150.5 -47
q-103 0 -156.5 59t-53.5 160q0 61 18.5 120t54.5 105t88 74t118 28q46 0 82.5 -14.5t62 -41t38.5 -63.5t13 -82q0 -22 -1 -44t-4 -45h-404zM226 588h-61l136 144h63l86 -144h-57l-66 106z" />
    <glyph glyph-name="ecaron" unicode="&#x11b;" horiz-adv-x="519" 
d="M425 294q0 11 0.5 20.5t0.5 19.5q0 65 -37.5 104.5t-103.5 39.5q-39 0 -71.5 -15.5t-57.5 -41t-42.5 -58.5t-25.5 -69h337zM80 241q-3 -18 -3 -40q0 -35 9 -65t27.5 -51.5t47 -34t66.5 -12.5q62 0 106.5 35.5t62.5 92.5h63q-26 -87 -84.5 -134t-150.5 -47
q-103 0 -156.5 59t-53.5 160q0 61 18.5 120t54.5 105t88 74t118 28q46 0 82.5 -14.5t62 -41t38.5 -63.5t13 -82q0 -22 -1 -44t-4 -45h-404zM403 732h61l-136 -144h-63l-86 144h57l66 -109z" />
    <glyph glyph-name="edieresis" unicode="&#xeb;" horiz-adv-x="519" 
d="M425 294q0 11 0.5 20.5t0.5 19.5q0 65 -37.5 104.5t-103.5 39.5q-39 0 -71.5 -15.5t-57.5 -41t-42.5 -58.5t-25.5 -69h337zM80 241q-3 -18 -3 -40q0 -35 9 -65t27.5 -51.5t47 -34t66.5 -12.5q62 0 106.5 35.5t62.5 92.5h63q-26 -87 -84.5 -134t-150.5 -47
q-103 0 -156.5 59t-53.5 160q0 61 18.5 120t54.5 105t88 74t118 28q46 0 82.5 -14.5t62 -41t38.5 -63.5t13 -82q0 -22 -1 -44t-4 -45h-404zM217 711h64l-20 -102h-63zM376 711h64l-20 -102h-63z" />
    <glyph glyph-name="emacron" unicode="&#x113;" horiz-adv-x="519" 
d="M425 294q0 11 0.5 20.5t0.5 19.5q0 65 -37.5 104.5t-103.5 39.5q-39 0 -71.5 -15.5t-57.5 -41t-42.5 -58.5t-25.5 -69h337zM80 241q-3 -18 -3 -40q0 -35 9 -65t27.5 -51.5t47 -34t66.5 -12.5q62 0 106.5 35.5t62.5 92.5h63q-26 -87 -84.5 -134t-150.5 -47
q-103 0 -156.5 59t-53.5 160q0 61 18.5 120t54.5 105t88 74t118 28q46 0 82.5 -14.5t62 -41t38.5 -63.5t13 -82q0 -22 -1 -44t-4 -45h-404zM182 638l8 45h256l-8 -45h-256z" />
    <glyph glyph-name="ebreve" unicode="&#x115;" horiz-adv-x="519" 
d="M425 294q0 11 0.5 20.5t0.5 19.5q0 65 -37.5 104.5t-103.5 39.5q-39 0 -71.5 -15.5t-57.5 -41t-42.5 -58.5t-25.5 -69h337zM80 241q-3 -18 -3 -40q0 -35 9 -65t27.5 -51.5t47 -34t66.5 -12.5q62 0 106.5 35.5t62.5 92.5h63q-26 -87 -84.5 -134t-150.5 -47
q-103 0 -156.5 59t-53.5 160q0 61 18.5 120t54.5 105t88 74t118 28q46 0 82.5 -14.5t62 -41t38.5 -63.5t13 -82q0 -22 -1 -44t-4 -45h-404zM215 725q5 -85 90 -85q90 0 118 85h37q-10 -59 -54 -94.5t-104 -35.5q-59 0 -93 36t-32 94h38z" />
    <glyph glyph-name="edotaccent" unicode="&#x117;" horiz-adv-x="519" 
d="M425 294q0 11 0.5 20.5t0.5 19.5q0 65 -37.5 104.5t-103.5 39.5q-39 0 -71.5 -15.5t-57.5 -41t-42.5 -58.5t-25.5 -69h337zM80 241q-3 -18 -3 -40q0 -35 9 -65t27.5 -51.5t47 -34t66.5 -12.5q62 0 106.5 35.5t62.5 92.5h63q-26 -87 -84.5 -134t-150.5 -47
q-103 0 -156.5 59t-53.5 160q0 61 18.5 120t54.5 105t88 74t118 28q46 0 82.5 -14.5t62 -41t38.5 -63.5t13 -82q0 -22 -1 -44t-4 -45h-404zM289 711h64l-20 -102h-63z" />
    <glyph glyph-name="eogonek" unicode="&#x119;" horiz-adv-x="519" 
d="M80 241q-3 -18 -3 -40q0 -35 9 -65t27.5 -51.5t47 -34t66.5 -12.5q62 0 106.5 35.5t62.5 92.5h63q-26 -87 -85 -134q-49 -39 -122 -46q-44 -32 -66 -59q-27 -34 -27 -58q0 -3 0.5 -7.5t2.5 -8.5t7 -7.5t15 -3.5q16 0 34.5 11t37.5 34l29 -25q-26 -34 -54.5 -49.5
t-65.5 -15.5q-39 0 -56.5 18t-17.5 43q0 23 13 46t32.5 41t40.5 32l14 10q-79 8 -124 57q-53 59 -53 160q0 61 18.5 120t54.5 105t88 74t118 28q46 0 82.5 -14.5t62 -41t38.5 -63.5t13 -82q0 -22 -1 -44t-4 -45h-404zM425 294q0 11 0.5 20.5t0.5 19.5q0 65 -37.5 104.5
t-103.5 39.5q-39 0 -71.5 -15.5t-57.5 -41t-42.5 -58.5t-25.5 -69h337z" />
    <glyph glyph-name="gcircumflex" unicode="&#x11d;" horiz-adv-x="556" 
d="M438 54q-14 -68 -34 -117t-50 -80.5t-72.5 -47t-102.5 -15.5q-39 0 -75 9t-63 28.5t-43.5 51.5t-17.5 78h63q0 -33 12.5 -55t32.5 -35t46 -18.5t54 -5.5q40 0 69 13t49.5 34t34 48.5t23 56t15 56t11.5 49.5l-2 2q-13 -23 -32.5 -40.5t-42.5 -29.5t-49 -18.5t-52 -6.5
q-47 0 -82.5 16t-59.5 44.5t-36.5 66.5t-12.5 83q0 57 18 112.5t52 99.5t83 71t111 27q29 0 57 -7.5t51.5 -22.5t39.5 -38t21 -53h2l22 106h58zM84 226q0 -33 8 -62t25.5 -51.5t43.5 -35.5t62 -13q48 0 86 23.5t65 61t41 82.5t14 89q0 34 -7.5 63t-24.5 50t-44 33t-65 12
q-48 0 -86 -23t-64.5 -59.5t-40 -81.5t-13.5 -88zM257 588h-61l136 144h63l86 -144h-57l-66 106z" />
    <glyph glyph-name="gbreve" unicode="&#x11f;" horiz-adv-x="556" 
d="M438 54q-14 -68 -34 -117t-50 -80.5t-72.5 -47t-102.5 -15.5q-39 0 -75 9t-63 28.5t-43.5 51.5t-17.5 78h63q0 -33 12.5 -55t32.5 -35t46 -18.5t54 -5.5q40 0 69 13t49.5 34t34 48.5t23 56t15 56t11.5 49.5l-2 2q-13 -23 -32.5 -40.5t-42.5 -29.5t-49 -18.5t-52 -6.5
q-47 0 -82.5 16t-59.5 44.5t-36.5 66.5t-12.5 83q0 57 18 112.5t52 99.5t83 71t111 27q29 0 57 -7.5t51.5 -22.5t39.5 -38t21 -53h2l22 106h58zM84 226q0 -33 8 -62t25.5 -51.5t43.5 -35.5t62 -13q48 0 86 23.5t65 61t41 82.5t14 89q0 34 -7.5 63t-24.5 50t-44 33t-65 12
q-48 0 -86 -23t-64.5 -59.5t-40 -81.5t-13.5 -88zM249 725q5 -85 90 -85q90 0 118 85h37q-10 -59 -54 -94.5t-104 -35.5q-59 0 -93 36t-32 94h38z" />
    <glyph glyph-name="gdotaccent" unicode="&#x121;" horiz-adv-x="556" 
d="M438 54q-14 -68 -34 -117t-50 -80.5t-72.5 -47t-102.5 -15.5q-39 0 -75 9t-63 28.5t-43.5 51.5t-17.5 78h63q0 -33 12.5 -55t32.5 -35t46 -18.5t54 -5.5q40 0 69 13t49.5 34t34 48.5t23 56t15 56t11.5 49.5l-2 2q-13 -23 -32.5 -40.5t-42.5 -29.5t-49 -18.5t-52 -6.5
q-47 0 -82.5 16t-59.5 44.5t-36.5 66.5t-12.5 83q0 57 18 112.5t52 99.5t83 71t111 27q29 0 57 -7.5t51.5 -22.5t39.5 -38t21 -53h2l22 106h58zM84 226q0 -33 8 -62t25.5 -51.5t43.5 -35.5t62 -13q48 0 86 23.5t65 61t41 82.5t14 89q0 34 -7.5 63t-24.5 50t-44 33t-65 12
q-48 0 -86 -23t-64.5 -59.5t-40 -81.5t-13.5 -88zM312 711h64l-20 -102h-63z" />
    <glyph glyph-name="gcommaaccent" unicode="&#x123;" horiz-adv-x="556" 
d="M438 54q-14 -68 -34 -117t-50 -80.5t-72.5 -47t-102.5 -15.5q-39 0 -75 9t-63 28.5t-43.5 51.5t-17.5 78h63q0 -33 12.5 -55t32.5 -35t46 -18.5t54 -5.5q40 0 69 13t49.5 34t34 48.5t23 56t15 56t11.5 49.5l-2 2q-13 -23 -32.5 -40.5t-42.5 -29.5t-49 -18.5t-52 -6.5
q-47 0 -82.5 16t-59.5 44.5t-36.5 66.5t-12.5 83q0 57 18 112.5t52 99.5t83 71t111 27q29 0 57 -7.5t51.5 -22.5t39.5 -38t21 -53h2l22 106h58zM84 226q0 -33 8 -62t25.5 -51.5t43.5 -35.5t62 -13q48 0 86 23.5t65 61t41 82.5t14 89q0 34 -7.5 63t-24.5 50t-44 33t-65 12
q-48 0 -86 -23t-64.5 -59.5t-40 -81.5t-13.5 -88zM279 623l17 80q5 27 21 42.5t34.5 22.5t45.5 8l-6 -28q-16 -3 -24 -7.5t-14 -11.5t-8 -15h39l-19 -91h-86z" />
    <glyph glyph-name="hcircumflex" unicode="&#x125;" horiz-adv-x="537" 
d="M143 714h63l-63 -292h2q27 46 75 77.5t106 31.5q34 0 62.5 -8t49.5 -24.5t32.5 -43t11.5 -63.5q0 -23 -8 -61l-71 -331h-63l72 333q3 12 5 25.5t2 26.5q0 25 -9 43t-24 29t-34.5 16t-40.5 5q-34 0 -66 -15t-58.5 -42.5t-47 -67t-30.5 -88.5l-57 -265h-63zM263 778h-61
l136 144h63l86 -144h-57l-66 106z" />
    <glyph glyph-name="hbar" unicode="&#x127;" horiz-adv-x="562" 
d="M168 714h63l-19 -85h130l-8 -45h-131l-35 -162h2q27 46 75 77.5t106 31.5q34 0 62.5 -8t49.5 -24.5t32.5 -43t11.5 -63.5q0 -23 -8 -61l-71 -331h-63l72 333q3 12 5 25.5t2 26.5q0 25 -9 43t-24 29t-34.5 16t-40.5 5q-34 0 -66 -15t-58.5 -42.5t-47 -67t-30.5 -88.5
l-57 -265h-63l126 584h-92l8 45h93z" />
    <glyph glyph-name="igrave" unicode="&#xec;" 
d="M-11 0l111 516h63l-111 -516h-63zM81 732l82 -144h-50l-106 144h74z" />
    <glyph glyph-name="iacute" unicode="&#xed;" 
d="M-11 0l111 516h63l-111 -516h-63zM219 732h81l-144 -144h-53z" />
    <glyph glyph-name="icircumflex" unicode="&#xee;" 
d="M-11 0l111 516h63l-111 -516h-63zM59 588h-61l136 144h63l86 -144h-57l-66 106z" />
    <glyph glyph-name="itilde" unicode="&#x129;" 
d="M-11 0l111 516h63l-111 -516h-63zM308 711q-4 -17 -11 -35t-18 -32q-11 -15 -25.5 -24.5t-34.5 -9.5t-39 8.5t-37 18.5q-18 11 -34 20t-30 9q-9 0 -17 -5.5t-14.5 -14t-10.5 -18t-6 -18.5h-41q5 18 12.5 36t18.5 32.5t26 23.5t36 9q19 0 36 -8t34 -18q17 -11 34.5 -20.5
t35.5 -9.5q8 0 15 6t13 14.5t10.5 18t6.5 17.5h40z" />
    <glyph glyph-name="idieresis" unicode="&#xef;" 
d="M-11 0l111 516h63l-111 -516h-63zM56 711h64l-20 -102h-63zM215 711h64l-20 -102h-63z" />
    <glyph glyph-name="imacron" unicode="&#x12b;" 
d="M-11 0l111 516h63l-111 -516h-63zM18 638l8 45h256l-8 -45h-256z" />
    <glyph glyph-name="iogonek" unicode="&#x12f;" 
d="M51 0q-54 -40 -78 -73.5t-24 -57.5q0 -3 0.5 -7.5t2 -8.5t6 -7.5t13.5 -3.5q15 0 31.5 11t33.5 34l26 -25q-23 -34 -48.5 -49.5t-59.5 -15.5q-35 0 -50.5 18t-15.5 43q0 23 11.5 46t29 41t36.5 32t34 23h-10l111 516h63l-111 -516h-1zM143 714h63l-22 -101h-63z" />
    <glyph glyph-name="dotlessj" 
d="M100 516h63l-129 -604q-12 -51 -40 -77t-87 -26q-11 0 -22 2t-22 3l12 52q9 -1 18 -2.5t18 -1.5q29 0 42 15.5t19 36.5z" />
    <glyph glyph-name="jcircumflex" unicode="&#x135;" 
d="M100 516h63l-129 -604q-12 -51 -40 -77t-87 -26q-11 0 -22 2t-22 3l12 52q9 -1 18 -2.5t18 -1.5q29 0 42 15.5t19 36.5zM54 588h-61l136 144h63l86 -144h-57l-66 106z" />
    <glyph glyph-name="kcommaaccent" unicode="&#x137;" horiz-adv-x="463" 
d="M141 714h63l-96 -448l2 -2l302 252h84l-244 -199l156 -317h-69l-137 279l-110 -92l-40 -187h-63zM227 -50l-17 -80q-5 -27 -21 -42.5t-34.5 -22.5t-45.5 -8l6 28q16 3 24 7.5t14 11.5t8 15h-39l19 91h86z" />
    <glyph glyph-name="lacute" unicode="&#x13a;" 
d="M143 714h63l-154 -714h-63zM261 922h81l-144 -144h-53z" />
    <glyph glyph-name="lcaron" unicode="&#x13e;" horiz-adv-x="271" 
d="M143 714h63l-154 -714h-63zM306 714h81l-112 -144h-49z" />
    <glyph glyph-name="lcommaaccent" unicode="&#x13c;" 
d="M143 714h63l-154 -714h-63zM56 -50l-17 -80q-5 -27 -21 -42.5t-34.5 -22.5t-45.5 -8l6 28q16 3 24 7.5t14 11.5t8 15h-39l19 91h86z" />
    <glyph glyph-name="nacute" unicode="&#x144;" horiz-adv-x="537" 
d="M100 516h58l-18 -94h2q29 46 77.5 77.5t106.5 31.5q34 0 62.5 -8t49.5 -24.5t32.5 -43t11.5 -63.5q0 -23 -8 -61l-71 -331h-63l72 333q3 12 5 25.5t2 26.5q0 25 -9 43t-24 29t-34.5 16t-40.5 5q-34 0 -66 -15t-58.5 -42.5t-47 -67t-30.5 -88.5l-57 -265h-63zM376 732h81
l-144 -144h-53z" />
    <glyph glyph-name="ncaron" unicode="&#x148;" horiz-adv-x="537" 
d="M100 516h58l-18 -94h2q29 46 77.5 77.5t106.5 31.5q34 0 62.5 -8t49.5 -24.5t32.5 -43t11.5 -63.5q0 -23 -8 -61l-71 -331h-63l72 333q3 12 5 25.5t2 26.5q0 25 -9 43t-24 29t-34.5 16t-40.5 5q-34 0 -66 -15t-58.5 -42.5t-47 -67t-30.5 -88.5l-57 -265h-63zM416 732h61
l-136 -144h-63l-86 144h57l66 -109z" />
    <glyph glyph-name="ntilde" unicode="&#xf1;" horiz-adv-x="537" 
d="M100 516h58l-18 -94h2q29 46 77.5 77.5t106.5 31.5q34 0 62.5 -8t49.5 -24.5t32.5 -43t11.5 -63.5q0 -23 -8 -61l-71 -331h-63l72 333q3 12 5 25.5t2 26.5q0 25 -9 43t-24 29t-34.5 16t-40.5 5q-34 0 -66 -15t-58.5 -42.5t-47 -67t-30.5 -88.5l-57 -265h-63zM476 711
q-4 -17 -11 -35t-18 -32q-11 -15 -25.5 -24.5t-34.5 -9.5t-39 8.5t-37 18.5q-18 11 -34 20t-30 9q-9 0 -17 -5.5t-14.5 -14t-10.5 -18t-6 -18.5h-41q5 18 12.5 36t18.5 32.5t26 23.5t36 9q19 0 36 -8t34 -18q17 -11 34.5 -20.5t35.5 -9.5q8 0 15 6t13 14.5t10.5 18t6.5 17.5
h40z" />
    <glyph glyph-name="ncommaaccent" unicode="&#x146;" horiz-adv-x="537" 
d="M100 516h58l-18 -94h2q29 46 77.5 77.5t106.5 31.5q34 0 62.5 -8t49.5 -24.5t32.5 -43t11.5 -63.5q0 -23 -8 -61l-71 -331h-63l72 333q3 12 5 25.5t2 26.5q0 25 -9 43t-24 29t-34.5 16t-40.5 5q-34 0 -66 -15t-58.5 -42.5t-47 -67t-30.5 -88.5l-57 -265h-63zM238 -50
l-17 -80q-5 -27 -21 -42.5t-34.5 -22.5t-45.5 -8l6 28q16 3 24 7.5t14 11.5t8 15h-39l19 91h86z" />
    <glyph glyph-name="ograve" unicode="&#xf2;" horiz-adv-x="556" 
d="M232 38q52 0 91.5 26.5t66 67.5t40 90t13.5 94q0 72 -38 117t-114 45q-52 0 -92 -25.5t-67 -65t-41 -88t-14 -93.5q0 -75 38 -121.5t117 -46.5zM302 531q45 0 82.5 -13.5t64.5 -39.5t42 -63.5t15 -85.5q0 -65 -18 -127t-53.5 -110t-89 -77.5t-125.5 -29.5
q-50 0 -88.5 15.5t-64.5 43.5t-39.5 68t-13.5 88q0 63 19 123t56 106t90.5 74t122.5 28zM287 732l82 -144h-50l-106 144h74z" />
    <glyph glyph-name="oacute" unicode="&#xf3;" horiz-adv-x="556" 
d="M232 38q52 0 91.5 26.5t66 67.5t40 90t13.5 94q0 72 -38 117t-114 45q-52 0 -92 -25.5t-67 -65t-41 -88t-14 -93.5q0 -75 38 -121.5t117 -46.5zM302 531q45 0 82.5 -13.5t64.5 -39.5t42 -63.5t15 -85.5q0 -65 -18 -127t-53.5 -110t-89 -77.5t-125.5 -29.5
q-50 0 -88.5 15.5t-64.5 43.5t-39.5 68t-13.5 88q0 63 19 123t56 106t90.5 74t122.5 28zM389 732h81l-144 -144h-53z" />
    <glyph glyph-name="ocircumflex" unicode="&#xf4;" horiz-adv-x="556" 
d="M232 38q52 0 91.5 26.5t66 67.5t40 90t13.5 94q0 72 -38 117t-114 45q-52 0 -92 -25.5t-67 -65t-41 -88t-14 -93.5q0 -75 38 -121.5t117 -46.5zM302 531q45 0 82.5 -13.5t64.5 -39.5t42 -63.5t15 -85.5q0 -65 -18 -127t-53.5 -110t-89 -77.5t-125.5 -29.5
q-50 0 -88.5 15.5t-64.5 43.5t-39.5 68t-13.5 88q0 63 19 123t56 106t90.5 74t122.5 28zM240 588h-61l136 144h63l86 -144h-57l-66 106z" />
    <glyph glyph-name="otilde" unicode="&#xf5;" horiz-adv-x="556" 
d="M232 38q52 0 91.5 26.5t66 67.5t40 90t13.5 94q0 72 -38 117t-114 45q-52 0 -92 -25.5t-67 -65t-41 -88t-14 -93.5q0 -75 38 -121.5t117 -46.5zM302 531q45 0 82.5 -13.5t64.5 -39.5t42 -63.5t15 -85.5q0 -65 -18 -127t-53.5 -110t-89 -77.5t-125.5 -29.5
q-50 0 -88.5 15.5t-64.5 43.5t-39.5 68t-13.5 88q0 63 19 123t56 106t90.5 74t122.5 28zM496 711q-4 -17 -11 -35t-18 -32q-11 -15 -25.5 -24.5t-34.5 -9.5t-39 8.5t-37 18.5q-18 11 -34 20t-30 9q-9 0 -17 -5.5t-14.5 -14t-10.5 -18t-6 -18.5h-41q5 18 12.5 36t18.5 32.5
t26 23.5t36 9q19 0 36 -8t34 -18q17 -11 34.5 -20.5t35.5 -9.5q8 0 15 6t13 14.5t10.5 18t6.5 17.5h40z" />
    <glyph glyph-name="odieresis" unicode="&#xf6;" horiz-adv-x="556" 
d="M232 38q52 0 91.5 26.5t66 67.5t40 90t13.5 94q0 72 -38 117t-114 45q-52 0 -92 -25.5t-67 -65t-41 -88t-14 -93.5q0 -75 38 -121.5t117 -46.5zM302 531q45 0 82.5 -13.5t64.5 -39.5t42 -63.5t15 -85.5q0 -65 -18 -127t-53.5 -110t-89 -77.5t-125.5 -29.5
q-50 0 -88.5 15.5t-64.5 43.5t-39.5 68t-13.5 88q0 63 19 123t56 106t90.5 74t122.5 28zM232 711h64l-20 -102h-63zM391 711h64l-20 -102h-63z" />
    <glyph glyph-name="omacron" unicode="&#x14d;" horiz-adv-x="556" 
d="M232 38q52 0 91.5 26.5t66 67.5t40 90t13.5 94q0 72 -38 117t-114 45q-52 0 -92 -25.5t-67 -65t-41 -88t-14 -93.5q0 -75 38 -121.5t117 -46.5zM302 531q45 0 82.5 -13.5t64.5 -39.5t42 -63.5t15 -85.5q0 -65 -18 -127t-53.5 -110t-89 -77.5t-125.5 -29.5
q-50 0 -88.5 15.5t-64.5 43.5t-39.5 68t-13.5 88q0 63 19 123t56 106t90.5 74t122.5 28zM197 638l8 45h256l-8 -45h-256z" />
    <glyph glyph-name="obreve" unicode="&#x14f;" horiz-adv-x="556" 
d="M232 38q52 0 91.5 26.5t66 67.5t40 90t13.5 94q0 72 -38 117t-114 45q-52 0 -92 -25.5t-67 -65t-41 -88t-14 -93.5q0 -75 38 -121.5t117 -46.5zM302 531q45 0 82.5 -13.5t64.5 -39.5t42 -63.5t15 -85.5q0 -65 -18 -127t-53.5 -110t-89 -77.5t-125.5 -29.5
q-50 0 -88.5 15.5t-64.5 43.5t-39.5 68t-13.5 88q0 63 19 123t56 106t90.5 74t122.5 28zM230 725q5 -85 90 -85q90 0 118 85h37q-10 -59 -54 -94.5t-104 -35.5q-59 0 -93 36t-32 94h38z" />
    <glyph glyph-name="ohungarumlaut" unicode="&#x151;" horiz-adv-x="556" 
d="M232 38q52 0 91.5 26.5t66 67.5t40 90t13.5 94q0 72 -38 117t-114 45q-52 0 -92 -25.5t-67 -65t-41 -88t-14 -93.5q0 -75 38 -121.5t117 -46.5zM302 531q45 0 82.5 -13.5t64.5 -39.5t42 -63.5t15 -85.5q0 -65 -18 -127t-53.5 -110t-89 -77.5t-125.5 -29.5
q-50 0 -88.5 15.5t-64.5 43.5t-39.5 68t-13.5 88q0 63 19 123t56 106t90.5 74t122.5 28zM475 732h81l-144 -144h-53zM327 732h81l-144 -144h-53z" />
    <glyph glyph-name="racute" unicode="&#x155;" horiz-adv-x="315" 
d="M100 516h57l-26 -119h2q15 28 33 51t41 40t50.5 26t62.5 9h17t17 -1l-14 -63q-9 0 -18 0.5t-18 0.5q-42 -1 -75 -17t-56.5 -42.5t-39 -60.5t-23.5 -70l-58 -270h-63zM235 732h81l-144 -144h-53z" />
    <glyph glyph-name="rcommaaccent" unicode="&#x157;" horiz-adv-x="315" 
d="M100 516h57l-26 -119h2q15 28 33 51t41 40t50.5 26t62.5 9h17t17 -1l-14 -63q-9 0 -18 0.5t-18 0.5q-42 -1 -75 -17t-56.5 -42.5t-39 -60.5t-23.5 -70l-58 -270h-63zM57 -50l-17 -80q-5 -27 -21 -42.5t-34.5 -22.5t-45.5 -8l6 28q16 3 24 7.5t14 11.5t8 15h-39l19 91h86z
" />
    <glyph glyph-name="rcaron" unicode="&#x159;" horiz-adv-x="315" 
d="M100 516h57l-26 -119h2q15 28 33 51t41 40t50.5 26t62.5 9h17t17 -1l-14 -63q-9 0 -18 0.5t-18 0.5q-42 -1 -75 -17t-56.5 -42.5t-39 -60.5t-23.5 -70l-58 -270h-63zM334 732h61l-136 -144h-63l-86 144h57l66 -109z" />
    <glyph glyph-name="sacute" unicode="&#x15b;" horiz-adv-x="481" 
d="M62 168q0 -38 12.5 -63t33 -40t47 -21t53.5 -6q21 0 44 5.5t42 17t31.5 29.5t12.5 43t-12 42.5t-32 30t-45 22t-50 19.5q-26 10 -50.5 21.5t-44 28t-31.5 39t-12 54.5q0 37 18 64t46 44t62 25t65 8q40 0 74.5 -9t59 -29t38 -51.5t12.5 -76.5h-63q2 30 -7 51t-25.5 35
t-39 20.5t-49.5 6.5q-21 0 -43.5 -4t-41 -13.5t-31 -26.5t-12.5 -44q0 -18 9 -32t24 -25t34.5 -20t41.5 -18q27 -11 56.5 -22.5t54 -28.5t41 -41t16.5 -60q0 -44 -18.5 -74t-48.5 -48.5t-67 -27t-74 -8.5t-73 10.5t-63.5 32.5t-43.5 57t-14 83h63zM347 732h81l-144 -144h-53
z" />
    <glyph glyph-name="scircumflex" unicode="&#x15d;" horiz-adv-x="481" 
d="M62 168q0 -38 12.5 -63t33 -40t47 -21t53.5 -6q21 0 44 5.5t42 17t31.5 29.5t12.5 43t-12 42.5t-32 30t-45 22t-50 19.5q-26 10 -50.5 21.5t-44 28t-31.5 39t-12 54.5q0 37 18 64t46 44t62 25t65 8q40 0 74.5 -9t59 -29t38 -51.5t12.5 -76.5h-63q2 30 -7 51t-25.5 35
t-39 20.5t-49.5 6.5q-21 0 -43.5 -4t-41 -13.5t-31 -26.5t-12.5 -44q0 -18 9 -32t24 -25t34.5 -20t41.5 -18q27 -11 56.5 -22.5t54 -28.5t41 -41t16.5 -60q0 -44 -18.5 -74t-48.5 -48.5t-67 -27t-74 -8.5t-73 10.5t-63.5 32.5t-43.5 57t-14 83h63zM196 588h-61l136 144h63
l86 -144h-57l-66 106z" />
    <glyph glyph-name="scaron" unicode="&#x161;" horiz-adv-x="481" 
d="M62 168q0 -38 12.5 -63t33 -40t47 -21t53.5 -6q21 0 44 5.5t42 17t31.5 29.5t12.5 43t-12 42.5t-32 30t-45 22t-50 19.5q-26 10 -50.5 21.5t-44 28t-31.5 39t-12 54.5q0 37 18 64t46 44t62 25t65 8q40 0 74.5 -9t59 -29t38 -51.5t12.5 -76.5h-63q2 30 -7 51t-25.5 35
t-39 20.5t-49.5 6.5q-21 0 -43.5 -4t-41 -13.5t-31 -26.5t-12.5 -44q0 -18 9 -32t24 -25t34.5 -20t41.5 -18q27 -11 56.5 -22.5t54 -28.5t41 -41t16.5 -60q0 -44 -18.5 -74t-48.5 -48.5t-67 -27t-74 -8.5t-73 10.5t-63.5 32.5t-43.5 57t-14 83h63zM383 732h61l-136 -144h-63
l-86 144h57l66 -109z" />
    <glyph glyph-name="scedilla" unicode="&#x15f;" horiz-adv-x="481" 
d="M62 -152q23 -9 38.5 -13t39.5 -4q20 0 38 9t18 31t-16.5 31.5t-37.5 9.5t-39 -9l-16 18l60 68q-14 3 -27 7q-36 10 -63.5 32t-43.5 57t-14 83h63q0 -38 12.5 -63t33 -40t47 -21t53.5 -6q21 0 44 5.5t42 17t31.5 29.5t12.5 43t-12 42.5t-32 30t-45 22t-50 19.5
q-26 10 -50.5 21.5t-44 28t-31.5 39t-12 54.5q0 37 18 64t46 44t62 25t65 8q40 0 74.5 -9t59 -29t38 -51.5t12.5 -76.5h-63q2 30 -7 51t-25.5 35t-39 20.5t-49.5 6.5q-21 0 -43.5 -4t-41 -13.5t-31 -26.5t-12.5 -44q0 -18 9 -32t24 -25t34.5 -20t41.5 -18q27 -11 56.5 -22.5
t54 -28.5t41 -41t16.5 -60q0 -44 -18.5 -74t-48.5 -48.5t-67 -27t-74 -8.5h-14l-40 -41l2 -2q7 2 14.5 3t21.5 1q30 0 52 -16.5t22 -52.5q0 -21 -10 -36.5t-25.5 -25t-34.5 -14t-37 -4.5q-30 0 -51.5 5.5t-44.5 16.5z" />
    <glyph glyph-name="scommaaccent" unicode="&#x219;" horiz-adv-x="481" 
d="M62 168q0 -38 12.5 -63t33 -40t47 -21t53.5 -6q21 0 44 5.5t42 17t31.5 29.5t12.5 43t-12 42.5t-32 30t-45 22t-50 19.5q-26 10 -50.5 21.5t-44 28t-31.5 39t-12 54.5q0 37 18 64t46 44t62 25t65 8q40 0 74.5 -9t59 -29t38 -51.5t12.5 -76.5h-63q2 30 -7 51t-25.5 35
t-39 20.5t-49.5 6.5q-21 0 -43.5 -4t-41 -13.5t-31 -26.5t-12.5 -44q0 -18 9 -32t24 -25t34.5 -20t41.5 -18q27 -11 56.5 -22.5t54 -28.5t41 -41t16.5 -60q0 -44 -18.5 -74t-48.5 -48.5t-67 -27t-74 -8.5t-73 10.5t-63.5 32.5t-43.5 57t-14 83h63zM228 -50l-17 -80
q-5 -27 -21 -42.5t-34.5 -22.5t-45.5 -8l6 28q16 3 24 7.5t14 11.5t8 15h-39l19 91h86z" />
    <glyph glyph-name="tcaron" unicode="&#x165;" horiz-adv-x="347" 
d="M382 714h81l-112 -144h-49zM43 516h93l33 156h63l-33 -156h103l-10 -53h-105l-71 -331q-4 -18 -5.5 -27.5t-1.5 -21.5q0 -14 7.5 -25t25.5 -11q36 0 74 6l-11 -55q-16 -2 -32 -3t-32 -1q-18 0 -35 3t-30.5 11t-21.5 22.5t-8 37.5q0 8 1.5 22t5.5 31l71 342h-93z" />
    <glyph glyph-name="tcommaaccent" unicode="&#x163;" horiz-adv-x="296" 
d="M43 516h93l33 156h63l-33 -156h103l-10 -53h-105l-71 -331q-4 -18 -5.5 -27.5t-1.5 -21.5q0 -14 7.5 -25t25.5 -11q36 0 74 6l-11 -55q-16 -2 -32 -3t-32 -1q-18 0 -35 3t-30.5 11t-21.5 22.5t-8 37.5q0 8 1.5 22t5.5 31l71 342h-93zM148 -50l-17 -80q-5 -27 -21 -42.5
t-34.5 -22.5t-45.5 -8l6 28q16 3 24 7.5t14 11.5t8 15h-39l19 91h86z" />
    <glyph glyph-name="tbar" unicode="&#x167;" horiz-adv-x="296" 
d="M43 516h93l33 156h63l-33 -156h103l-10 -53h-105l-22 -99h115l-8 -45h-116l-40 -187q-4 -18 -5.5 -27.5t-1.5 -21.5q0 -14 7.5 -25t25.5 -11q36 0 74 6l-11 -55q-16 -2 -32 -3t-32 -1q-18 0 -35 3t-30.5 11t-21.5 22.5t-8 37.5q0 8 1.5 22t5.5 31l41 198h-101l8 45h102
l21 99h-93z" />
    <glyph glyph-name="ugrave" unicode="&#xf9;" horiz-adv-x="537" 
d="M402 0h-58l18 94h-2q-29 -46 -77.5 -77.5t-106.5 -31.5q-34 0 -62.5 8t-49.5 24.5t-32.5 43t-11.5 63.5q0 23 8 61l71 331h63l-72 -333q-3 -12 -5 -25.5t-2 -26.5q0 -26 9 -43.5t24 -28.5t34.5 -16t40.5 -5q34 0 66 15t58.5 42.5t46.5 67t31 88.5l57 265h63zM271 732
l82 -144h-50l-106 144h74z" />
    <glyph glyph-name="uacute" unicode="&#xfa;" horiz-adv-x="537" 
d="M402 0h-58l18 94h-2q-29 -46 -77.5 -77.5t-106.5 -31.5q-34 0 -62.5 8t-49.5 24.5t-32.5 43t-11.5 63.5q0 23 8 61l71 331h63l-72 -333q-3 -12 -5 -25.5t-2 -26.5q0 -26 9 -43.5t24 -28.5t34.5 -16t40.5 -5q34 0 66 15t58.5 42.5t46.5 67t31 88.5l57 265h63zM392 732h81
l-144 -144h-53z" />
    <glyph glyph-name="ucircumflex" unicode="&#xfb;" horiz-adv-x="537" 
d="M402 0h-58l18 94h-2q-29 -46 -77.5 -77.5t-106.5 -31.5q-34 0 -62.5 8t-49.5 24.5t-32.5 43t-11.5 63.5q0 23 8 61l71 331h63l-72 -333q-3 -12 -5 -25.5t-2 -26.5q0 -26 9 -43.5t24 -28.5t34.5 -16t40.5 -5q34 0 66 15t58.5 42.5t46.5 67t31 88.5l57 265h63zM235 588h-61
l136 144h63l86 -144h-57l-66 106z" />
    <glyph glyph-name="utilde" unicode="&#x169;" horiz-adv-x="537" 
d="M402 0h-58l18 94h-2q-29 -46 -77.5 -77.5t-106.5 -31.5q-34 0 -62.5 8t-49.5 24.5t-32.5 43t-11.5 63.5q0 23 8 61l71 331h63l-72 -333q-3 -12 -5 -25.5t-2 -26.5q0 -26 9 -43.5t24 -28.5t34.5 -16t40.5 -5q34 0 66 15t58.5 42.5t46.5 67t31 88.5l57 265h63zM483 711
q-4 -17 -11 -35t-18 -32q-11 -15 -25.5 -24.5t-34.5 -9.5t-39 8.5t-37 18.5q-18 11 -34 20t-30 9q-9 0 -17 -5.5t-14.5 -14t-10.5 -18t-6 -18.5h-41q5 18 12.5 36t18.5 32.5t26 23.5t36 9q19 0 36 -8t34 -18q17 -11 34.5 -20.5t35.5 -9.5q8 0 15 6t13 14.5t10.5 18t6.5 17.5
h40z" />
    <glyph glyph-name="udieresis" unicode="&#xfc;" horiz-adv-x="537" 
d="M402 0h-58l18 94h-2q-29 -46 -77.5 -77.5t-106.5 -31.5q-34 0 -62.5 8t-49.5 24.5t-32.5 43t-11.5 63.5q0 23 8 61l71 331h63l-72 -333q-3 -12 -5 -25.5t-2 -26.5q0 -26 9 -43.5t24 -28.5t34.5 -16t40.5 -5q34 0 66 15t58.5 42.5t46.5 67t31 88.5l57 265h63zM223 711h64
l-20 -102h-63zM382 711h64l-20 -102h-63z" />
    <glyph glyph-name="umacron" unicode="&#x16b;" horiz-adv-x="537" 
d="M402 0h-58l18 94h-2q-29 -46 -77.5 -77.5t-106.5 -31.5q-34 0 -62.5 8t-49.5 24.5t-32.5 43t-11.5 63.5q0 23 8 61l71 331h63l-72 -333q-3 -12 -5 -25.5t-2 -26.5q0 -26 9 -43.5t24 -28.5t34.5 -16t40.5 -5q34 0 66 15t58.5 42.5t46.5 67t31 88.5l57 265h63zM197 638
l8 45h256l-8 -45h-256z" />
    <glyph glyph-name="ubreve" unicode="&#x16d;" horiz-adv-x="537" 
d="M402 0h-58l18 94h-2q-29 -46 -77.5 -77.5t-106.5 -31.5q-34 0 -62.5 8t-49.5 24.5t-32.5 43t-11.5 63.5q0 23 8 61l71 331h63l-72 -333q-3 -12 -5 -25.5t-2 -26.5q0 -26 9 -43.5t24 -28.5t34.5 -16t40.5 -5q34 0 66 15t58.5 42.5t46.5 67t31 88.5l57 265h63zM219 725
q5 -85 90 -85q90 0 118 85h37q-10 -59 -54 -94.5t-104 -35.5q-59 0 -93 36t-32 94h38z" />
    <glyph glyph-name="uring" unicode="&#x16f;" horiz-adv-x="537" 
d="M402 0h-58l18 94h-2q-29 -46 -77.5 -77.5t-106.5 -31.5q-34 0 -62.5 8t-49.5 24.5t-32.5 43t-11.5 63.5q0 23 8 61l71 331h63l-72 -333q-3 -12 -5 -25.5t-2 -26.5q0 -26 9 -43.5t24 -28.5t34.5 -16t40.5 -5q34 0 66 15t58.5 42.5t46.5 67t31 88.5l57 265h63zM324 580
q-20 0 -38 8t-31.5 21.5t-21.5 32t-8 38.5t8 38t21.5 31.5t31.5 21.5t38 8t38.5 -8t32 -21.5t21.5 -31.5t8 -38q0 -42 -29 -71t-71 -29zM324 614q26 0 46 20t20 46q0 13 -5.5 24.5t-14.5 20.5t-21 14.5t-25 5.5q-26 0 -45.5 -19.5t-19.5 -45.5q0 -13 5.5 -25t14.5 -21
t20.5 -14.5t24.5 -5.5z" />
    <glyph glyph-name="uhungarumlaut" unicode="&#x171;" horiz-adv-x="537" 
d="M402 0h-58l18 94h-2q-29 -46 -77.5 -77.5t-106.5 -31.5q-34 0 -62.5 8t-49.5 24.5t-32.5 43t-11.5 63.5q0 23 8 61l71 331h63l-72 -333q-3 -12 -5 -25.5t-2 -26.5q0 -26 9 -43.5t24 -28.5t34.5 -16t40.5 -5q34 0 66 15t58.5 42.5t46.5 67t31 88.5l57 265h63zM477 732h81
l-144 -144h-53zM329 732h81l-144 -144h-53z" />
    <glyph glyph-name="uogonek" unicode="&#x173;" horiz-adv-x="537" 
d="M399 0q-57 -40 -82.5 -73.5t-25.5 -57.5q0 -3 0.5 -7.5t2.5 -8.5t6.5 -7.5t14.5 -3.5q15 0 32.5 11t35.5 34l28 -25q-25 -34 -52 -49.5t-62 -15.5q-37 0 -54 18t-17 43q0 23 12.5 46t31 41t38.5 32t36 23l18 94h-2q-29 -46 -77.5 -77.5t-106.5 -31.5q-34 0 -62.5 8
t-49.5 24.5t-32.5 43t-11.5 63.5q0 23 8 61l71 331h63l-72 -333q-3 -12 -5 -25.5t-2 -26.5q0 -26 9 -43.5t24 -28.5t34.5 -16t40.5 -5q34 0 66 15t58.5 42.5t46.5 67t31 88.5l57 265h63l-111 -516h-3z" />
    <glyph glyph-name="wcircumflex" unicode="&#x175;" horiz-adv-x="741" 
d="M30 516h66l41 -440h2l213 440h74l35 -436h2l219 436h67l-271 -516h-68l-37 433h-2l-212 -433h-69zM313 588h-61l136 144h63l86 -144h-57l-66 106z" />
    <glyph glyph-name="yacute" unicode="&#xfd;" horiz-adv-x="463" 
d="M-43 -135q27 -3 54 -3q29 0 49 18t32 38l47 82l-95 516h66l74 -438h2l238 438h68l-367 -638q-20 -35 -52 -52t-73 -17q-14 0 -27.5 2t-27.5 3zM378 732h81l-144 -144h-53z" />
    <glyph glyph-name="ycircumflex" unicode="&#x177;" horiz-adv-x="463" 
d="M-43 -135q27 -3 54 -3q29 0 49 18t32 38l47 82l-95 516h66l74 -438h2l238 438h68l-367 -638q-20 -35 -52 -52t-73 -17q-14 0 -27.5 2t-27.5 3zM202 588h-61l136 144h63l86 -144h-57l-66 106z" />
    <glyph glyph-name="ydieresis" unicode="&#xff;" horiz-adv-x="463" 
d="M-43 -135q27 -3 54 -3q29 0 49 18t32 38l47 82l-95 516h66l74 -438h2l238 438h68l-367 -638q-20 -35 -52 -52t-73 -17q-14 0 -27.5 2t-27.5 3zM186 711h64l-20 -102h-63zM345 711h64l-20 -102h-63z" />
    <glyph glyph-name="zacute" unicode="&#x17a;" horiz-adv-x="426" 
d="M55 516h388l-11 -50l-401 -413h331l-11 -53h-409l11 51l399 412h-308zM334 732h81l-144 -144h-53z" />
    <glyph glyph-name="zcaron" unicode="&#x17e;" horiz-adv-x="426" 
d="M55 516h388l-11 -50l-401 -413h331l-11 -53h-409l11 51l399 412h-308zM355 732h61l-136 -144h-63l-86 144h57l66 -109z" />
    <glyph glyph-name="zdotaccent" unicode="&#x17c;" horiz-adv-x="426" 
d="M55 516h388l-11 -50l-401 -413h331l-11 -53h-409l11 51l399 412h-308zM237 711h64l-20 -102h-63z" />
    <glyph glyph-name="Ldot" unicode="&#x13f;" horiz-adv-x="537" 
d="M159 714h68l-141 -656h395l-14 -58h-462zM330 517h64l-20 -102h-63z" />
    <glyph glyph-name="ldot" unicode="&#x140;" horiz-adv-x="315" 
d="M143 714h63l-154 -714h-63zM233 517h64l-20 -102h-63z" />
    <glyph glyph-name="estimated" unicode="&#x212e;" horiz-adv-x="600" 
d="M157 259v-181q59 -59 145 -59q63 0 109 28.5t84 91.5l35 -21q-23 -36 -46.5 -61.5t-51 -42t-59.5 -24t-71 -7.5q-59 0 -106.5 21.5t-81.5 59t-52 87.5t-18 108t18 108.5t52 87.5t81.5 58.5t106.5 21.5q58 0 105.5 -20.5t81.5 -57t53 -87t19 -111.5h-404zM448 295v145
q-63 60 -147 60t-144 -60v-145h291z" />
    <glyph glyph-name="afii61289" unicode="&#x2113;" horiz-adv-x="500" 
d="M453 626q0 -45 -21 -91.5t-54.5 -92t-76.5 -88t-88 -78.5q-13 -56 -20.5 -90.5t-11 -54t-4.5 -28t-1 -14.5q0 -17 5 -28.5t13.5 -18.5t18.5 -9.5t19 -2.5q22 0 45 9.5t55 32.5h2l16 -34q-35 -26 -66 -39t-65 -13q-44 0 -72 23t-28 70q0 6 1 14.5t4 25t8.5 44.5t15.5 73
l-71 -62h-2l-17 33l102 84l56 266q18 86 57.5 125t90.5 39q39 0 64 -26.5t25 -68.5zM403 622q0 25 -12 41.5t-32 16.5q-25 0 -47.5 -24t-36.5 -88l-51 -236q27 25 58.5 59.5t58 73t44.5 79t18 78.5z" />
    <glyph glyph-name="exclam" unicode="!" horiz-adv-x="278" 
d="M84 178l53 314l48 222h67l-48 -223l-82 -313h-38zM23 0l23 106h85l-24 -106h-84z" />
    <glyph glyph-name="quotedbl" unicode="&#x22;" horiz-adv-x="370" 
d="M262 714h58v-243h-58v243zM137 714h58v-243h-58v243z" />
    <glyph glyph-name="numbersign" unicode="#" horiz-adv-x="556" 
d="M223 424l-22 -156h141l22 156h-141zM487 223h-101l-31 -223h-50l31 223h-141l-31 -223h-50l31 223h-110l10 45h106l22 156h-110l10 45h106l31 222h50l-31 -222h141l31 222h50l-31 -222h105l-10 -45h-101l-22 -156h105z" />
    <glyph glyph-name="uni00A0" unicode="&#xa0;" horiz-adv-x="278" 
 />
    <glyph glyph-name="Dcroat" unicode="&#x110;" horiz-adv-x="685" 
d="M159 393h213l-10 -45h-213l-63 -290h172q89 -1 152.5 31t104.5 85.5t60 123t19 143.5q0 215 -215 215h-163zM12 393h79l69 321h230q77 0 129 -20.5t84 -58t45.5 -90.5t13.5 -117q0 -84 -25 -161.5t-74.5 -137t-122.5 -94.5t-169 -35h-266l76 348h-79z" />
    <glyph glyph-name="uni021A" unicode="&#x21a;" horiz-adv-x="556" 
d="M81 714h558l-12 -58h-245l-143 -656h-68l143 656h-245zM236 -50l-17 -80q-5 -27 -21 -42.5t-34.5 -22.5t-45.5 -8l6 28q16 3 24 7.5t14 11.5t8 15h-39l19 91h86z" />
    <glyph glyph-name="uni021B" unicode="&#x21b;" horiz-adv-x="296" 
d="M43 516h93l33 156h63l-33 -156h103l-10 -53h-105l-71 -331q-4 -18 -5.5 -27.5t-1.5 -21.5q0 -14 7.5 -25t25.5 -11q36 0 74 6l-11 -55q-16 -2 -32 -3t-32 -1q-18 0 -35 3t-30.5 11t-21.5 22.5t-8 37.5q0 8 1.5 22t5.5 31l71 342h-93zM148 -50l-17 -80q-5 -27 -21 -42.5
t-34.5 -22.5t-45.5 -8l6 28q16 3 24 7.5t14 11.5t8 15h-39l19 91h86z" />
    <glyph glyph-name="grave.cap" 
d="M141 922l82 -144h-50l-106 144h74z" />
    <glyph glyph-name="acute.cap" 
d="M200 922h81l-144 -144h-53z" />
    <glyph glyph-name="circumflex.cap" 
d="M58 778h-61l136 144h63l86 -144h-57l-66 106z" />
    <glyph glyph-name="caron.cap" 
d="M255 922h61l-136 -144h-63l-86 144h57l66 -109z" />
    <glyph glyph-name="caron.alt" 
d="M204 714h81l-112 -144h-49z" />
    <glyph glyph-name="tilde.cap" 
d="M314 901q-4 -17 -11 -35t-18 -32q-11 -15 -25.5 -24.5t-34.5 -9.5t-39 8.5t-37 18.5q-18 11 -34 20t-30 9q-9 0 -17 -5.5t-14.5 -14t-10.5 -18t-6 -18.5h-41q5 18 12.5 36t18.5 32.5t26 23.5t36 9q19 0 36 -8t34 -18q17 -11 34.5 -20.5t35.5 -9.5q7 0 14.5 6t13.5 14.5
t10.5 18t6.5 17.5h40z" />
    <glyph glyph-name="dieresis.cap" 
d="M56 901h64l-20 -102h-63zM215 901h64l-20 -102h-63z" />
    <glyph glyph-name="uni02C9" unicode="&#x2c9;" 
d="M28 638l8 45h256l-8 -45h-256z" />
    <glyph glyph-name="macron.cap" 
d="M28 828l8 45h256l-8 -45h-256z" />
    <glyph glyph-name="breve.cap" 
d="M64 915q4 -85 90 -85q90 0 118 85h37q-10 -59 -54 -94.5t-104 -35.5t-93.5 36t-31.5 94h38z" />
    <glyph glyph-name="ring.cap" 
d="M159 760q-20 0 -38 8t-31.5 21.5t-21.5 32t-8 38.5t8 38t21.5 31.5t31.5 21.5t38 8t38.5 -8t32 -21.5t21.5 -31.5t8 -38q0 -21 -8 -39.5t-21.5 -32t-31.5 -21t-39 -7.5zM159 794q26 0 46 20t20 46q0 13 -5.5 24.5t-14.5 20.5t-21 14.5t-25 5.5q-26 0 -45.5 -19.5
t-19.5 -45.5q0 -13 5.5 -25t14.5 -21t20.5 -14.5t24.5 -5.5z" />
    <glyph glyph-name="hungarumlaut.cap" 
d="M276 922h81l-144 -144h-53zM128 922h81l-144 -144h-53z" />
    <glyph glyph-name="dotaccent.cap" 
d="M136 901h64l-20 -102h-63z" />
    <glyph glyph-name="commaaccent.alt" horiz-adv-x="278" 
d="M101 623l17 80q10 41 36.5 56t64.5 17l-6 -28q-22 -4 -32.5 -12.5t-13.5 -21.5h39l-19 -91h-86z" />
    <glyph glyph-name="uni00AD" unicode="&#xad;" horiz-adv-x="370" 
d="M50 304h251l-12 -58h-251z" />
    <glyph glyph-name="uni2219" unicode="&#x2219;" horiz-adv-x="278" 
d="M71 312q0 23 16.5 39.5t39.5 16.5t39.5 -16.5t16.5 -39.5q0 -21 -16.5 -38.5t-38.5 -17.5q-23 0 -40 16.5t-17 39.5z" />
    <glyph glyph-name="uni2215" unicode="&#x2215;" horiz-adv-x="167" 
d="M279 725h53l-444 -759h-53z" />
    <glyph glyph-name="uni03A9" unicode="&#x3a9;" horiz-adv-x="743" 
d="M700 455q0 -62 -17.5 -114.5t-51 -93.5t-82 -68.5t-109.5 -38.5l-19 -90l198 -1l-11 -49h-247l39 181q18 2 36.5 5.5t35.5 9.5q41 14 72.5 40t52.5 60.5t31.5 74.5t10.5 82q0 49 -16.5 89t-46 67.5t-70 42.5t-89.5 15q-64 0 -119 -26t-95.5 -70t-63.5 -101t-23 -120
q0 -69 36.5 -116t107.5 -54l-39 -180h-240l11 49h187l21 94q-75 23 -110 80t-35 132q0 73 29.5 139.5t79.5 116.5t116 80t139 30q60 0 111.5 -18.5t89 -53t59 -84t21.5 -110.5z" />
    <glyph glyph-name="uni03BC" unicode="&#x3bc;" horiz-adv-x="537" 
d="M402 0h-58l18 94h-2q-29 -46 -77.5 -77.5t-106.5 -31.5q-38 0 -69.5 10t-51.5 31l-45 -217h-61l150 707h63l-72 -333q-3 -12 -5 -25.5t-2 -26.5q0 -26 9 -43.5t24 -28.5t34.5 -16t40.5 -5q34 0 66 15t58.5 42.5t46.5 67t31 88.5l57 265h63z" />
    <glyph glyph-name="uni0394" unicode="&#x394;" horiz-adv-x="668" 
d="M400 646l-358 -589h463zM-57 0l435 712h67l137 -712h-639z" />
    <glyph glyph-name="uniF8FF" unicode="&#xf8ff;" horiz-adv-x="512" 
d="M222 117v67h56v-67h-56zM225 234l-2 17q0 55 13 81t46 59q32 31 41 47.5t9 35.5q0 36 -22.5 60.5t-53.5 24.5t-53.5 -22t-28.5 -73l-50 8q7 71 44 104t91 33q53 0 88.5 -36t35.5 -95q0 -32 -12.5 -58.5t-50.5 -61.5q-37 -33 -43 -52t-6 -72h-46zM462 50v617h-412v-617
h412zM512 718v-718h-512v718h512z" />
    </font>
</defs>
</svg>
